<?xml version="1.0" encoding="UTF-8" standalone="no"?>
<!-- Created with Inkscape (http://www.inkscape.org/) -->

<svg
   width="200.00002mm"
   height="120mm"
   viewBox="0 0 200.00002 120"
   version="1.1"
   id="svg1"
   xml:space="preserve"
   inkscape:version="1.3.2 (091e20e, 2023-11-25, custom)"
   sodipodi:docname="Denshacon.svg"
   xmlns:inkscape="http://www.inkscape.org/namespaces/inkscape"
   xmlns:sodipodi="http://sodipodi.sourceforge.net/DTD/sodipodi-0.dtd"
   xmlns:xlink="http://www.w3.org/1999/xlink"
   xmlns="http://www.w3.org/2000/svg"
   xmlns:svg="http://www.w3.org/2000/svg"
   xmlns:rdf="http://www.w3.org/1999/02/22-rdf-syntax-ns#"
   xmlns:cc="http://creativecommons.org/ns#"
   xmlns:dc="http://purl.org/dc/elements/1.1/"><title
     id="title1">Type 2 Controller</title><sodipodi:namedview
     id="namedview1"
     pagecolor="#ffffff"
     bordercolor="#000000"
     borderopacity="0.25"
     inkscape:showpageshadow="2"
     inkscape:pageopacity="0.0"
     inkscape:pagecheckerboard="0"
     inkscape:deskcolor="#d1d1d1"
     inkscape:document-units="mm"
     inkscape:zoom="7.1664772"
     inkscape:cx="531.99081"
     inkscape:cy="336.49727"
     inkscape:window-width="2482"
     inkscape:window-height="1411"
     inkscape:window-x="69"
     inkscape:window-y="-9"
     inkscape:window-maximized="1"
     inkscape:current-layer="g7"
     showguides="false" /><defs
     id="defs1"><linearGradient
       id="linearGradient39"
       inkscape:collect="always"><stop
         style="stop-color:#666666;stop-opacity:1;"
         offset="0.7477954"
         id="stop39" /><stop
         style="stop-color:#666666;stop-opacity:0;"
         offset="1"
         id="stop40" /></linearGradient><inkscape:path-effect
       effect="mirror_symmetry"
       start_point="180.74,-105.1972"
       end_point="184.21588,-105.1972"
       center_point="182.47902,-105.1972"
       id="path-effect33"
       is_visible="false"
       lpeversion="1.2"
       lpesatellites=""
       mode="Y"
       discard_orig_path="false"
       fuse_paths="false"
       oposite_fuse="false"
       split_items="false"
       split_open="false"
       link_styles="false" /><linearGradient
       inkscape:collect="always"
       xlink:href="#linearGradient39"
       id="linearGradient40"
       x1="46.533691"
       y1="146.28764"
       x2="46.533691"
       y2="173.17691"
       gradientUnits="userSpaceOnUse" /><linearGradient
       inkscape:collect="always"
       xlink:href="#linearGradient39"
       id="linearGradient42"
       x1="162.82559"
       y1="142.98795"
       x2="162.82559"
       y2="175.04622"
       gradientUnits="userSpaceOnUse" /></defs><g
     inkscape:label="tcp20009_by_joestringer"
     inkscape:groupmode="layer"
     id="layer1"
     style="display:inline"
     transform="translate(-14.730397,-129.73416)"><rect
       style="display:inline;opacity:1;fill:#cccccc;stroke:#000000;stroke-width:1.32291667;stroke-dasharray:none;stroke-opacity:1"
       id="rect8"
       width="198.70416"
       height="118.70415"
       x="15.378322"
       y="130.38208"
       ry="3.3627264"
       rx="2.4717953"
       sodipodi:insensitive="true"
       inkscape:label="border" /><g
       id="g16"
       inkscape:label="power"
       style="opacity:1"
       transform="matrix(1.0749636,0,0,1.0749636,2.8271683,-1.097153)"><path
         style="display:inline;opacity:1;fill:#999999;fill-opacity:1;stroke:#333333;stroke-width:0.79375;stroke-dasharray:none;stroke-opacity:1"
         d="m 21.710526,187.33082 h 50.616542 v -39.14097 c -0.545356,-1.23253 -1.149028,-1.87297 -2.363745,-1.86609 H 24.067669 c -1.241417,-0.0562 -1.838016,0.47327 -2.417781,1.57497 z"
         id="path39"
         sodipodi:nodetypes="ccccccc"
         inkscape:label="border" /><path
         style="display:inline;opacity:1;fill:url(#linearGradient40);stroke:none;stroke-width:0.646515;stroke-dasharray:none;stroke-opacity:1"
         d="m 21.637089,173.375 h 50.763593 v -25.89173 c -0.546941,-0.81532 -1.152367,-1.23897 -2.370613,-1.23442 H 24.00108 c -1.245024,-0.0372 -1.843356,0.31307 -2.424805,1.04184 z"
         id="path37"
         sodipodi:nodetypes="ccccccc"
         inkscape:label="border_shadow" /><path
         style="display:inline;opacity:1;fill:none;fill-opacity:1;stroke:#333333;stroke-width:0.79375;stroke-dasharray:none;stroke-opacity:1"
         d="m 21.710526,187.33082 h 50.616542 v -39.14097 c -0.545356,-1.23253 -1.149028,-1.87297 -2.363745,-1.86609 H 24.067669 c -1.241417,-0.0562 -1.838016,0.47327 -2.417781,1.57497 z"
         id="path16"
         sodipodi:nodetypes="ccccccc"
         inkscape:label="border" /><path
         style="display:inline;fill:#666666;stroke:#333333;stroke-width:0.79375;stroke-dasharray:none;stroke-opacity:1"
         d="m 40.879278,186.63233 h 12.193603 v -20.00102 c -4.137846,-2.90386 -7.940379,-2.80881 -11.974292,0 z"
         id="path13"
         sodipodi:nodetypes="ccccc"
         inkscape:label="ravine" /><rect
         style="display:inline;fill:#999999;fill-opacity:1;stroke:#4d4d4d;stroke-width:0.79375;stroke-dasharray:none;stroke-opacity:1"
         id="rect10"
         width="6.8853369"
         height="19.539476"
         x="43.545109"
         y="158.54887"
         rx="2.2330909"
         ry="2.481205"
         inkscape:label="stem" /><path
         id="path17"
         style="display:inline;fill:#0000ff;fill-opacity:1;stroke:#1a1a1a;stroke-width:0.264583;stroke-dasharray:none;stroke-opacity:1"
         d="m 29.537215,171.85101 v 11.00915 h -3.395658 l 5.307169,4.21059 5.263762,-4.21059 h -3.402893 v -11.00915 z"
         inkscape:label="arrow" /><path
         id="rect9"
         style="fill:#333333;stroke:#000000;stroke-width:0.79375;stroke-dasharray:none;stroke-opacity:1"
         d="m 30.891138,141.42858 c -0.756026,0 -1.364775,0.60875 -1.364775,1.36477 v 9.42837 c 0,0.75602 0.608749,1.36477 1.364775,1.36477 h 11.041186 v 7.00939 c 0,0.75602 0.608749,1.36478 1.364775,1.36478 h 7.505485 c 0.756025,0 1.364774,-0.60876 1.364774,-1.36478 v -7.00939 h 10.731128 c 0.756026,0 1.364775,-0.60875 1.364775,-1.36477 v -9.42837 c 0,-0.75602 -0.608749,-1.36477 -1.364775,-1.36477 z"
         inkscape:label="handle" /></g><path
       style="display:inline;fill:none;fill-opacity:0.501961;stroke:#000000;stroke-width:0.831196;stroke-dasharray:none;stroke-opacity:1"
       d="m 15.332463,197.24498 c 0.20486,2.09786 1.341845,3.11966 3.479134,3.0383 H 209.9763 c 3.17128,0.0641 3.57674,-1.50735 3.75453,-3.26047"
       id="path48"
       sodipodi:nodetypes="cccc"
       inkscape:label="border_upper" /><g
       id="g43"
       inkscape:label="shadows"
       transform="translate(14.730233,119.15059)"><path
         style="display:inline;fill:#4d4d4d;fill-opacity:0.501961;stroke:#4d4d4d;stroke-width:0.278647;stroke-dasharray:none;stroke-opacity:1"
         d="M 3.196862,17.718475 H 196.80314"
         id="path43-1"
         inkscape:label="fs_top" /><g
         id="g1"
         inkscape:label="timekeep"
         style="display:inline"
         transform="matrix(0.97520481,0,0,0.97520481,-0.12816683,-102.8647)"><path
           id="path45"
           style="display:inline;fill:none;fill-opacity:0.501961;stroke:#999999;stroke-width:0.526288;stroke-dasharray:none;stroke-opacity:1"
           d="m 84.696199,12.779403 c -1.040148,0 -1.877547,0.763873 -1.877547,1.712759 v 4.190663 A 18.951257,14.249963 0 0 0 71.532696,31.694892 18.951257,14.249963 0 0 0 90.483883,45.944888 18.951257,14.249963 0 0 0 109.43507,31.694892 18.951257,14.249963 0 0 0 97.82301,18.56118 v -4.069018 c 0,-0.948886 -0.837399,-1.712759 -1.877547,-1.712759 z"
           inkscape:label="tk"
           transform="translate(14.730233,129.73399)" /><path
           style="fill:none;fill-opacity:0.501961;stroke:#999999;stroke-width:0.264583;stroke-dasharray:none;stroke-opacity:1"
           d="m 112.15814,148.94807 c 7.79811,2.93516 10.88241,7.26701 11.17341,12.4265"
           id="path49"
           sodipodi:nodetypes="cc"
           inkscape:label="tk_r" /><path
           style="display:inline;fill:none;fill-opacity:0.501961;stroke:#999999;stroke-width:0.264583;stroke-dasharray:none;stroke-opacity:1"
           d="m 90.503652,168.92007 c -4.823379,-2.91667 -6.160416,-15.12743 7.100859,-19.7362"
           id="path49-9"
           sodipodi:nodetypes="cc"
           inkscape:label="tk_l" /></g></g><g
       id="g20"
       inkscape:label="brake"
       style="display:inline"
       transform="matrix(1.0947959,0,0,1.0947959,-1.1509295,-1.1351984)"><path
         style="display:inline;opacity:1;fill:#999999;fill-opacity:1;stroke:#333333;stroke-width:0.704012;stroke-dasharray:none;stroke-opacity:1"
         d="m 138.01273,173.00031 c -0.044,1.28702 0.96849,2.26687 2.04719,2.32007 l 46.34421,-0.13661 c 1.15452,-0.0311 2.10013,-1.36354 2.09591,-2.60108 l -0.0878,-27.86856 c -0.19132,-1.16107 -0.70366,-1.85355 -2.08646,-1.89451 h -45.83867 c -1.23395,-0.0444 -2.44079,0.9314 -2.44707,2.36014 z"
         id="path16-9"
         sodipodi:nodetypes="ccccccccc"
         inkscape:label="border_fill" /><path
         style="display:inline;opacity:1;fill:url(#linearGradient42);stroke:#333333;stroke-width:0.529167;stroke-dasharray:none;stroke-opacity:1"
         d="m 138.01273,173.00031 c -0.044,1.28702 0.96849,2.26687 2.04719,2.32007 l 46.34421,-0.13661 c 1.15452,-0.0311 2.10013,-1.36354 2.09591,-2.60108 l -0.0878,-27.86856 c -0.19132,-1.16107 -0.70366,-1.85355 -2.08646,-1.89451 h -45.83867 c -1.23395,-0.0444 -2.44079,0.9314 -2.44707,2.36014 z"
         id="path40"
         sodipodi:nodetypes="ccccccccc"
         inkscape:label="border_sh" /><path
         style="display:inline;opacity:1;fill:none;fill-opacity:1;stroke:#333333;stroke-width:0.79375;stroke-dasharray:none;stroke-opacity:1"
         d="m 138.01273,173.00031 c -0.044,1.28702 0.96849,2.26687 2.04719,2.32007 l 46.34421,-0.13661 c 1.15452,-0.0311 2.10013,-1.36354 2.09591,-2.60108 l -0.0878,-27.86856 c -0.19132,-1.16107 -0.70366,-1.85355 -2.08646,-1.89451 h -45.83867 c -1.23395,-0.0444 -2.44079,0.9314 -2.44707,2.36014 z"
         id="path41"
         sodipodi:nodetypes="ccccccccc"
         inkscape:label="border" /><g
         id="g28"
         inkscape:label="markers"><path
           style="display:inline;opacity:1;fill:#0000ff;fill-opacity:1;stroke:#0000ff;stroke-width:0.674502;stroke-dasharray:none;stroke-opacity:1"
           d="m 160.92386,170.29778 c 0.36836,-1.16373 0.15004,-2.52386 0.0401,-3.4375 2.06432,1.04647 4.19627,2.00761 5.39915,1.93021 -2.28058,0.9407 -4.09442,1.44383 -5.43928,1.50729 z"
           id="path23"
           sodipodi:nodetypes="cccc"
           inkscape:label="rel_max" /><path
           style="display:inline;opacity:1;fill:#0000ff;fill-opacity:1;stroke:#0000ff;stroke-width:0.717943;stroke-dasharray:none;stroke-opacity:1"
           d="m 150.7478,164.65023 c 0.97044,-0.60694 2.23468,-1.10785 3.49591,-1.33866 l -3.00302,-2.0967 z"
           id="path24"
           inkscape:label="rel_min"
           sodipodi:nodetypes="cccc" /><path
           style="display:inline;fill:none;fill-opacity:1;stroke:#0000ff;stroke-width:1.28937;stroke-dasharray:none;stroke-opacity:1"
           d="m 152.35859,163.85962 c 1.31064,1.69655 3.97173,4.35096 8.65396,5.02183"
           id="path25"
           sodipodi:nodetypes="cc"
           inkscape:label="rel" /><path
           style="display:inline;fill:#800000;fill-opacity:1;stroke:#800000;stroke-width:0.529167;stroke-dasharray:none;stroke-opacity:1"
           d="m 169.87708,164.96455 c 1.02261,1.23231 2.14566,1.96242 3.33351,2.36855 -1.76916,1.10603 -3.69191,1.62689 -6.11874,1.40358 2.3133,-0.84637 2.61315,-2.63011 2.78523,-3.77213 z"
           id="path26"
           sodipodi:nodetypes="cccc"
           inkscape:label="inc_min" /><path
           style="display:inline;opacity:1;fill:#800000;fill-opacity:1;stroke:#800000;stroke-width:0.529167;stroke-dasharray:none;stroke-opacity:1"
           d="m 173.88512,160.74785 c 2.09974,0.28795 2.84231,1.06942 4.12835,1.65326 -0.37347,-1.44412 -0.39013,-2.41578 -1.40359,-3.9939 -1.15179,1.03969 -1.69064,1.77205 -2.72476,2.34064 z"
           id="path27"
           sodipodi:nodetypes="cccc"
           inkscape:label="inc_max" /><path
           style="display:inline;fill:#800000;fill-opacity:1;stroke:#800000;stroke-width:1.28937;stroke-dasharray:none;stroke-opacity:1"
           d="m 176.28525,160.26295 c -0.93009,3.29635 -2.56819,4.47204 -4.89936,6.33768"
           id="path28"
           sodipodi:nodetypes="cc"
           inkscape:label="inc" /></g><path
         style="display:inline;fill:#0000ff;fill-opacity:1;stroke:#0000ff;stroke-width:0.906406;stroke-dasharray:none;stroke-opacity:1"
         d="m 173.56148,158.03438 h 7.14949"
         id="path22"
         inkscape:label="eb" /><path
         style="display:inline;fill:#0000ff;fill-opacity:1;stroke:#0000ff;stroke-width:0.79375;stroke-dasharray:none;stroke-opacity:1"
         d="m 165.53476,165.4909 2.01764,5.52659"
         id="path21"
         inkscape:label="hold" /><path
         id="path19"
         style="display:inline;opacity:1;fill:#666666;stroke:#1a1a1a;stroke-width:0.799682"
         inkscape:label="body"
         d="m 175.18143,157.19001 c -2.19078,2.49491 -6.08848,8.21017 -11.48885,8.21017 -5.40037,0 -9.77823,-3.57763 -9.77823,-7.99086 -1e-5,-4.41323 4.37786,-7.99087 9.77823,-7.99087 2.99999,0 9.87325,1.67425 11.66694,3.41228 1.43519,1.39065 0.66364,3.40071 -0.17809,4.35928 z"
         sodipodi:nodetypes="ssssss" /><path
         style="display:inline;opacity:1;fill:#333333;fill-opacity:1;stroke:#1a1a1a;stroke-width:0.79375;stroke-dasharray:none;stroke-opacity:1"
         d="m 158.78003,160.09588 -57.63452,16.2289 c -2.461202,0.29247 -6.873638,1.6867 -11.930432,0.87724 -1.557762,-0.4299 -2.719996,-2.05059 -2.631715,-3.07033 0.276372,-1.4134 2.225948,-3.50812 5.702046,-4.56164 11.500751,-3.08575 43.657191,-8.88935 65.485791,-13.33402 z"
         id="path18"
         sodipodi:nodetypes="ccccccc"
         inkscape:label="brake_handle" /><path
         style="opacity:1;fill:#333333;fill-opacity:1;stroke:#1a1a1a;stroke-width:0.79375;stroke-dasharray:none;stroke-opacity:1"
         d="m 161.10471,152.0253 c 1.24275,-0.32896 3.84377,-0.65159 12.01816,0 1.11339,0.27909 2.26824,0.3094 3.15805,1.92992 0.32116,0.81404 0.11692,1.87632 -1.05269,3.11419 -3.85353,3.25341 -5.31641,3.72914 -6.84245,4.64936 -1.99873,0.99976 -3.34755,1.27705 -4.78095,1.40358 -1.64109,0.13745 -3.36921,0.0991 -5.1757,-1.40358 -1.67899,-1.27165 -2.06446,-2.73241 -2.12619,-3.78142 -0.0364,-1.08668 0.42075,-2.60847 1.4913,-3.77213 0.8033,-0.92345 1.88521,-1.79442 3.31047,-2.13992 z"
         id="path20"
         inkscape:label="connector"
         sodipodi:nodetypes="cccccccccc" /><path
         style="display:inline;fill:none;fill-opacity:0.501961;stroke:#404040;stroke-width:0.264583;stroke-dasharray:none;stroke-opacity:1"
         d="m 179.78875,153.65874 c 3.35604,1.1188 4.29157,4.87361 2.1006,7.1452"
         id="path50"
         sodipodi:nodetypes="cc"
         inkscape:label="ctl_sh"
         transform="translate(-15.358546,-0.44303482)" /></g><g
       id="g3"
       inkscape:label="ss"
       style="display:inline"
       transform="translate(9.7321176,19.581683)"><text
         class="cls-27"
         transform="scale(0.99498745,1.0050378)"
         id="text28"
         style="font-style:normal;font-variant:normal;font-weight:normal;font-stretch:normal;font-size:4.93889px;font-family:Roboto-Black, Roboto;-inkscape-font-specification:'Roboto-Black, Roboto, ';font-variant-ligatures:normal;font-variant-caps:normal;font-variant-numeric:normal;font-variant-east-asian:normal;stroke-width:0.382861"
         x="86.761032"
         y="211.60985"
         inkscape:label="txt_select"><tspan
           x="86.761032"
           y="211.60985"
           id="tspan26"
           style="font-style:normal;font-variant:normal;font-weight:normal;font-stretch:normal;font-size:4.93889px;font-family:Roboto-Black, Roboto;-inkscape-font-specification:'Roboto-Black, Roboto, ';font-variant-ligatures:normal;font-variant-caps:normal;font-variant-numeric:normal;font-variant-east-asian:normal;stroke-width:0.382861">SELE</tspan><tspan
           class="cls-20"
           x="98.354073"
           y="211.60985"
           id="tspan27"
           style="font-style:normal;font-variant:normal;font-weight:normal;font-stretch:normal;font-size:4.93889px;font-family:Roboto-Black, Roboto;-inkscape-font-specification:'Roboto-Black, Roboto, ';font-variant-ligatures:normal;font-variant-caps:normal;font-variant-numeric:normal;font-variant-east-asian:normal;stroke-width:0.382861">C</tspan><tspan
           class="cls-28"
           x="101.60841"
           y="211.60985"
           id="tspan28"
           style="font-style:normal;font-variant:normal;font-weight:normal;font-stretch:normal;font-size:4.93889px;font-family:Roboto-Black, Roboto;-inkscape-font-specification:'Roboto-Black, Roboto, ';font-variant-ligatures:normal;font-variant-caps:normal;font-variant-numeric:normal;font-variant-east-asian:normal;stroke-width:0.382861">T</tspan></text><text
         class="cls-27"
         transform="scale(0.99498745,1.0050378)"
         id="text33"
         style="font-style:normal;font-variant:normal;font-weight:normal;font-stretch:normal;font-size:4.93889px;font-family:Roboto-Black, Roboto;-inkscape-font-specification:'Roboto-Black, Roboto, ';font-variant-ligatures:normal;font-variant-caps:normal;font-variant-numeric:normal;font-variant-east-asian:normal;stroke-width:0.375524"
         x="108.02876"
         y="211.50873"
         inkscape:label="txt_start"><tspan
           x="108.02876"
           y="211.50873"
           id="tspan29"
           style="font-style:normal;font-variant:normal;font-weight:normal;font-stretch:normal;font-size:4.93889px;font-family:Roboto-Black, Roboto;-inkscape-font-specification:'Roboto-Black, Roboto, ';font-variant-ligatures:normal;font-variant-caps:normal;font-variant-numeric:normal;font-variant-east-asian:normal;stroke-width:0.375524">S</tspan><tspan
           class="cls-19"
           x="111.14184"
           y="211.50873"
           id="tspan30"
           style="font-style:normal;font-variant:normal;font-weight:normal;font-stretch:normal;font-size:4.93889px;font-family:Roboto-Black, Roboto;-inkscape-font-specification:'Roboto-Black, Roboto, ';font-variant-ligatures:normal;font-variant-caps:normal;font-variant-numeric:normal;font-variant-east-asian:normal;stroke-width:0.375524">T</tspan><tspan
           class="cls-23"
           x="113.98456"
           y="211.50873"
           id="tspan31"
           style="font-style:normal;font-variant:normal;font-weight:normal;font-stretch:normal;font-size:4.93889px;font-family:Roboto-Black, Roboto;-inkscape-font-specification:'Roboto-Black, Roboto, ';font-variant-ligatures:normal;font-variant-caps:normal;font-variant-numeric:normal;font-variant-east-asian:normal;stroke-width:0.375524">A</tspan><tspan
           class="cls-18"
           x="117.3718"
           y="211.50873"
           id="tspan32"
           style="font-style:normal;font-variant:normal;font-weight:normal;font-stretch:normal;font-size:4.93889px;font-family:Roboto-Black, Roboto;-inkscape-font-specification:'Roboto-Black, Roboto, ';font-variant-ligatures:normal;font-variant-caps:normal;font-variant-numeric:normal;font-variant-east-asian:normal;stroke-width:0.375524">R</tspan><tspan
           class="cls-28"
           x="120.49239"
           y="211.50873"
           id="tspan33"
           style="font-style:normal;font-variant:normal;font-weight:normal;font-stretch:normal;font-size:4.93889px;font-family:Roboto-Black, Roboto;-inkscape-font-specification:'Roboto-Black, Roboto, ';font-variant-ligatures:normal;font-variant-caps:normal;font-variant-numeric:normal;font-variant-east-asian:normal;stroke-width:0.375524">T</tspan></text><rect
         style="fill:#4d4d4d;stroke:#333333;stroke-width:0.79375;stroke-dasharray:none;stroke-opacity:1"
         id="rect2"
         width="10.209321"
         height="3.8489354"
         x="90.125572"
         y="201.83232"
         inkscape:label="sh_select" /><path
         style="display:inline;fill:#4d4d4d;stroke:#333333;stroke-width:0.79375;stroke-dasharray:none;stroke-opacity:1"
         d="m 110.18332,201.88593 0.035,3.77756 c 5.822,-0.47825 10.04874,-1.60399 10.06293,-1.93142 0.0128,-0.31427 -4.38631,-1.38409 -10.0978,-1.84614 z"
         id="path3-6-2-9-6-9-5-9"
         sodipodi:nodetypes="ccscc"
         inkscape:label="sh_start" /><path
         style="display:inline;fill:none;fill-opacity:0.501961;stroke:#999999;stroke-width:0.264583;stroke-dasharray:none;stroke-opacity:1"
         d="m 79.098331,117.73561 v -6.9573 c -0.04952,-0.48206 0.234277,-0.57526 0.598754,-0.57433 h 41.341895"
         id="path44"
         sodipodi:nodetypes="cccc"
         inkscape:label="fs_ss"
         transform="translate(4.612952,90.046471)" /></g><g
       id="g7"
       inkscape:label="buttons"
       style="display:inline"
       transform="translate(-1.0442434,19.581683)"><circle
         style="fill:#4d4d4d;stroke:#333333;stroke-width:0.79375;stroke-dasharray:none;stroke-opacity:1"
         id="path2"
         cx="166.8609"
         cy="196.26317"
         r="4.7142854"
         inkscape:label="sh_d" /><circle
         style="fill:#4d4d4d;stroke:#333333;stroke-width:0.79375;stroke-dasharray:none;stroke-opacity:1"
         id="path2-7"
         cx="176.50002"
         cy="203.75679"
         r="4.7142854"
         inkscape:label="sh_c" /><circle
         style="fill:#4d4d4d;stroke:#333333;stroke-width:0.79375;stroke-dasharray:none;stroke-opacity:1"
         id="path2-2"
         cx="157.18837"
         cy="203.75679"
         r="4.7142854"
         inkscape:label="sh_a" /><circle
         style="fill:#4d4d4d;stroke:#333333;stroke-width:0.79375;stroke-dasharray:none;stroke-opacity:1"
         id="path2-1"
         cx="166.8609"
         cy="211.18393"
         r="4.7142854"
         inkscape:label="sh_b" /><text
         class="cls-27"
         transform="scale(0.99498745,1.0050378)"
         id="text33-3-0"
         style="font-style:normal;font-variant:normal;font-weight:normal;font-stretch:normal;font-size:6.35px;font-family:Roboto-Black, Roboto;-inkscape-font-specification:'Roboto-Black, Roboto, Normal';font-variant-ligatures:normal;font-variant-caps:normal;font-variant-numeric:normal;font-variant-east-asian:normal;stroke-width:0.375524"
         x="165.64117"
         y="212.3923"
         inkscape:label="txt_b"><tspan
           sodipodi:role="line"
           id="tspan7"
           x="165.64117"
           y="212.3923">B</tspan></text><text
         class="cls-27"
         transform="scale(0.99498745,1.0050378)"
         id="text33-3"
         style="font-style:normal;font-variant:normal;font-weight:normal;font-stretch:normal;font-size:6.35px;font-family:Roboto-Black, Roboto;-inkscape-font-specification:'Roboto-Black, Roboto, Normal';font-variant-ligatures:normal;font-variant-caps:normal;font-variant-numeric:normal;font-variant-east-asian:normal;stroke-width:0.375524"
         x="155.95461"
         y="205.01192"
         inkscape:label="txt_a"><tspan
           sodipodi:role="line"
           id="tspan3"
           x="155.95461"
           y="205.01192">A</tspan></text><text
         class="cls-27"
         transform="scale(0.99498745,1.0050378)"
         id="text4"
         style="font-style:normal;font-variant:normal;font-weight:normal;font-stretch:normal;font-size:6.35px;font-family:Roboto-Black, Roboto;-inkscape-font-specification:'Roboto-Black, Roboto, Normal';font-variant-ligatures:normal;font-variant-caps:normal;font-variant-numeric:normal;font-variant-east-asian:normal;stroke-width:0.375524"
         x="175.28734"
         y="205.0024"
         inkscape:label="txt_c"><tspan
           sodipodi:role="line"
           id="tspan6"
           x="175.28734"
           y="205.0024">C</tspan></text><text
         class="cls-27"
         transform="scale(0.99498745,1.0050378)"
         id="text5"
         style="font-style:normal;font-variant:normal;font-weight:normal;font-stretch:normal;font-size:6.35px;font-family:Roboto-Black, Roboto;-inkscape-font-specification:'Roboto-Black, Roboto, Normal';font-variant-ligatures:normal;font-variant-caps:normal;font-variant-numeric:normal;font-variant-east-asian:normal;stroke-width:0.375524"
         x="165.54506"
         y="197.54634"
         inkscape:label="txt_d"><tspan
           sodipodi:role="line"
           id="tspan5"
           x="165.54506"
           y="197.54634">D</tspan></text><path
         style="display:inline;fill:none;fill-opacity:0.501961;stroke:#999999;stroke-width:0.255459;stroke-dasharray:none;stroke-opacity:1"
         d="m 144.52238,107.65114 v -2.58273 c 0,-2.00996 2.93919,-5.201467 5.45442,-5.201467 l 4.65322,0.0344"
         id="path44-3-9"
         sodipodi:nodetypes="cccc"
         inkscape:label="fs_d"
         transform="translate(14.730233,90.046471)" /><path
         style="display:inline;fill:none;fill-opacity:0.501961;stroke:#999999;stroke-width:0.264583;stroke-dasharray:none;stroke-opacity:1"
         d="m 134.61035,116.13831 v -2.77208 c 0,-2.15731 2.86297,-5.5828 5.31297,-5.5828 l 4.53254,0.0369"
         id="path44-3-9-9"
         sodipodi:nodetypes="cccc"
         inkscape:label="fs_a"
         transform="translate(14.730233,90.046471)" /></g><g
       id="g8"
       inkscape:label="dpad"
       style="display:inline"
       transform="translate(-1.0442434,19.581683)"><path
         style="display:inline;fill:#4d4d4d;stroke:#333333;stroke-width:0.79375;stroke-dasharray:none;stroke-opacity:1"
         d="m 70.889418,201.79076 0.02452,4.65124 c 4.003024,0 7.047678,-1.97496 7.057631,-2.37814 0.0092,-0.38694 -3.07633,-2.24778 -7.082098,-2.2731 z"
         id="path3-6-2-9-6-9-5"
         sodipodi:nodetypes="ccscc"
         inkscape:label="dpad-right" /><path
         style="display:inline;fill:#4d4d4d;stroke:#333333;stroke-width:0.79375;stroke-dasharray:none;stroke-opacity:1"
         d="m 61.842931,206.442 -0.02452,-4.65124 c -4.003024,0 -7.047678,1.97496 -7.057631,2.37814 -0.0092,0.38693 3.07633,2.24778 7.082098,2.2731 z"
         id="path3-6-2-9-6-9-5-6"
         sodipodi:nodetypes="ccscc"
         inkscape:label="dpad-left" /><path
         style="fill:#4d4d4d;stroke:#333333;stroke-width:0.79375;stroke-dasharray:none;stroke-opacity:1"
         d="m 69.527327,208.20625 -5.579555,0.0185 c 0,3.02032 2.369132,5.31754 2.852782,5.32505 0.464147,0.007 2.696405,-2.32112 2.726773,-5.34351 z"
         id="path3-6-2-9-6"
         sodipodi:nodetypes="ccscc"
         inkscape:label="dpad-down" /><path
         style="display:inline;fill:#4d4d4d;stroke:#333333;stroke-width:0.79375;stroke-dasharray:none;stroke-opacity:1"
         d="m 63.947772,200.32786 5.579555,-0.0185 c 0,-3.02032 -2.369132,-5.31754 -2.852782,-5.32505 -0.464147,-0.007 -2.696405,2.32112 -2.726773,5.34351 z"
         id="path3-6-2-9-6-9"
         sodipodi:nodetypes="ccscc"
         inkscape:label="dpad-up" /><path
         style="display:inline;fill:none;fill-opacity:0.501961;stroke:#999999;stroke-width:0.264583;stroke-dasharray:none;stroke-opacity:1"
         d="m 37.752409,117.23364 v -6.54254 c -0.01047,-0.45332 0.04951,-0.54097 0.126534,-0.54009 h 8.736619"
         id="path44-3-0"
         sodipodi:nodetypes="cccc"
         inkscape:label="fs_left"
         transform="translate(14.730233,90.046471)" /><path
         style="display:inline;fill:none;fill-opacity:0.501961;stroke:#999999;stroke-width:0.264583;stroke-dasharray:none;stroke-opacity:1"
         d="m 46.679259,110.09203 v -6.15373 c -0.01237,-0.42638 0.05853,-0.50882 0.149591,-0.50799 h 10.328698"
         id="path44-3"
         sodipodi:nodetypes="cccc"
         inkscape:label="fs_up"
         transform="translate(14.730233,90.046471)" /></g></g><metadata
     id="metadata1"><rdf:RDF><cc:Work
         rdf:about=""><dc:title>Type 2 Controller</dc:title></cc:Work></rdf:RDF></metadata></svg>
