<?xml version="1.0" encoding="utf-8"?>
<!-- Generator: Adobe Illustrator 26.5.0, SVG Export Plug-In . SVG Version: 6.00 Build 0)  -->
<svg version="1.1" id="PCSX2_-_Driving_Force" xmlns="http://www.w3.org/2000/svg" xmlns:xlink="http://www.w3.org/1999/xlink"
	 x="0px" y="0px" viewBox="0 0 720 498.1" style="enable-background:new 0 0 720 498.1;" xml:space="preserve">
<style type="text/css">
	.st0{fill:#949494;stroke:#000000;stroke-width:2;stroke-miterlimit:10;}
	.st1{fill:#333333;stroke:#000000;stroke-width:2;stroke-miterlimit:10;}
	.st2{fill:none;stroke:#000000;stroke-width:4;stroke-miterlimit:10;}
	.st3{fill:#404040;stroke:#000000;stroke-width:2;stroke-miterlimit:10;}
	.st4{stroke:#000000;stroke-miterlimit:10;}
	.st5{fill:#5F5F5F;stroke:#000000;stroke-width:5;stroke-miterlimit:10;}
	.st6{fill:#8C8C8C;stroke:#000000;stroke-width:2;stroke-miterlimit:10;}
	.st7{fill:none;stroke:#1A1A1A;stroke-miterlimit:10;}
	.st8{fill:none;stroke:#000000;stroke-miterlimit:10;}
	.st9{fill:none;stroke:#666666;stroke-width:3;stroke-miterlimit:10;}
	.st10{stroke:#000000;stroke-width:3.33;stroke-linecap:round;stroke-linejoin:round;}
	.st11{fill-rule:evenodd;clip-rule:evenodd;stroke:#000000;stroke-width:3.33;stroke-linecap:round;stroke-linejoin:round;}
	.st12{stroke:#000000;stroke-width:3.3299;stroke-linecap:round;stroke-linejoin:round;stroke-miterlimit:3.9999;}
	.st13{fill:none;stroke:#6FB5E3;stroke-width:3;stroke-linecap:round;stroke-linejoin:round;}
	.st14{fill:none;stroke:#7ACCC2;stroke-width:3;stroke-linecap:round;stroke-linejoin:round;}
	.st15{fill:none;stroke:#FF5B61;stroke-width:2.9998;stroke-linecap:round;stroke-linejoin:round;stroke-miterlimit:3.9998;}
	.st16{fill:none;stroke:#F388AA;stroke-width:3;stroke-linecap:round;stroke-linejoin:round;}
	.st17{fill:#333333;}
	.st18{stroke:#808080;stroke-miterlimit:10;}
	.st19{fill:#404040;}
	.st20{fill:#FFFFFF;}
	.st21{fill:#D9D9D9;stroke:#000000;stroke-miterlimit:10;}
	.st22{fill:#B3B3B3;}
</style>
<g id="My_Maxihplay">
	<g id="acelerador">
		<path class="st0" d="M715.8,327.6c0-3.2-2.6-5.9-5.9-6l-61.1-2.2c-3.3-0.1-6.1,2.4-6.3,5.7l-3.7,57.2l-7.6,8.2
			c-1.3,1.4-2,3.2-1.9,5.1l2.1,93.2c0.1,3,2.5,5.4,5.5,5.6l67.5-0.2c2.4,0.1,4.6-1.3,5.5-3.5l7.4-15.2L715.8,327.6L715.8,327.6z
			 M709.2,373.1c-0.2,6.2-5.4,11-11.6,10.8s-11-5.4-10.8-11.6s5.4-11,11.6-10.8S709.3,367,709.2,373.1z M653.8,406.3
			c6.8,0.2,12.2,6,11.9,12.8s-6,12.2-12.8,11.9s-12.2-6-11.9-12.8S647,406,653.8,406.3z M652.3,465.7c-7.4-0.3-13.2-6.5-13-13.9
			s6.5-13.2,13.9-13s13.2,6.5,13,13.9S659.8,465.9,652.3,465.7z M658,382.5c-6.2-0.2-11-5.4-10.8-11.6s5.4-11,11.6-10.8
			s11,5.4,10.8,11.6S664.2,382.7,658,382.5z M660.3,353.2c-6.2-0.2-11-5.4-10.8-11.6s5.4-11,11.6-10.8s11,5.4,10.8,11.6
			S666.5,353.4,660.3,353.2z M697.8,332.2c6.2,0.2,11,5.4,10.8,11.6s-5.4,11-11.6,10.8s-11-5.4-10.8-11.6S691.5,331.9,697.8,332.2z
			 M692.2,406.8c6.8,0.2,12.2,6,11.9,12.8s-6,12.2-12.8,11.9s-12.2-6-11.9-12.8S685.5,406.5,692.2,406.8z M693,466.3
			c-7.4-0.3-13.2-6.5-13-13.9s6.5-13.2,13.9-13s13.2,6.5,13,13.9S700.3,466.5,693,466.3z"/>
		<path class="st1" d="M664,483.2h-22c-1.8,0-3.2-1.4-3.2-3l0,0c0-1.6,1.5-3,3.2-3h22c1.8,0,3.2,1.4,3.2,3l0,0
			C667.2,481.8,665.8,483.2,664,483.2z"/>
		<path class="st1" d="M701.8,483.1l-22,0.1c-1.8,0-3.2-1.3-3.2-3l0,0c0-1.6,1.4-3,3.2-3l22-0.1c1.8,0,3.2,1.3,3.2,3l0,0
			C705,481.8,703.5,483.1,701.8,483.1z"/>
		<path class="st1" d="M654.5,390.1h40.7c2,0,3.6,1.6,3.6,3.6l0,0c0,2-1.6,3.6-3.6,3.6h-40.7c-2,0-3.6-1.6-3.6-3.6l0,0
			C651,391.7,652.5,390.1,654.5,390.1z"/>
		<path class="st2" d="M715.8,327.6c0-3.2-2.6-5.9-5.9-6l-61.1-2.2c-3.3-0.1-6.1,2.4-6.3,5.7l-3.7,57.2l-7.6,8.2
			c-1.3,1.4-2,3.2-1.9,5.1l2.1,93.2c0.1,3,2.5,5.4,5.5,5.6l67.5-0.2c2.4,0.1,4.6-1.3,5.5-3.5l7.4-15.2L715.8,327.6L715.8,327.6z"/>
	</g>
	<g id="freio">
		<path id="a" class="st0" d="M111.8,422.7l-6.1-10.5l0.7-29.9c0.1-2.9-2.3-5.3-5.2-5.3l-90.1,0.7c-2.7,0-4.9,2.1-5.1,4.8l-4,47.8
			c-0.3,3.3-0.1,6.6,0.4,9.9l8.3,50.3c0.4,2.5,2.6,4.3,5.1,4.2l70.9-0.8c1.7,0,3.3-0.9,4.2-2.3l20.9-32.3c0.7-1,1-2.2,1-3.4v-30.1
			C112.8,424.8,112.4,423.7,111.8,422.7L111.8,422.7z M78.9,386.4c9,0,16.2,7.3,16.2,16.2s-7.3,16.2-16.2,16.2s-16.2-7.3-16.2-16.2
			S69.9,386.4,78.9,386.4z M30.1,386.4c9,0,16.2,7.3,16.2,16.2s-7.3,16.2-16.2,16.2s-16.2-7.3-16.2-16.2S21.1,386.4,30.1,386.4z
			 M29.5,471.9c-9,0-16.2-7.3-16.2-16.2s7.3-16.2,16.2-16.2s16.3,7.3,16.3,16.2S38.5,471.9,29.5,471.9z M81.2,471.9
			c-9,0-16.2-7.3-16.2-16.2s7.3-16.2,16.2-16.2s16.2,7.3,16.2,16.2S90.2,471.9,81.2,471.9z"/>
		<path class="st1" d="M34.2,424.9h40.7c2,0,3.6,1.6,3.6,3.6l0,0c0,2-1.6,3.6-3.6,3.6H34.2c-2,0-3.6-1.6-3.6-3.6l0,0
			C30.5,426.6,32.2,424.9,34.2,424.9z"/>
		<path id="a_00000170998120657347179860000002460310087483702914_" class="st2" d="M111.8,422.7l-6.1-10.5l0.7-29.9
			c0.1-2.9-2.3-5.3-5.2-5.3l-90.1,0.7c-2.7,0-4.9,2.1-5.1,4.8l-4,47.8c-0.3,3.3-0.1,6.6,0.4,9.9l8.3,50.3c0.4,2.5,2.6,4.3,5.1,4.2
			l70.9-0.8c1.7,0,3.3-0.9,4.2-2.3l20.9-32.3c0.7-1,1-2.2,1-3.4v-30.1C112.8,424.8,112.4,423.7,111.8,422.7L111.8,422.7z"/>
	</g>
	<g id="volante">
		<g id="corpo">
			<path id="base-2" class="st3" d="M367.8,1C229.4,1,115.3,105.2,115.3,243.6c0,26,3.9,51,11.3,74.5c12.7,40.8,39.8,79.5,50.6,90.4
				c1.1,1.1,4.9,4.8,8.2,10.9c5,9.2,5.2,17.4,5.6,20.2c2.3,17.8,37.4,30.4,62.2,39.2c44,15.7,67.4,24.1,87.9,13.8
				c5.6-2.8,14.1-8.5,27-8.8c12.2-0.3,20.7,4.5,25.8,6.7c24.6,10.9,53.7,0.5,85.2-10.6c26.2-9.3,58-20.6,61.7-39.2
				c0.7-3.5,1.8-14.7,9.5-26.3c2.7-4,5.2-6.7,6-7.5c8.2-8.9,35.2-43.7,49.2-88.6c7.3-23.5,11.3-48.6,11.3-74.5
				C616.7,105.2,506.2,1,367.8,1z M330.5,372.3c-0.5,9.9-1,31.5-1.1,36.5c0,0.8-0.2,1.6-0.4,2.4c-1.4,4.2-6.9,16.9-21.5,15.5
				c-14.9-1.4-47.4-20.9-56.4-26.5c-1.6-1-3-2.2-4.1-3.7l-46.9-60.8c-1.7-2.2-2.7-4.9-2.7-7.7c-0.1-5.7,0.4-15.2,5.4-19
				c7.3-5.6,48.8-20.7,48.8-20.7s10.6-3.4,22.4,8.4s52.7,59.4,52.7,59.4S331.1,361.1,330.5,372.3L330.5,372.3z M537,326.5
				c-0.1,2.8-1,5.4-2.7,7.6L487,395.5c-0.9,1.1-1.9,2.1-3.1,2.8c-8.2,5.1-41.8,25.4-57,26.9c-14.5,1.4-20.1-11.3-21.5-15.5
				c-0.3-0.8-0.4-1.6-0.4-2.4c-0.1-5-0.6-26.6-1.1-36.5c-0.6-11.2,3.9-16.3,3.9-16.3s40.9-47.6,52.7-59.4s22.4-8.4,22.4-8.4
				s41.5,15.1,48.8,20.7C536.5,311.3,537,320.8,537,326.5L537,326.5z M531.2,219.4c-1.8,0.4-11.2-0.6-16.4-2.4
				c0,0-52.2-18.7-53.1-19.1c-89-41.8-156.9-9-169.6-4.7c-1.5,0.5-80.2,27.1-80.2,27.1c-11.8,4.6-20.1-2.1-24.5-7.2
				c-2.7-3.2-4.6-7-5.8-11c-3-10.2-0.5-18.1,3.1-23.6c3.7-5.7,9.5-9.7,15.9-11.9l32.2-10.9c13.5-3.8,23.6-10.7,29.8-15.8
				c3.9-3.3,7.1-7.5,9-12.2c20.5-50.4,46.2-58.8,46.2-58.8c30.4-11.4,72.9-11,92.1-2.4c30.5,13.8,45.7,50.6,53.2,65
				c6.4,12.4,22.7,19.4,28.5,21.3c1.1,0.4,2.2,0.6,3.3,0.8c5.5,1.1,25.4,5.9,31.1,7.5c2.9,0.8,6.7,2.1,9.9,4
				c5.1,3.1,9.3,6.4,11.9,11.7C559.3,200.5,543.7,216.6,531.2,219.4L531.2,219.4z"/>
			<path id="base-2_00000028322519074914638590000013884888789282718107_" class="st2" d="M367.8,1C229.4,1,115.3,105.2,115.3,243.6
				c0,26,3.9,51,11.3,74.5c12.7,40.8,39.8,79.5,50.6,90.4c1.1,1.1,4.9,4.8,8.2,10.9c5,9.2,5.2,17.4,5.6,20.2
				c2.3,17.8,37.4,30.4,62.2,39.2c44,15.7,67.4,24.1,87.9,13.8c5.6-2.8,14.1-8.5,27-8.8c12.2-0.3,20.7,4.5,25.8,6.7
				c24.6,10.9,53.7,0.5,85.2-10.6c26.2-9.3,58-20.6,61.7-39.2c0.7-3.5,1.8-14.7,9.5-26.3c2.7-4,5.2-6.7,6-7.5
				c8.2-8.9,35.2-43.7,49.2-88.6c7.3-23.5,11.3-48.6,11.3-74.5C616.7,105.2,506.2,1,367.8,1z"/>
			<g id="meio">
				<g id="parafusos">
					<circle id="_5" class="st4" cx="306.4" cy="248.5" r="5.3"/>
					<circle id="_4" class="st4" cx="336.2" cy="308.8" r="5.3"/>
					<circle id="_3" class="st4" cx="397.2" cy="308.8" r="5.3"/>
					<circle id="_2" class="st4" cx="425.2" cy="248.5" r="5.3"/>
					<circle id="_1" class="st4" cx="366" cy="196.2" r="5.3"/>
				</g>
				<g id="meio-2">
					<circle id="g1" class="st5" cx="366" cy="256.3" r="47.8"/>
					<circle id="g2" class="st4" cx="366" cy="254.4" r="35.4"/>
				</g>
			</g>
			<path id="abas" class="st6" d="M495.4,384.8c6.9,2.1,17.6,2.9,30.6,3c16.2,0.1,28.3-5.7,38.8-15.5c25-23.2,36.1-63.5,36.1-63.5
				l0,0l0,0c15.7-63,2.7-117.9,2.7-117.9C578,82.4,483.9,50.2,483.9,50.2c-41.6-17.9-65.2,21.2-65.2,21.2
				c24.6,16.2,37.5,47.2,44.2,60.1c6.4,12.4,22.7,19.4,28.5,21.3c1.1,0.4,2.2,0.6,3.3,0.8c5.5,1.1,25.4,5.8,31.1,7.5
				c2.9,0.8,6.7,2.1,9.9,4c5.1,3,9.3,6.4,11.9,11.7c11.7,23.7-4,39.8-16.5,42.6c-1.8,0.4-11.2-0.6-16.4-2.5c0,0-4.4-1.6-10.7-3.8
				l21.4,90.9c2.8,1.4,4.9,2.5,6.2,3.5c5,3.8,5.5,13.4,5.3,19.1c-0.1,2.8-1,5.4-2.7,7.6c-4.6,6.1-9.3,12.2-13.9,18.2
				C512,363.2,503.6,374,495.4,384.8z M317.6,68.8c1.4-0.5,2.8-1,4.3-1.5 M322,67.3c-13.5-18-29.2-27.8-71.6-18.2
				c0,0-43.2,8.4-90,70.3c-12.5,21.4-30.2,59-33.2,108.3c0,0-4.5,73.7,30.3,135.1c9.8,14.7,29.2,28.5,51.6,29.2
				c22.5,0.6,30.6-2,31.8-3.6c-13.6-17.6-27.1-35.1-40.7-52.7c-1.7-2.2-2.7-4.9-2.7-7.7c-0.1-5.7,0.4-15.2,5.4-19
				c2.3-1.8,8.1-4.5,15-7.5l19.3-89.7c-14,4.7-25.1,8.5-25.1,8.5c-11.8,4.6-20.1-2.1-24.5-7.2c-2.7-3.2-4.6-7-5.8-11
				c-3-10.2-0.5-18.1,3.1-23.6c3.7-5.7,9.5-9.7,15.9-11.9l32.2-10.9c13.5-3.8,23.6-10.7,29.8-15.8c3.9-3.3,7.1-7.5,9-12.2
				C292.2,77.3,318,68.9,318,68.9L322,67.3L322,67.3z"/>
			<g id="detalhes">
				<path id="d" class="st7" d="M400.5,389l1,33.5c0,0,0.5,13.4,17.8,22.2"/>
				<path id="c" class="st7" d="M334.4,389l-1,33.5c0,0-0.5,13.4-17.8,22.2"/>
				<path id="b" class="st8" d="M599.2,243.3c0,0-1.7,51.1-48.2,30.6L439.9,197c-1.1-0.8-2.5,0.1-2.4,1.4l10.8,78.9"/>
				<path id="a-2" class="st8" d="M140.4,243.3c0,0,1.7,51.1,48.2,30.6L299.8,197c1.1-0.8,2.5,0.1,2.4,1.4l-10.8,78.9"/>
			</g>
		</g>
		<g id="botoes_ps">
			<circle class="st9" cx="504" cy="104.8" r="25.7"/>
			<circle id="circle166" class="st10" cx="480" cy="102.9" r="10.4"/>
			<path id="path168" class="st11" d="M513.8,79.3c0,5.7-4.6,10.4-10.4,10.4S493,85.1,493,79.3s4.6-10.4,10.4-10.4
				S513.8,73.6,513.8,79.3L513.8,79.3z"/>
			
				<ellipse id="circle170" transform="matrix(0.2298 -0.9732 0.9732 0.2298 305.9022 592.3106)" class="st12" cx="527.2" cy="102.9" rx="10.4" ry="10.4"/>
			<path id="path172" class="st11" d="M513.8,126.5c0,5.7-4.6,10.4-10.4,10.4s-10.4-4.6-10.4-10.4s4.6-10.4,10.4-10.4
				S513.8,120.7,513.8,126.5z"/>
			<g id="X">
				<path id="path174" class="st13" d="M508.5,121.4l-10,10"/>
				<path id="path176" class="st13" d="M498.5,121.4l10,10"/>
			</g>
			<path id="triangulo" class="st14" d="M503.5,72.3l5.7,11.3H498L503.5,72.3z"/>
			
				<ellipse id="circulo" transform="matrix(0.2298 -0.9732 0.9732 0.2298 306.2186 592.063)" class="st15" cx="527.2" cy="102.6" rx="6.8" ry="6.8"/>
			<rect id="quadrado" x="474.5" y="97.4" class="st16" width="10.9" height="10.9"/>
		</g>
		<g id="d-pad">
			<circle id="fundo" class="st17" cx="228.9" cy="104.8" r="25.7"/>
			<path id="direcionais" class="st18" d="M255.8,94h-16V78c0-1.8-1.4-3.2-3.2-3.2h-15.1c-1.8,0-3.2,1.4-3.2,3.2v16h-16
				c-1.8,0-3.2,1.4-3.2,3.2v15.1c0,1.8,1.4,3.2,3.2,3.2h16v16c0,1.8,1.4,3.2,3.2,3.2h15.1c1.8,0,3.2-1.4,3.2-3.2v-16h16
				c1.8,0,3.2-1.4,3.2-3.2v-15C259,95.5,257.5,94,255.8,94z"/>
			<g id="D">
				<path id="_1-2" class="st19" d="M223.4,127.8c0-1.3,1-2.4,2.3-2.4s2.3,1,2.3,2.4c0,1.3-1,2.4-2.3,2.4S223.4,129.1,223.4,127.8z"
					/>
				<path id="_1-3" class="st19" d="M223.4,120.3c0-1.3,1-2.4,2.3-2.4s2.3,1,2.3,2.4s-1,2.4-2.3,2.4S223.4,121.6,223.4,120.3z"/>
				<path id="_1-4" class="st19" d="M230.1,120.1c0-1.3,1-2.4,2.3-2.4s2.3,1,2.3,2.4s-1,2.4-2.3,2.4S230.1,121.4,230.1,120.1z"/>
				<path id="_1-5" class="st19" d="M230.1,127.8c0-1.3,1-2.4,2.3-2.4s2.3,1,2.3,2.4c0,1.3-1,2.4-2.3,2.4S230.1,129.1,230.1,127.8z"
					/>
			</g>
			<g id="C">
				<path id="_1-6" class="st19" d="M223.4,88.8c0-1.3,1-2.4,2.3-2.4s2.3,1,2.3,2.4s-1,2.4-2.3,2.4S223.4,90.1,223.4,88.8z"/>
				<path id="_1-7" class="st19" d="M223.4,81.3c0-1.3,1-2.4,2.3-2.4s2.3,1,2.3,2.4s-1,2.4-2.3,2.4S223.4,82.6,223.4,81.3z"/>
				<path id="_1-8" class="st19" d="M230.1,81.1c0-1.3,1-2.4,2.3-2.4s2.3,1,2.3,2.4s-1,2.4-2.3,2.4S230.1,82.4,230.1,81.1z"/>
				<path id="_1-9" class="st19" d="M230.1,88.8c0-1.3,1-2.4,2.3-2.4s2.3,1,2.3,2.4s-1,2.4-2.3,2.4S230.1,90.1,230.1,88.8z"/>
			</g>
			<g id="B">
				<path id="_1-10" class="st19" d="M243.9,109c0-1.3,1-2.4,2.3-2.4s2.3,1,2.3,2.4s-1,2.4-2.3,2.4S243.9,110.3,243.9,109z"/>
				<path id="_1-11" class="st19" d="M243.9,101.5c0-1.3,1-2.4,2.3-2.4s2.3,1,2.3,2.4s-1,2.4-2.3,2.4S243.9,102.8,243.9,101.5z"/>
				<path id="_1-12" class="st19" d="M250.4,101.3c0-1.3,1-2.4,2.3-2.4s2.3,1,2.3,2.4s-1,2.4-2.3,2.4S250.4,102.7,250.4,101.3z"/>
				<path id="_1-13" class="st19" d="M250.4,109c0-1.3,1-2.4,2.3-2.4s2.3,1,2.3,2.4s-1,2.4-2.3,2.4S250.4,110.3,250.4,109z"/>
			</g>
			<g id="A">
				<path id="_1-14" class="st19" d="M203.9,109c0-1.3,1-2.4,2.3-2.4s2.3,1,2.3,2.4s-1,2.4-2.3,2.4S203.9,110.3,203.9,109z"/>
				<path id="_1-15" class="st19" d="M203.9,101.5c0-1.3,1-2.4,2.3-2.4s2.3,1,2.3,2.4s-1,2.4-2.3,2.4S203.9,102.8,203.9,101.5z"/>
				<path id="_1-16" class="st19" d="M210.4,101.3c0-1.3,1-2.4,2.3-2.4s2.3,1,2.3,2.4s-1,2.4-2.3,2.4S210.4,102.7,210.4,101.3z"/>
				<path id="_1-17" class="st19" d="M210.4,109c0-1.3,1-2.4,2.3-2.4s2.3,1,2.3,2.4s-1,2.4-2.3,2.4S210.4,110.3,210.4,109z"/>
			</g>
		</g>
		<g id="botoes_em_baixo">
			<g id="start">
				<path class="st20" d="M341.2,396.6l0.9-0.2c0.1,0.4,0.5,0.5,0.9,0.5c0.6,0,0.9-0.2,0.9-0.5c0-0.1,0-0.2-0.1-0.3
					c-0.1-0.1-0.2-0.1-0.3-0.1l-0.8-0.1c-0.9-0.2-1.3-0.6-1.3-1.3c0-0.4,0.1-0.7,0.4-1s0.7-0.4,1.2-0.4c0.9,0,1.5,0.3,1.7,1
					l-0.9,0.2c-0.1-0.3-0.4-0.5-0.8-0.5c-0.5,0-0.8,0.2-0.8,0.5c0,0.2,0.2,0.4,0.6,0.5l0.9,0.2c0.7,0.1,1.1,0.6,1.1,1.2
					c0,0.5-0.2,0.8-0.6,1.1c-0.4,0.2-0.8,0.4-1.3,0.4c-0.4,0-0.8-0.1-1.2-0.3S341.5,396.9,341.2,396.6L341.2,396.6z"/>
				<path class="st20" d="M348.5,396.2l0.9,0.1c-0.1,0.4-0.3,0.7-0.7,1s-0.8,0.4-1.2,0.4c-0.6,0-1.1-0.2-1.5-0.6s-0.5-1-0.5-1.6
					s0.2-1.2,0.5-1.6s0.9-0.6,1.5-0.6s1.1,0.2,1.4,0.6s0.5,1,0.5,1.6v0.1h-3c0,0.3,0,0.5,0.1,0.7s0.2,0.3,0.3,0.5s0.4,0.2,0.6,0.2
					C348,396.9,348.4,396.6,348.5,396.2L348.5,396.2z M348.5,394.9c0-0.3-0.1-0.6-0.3-0.8c-0.2-0.2-0.4-0.3-0.7-0.3
					s-0.5,0.1-0.7,0.3c-0.2,0.2-0.3,0.5-0.3,0.8H348.5L348.5,394.9z"/>
				<path class="st20" d="M351.4,397.6h-1v-5.9h1V397.6z"/>
				<path class="st20" d="M355.4,396.2l0.9,0.1c-0.1,0.4-0.3,0.7-0.7,1s-0.8,0.4-1.2,0.4c-0.6,0-1.1-0.2-1.5-0.6s-0.5-1-0.5-1.6
					s0.2-1.2,0.5-1.6s0.9-0.6,1.5-0.6s1.1,0.2,1.4,0.6s0.5,1,0.5,1.6v0.1h-3c0,0.3,0,0.5,0.1,0.7s0.2,0.3,0.3,0.5s0.4,0.2,0.6,0.2
					C354.9,396.9,355.1,396.6,355.4,396.2L355.4,396.2z M355.2,394.9c0-0.3-0.1-0.6-0.3-0.8c-0.2-0.2-0.4-0.3-0.7-0.3
					s-0.5,0.1-0.7,0.3c-0.2,0.2-0.3,0.5-0.3,0.8H355.2L355.2,394.9z"/>
				<path class="st20" d="M359.6,396l0.8,0.1c-0.1,0.5-0.3,1-0.6,1.2c-0.3,0.3-0.7,0.4-1.1,0.4c-0.6,0-1.1-0.2-1.4-0.6
					s-0.5-1-0.5-1.6s0.2-1.2,0.5-1.6s0.8-0.6,1.4-0.6c0.9,0,1.5,0.5,1.7,1.5l-0.8,0.1c-0.1-0.5-0.3-0.8-0.8-0.8
					c-0.3,0-0.6,0.1-0.7,0.4s-0.2,0.6-0.2,1s0.1,0.8,0.2,1c0.2,0.2,0.4,0.4,0.6,0.4C359.2,396.8,359.5,396.5,359.6,396L359.6,396z"
					/>
				<path class="st20" d="M363.2,396.8v0.8c-0.3,0.1-0.5,0.1-0.7,0.1c-0.3,0-0.5,0-0.7-0.2s-0.3-0.2-0.4-0.4
					c-0.1-0.2-0.1-0.5-0.1-0.8V394h-0.5v-0.8h0.6l0.1-1.1l0.8-0.1v1.2h0.9v0.8h-0.9v2.1c0,0.3,0,0.5,0.1,0.6s0.3,0.1,0.6,0.1
					C363.1,396.8,363.2,396.8,363.2,396.8L363.2,396.8z"/>
				<path id="b-2" class="st21" d="M362.1,386.5h-14.3c-0.8,0-1.5-0.3-2.1-0.9l-5.3-5.6c-0.4-0.4-0.6-1-0.6-1.5v-2.3
					c0-1.2,1-2.1,2.1-2.1H362c1.2,0,2.1,1,2.1,2.1v8.2C364.4,385.6,363.4,386.5,362.1,386.5z"/>
			</g>
			<g id="select">
				<path class="st20" d="M373.1,396.1l0.9-0.2c0.1,0.4,0.5,0.5,0.9,0.5c0.6,0,0.9-0.2,0.9-0.5c0-0.1,0-0.2-0.1-0.3
					c-0.1-0.1-0.2-0.1-0.3-0.1l-0.8-0.1c-0.9-0.2-1.3-0.6-1.3-1.3c0-0.4,0.1-0.7,0.4-1s0.7-0.4,1.2-0.4c0.9,0,1.5,0.3,1.7,1
					l-0.9,0.2c-0.1-0.3-0.4-0.5-0.8-0.5c-0.5,0-0.8,0.2-0.8,0.5c0,0.2,0.2,0.4,0.6,0.5l0.9,0.2c0.7,0.1,1.1,0.6,1.1,1.2
					c0,0.5-0.2,0.8-0.6,1.1c-0.4,0.2-0.8,0.4-1.3,0.4c-0.4,0-0.8-0.1-1.2-0.3S373.2,396.4,373.1,396.1L373.1,396.1z"/>
				<path class="st20" d="M379.6,396.3v0.8c-0.3,0.1-0.5,0.1-0.7,0.1c-0.3,0-0.5,0-0.7-0.2s-0.3-0.2-0.4-0.4
					c-0.1-0.2-0.1-0.5-0.1-0.8v-2.2h-0.5v-0.8h0.6l0.1-1.1l0.8-0.1v1.2h0.9v0.8h-0.9v2.1c0,0.3,0,0.5,0.1,0.6s0.3,0.1,0.6,0.1
					C379.5,396.3,379.5,396.3,379.6,396.3L379.6,396.3z"/>
				<path class="st20" d="M384.2,397h-0.9c-0.1-0.3-0.1-0.6-0.1-0.9c-0.3,0.6-0.8,1-1.5,1c-0.4,0-0.8-0.1-1-0.4s-0.4-0.6-0.4-1
					c0-1,0.9-1.5,2.6-1.5c0.1,0,0.2,0,0.3,0V394c0-0.5-0.3-0.7-0.9-0.7s-0.9,0.2-1,0.7l-0.8-0.1c0-0.4,0.2-0.7,0.6-0.9
					s0.8-0.4,1.4-0.4c0.3,0,0.6,0,0.8,0.1s0.4,0.1,0.5,0.3s0.2,0.3,0.3,0.4c0.1,0.2,0.1,0.4,0.1,0.8v2
					C384,396.4,384.1,396.7,384.2,397L384.2,397z M383.1,394.8c-1.3,0-1.9,0.3-1.9,0.9c0,0.2,0.1,0.3,0.2,0.5s0.3,0.2,0.6,0.2
					c0.4,0,0.6-0.1,0.8-0.4c0.2-0.2,0.3-0.5,0.3-0.8V394.8z"/>
				<path class="st20" d="M386.2,397h-1v-4.3h0.9v1c0.1-0.4,0.3-0.7,0.5-0.9c0.2-0.2,0.5-0.3,0.7-0.3h0.1v1c-0.5,0-0.8,0.2-1,0.5
					s-0.2,0.6-0.2,0.9V397L386.2,397z"/>
				<path class="st20" d="M390.4,396.3v0.8c-0.3,0.1-0.5,0.1-0.7,0.1c-0.3,0-0.5,0-0.7-0.2s-0.3-0.2-0.4-0.4
					c-0.1-0.2-0.1-0.5-0.1-0.8v-2.2H388v-0.8h0.6l0.1-1.1l0.8-0.1v1.2h0.9v0.8h-0.9v2.1c0,0.3,0,0.5,0.1,0.6s0.3,0.1,0.6,0.1
					C390.1,396.3,390.2,396.3,390.4,396.3L390.4,396.3z"/>
				<path id="start-2" class="st21" d="M373.4,386.5h14.3c0.8,0,1.5-0.3,2.1-0.9l5.3-5.6c0.4-0.4,0.6-1,0.6-1.5v-2.3
					c0-1.2-1-2.1-2.1-2.1h-20.1c-1.2,0-2.1,1-2.1,2.1v8.2C371.1,385.6,372.1,386.5,373.4,386.5z"/>
			</g>
		</g>
		<g id="botoes_de_cima">
			<g id="botao_1">
				<path id="botao" class="st21" d="M251.1,204.1l32-10.9c1-0.3,2.1,0.1,2.6,1.1l1.6,3.3c0.4,0.9,0.2,2-0.6,2.6l-41.5,31.2
					c-1.6,1.2-3.9-0.4-3.2-2.3l8-23.5C249.9,204.7,250.4,204.3,251.1,204.1z"/>
				<path id="_3-2" class="st22" d="M252.9,214c0-1.3,1-2.4,2.3-2.4s2.3,1,2.3,2.4s-1,2.4-2.3,2.4S252.9,215.4,252.9,214z"/>
				<path id="_2-2" class="st22" d="M269,204c0-1.3,1-2.4,2.3-2.4s2.3,1,2.3,2.4s-1,2.4-2.3,2.4S269,205.4,269,204z"/>
				<path id="_1-18" class="st22" d="M261,209c0-1.3,1-2.4,2.3-2.4s2.3,1,2.3,2.4s-1,2.4-2.3,2.4S261,210.4,261,209z"/>
				<g id="L1">
					<path class="st20" d="M282.9,229.6h-5.6v-9.1h1.7v7.6h3.9V229.6L282.9,229.6z"/>
					<path class="st20" d="M291,229.6h-7v-1.4h2.8v-5.8c-0.9,0.8-1.8,1.4-2.5,1.6v-1.6c0.8-0.3,1.2-0.5,1.4-0.6s0.5-0.4,0.8-0.7
						c0.4-0.3,0.6-0.6,0.8-0.9h1.1v8h2.6L291,229.6L291,229.6z"/>
				</g>
			</g>
			<g id="botao_2">
				<path id="botao-2" class="st21" d="M259.1,243.7l-2.4,26.3c-0.1,1.4-1,2.6-2.3,3.1l-23.5,9.9c-1.1,0.5-2.2-0.4-2.1-1.6L231,259
					c0.1-1.4,0.9-2.7,2.2-3.5l22.7-13.9C257.4,240.6,259.4,241.9,259.1,243.7L259.1,243.7z"/>
				<g id="_6">
					<path class="st22" d="M248.6,255.4c0-1.3,1-2.4,2.3-2.4s2.3,1,2.3,2.4c0,1.3-1,2.4-2.3,2.4S248.6,256.7,248.6,255.4z"/>
				</g>
				<g id="_5-2">
					<path class="st22" d="M242.4,258.4c0-1.3,1-2.4,2.3-2.4s2.3,1,2.3,2.4s-1,2.4-2.3,2.4S242.4,259.8,242.4,258.4z"/>
				</g>
				<g id="_4-2">
					<path class="st22" d="M235.9,261.4c0-1.3,1-2.4,2.3-2.4s2.3,1,2.3,2.4s-1,2.4-2.3,2.4S235.9,262.7,235.9,261.4z"/>
				</g>
				<g id="_3-3">
					<path class="st22" d="M248.6,264c0-1.3,1-2.4,2.3-2.4s2.3,1,2.3,2.4s-1,2.4-2.3,2.4S248.6,265.3,248.6,264z"/>
				</g>
				<g id="_2-3">
					<path class="st22" d="M242.4,267c0-1.3,1-2.4,2.3-2.4s2.3,1,2.3,2.4s-1,2.4-2.3,2.4S242.4,268.4,242.4,267z"/>
				</g>
				<g id="_1-19">
					<path class="st22" d="M235.9,270c0-1.3,1-2.4,2.3-2.4s2.3,1,2.3,2.4s-1,2.4-2.3,2.4S235.9,271.3,235.9,270z"/>
				</g>
				<g id="L2">
					<path class="st20" d="M276.5,267.4h-5.6v-9.1h1.7v7.6h3.9V267.4L276.5,267.4z"/>
					<path class="st20" d="M284,266v1.4h-6.7v-1.6l2.8-1.9c0.9-0.6,1.5-1.1,1.8-1.5s0.5-0.9,0.5-1.2c0-0.5-0.1-0.8-0.5-1.1
						s-0.7-0.5-1.2-0.5c-1,0-1.6,0.6-1.8,1.9l-1.6-0.4c0.1-0.8,0.5-1.5,1.1-2.1s1.4-0.9,2.4-0.9s1.8,0.3,2.4,0.9s0.9,1.3,0.9,2.2
						c0,0.8-0.3,1.5-0.8,2.1s-1.9,1.5-4,2.7H284L284,266z"/>
				</g>
			</g>
			<g id="botao_4">
				<path id="botao-3" class="st21" d="M483.6,242.5l2.4,26.3c0.1,1.4,1,2.6,2.3,3.1l23.5,9.9c1.1,0.5,2.2-0.4,2.1-1.6l-2.2-22.4
					c-0.1-1.4-0.9-2.7-2.2-3.5l-22.7-13.9C485.5,239.5,483.5,240.7,483.6,242.5L483.6,242.5z"/>
				<g id="_6-2">
					<path class="st22" d="M493.2,257.7c-1.3,0-2.3-1-2.3-2.4s1-2.4,2.3-2.4s2.3,1,2.3,2.4S494.5,257.7,493.2,257.7z"/>
				</g>
				<g id="_5-3">
					<path class="st22" d="M499.4,260.8c-1.3,0-2.3-1-2.3-2.4s1-2.4,2.3-2.4s2.3,1,2.3,2.4S500.6,260.8,499.4,260.8z"/>
				</g>
				<g id="_4-3">
					<path class="st22" d="M505.9,263.8c-1.3,0-2.3-1-2.3-2.4s1-2.4,2.3-2.4s2.3,1,2.3,2.4S507.2,263.8,505.9,263.8z"/>
				</g>
				<g id="_3-4">
					<path class="st22" d="M493.2,266.4c-1.3,0-2.3-1-2.3-2.4s1-2.4,2.3-2.4s2.3,1,2.3,2.4S494.5,266.4,493.2,266.4z"/>
				</g>
				<g id="_2-4">
					<path class="st22" d="M499.4,269.4c-1.3,0-2.3-1-2.3-2.4s1-2.4,2.3-2.4s2.3,1,2.3,2.4S500.6,269.4,499.4,269.4z"/>
				</g>
				<g id="_1-20">
					<path class="st22" d="M505.9,272.4c-1.3,0-2.3-1-2.3-2.4s1-2.4,2.3-2.4s2.3,1,2.3,2.4S507.2,272.4,505.9,272.4z"/>
				</g>
				<g id="R2">
					<path class="st20" d="M466,267.4h-1.7l-1.4-3.8h-2.3v3.8H459v-9.1h4c1.1,0,1.9,0.2,2.4,0.8s0.8,1.1,0.8,1.9
						c0,1.2-0.5,2-1.6,2.4L466,267.4z M460.5,262.3h2c0.6,0,1-0.1,1.3-0.4c0.3-0.2,0.4-0.6,0.4-1s-0.1-0.7-0.4-1
						c-0.3-0.2-0.7-0.4-1.2-0.4h-2.2L460.5,262.3L460.5,262.3z"/>
					<path class="st20" d="M474,266v1.4h-6.7v-1.6l2.8-1.9c0.9-0.6,1.5-1.1,1.8-1.5s0.5-0.9,0.5-1.2c0-0.5-0.1-0.8-0.5-1.1
						s-0.7-0.5-1.2-0.5c-1,0-1.6,0.6-1.8,1.9l-1.6-0.4c0.1-0.8,0.5-1.5,1.1-2.1s1.4-0.9,2.4-0.9s1.8,0.3,2.4,0.9s0.9,1.3,0.9,2.2
						c0,0.8-0.3,1.5-0.8,2.1s-1.9,1.5-4,2.7H474L474,266z"/>
				</g>
			</g>
			<g id="botao_3">
				<path id="botao-4" class="st21" d="M491,204.1l-32-10.9c-1-0.3-2.1,0.1-2.6,1.1l-1.6,3.3c-0.4,0.9-0.2,2,0.6,2.6l41.5,31.2
					c1.6,1.2,3.9-0.4,3.2-2.3l-8-23.5C492,204.7,491.5,204.3,491,204.1z"/>
				<path id="_3-5" class="st22" d="M488.2,216.4c-1.3,0-2.3-1-2.3-2.4s1-2.4,2.3-2.4s2.3,1,2.3,2.4S489.5,216.4,488.2,216.4z"/>
				<path id="_2-5" class="st22" d="M472.2,206.4c-1.3,0-2.3-1-2.3-2.4s1-2.4,2.3-2.4s2.3,1,2.3,2.4S473.5,206.4,472.2,206.4z"/>
				<path id="_1-21" class="st22" d="M480.2,211.4c-1.3,0-2.3-1-2.3-2.4s1-2.4,2.3-2.4s2.3,1,2.3,2.4S481.5,211.4,480.2,211.4z"/>
				<g id="R1">
					<path class="st20" d="M460.4,229.6h-1.7l-1.4-3.8H455v3.8h-1.6v-9.1h4c1.1,0,1.9,0.2,2.4,0.8s0.8,1.1,0.8,1.9
						c0,1.2-0.5,2-1.6,2.4L460.4,229.6L460.4,229.6z M454.9,224.5h2c0.6,0,1-0.1,1.3-0.4c0.3-0.2,0.4-0.6,0.4-1s-0.1-0.7-0.4-1
						c-0.3-0.2-0.7-0.4-1.2-0.4h-2.2L454.9,224.5L454.9,224.5z"/>
					<path class="st20" d="M469,229.6h-7v-1.4h2.8v-5.8c-0.9,0.8-1.8,1.4-2.5,1.6v-1.6c0.8-0.3,1.2-0.5,1.4-0.6s0.5-0.4,0.8-0.7
						c0.4-0.3,0.6-0.6,0.8-0.9h1.1v8h2.6L469,229.6L469,229.6z"/>
				</g>
			</g>
		</g>
	</g>
</g>
</svg>
