<?xml version="1.0" encoding="utf-8"?>
<!-- Generator: Adobe Illustrator 26.5.0, SVG Export Plug-In . SVG Version: 6.00 Build 0)  -->
<svg version="1.1" id="PCSX2_-_Dualshock_2" xmlns="http://www.w3.org/2000/svg" xmlns:xlink="http://www.w3.org/1999/xlink"
	 x="0px" y="0px" viewBox="0 0 974 664.8" style="enable-background:new 0 0 974 664.8;" xml:space="preserve">
<style type="text/css">
	
		.st0{fill-rule:evenodd;clip-rule:evenodd;fill:#4D4D4D;stroke:#000000;stroke-width:5;stroke-linecap:round;stroke-linejoin:round;}
	
		.st1{fill-rule:evenodd;clip-rule:evenodd;fill:#808080;stroke:#000000;stroke-width:3.33;stroke-linecap:round;stroke-linejoin:round;}
	.st2{fill:none;stroke:#000000;stroke-width:1.67;stroke-linecap:round;stroke-linejoin:round;}
	.st3{fill:none;stroke:#000000;stroke-width:3.33;stroke-linecap:round;stroke-linejoin:round;}
	.st4{font-family:'Arial-BoldMT';}
	.st5{font-size:20.88px;}
	.st6{fill:none;stroke:#000000;stroke-miterlimit:10;}
	.st7{fill:#808080;stroke:#000000;stroke-width:3.33;stroke-linecap:round;stroke-linejoin:round;}
	.st8{fill:none;stroke:#6FB5E3;stroke-width:6.67;stroke-linecap:round;stroke-linejoin:round;}
	.st9{fill:none;stroke:#7ACCC2;stroke-width:6.67;stroke-linecap:round;stroke-linejoin:round;}
	.st10{fill:none;stroke:#FF5B61;stroke-width:6.67;stroke-linecap:round;stroke-linejoin:round;}
	.st11{fill:none;stroke:#F388AA;stroke-width:6.67;stroke-linecap:round;stroke-linejoin:round;}
	.st12{fill:#FF0000;stroke:#000000;stroke-width:1.67;stroke-linecap:square;stroke-linejoin:round;}
	.st13{fill:#CCCCCC;stroke:#000000;stroke-width:8.000000e-02;stroke-linejoin:round;}
	.st14{fill:none;stroke:#000000;stroke-width:5;stroke-linecap:square;stroke-linejoin:round;}
	.st15{fill:#808080;stroke:#000000;stroke-width:5;stroke-linecap:square;stroke-linejoin:round;}
	.st16{fill:#B3B3B3;}
	.st17{font-family:'ArialMT';}
	.st18{font-size:22.94px;}
</style>
<g id="Dualshock_2">
	<path id="cor_fundo" class="st0" d="M785.5,614.2c-20.8-27.1-45.7-61.5-74.8-103.1c-6,44.9-44.5,79.5-91,79.5
		c-50.7,0-91.9-41.2-91.9-91.9c0-3.3,0.2-6.5,0.5-9.8c0,0,0,0,0,0h-82.6c0.3,3.2,0.5,6.5,0.5,9.8c0,50.7-41.2,91.9-91.9,91.9
		c-46.5,0-85-34.7-91.1-79.5c-28.6,40.9-53.5,75.3-74.8,103.1c-43.7,57-94.2,60.3-145.9,25.8S2.7,543.9,6,519.4s15.1-119.9,19-142.5
		c4-22.5,8-85.2,15.4-115s12.7-92.2,44.2-128.6s37.9-54.3,46.7-76.3s2.7-48.4,91.7-48.4s66.5,67.9,81,81.5
		c27.7,13.3,31.8,33.4,31.8,33.4h302c0,0,4.1-20,31.8-33.4c14.5-13.7-8-81.5,81-81.5S833.6,35,842.5,57s15.1,40,46.7,76.3
		s36.8,98.8,44.2,128.6s11.5,92.4,15.4,115c4,22.5,15.8,118,19,142.5c3.3,24.5,15.2,86.1-36.5,120.6S829.2,671.2,785.5,614.2
		L785.5,614.2L785.5,614.2z"/>
	<g id="botoes">
		<g id="D-Pad">
			<g id="Botoes">
				<path id="path4" class="st1" d="M226.9,361.7c1.8,2,4.4,3.2,7.1,3.2h35c2.9,0,5.6-1.1,7.7-3.2c2-2,3.2-4.8,3.2-7.7v-37.3
					c0-2.9-1.1-5.6-3.2-7.7c-2-2-4.8-3.2-7.7-3.2h-35c-2.7,0-5.3,1.2-7.1,3.2c-4.8,5.5-14.6,16.6-19.8,22.5c-1.9,2.2-1.9,5.5,0,7.7
					C212.3,345.2,222.1,356.3,226.9,361.7L226.9,361.7L226.9,361.7z"/>
				<path id="path6" class="st1" d="M167,369c-2,1.8-3.2,4.4-3.2,7.1v35c0,2.9,1.1,5.6,3.2,7.7s4.8,3.2,7.7,3.2H212
					c2.9,0,5.6-1.1,7.7-3.2c2-2,3.2-4.8,3.2-7.7v-35c0-2.7-1.2-5.3-3.2-7.1c-5.5-4.8-16.6-14.6-22.5-19.8c-2.2-2-5.5-2-7.7,0
					C183.6,354.3,172.5,364.1,167,369L167,369z"/>
				<path id="path8" class="st1" d="M159.8,361.7c-1.8,2-4.4,3.2-7.1,3.2h-35c-2.9,0-5.7-1.1-7.7-3.2c-2-2-3.2-4.8-3.2-7.7v-37.3
					c0-2.9,1.1-5.6,3.2-7.7c2-2,4.8-3.2,7.7-3.2h35c2.7,0,5.3,1.2,7.1,3.2c4.8,5.5,14.6,16.6,19.8,22.5c1.9,2.2,1.9,5.5,0,7.7
					C174.4,345.2,164.6,356.3,159.8,361.7L159.8,361.7L159.8,361.7z"/>
				<path id="path10" class="st1" d="M167,301.8c-2-1.8-3.2-4.4-3.2-7.1v-35c0-2.9,1.1-5.6,3.2-7.7c2-2,4.8-3.2,7.7-3.2H212
					c2.9,0,5.6,1.1,7.7,3.2c2,2,3.2,4.8,3.2,7.7v35c0,2.7-1.2,5.3-3.2,7.1c-5.5,4.8-16.6,14.6-22.5,19.8c-2.2,2-5.5,2-7.7,0
					C183.6,316.5,172.5,306.6,167,301.8L167,301.8z"/>
			</g>
			<path id="path13" class="st2" d="M310,335.4l-18.6,21v-41.9L310,335.4L310,335.4z"/>
			<path id="path15" class="st2" d="M76.6,335.4l18.6,21v-41.9L76.6,335.4L76.6,335.4z"/>
			<path id="path17" class="st2" d="M193.3,452.1l-21-18.6h41.9L193.3,452.1L193.3,452.1z"/>
			<path id="path19" class="st2" d="M193.3,218.7l-21,18.6h41.9L193.3,218.7L193.3,218.7z"/>
		</g>
		<g id="Base">
			<g id="Base1">
				<path id="path23" class="st2" d="M75.2,228.9c0,0,16.5-13.6,23.6-23.7c4.2-8.5,4.3-38.8,7-46.7s9.9-36.2,79-36.2
					s74.6,16.1,83.8,46.7s6.6,42.1,65.3,42.1h153"/>
				<path id="path25" class="st2" d="M96.1,194.9l20.1-86.9c0,0,6.4-30.9,85.5-30.9s84.2,54.3,84.2,64.5s-1.2,17.8,17.1,17.8h184"/>
				<path id="path27" class="st2" d="M282.9,197.3l20.3-100.6"/>
				<path id="path29" class="st2" d="M299.6,152.4l32.3-24.9"/>
				<path id="path31" class="st2" d="M294.5,169.1l12.3,35.6"/>
				<path id="path33" class="st2" d="M105.8,154.9c0,0-42.4,27.8-58.2,77.4"/>
				<path id="path35" class="st2" d="M116.3,107.5l5.4-27.6"/>
				<path id="path37" class="st2" d="M180.9,614.3l77.6-112.7"/>
				<path id="path39" class="st2" d="M453.6,482.1H487"/>
				<path id="path41" class="st3" d="M267.9,469.7c-0.4,0.2-0.8,0.5-1.2,0.7c-21.8,11.9-46.8,18.6-73.3,18.6
					c-84.8,0-153.6-68.8-153.6-153.6s68.8-153.6,153.6-153.6s153.6,68.8,153.6,153.6c0,27.1-7,52.5-19.3,74.6"/>
				<path id="path43" class="st3" d="M236.9,291.9v-79c0-4.3-3.4-7.7-7.7-7.7h-71.6c-4.3,0-7.7,3.4-7.7,7.7v79h-79
					c-2,0-4,0.8-5.4,2.3c-1.5,1.5-2.3,3.4-2.3,5.5v71.6c0,2,0.8,4,2.3,5.5s3.4,2.3,5.4,2.3h79V458c0,2,0.8,4,2.3,5.5
					s3.4,2.3,5.4,2.3h71.6c2,0,4-0.8,5.4-2.3s2.3-3.4,2.3-5.5v-79.1h79c2,0,4-0.8,5.5-2.3s2.3-3.4,2.3-5.5v-71.6c0-2-0.8-4-2.3-5.5
					s-3.4-2.3-5.5-2.3H236.9L236.9,291.9z"/>
			</g>
			<g id="Base2">
				<path id="path46" class="st2" d="M898.7,228.9c0,0-16.5-13.6-23.6-23.7c-4.2-8.5-4.3-38.8-7-46.7s-9.9-36.2-79-36.2
					s-74.7,16.1-83.8,46.7s-6.6,42.1-65.3,42.1H487"/>
				<path id="path48" class="st2" d="M877.9,194.9l-20.1-86.9c0,0-6.4-30.9-85.5-30.9s-84.2,54.3-84.2,64.5s1.2,17.8-17.1,17.8H487"
					/>
				<path id="path50" class="st2" d="M691.1,197.3L670.8,96.7"/>
				<path id="path52" class="st2" d="M674.4,152.4l-32.3-24.9"/>
				<path id="path54" class="st2" d="M679.4,169.1l-12.3,35.6"/>
				<path id="path56" class="st2" d="M868.2,154.9c0,0,42.4,27.8,58.2,77.4"/>
				<path id="path58" class="st2" d="M857.7,107.5l-5.4-27.6"/>
				<path id="path60" class="st2" d="M793.1,614.3l-77.6-112.7"/>
				<path id="path62" class="st2" d="M520.4,482.1H487"/>
				<path id="path64" class="st3" d="M708.2,470.9c21.6,11.6,46.2,18.1,72.4,18.1c84.8,0,153.6-68.8,153.6-153.6
					s-68.8-153.6-153.6-153.6S627,250.6,627,335.4c0,26.9,6.9,52.1,19,74.1"/>
				<path id="path66" class="st3" d="M737.1,291.9v-79c0-4.3,3.5-7.7,7.7-7.7h71.6c4.3,0,7.7,3.4,7.7,7.7v79h79c2,0,4,0.8,5.5,2.3
					s2.3,3.4,2.3,5.5v71.6c0,2-0.8,4-2.3,5.5s-3.4,2.3-5.5,2.3h-79V458c0,2-0.8,4-2.3,5.5s-3.4,2.3-5.5,2.3h-71.6
					c-2,0-4-0.8-5.5-2.3s-2.3-3.4-2.3-5.5v-79.1h-79c-2,0-4-0.8-5.5-2.3s-2.3-3.4-2.3-5.5v-71.6c0-2,0.8-4,2.3-5.5s3.4-2.3,5.5-2.3
					H737.1z"/>
			</g>
		</g>
		<g id="Botoes1">
			<path id="path70" class="st1" d="M206.2,65.3c-18-0.4-63.1-1-69.9,24.8c-10.6,40.1-3.9,19.1,56.6,19.1s64.3,31.8,73.4-7.2
				C273.6,70.6,230,65.9,206.2,65.3L206.2,65.3L206.2,65.3z"/>
			<path id="path72" class="st1" d="M767.8,65.3c18-0.4,63.1-1,69.9,24.8c10.5,40.1,3.9,19.1-56.6,19.1s-64.3,31.8-73.4-7.2
				C700.3,70.6,744,65.9,767.8,65.3z"/>
			<path id="path74" class="st1" d="M220.6,1.8c-18-0.5-63.1-1.2-69.9,27.9c-10.6,45-3.9,21.5,56.6,21.5s64.3,35.7,73.4-8.1
				C288.1,7.6,244.4,2.4,220.6,1.8L220.6,1.8z"/>
			<path id="path76" class="st1" d="M753.3,1.8c18-0.5,63.1-1.2,69.9,27.9c10.5,45,3.9,21.5-56.6,21.5s-64.3,35.7-73.4-8.1
				C685.9,7.7,729.6,2.4,753.3,1.8L753.3,1.8z"/>
			<g id="g80">
				<text transform="matrix(-0.9849 -0.173 0.173 -0.9849 206.7204 76.5099)" class="st4 st5">1</text>
				<text transform="matrix(-0.9849 -0.173 0.173 -0.9849 206.7204 76.5099)" class="st6 st4 st5">1</text>
			</g>
			<g id="g84">
				<text transform="matrix(-0.9848 0.1736 -0.1736 -0.9848 777.6705 75.9102)" class="st4 st5">1</text>
				<text transform="matrix(-0.9848 0.1736 -0.1736 -0.9848 777.6705 75.9102)" class="st6 st4 st5">1</text>
			</g>
			<g id="g88">
				<text transform="matrix(-0.9925 -0.1219 0.1219 -0.9925 219.99 17.1908)" class="st4 st5">2</text>
				<text transform="matrix(-0.9925 -0.1219 0.1219 -0.9925 219.99 17.1908)" class="st6 st4 st5">2</text>
			</g>
			<g id="g92">
				<text transform="matrix(-0.9925 0.1219 -0.1219 -0.9925 765.4408 17.0503)" class="st4 st5">2</text>
				<text transform="matrix(-0.9925 0.1219 -0.1219 -0.9925 765.4408 17.0503)" class="st6 st4 st5">2</text>
			</g>
		</g>
		<g id="Botoes2">
			<circle id="circle166" class="st7" cx="696.7" cy="335.4" r="36.9"/>
			<path id="path168" class="st1" d="M817.5,251.4c0,20.4-16.5,36.9-36.9,36.9s-36.9-16.5-36.9-36.9s16.5-36.9,36.9-36.9
				S817.5,231,817.5,251.4L817.5,251.4L817.5,251.4z"/>
			<circle id="circle170" class="st7" cx="864.6" cy="335.4" r="36.9"/>
			<path id="path172" class="st1" d="M817.5,419.4c0,20.4-16.5,36.9-36.9,36.9s-36.9-16.5-36.9-36.9s16.5-36.9,36.9-36.9
				S817.5,399,817.5,419.4L817.5,419.4z"/>
			<g id="X">
				<path id="path174" class="st8" d="M798.5,401.5l-35.6,35.6"/>
				<path id="path176" class="st8" d="M762.8,401.5l35.6,35.6"/>
			</g>
			<path id="T" class="st9" d="M780.6,226.3l20.2,40.3h-40.3L780.6,226.3L780.6,226.3z"/>
			<circle id="O" class="st10" cx="864.6" cy="334.3" r="24.4"/>
			<rect id="_" x="677.3" y="316" class="st11" width="38.8" height="38.8"/>
		</g>
		<g id="Botoes-Centrais">
			<path id="Analogico" class="st1" d="M513.5,424.6c0-5-4.1-9.1-9.1-9.1h-34.8c-5,0-9.1,4.1-9.1,9.1v13.9c0,5,4.1,9.1,9.1,9.1h34.8
				c5,0,9.1-4.1,9.1-9.1V424.6z"/>
			<rect id="Led-Analogico" x="471.8" y="459.4" class="st12" width="30.3" height="9.9"/>
			<path id="Select" class="st1" d="M419.3,323.5c0-5-4.1-9.1-9.1-9.1h-34.8c-5,0-9.1,4.1-9.1,9.1v13.9c0,5,4.1,9.1,9.1,9.1h34.8
				c5,0,9.1-4.1,9.1-9.1V323.5z"/>
			<path id="Start" class="st1" d="M602.6,329.2c1.5,0.5,2.5,1.9,2.5,3.5s-1,3-2.5,3.5c-12,4.2-31.8,11.2-41,14.4
				c-1.1,0.4-2.4,0.2-3.4-0.5c-1-0.7-1.6-1.8-1.6-3v-28.9c0-1.2,0.6-2.4,1.6-3c1-0.7,2.3-0.9,3.4-0.5
				C570.8,318,590.5,325,602.6,329.2L602.6,329.2z"/>
		</g>
		<g id="Textos">
			<g id="ANALOG">
				<path id="path191" class="st13" d="M446.2,405.6l5.5-14.2h2l5.8,14.2h-2.1l-1.7-4.3h-5.9l-1.6,4.3H446.2L446.2,405.6z
					 M450.3,399.8h4.8l-1.5-3.9c-0.5-1.2-0.8-2.2-1-3c-0.2,0.9-0.4,1.8-0.8,2.7L450.3,399.8L450.3,399.8z"/>
				<path id="path193" class="st13" d="M461,405.6v-14.2h1.9l7.5,11.2v-11.2h1.8v14.2h-1.9l-7.5-11.2v11.2H461z"/>
				<path id="path195" class="st13" d="M473.8,405.6l5.5-14.2h2l5.8,14.2H485l-1.7-4.3h-5.9l-1.6,4.3H473.8L473.8,405.6z
					 M477.9,399.8h4.8l-1.5-3.9c-0.5-1.2-0.8-2.2-1-3c-0.2,0.9-0.4,1.8-0.8,2.7L477.9,399.8L477.9,399.8z"/>
				<path id="path197" class="st13" d="M488.5,405.6v-14.2h1.9V404h7v1.7L488.5,405.6L488.5,405.6z"/>
				<path id="path199" class="st13" d="M499.1,398.7c0-2.4,0.6-4.2,1.9-5.5c1.3-1.3,2.9-2,4.9-2c1.3,0,2.5,0.3,3.5,0.9
					s1.9,1.5,2.4,2.6s0.8,2.4,0.8,3.8s-0.3,2.7-0.9,3.9c-0.6,1.1-1.4,2-2.5,2.6c-1.1,0.6-2.2,0.9-3.5,0.9c-1.3,0-2.5-0.3-3.6-1
					s-1.9-1.5-2.4-2.6S499.1,400,499.1,398.7L499.1,398.7L499.1,398.7z M501,398.8c0,1.7,0.5,3.1,1.4,4s2.1,1.5,3.5,1.5
					s2.6-0.5,3.5-1.5s1.4-2.4,1.4-4.2c0-1.2-0.2-2.2-0.6-3c-0.4-0.9-1-1.5-1.7-2s-1.6-0.7-2.5-0.7c-1.3,0-2.5,0.5-3.4,1.4
					S501,396.6,501,398.8L501,398.8z"/>
				<path id="path201" class="st13" d="M521.7,400.1v-1.7h6v5.3c-0.9,0.7-1.9,1.3-2.9,1.7s-2,0.6-3,0.6c-1.4,0-2.7-0.3-3.8-0.9
					c-1.1-0.6-2-1.5-2.6-2.6s-0.9-2.4-0.9-3.8s0.3-2.7,0.9-3.9c0.6-1.2,1.4-2.1,2.5-2.7s2.3-0.9,3.8-0.9c1,0,2,0.2,2.8,0.5
					c0.8,0.3,1.5,0.8,2,1.4c0.5,0.6,0.8,1.4,1.1,2.3l-1.7,0.5c-0.2-0.7-0.5-1.3-0.8-1.7c-0.3-0.4-0.8-0.7-1.4-1
					c-0.6-0.2-1.2-0.4-2-0.4c-0.9,0-1.6,0.1-2.2,0.4s-1.1,0.6-1.5,1c-0.4,0.4-0.7,0.9-0.9,1.4c-0.4,0.9-0.5,1.8-0.5,2.9
					c0,1.3,0.2,2.3,0.7,3.2s1.1,1.5,1.9,1.9s1.7,0.6,2.7,0.6c0.8,0,1.6-0.2,2.4-0.5s1.4-0.6,1.8-1v-2.6L521.7,400.1L521.7,400.1z"/>
			</g>
			<g id="SELECT">
				<path id="path204" class="st13" d="M354.8,368.9l1.8-0.2c0.1,0.7,0.3,1.3,0.6,1.8s0.8,0.8,1.4,1.1c0.6,0.3,1.4,0.4,2.2,0.4
					c0.7,0,1.4-0.1,1.9-0.3c0.5-0.2,1-0.5,1.2-0.9c0.3-0.4,0.4-0.8,0.4-1.2s-0.1-0.8-0.4-1.2s-0.7-0.6-1.3-0.8
					c-0.4-0.1-1.2-0.4-2.5-0.7s-2.2-0.6-2.7-0.9c-0.7-0.4-1.2-0.8-1.5-1.3c-0.3-0.5-0.5-1.1-0.5-1.8c0-0.7,0.2-1.4,0.6-2
					s1-1.1,1.8-1.4s1.6-0.5,2.6-0.5c1,0,2,0.2,2.8,0.5c0.8,0.3,1.4,0.8,1.9,1.5c0.4,0.7,0.7,1.4,0.7,2.2l-1.8,0.1
					c-0.1-0.9-0.4-1.6-1-2c-0.6-0.5-1.4-0.7-2.5-0.7s-2,0.2-2.5,0.6s-0.8,0.9-0.8,1.5c0,0.5,0.2,0.9,0.5,1.3c0.4,0.3,1.3,0.7,2.8,1
					c1.5,0.4,2.6,0.6,3.1,0.9c0.8,0.4,1.4,0.9,1.8,1.5c0.4,0.6,0.6,1.3,0.6,2s-0.2,1.5-0.6,2.1s-1.1,1.2-1.9,1.6s-1.7,0.6-2.7,0.6
					c-1.3,0-2.4-0.2-3.2-0.6c-0.9-0.4-1.5-0.9-2-1.7S354.9,369.9,354.8,368.9L354.8,368.9L354.8,368.9z"/>
				<path id="path206" class="st13" d="M368.8,373.5v-14.2H379v1.7h-8.4v4.4h7.9v1.7h-7.9v4.8h8.7v1.7L368.8,373.5L368.8,373.5z"/>
				<path id="path208" class="st13" d="M381.9,373.5v-14.2h1.9v12.5h7v1.7L381.9,373.5L381.9,373.5z"/>
				<path id="path210" class="st13" d="M393,373.5v-14.2h10.3v1.7h-8.4v4.4h7.9v1.7h-7.9v4.8h8.7v1.7L393,373.5L393,373.5z"/>
				<path id="path212" class="st13" d="M416.4,368.5l1.9,0.5c-0.4,1.5-1.1,2.7-2.1,3.5c-1,0.8-2.3,1.2-3.8,1.2s-2.8-0.3-3.7-0.9
					c-1-0.6-1.7-1.5-2.2-2.7s-0.8-2.5-0.8-3.8c0-1.5,0.3-2.8,0.9-3.9s1.4-1.9,2.4-2.5s2.2-0.9,3.5-0.9c1.4,0,2.6,0.4,3.6,1.1
					c1,0.7,1.6,1.7,2,3l-1.9,0.4c-0.3-1-0.8-1.8-1.4-2.3s-1.4-0.7-2.4-0.7c-1.1,0-2,0.3-2.7,0.8c-0.7,0.5-1.2,1.2-1.5,2.1
					c-0.3,0.9-0.5,1.8-0.5,2.7c0,1.2,0.2,2.3,0.5,3.2c0.4,0.9,0.9,1.6,1.6,2s1.5,0.7,2.4,0.7c1,0,2-0.3,2.7-0.9
					C415.6,370.6,416.1,369.7,416.4,368.5L416.4,368.5L416.4,368.5z"/>
				<path id="path214" class="st13" d="M424.2,373.5v-12.5h-4.7v-1.7h11.3v1.7h-4.7v12.5H424.2L424.2,373.5z"/>
			</g>
			<g id="START">
				<path id="path217" class="st13" d="M549.9,368.9l1.8-0.2c0.1,0.7,0.3,1.3,0.6,1.8s0.8,0.8,1.4,1.1c0.7,0.3,1.4,0.4,2.2,0.4
					c0.7,0,1.3-0.1,1.9-0.3c0.5-0.2,1-0.5,1.2-0.9c0.3-0.4,0.4-0.8,0.4-1.2s-0.1-0.8-0.4-1.2s-0.7-0.6-1.3-0.8
					c-0.4-0.1-1.2-0.4-2.5-0.7c-1.3-0.3-2.2-0.6-2.7-0.9c-0.7-0.4-1.2-0.8-1.5-1.3c-0.3-0.5-0.5-1.1-0.5-1.8c0-0.7,0.2-1.4,0.6-2
					s1-1.1,1.8-1.4s1.7-0.5,2.6-0.5c1,0,2,0.2,2.8,0.5c0.8,0.3,1.4,0.8,1.9,1.5c0.4,0.7,0.7,1.4,0.7,2.2l-1.8,0.1
					c-0.1-0.9-0.4-1.6-1-2c-0.6-0.5-1.4-0.7-2.5-0.7s-2,0.2-2.5,0.6s-0.8,0.9-0.8,1.5c0,0.5,0.2,0.9,0.5,1.3c0.4,0.3,1.3,0.7,2.8,1
					c1.5,0.4,2.6,0.6,3.2,0.9c0.8,0.4,1.4,0.9,1.8,1.5c0.4,0.6,0.6,1.3,0.6,2s-0.2,1.5-0.7,2.1c-0.4,0.7-1.1,1.2-1.9,1.6
					s-1.7,0.6-2.7,0.6c-1.3,0-2.4-0.2-3.2-0.6s-1.5-0.9-2-1.7C550.2,370.7,549.9,369.9,549.9,368.9L549.9,368.9L549.9,368.9z"/>
				<path id="path219" class="st13" d="M567.4,373.5v-12.5h-4.7v-1.7H574v1.7h-4.7v12.5H567.4L567.4,373.5z"/>
				<path id="path221" class="st13" d="M572.8,373.5l5.5-14.2h2l5.8,14.2H584l-1.7-4.3h-5.9l-1.6,4.3H572.8L572.8,373.5z
					 M576.9,367.6h4.8l-1.5-3.9c-0.5-1.2-0.8-2.2-1-3c-0.2,0.9-0.4,1.8-0.8,2.7L576.9,367.6L576.9,367.6z"/>
				<path id="path223" class="st13" d="M587.7,373.5v-14.2h6.3c1.3,0,2.2,0.1,2.9,0.4c0.7,0.3,1.2,0.7,1.6,1.4s0.6,1.4,0.6,2.1
					c0,1-0.3,1.9-1,2.5c-0.7,0.7-1.7,1.1-3,1.3c0.5,0.2,0.9,0.5,1.1,0.7c0.5,0.5,1.1,1.1,1.6,1.9l2.5,3.9h-2.4l-1.9-3
					c-0.5-0.9-1-1.5-1.4-2c-0.4-0.5-0.7-0.8-1-1c-0.3-0.2-0.6-0.3-0.9-0.4c-0.2,0-0.6-0.1-1-0.1h-2.2v6.3L587.7,373.5L587.7,373.5z
					 M589.6,365.5h4c0.9,0,1.5-0.1,2-0.3c0.5-0.2,0.8-0.5,1.1-0.9c0.2-0.4,0.4-0.8,0.4-1.3c0-0.7-0.2-1.2-0.7-1.7
					c-0.5-0.4-1.3-0.6-2.3-0.6h-4.5L589.6,365.5L589.6,365.5z"/>
				<path id="path225" class="st13" d="M605.2,373.5v-12.5h-4.7v-1.7h11.3v1.7h-4.7v12.5H605.2L605.2,373.5z"/>
			</g>
		</g>
		<g id="Analogicos">
			<circle id="circle229" class="st14" cx="354.3" cy="498.7" r="91.9"/>
			<circle id="circle231" class="st14" cx="619.7" cy="498.7" r="91.9"/>
			<circle id="circle233" class="st15" cx="354.3" cy="498.7" r="69.4"/>
			<circle id="circle235" class="st15" cx="619.7" cy="498.7" r="69.4"/>
		</g>
		<text transform="matrix(1 0 0 1 186.52 154.01)" class="st16 st17 st18">L</text>
		<text transform="matrix(1 0 0 1 771.59 154.01)" class="st16 st17 st18">R</text>
	</g>
</g>
</svg>
