<?xml version="1.0" encoding="utf-8"?>
<!-- Generator: Adobe Illustrator 26.5.0, SVG Export Plug-In . SVG Version: 6.00 Build 0)  -->
<svg version="1.1" id="PCSX2_-_GT_Force" xmlns="http://www.w3.org/2000/svg" xmlns:xlink="http://www.w3.org/1999/xlink" x="0px"
	 y="0px" viewBox="0 0 720 498.1" style="enable-background:new 0 0 720 498.1;" xml:space="preserve">
<style type="text/css">
	.st0{fill:#949494;stroke:#000000;stroke-width:2;stroke-miterlimit:10;}
	.st1{fill:#333333;stroke:#000000;stroke-width:2;stroke-miterlimit:10;}
	.st2{fill:none;stroke:#000000;stroke-width:4;stroke-miterlimit:10;}
	.st3{fill:#404040;stroke:#000000;stroke-width:2;stroke-miterlimit:10;}
	.st4{stroke:#000000;stroke-miterlimit:10;}
	.st5{fill:#5F5F5F;stroke:#000000;stroke-width:5;stroke-miterlimit:10;}
	.st6{fill:#8C8C8C;stroke:#000000;stroke-width:2;stroke-miterlimit:10;}
	.st7{fill:none;stroke:#1A1A1A;stroke-miterlimit:10;}
	.st8{fill:none;stroke:#000000;stroke-miterlimit:10;}
	.st9{fill:#CCCCCC;}
	.st10{font-family:'FranklinGothic-Medium';}
	.st11{font-size:13.72px;}
	.st12{fill:#110AFF;stroke:#000000;stroke-width:2;stroke-miterlimit:10;}
	.st13{fill:#110AFF;stroke:#000000;stroke-width:1.9997;stroke-miterlimit:9.9988;}
</style>
<g id="By_Maxihplay">
	<g id="acelerador_00000001662871976786856470000009054353122297983372_">
		<path id="fundo_00000076585593219533971790000016153588035858032805_" class="st0" d="M716.8,327.6c0-3.2-2.6-5.9-5.9-6l-61.1-2.2
			c-3.3-0.1-6.1,2.4-6.3,5.7l-3.7,57.2l-7.6,8.2c-1.3,1.4-2,3.2-1.9,5.1l2.1,93.2c0.1,3,2.5,5.4,5.5,5.6l67.5-0.2
			c2.4,0.1,4.6-1.3,5.5-3.5l7.4-15.2L716.8,327.6L716.8,327.6z M710.2,373.1c-0.2,6.2-5.4,11-11.6,10.8s-11-5.4-10.8-11.6
			s5.4-11,11.6-10.8S710.3,367,710.2,373.1z M654.8,406.3c6.8,0.2,12.2,6,11.9,12.8s-6,12.2-12.8,11.9s-12.2-6-11.9-12.8
			S648,406,654.8,406.3z M653.3,465.7c-7.4-0.3-13.2-6.5-13-13.9s6.5-13.2,13.9-13s13.2,6.5,13,13.9S660.8,465.9,653.3,465.7z
			 M659,382.5c-6.2-0.2-11-5.4-10.8-11.6s5.4-11,11.6-10.8s11,5.4,10.8,11.6S665.2,382.7,659,382.5z M661.3,353.2
			c-6.2-0.2-11-5.4-10.8-11.6s5.4-11,11.6-10.8s11,5.4,10.8,11.6S667.5,353.4,661.3,353.2z M698.8,332.2c6.2,0.2,11,5.4,10.8,11.6
			s-5.4,11-11.6,10.8s-11-5.4-10.8-11.6S692.5,331.9,698.8,332.2z M693.2,406.8c6.8,0.2,12.2,6,11.9,12.8s-6,12.2-12.8,11.9
			s-12.2-6-11.9-12.8S686.5,406.5,693.2,406.8z M694,466.3c-7.4-0.3-13.2-6.5-13-13.9s6.5-13.2,13.9-13s13.2,6.5,13,13.9
			S701.3,466.5,694,466.3z"/>
		<path id="c_00000072246041432562194560000003853677572903651990_" class="st1" d="M665,483.2h-22c-1.8,0-3.2-1.4-3.2-3l0,0
			c0-1.6,1.5-3,3.2-3h22c1.8,0,3.2,1.4,3.2,3l0,0C668.2,481.8,666.8,483.2,665,483.2z"/>
		<path id="b_00000145041353654645992780000017654141553918259082_" class="st1" d="M702.8,483.1l-22,0.1c-1.8,0-3.2-1.3-3.2-3l0,0
			c0-1.6,1.4-3,3.2-3l22-0.1c1.8,0,3.2,1.3,3.2,3l0,0C706,481.8,704.5,483.1,702.8,483.1z"/>
		<path id="a_00000033368607998612385190000012438403790752130485_" class="st1" d="M655.5,390.1h40.7c2,0,3.6,1.6,3.6,3.6l0,0
			c0,2-1.6,3.6-3.6,3.6h-40.7c-2,0-3.6-1.6-3.6-3.6l0,0C652,391.7,653.5,390.1,655.5,390.1z"/>
		<path id="fundo" class="st2" d="M716.8,327.6c0-3.2-2.6-5.9-5.9-6l-61.1-2.2c-3.3-0.1-6.1,2.4-6.3,5.7l-3.7,57.2l-7.6,8.2
			c-1.3,1.4-2,3.2-1.9,5.1l2.1,93.2c0.1,3,2.5,5.4,5.5,5.6l67.5-0.2c2.4,0.1,4.6-1.3,5.5-3.5l7.4-15.2L716.8,327.6L716.8,327.6z"/>
	</g>
	<g id="freio_00000109021306286401379440000000615607984069233055_">
		<path id="fundo-2_00000018199417012544794380000007612161241220137092_" class="st0" d="M111.8,422.7l-6.1-10.5l0.7-29.9
			c0.1-2.9-2.3-5.3-5.2-5.3l-90.1,0.7c-2.7,0-4.9,2.1-5.1,4.8l-4,47.8c-0.3,3.3-0.1,6.6,0.4,9.9l8.3,50.3c0.4,2.5,2.6,4.3,5.1,4.2
			l70.9-0.8c1.7,0,3.3-0.9,4.2-2.3l20.9-32.3c0.7-1,1-2.2,1-3.4v-30.1C112.8,424.8,112.4,423.7,111.8,422.7L111.8,422.7z
			 M78.9,386.4c9,0,16.2,7.3,16.2,16.2s-7.3,16.2-16.2,16.2s-16.2-7.3-16.2-16.2S69.9,386.4,78.9,386.4z M30.1,386.4
			c9,0,16.2,7.3,16.2,16.2s-7.3,16.2-16.2,16.2s-16.2-7.3-16.2-16.2S21.1,386.4,30.1,386.4z M29.5,471.9c-9,0-16.2-7.3-16.2-16.2
			s7.3-16.2,16.2-16.2s16.3,7.3,16.3,16.2S38.5,471.9,29.5,471.9z M81.2,471.9c-9,0-16.2-7.3-16.2-16.2s7.3-16.2,16.2-16.2
			s16.2,7.3,16.2,16.2S90.2,471.9,81.2,471.9z"/>
		<path id="a-2_00000075867775633632979230000017903491031160324785_" class="st1" d="M34.2,424.9h40.7c2,0,3.6,1.6,3.6,3.6l0,0
			c0,2-1.6,3.6-3.6,3.6H34.2c-2,0-3.6-1.6-3.6-3.6l0,0C30.5,426.6,32.2,424.9,34.2,424.9z"/>
		<path id="fundo-2" class="st2" d="M111.8,422.7l-6.1-10.5l0.7-29.9c0.1-2.9-2.3-5.3-5.2-5.3l-90.1,0.7c-2.7,0-4.9,2.1-5.1,4.8
			l-4,47.8c-0.3,3.3-0.1,6.6,0.4,9.9l8.3,50.3c0.4,2.5,2.6,4.3,5.1,4.2l70.9-0.8c1.7,0,3.3-0.9,4.2-2.3l20.9-32.3c0.7-1,1-2.2,1-3.4
			v-30.1C112.8,424.8,112.4,423.7,111.8,422.7L111.8,422.7z"/>
	</g>
	<g id="volante">
		<g id="corpo">
			<path id="volante-2" class="st3" d="M367.8,1C229.4,1,115.3,105.2,115.3,243.6c0,26,3.9,51,11.3,74.5
				c12.7,40.8,39.8,79.5,50.6,90.4c1.1,1.1,4.9,4.8,8.2,10.9c5,9.2,5.2,17.4,5.6,20.2c2.3,17.8,37.4,30.4,62.2,39.2
				c44,15.7,67.4,24.1,87.9,13.8c5.6-2.8,14.1-8.5,27-8.8c12.2-0.3,20.7,4.5,25.8,6.7c24.6,10.9,53.7,0.5,85.2-10.6
				c26.2-9.3,58-20.6,61.7-39.2c0.7-3.5,1.8-14.7,9.5-26.3c2.7-4,5.2-6.7,6-7.5c8.2-8.9,35.2-43.7,49.2-88.6
				c7.3-23.5,11.3-48.6,11.3-74.5C616.7,105.2,506.2,1,367.8,1z M330.5,372.3c-0.5,9.9-1,31.5-1.1,36.5c0,0.8-0.2,1.6-0.4,2.4
				c-1.4,4.2-6.9,16.9-21.5,15.5c-14.9-1.4-47.4-20.9-56.4-26.5c-1.6-1-3-2.2-4.1-3.7l-46.9-60.8c-1.7-2.2-2.7-4.9-2.7-7.7
				c-0.1-5.7,0.4-15.2,5.4-19c7.3-5.6,48.8-20.7,48.8-20.7s10.6-3.4,22.4,8.4s52.7,59.4,52.7,59.4S331.1,361.1,330.5,372.3
				L330.5,372.3z M537,326.5c-0.1,2.8-1,5.4-2.7,7.6L487,395.5c-0.9,1.1-1.9,2.1-3.1,2.8c-8.2,5.1-41.8,25.4-57,26.9
				c-14.5,1.4-20.1-11.3-21.5-15.5c-0.3-0.8-0.4-1.6-0.4-2.4c-0.1-5-0.6-26.6-1.1-36.5c-0.6-11.2,3.9-16.3,3.9-16.3
				s40.9-47.6,52.7-59.4s22.4-8.4,22.4-8.4s41.5,15.1,48.8,20.7C536.5,311.3,537,320.8,537,326.5L537,326.5z M531.2,219.4
				c-1.8,0.4-11.2-0.6-16.4-2.4c0,0-52.2-18.7-53.1-19.1c-89-41.8-156.9-9-169.6-4.7c-1.5,0.5-80.2,27.1-80.2,27.1
				c-11.8,4.6-20.1-2.1-24.5-7.2c-2.7-3.2-4.6-7-5.8-11c-3-10.2-0.5-18.1,3.1-23.6c3.7-5.7,9.5-9.7,15.9-11.9l25.2-10.9
				c13.5-3.8,23.6-10.7,29.8-15.8c3.9-3.3,7.1-7.5,9-12.2c20.6-50.4,46.2-58.8,46.2-58.8c30.4-11.4,86.9-11,106.1-2.4
				c30.5,13.8,45.7,50.6,53.2,65c6.4,12.4,22.7,19.4,28.5,21.3c1.1,0.4,2.2,0.6,3.3,0.8c5.5,1.1,18.4,5.9,24.1,7.5
				c2.9,0.8,6.7,2.1,9.9,4c5.1,3.1,9.3,6.4,11.9,11.7C559.3,200.5,543.7,216.6,531.2,219.4L531.2,219.4z"/>
			<path id="volante-2_00000127726062160665503940000012005563549226608801_" class="st2" d="M367.8,1
				C229.4,1,115.3,105.2,115.3,243.6c0,26,3.9,51,11.3,74.5c12.7,40.8,39.8,79.5,50.6,90.4c1.1,1.1,4.9,4.8,8.2,10.9
				c5,9.2,5.2,17.4,5.6,20.2c2.3,17.8,37.4,30.4,62.2,39.2c44,15.7,67.4,24.1,87.9,13.8c5.6-2.8,14.1-8.5,27-8.8
				c12.2-0.3,20.7,4.5,25.8,6.7c24.6,10.9,53.7,0.5,85.2-10.6c26.2-9.3,58-20.6,61.7-39.2c0.7-3.5,1.8-14.7,9.5-26.3
				c2.7-4,5.2-6.7,6-7.5c8.2-8.9,35.2-43.7,49.2-88.6c7.3-23.5,11.3-48.6,11.3-74.5C616.7,105.2,506.2,1,367.8,1z"/>
		</g>
		<g id="meio">
			<g id="parafusos">
				<circle id="_5" class="st4" cx="306.4" cy="248.5" r="5.3"/>
				<circle id="_4" class="st4" cx="336.2" cy="308.8" r="5.3"/>
				<circle id="_3" class="st4" cx="397.2" cy="308.8" r="5.3"/>
				<circle id="_2" class="st4" cx="425.2" cy="248.5" r="5.3"/>
				<circle id="_1" class="st4" cx="366" cy="196.2" r="5.3"/>
			</g>
			<g id="meio-2">
				<circle id="g1" class="st5" cx="366" cy="256.3" r="47.8"/>
				<circle id="g2" class="st4" cx="366" cy="254.4" r="35.4"/>
			</g>
		</g>
		<g id="abas_00000127009210312510451120000015725800022492687262_">
			<path id="abas_00000154392323066952070000000003240555346222253209_" class="st6" d="M495.4,384.6c6.9,2.1,17.5,2.9,30.5,3
				c16.2,0.1,28.2-5.7,38.6-15.5c24.9-23.2,36-63.5,36-63.5l0,0l0,0c15.6-63,2.7-117.9,2.7-117.9C577.7,82.3,484,50,484,50
				c-41.5-17.9-58,21.3-58,21.3c24.5,16.2,37.4,47.2,44.1,60.1c6.4,12.4,22.6,19.4,28.4,21.3c1.1,0.4,2.2,0.6,3.3,0.8
				c5.5,1.1,18.3,5.8,24,7.5c2.9,0.8,6.7,2.1,9.9,4c5.1,3,9.2,6.4,11.9,11.7c11.6,23.7-4,39.8-16.5,42.6c-1.8,0.4-11.1-0.6-16.3-2.5
				c0,0-4.4-1.6-10.7-3.8l21.3,90.9c2.8,1.4,4.9,2.5,6.1,3.5c5,3.8,5.5,13.4,5.3,19.1c-0.1,2.8-1,5.4-2.7,7.6
				c-4.6,6.1-9.2,12.2-13.9,18.2C512,363.1,503.6,373.9,495.4,384.6z M312.4,68.7c1.4-0.5,2.8-1,4.3-1.5 M316.5,67.2
				c-13.4-18-23.1-27.9-65.4-18.2c0,0-43.1,8.4-89.7,70.3c-12.4,21.4-30.1,59-33.1,108.3c0,0-4.5,73.7,30.2,135.1
				c9.8,14.7,29.1,28.5,51.4,29.2c22.4,0.6,30.5-2,31.7-3.6c-13.5-17.6-27-35.1-40.5-52.7c-1.7-2.2-2.7-4.9-2.7-7.7
				c-0.1-5.7,0.4-15.2,5.3-19c2.3-1.8,8.1-4.5,14.9-7.5l19.2-89.7c-13.9,4.7-25.1,8.5-25.1,8.5c-11.7,4.6-20.1-2.1-24.4-7.2
				c-2.7-3.2-4.6-7-5.8-11c-3-10.2-0.5-18.1,3.1-23.6c3.7-5.7,9.4-9.7,15.8-11.9l26.1-10.9c13.5-3.8,23.6-10.7,29.7-15.8
				c3.9-3.3,7.1-7.5,9-12.2c20.5-50.4,46-58.8,46-58.8L316.5,67.2L316.5,67.2z"/>
		</g>
		<g id="detalhes">
			<path id="d" class="st7" d="M400.5,389l1,33.5c0,0,0.5,13.4,17.8,22.2"/>
			<path id="c-2" class="st7" d="M334.4,389l-1,33.5c0,0-0.5,13.4-17.8,22.2"/>
			<path id="b-2" class="st8" d="M599.2,243.3c0,0-1.7,51.1-48.2,30.6L439.9,197c-1.1-0.8-2.5,0.1-2.4,1.4l10.8,78.9"/>
			<path id="a-3" class="st8" d="M140.4,243.3c0,0,1.7,51.1,48.2,30.6L299.8,197c1.1-0.8,2.5,0.1,2.4,1.4l-10.8,78.9"/>
		</g>
		<g id="botoes">
			<g id="b-3">
				<path id="b-4" class="st9" d="M468.9,264.6l8.1,0.9c1.2,0.1,2.2-0.8,2.1-2.2l-0.5-8.9c-0.1-1.4-1.2-2.7-2.5-2.8l-8.4-0.9
					c-1.3-0.1-2.2,0.9-2.1,2.3l0.7,8.9C466.5,263.3,467.6,264.4,468.9,264.6L468.9,264.6z"/>
				<text transform="matrix(1 0 0 1 468.42 262.44)" class="st10 st11">B</text>
				<circle id="b-5" class="st12" cx="494.9" cy="258.8" r="11.2"/>
			</g>
			<g id="y">
				<path id="y-2" class="st9" d="M466.9,236.6l8.1,0.9c1.2,0.1,2.2-0.8,2.1-2.2l-0.5-8.9c-0.1-1.4-1.2-2.7-2.5-2.8l-8.4-0.9
					c-1.3-0.1-2.2,0.9-2.1,2.3l0.7,8.9C464.5,235.3,465.6,236.4,466.9,236.6L466.9,236.6z"/>
				<text transform="matrix(1 0 0 1 466.62 234.7)" class="st10 st11">Y</text>
				
					<ellipse id="botao_y" transform="matrix(0.1723 -0.985 0.985 0.1723 194.1422 653.9542)" class="st13" cx="486.2" cy="211.5" rx="7" ry="10.5"/>
			</g>
			<g id="a-4">
				<path id="a-5" class="st9" d="M270.5,264.7l-8.1,0.9c-1.2,0.1-2.2-0.8-2.1-2.2l0.5-8.9c0.1-1.4,1.2-2.7,2.5-2.8l8.4-0.9
					c1.3-0.1,2.2,0.9,2.1,2.3L273,262C272.8,263.4,271.6,264.5,270.5,264.7L270.5,264.7z"/>
				<text transform="matrix(1 0 0 1 263.11 261.95)" class="st10 st11">A</text>
				<circle id="botao_a" class="st12" cx="244.9" cy="258.8" r="11.2"/>
			</g>
			<g id="x">
				<path id="x-2" class="st9" d="M276,235.5l-8.1,0.9c-1.2,0.1-2.2-0.8-2.1-2.2l0.5-8.9c0.1-1.4,1.2-2.7,2.5-2.8l8.4-0.9
					c1.3-0.1,2.2,0.9,2.1,2.3l-0.7,8.9C278.4,234.2,277.2,235.4,276,235.5L276,235.5z"/>
				<text transform="matrix(1 0 0 1 268.68 233.4)" class="st10 st11">X</text>
				
					<ellipse id="botao_x" transform="matrix(0.985 -0.1723 0.1723 0.985 -32.594 47.3053)" class="st13" cx="256.2" cy="211.4" rx="10.5" ry="7"/>
			</g>
		</g>
	</g>
</g>
</svg>
