<?xml version="1.0" encoding="utf-8"?>
<!-- Generator: Adobe Illustrator 26.5.0, SVG Export Plug-In . SVG Version: 6.00 Build 0)  -->
<svg version="1.1" id="PCSX2_-_Guitar" xmlns="http://www.w3.org/2000/svg" xmlns:xlink="http://www.w3.org/1999/xlink" x="0px"
	 y="0px" viewBox="0 0 594.5 185.7" style="enable-background:new 0 0 594.5 185.7;" xml:space="preserve">
<style type="text/css">
	.st0{stroke:#000000;stroke-width:2;stroke-miterlimit:10;}
	.st1{fill:#FAFAFA;stroke:#000000;stroke-width:2;stroke-miterlimit:10;}
	.st2{fill:#FAFAFA;stroke:#000000;stroke-width:4;stroke-miterlimit:10;}
	.st3{fill:#1A1A1A;stroke:#000000;stroke-width:2;stroke-miterlimit:10;}
	.st4{fill:#1A1A1A;stroke:#000000;stroke-width:4;stroke-miterlimit:10;}
	.st5{fill:none;stroke:#000000;stroke-width:2;stroke-linecap:round;stroke-miterlimit:10;}
	.st6{fill:#12C674;stroke:#000000;stroke-miterlimit:10;}
	.st7{fill:#E52F28;stroke:#000000;stroke-miterlimit:10;}
	.st8{fill:#FBE915;stroke:#000000;stroke-miterlimit:10;}
	.st9{fill:#373495;stroke:#000000;stroke-miterlimit:10;}
	.st10{fill:#FC6D24;stroke:#000000;stroke-miterlimit:10;}
	.st11{stroke:#333333;stroke-width:2;stroke-miterlimit:10;}
	.st12{fill:#EBEBEB;stroke:#000000;stroke-width:2;stroke-miterlimit:10;}
	.st13{fill:none;stroke:#999999;stroke-width:2;stroke-miterlimit:10;}
	.st14{fill:#FFFFFF;stroke:#000000;stroke-width:2;stroke-miterlimit:10;}
	.st15{fill:none;stroke:#000000;stroke-width:2;stroke-miterlimit:10;}
	.st16{fill:none;stroke:#333333;stroke-width:4;stroke-linecap:round;stroke-miterlimit:10;}
</style>
<g id="By_Maxihplay">
	<g id="corpo">
		<g id="Pino">
			<path id="_3" class="st0" d="M259.5,13.9h0.5c0.4,0,0.8,0.3,0.8,0.8v5.2c0,0.4-0.3,0.8-0.8,0.8h-0.5c-0.4,0-0.8-0.3-0.8-0.8v-5.2
				C258.7,14.3,259,13.9,259.5,13.9z"/>
			<rect id="_2" x="253.8" y="13.9" class="st0" width="2" height="6.7"/>
			<rect id="_1" x="256.5" y="15.9" class="st0" width="0.6" height="2.6"/>
		</g>
		<path id="_1-2" class="st1" d="M8.3,29.4c6.7-12.7,27-39.9,72.5-23c1,0.4,1.9,0.8,2.9,1.3l30,15.2c0.9,0.5,1.8,1,2.7,1.6
			c3.9,2.6,18.8,10.4,44.6-0.8c25.6-11,46.4-17.2,52.3-18.9c1.2-0.3,2.4-0.6,3.6-0.8c5.7-0.8,22.8-2.9,29.6,2.4
			c5.1,4,8.8,10.2,5.2,17.9c-2.4,5.2-24.6,33.9-32.9,45.3c-2.2,3-3.8,6.4-4.7,10l-7.9,31.2c-0.5,2-0.8,4.1-0.9,6.1
			c-0.3,7.6-1.5,20.8,5.9,38.6c3.8,9.1-0.9,14.2-6.5,17.2c-4.5,2.5-9.7,3.5-14.9,3.2c-9.6-0.4-30.1-3-58.9-15.2c0,0-10-4.2-23.6,2.1
			c-11.6,5.4-29.5,15.5-30.3,15.9c-4.6,2.1-19.2,8.1-27.9,5.1c-10.5-3.7-38.8-46.2-38.8-46.2S0.5,125.1,1,101c0,0,1.2-45,2.4-53.7
			C4.3,40.9,7.1,31.7,8.3,29.4L8.3,29.4z"/>
		<path id="_1-2_00000021816544926974307530000007609015608806611869_" class="st2" d="M8.3,29.4c6.7-12.7,27-39.9,72.5-23
			c1,0.4,1.9,0.8,2.9,1.3l30,15.2c0.9,0.5,1.8,1,2.7,1.6c3.9,2.6,18.8,10.4,44.6-0.8c25.6-11,46.4-17.2,52.3-18.9
			c1.2-0.3,2.4-0.6,3.6-0.8c5.7-0.8,22.8-2.9,29.6,2.4c5.1,4,8.8,10.2,5.2,17.9c-2.4,5.2-24.6,33.9-32.9,45.3c-2.2,3-3.8,6.4-4.7,10
			l-7.9,31.2c-0.5,2-0.8,4.1-0.9,6.1c-0.3,7.6-1.5,20.8,5.9,38.6c3.8,9.1-0.9,14.2-6.5,17.2c-4.5,2.5-9.7,3.5-14.9,3.2
			c-9.6-0.4-30.1-3-58.9-15.2c0,0-10-4.2-23.6,2.1c-11.6,5.4-29.5,15.5-30.3,15.9c-4.6,2.1-19.2,8.1-27.9,5.1
			c-10.5-3.7-38.8-46.2-38.8-46.2S0.5,125.1,1,101c0,0,1.2-45,2.4-53.7C4.3,40.9,7.1,31.7,8.3,29.4L8.3,29.4z"/>
	</g>
	<g id="braco">
		<path id="braco_fundo_00000056395240482806791850000007134123659433699235_" class="st3" d="M201,70.4l296,5.3l25.8-12.9
			c0,0,32,3,69.5,34c0,0,7.3,5.4-15.3,14.6l-26.4-0.8c0,0-10.3-1.2-32.2,14.2l-23.6-14.6l-321.6,5.4L201,70.4L201,70.4z"/>
		<path id="braco_fundo" class="st4" d="M201,70.4l296,5.3l25.8-12.9c0,0,32,3,69.5,34c0,0,7.3,5.4-15.3,14.6l-26.4-0.8
			c0,0-10.3-1.2-32.2,14.2l-23.6-14.6l-321.6,5.4L201,70.4L201,70.4z"/>
		<g id="paletas">
			<line id="_13" class="st5" x1="217.5" y1="76.6" x2="217.5" y2="110.7"/>
			<line id="_12" class="st5" x1="236.3" y1="76.4" x2="236.3" y2="110.5"/>
			<line id="_11" class="st5" x1="255.2" y1="76.4" x2="255.2" y2="110.5"/>
			<line id="_10" class="st5" x1="274" y1="76.3" x2="274" y2="110.4"/>
			<line id="_9" class="st5" x1="294.2" y1="76.9" x2="294.2" y2="109.7"/>
			<line id="_8" class="st5" x1="316.9" y1="76.9" x2="316.9" y2="109.7"/>
			<line id="_7" class="st5" x1="340.5" y1="77.3" x2="340.5" y2="108.6"/>
			<line id="_6" class="st5" x1="364.9" y1="77.3" x2="364.9" y2="108.6"/>
			<line id="_5" class="st5" x1="388.5" y1="78.8" x2="388.5" y2="106.7"/>
			<line id="_4" class="st5" x1="412.2" y1="78.7" x2="412.2" y2="106.6"/>
			<line id="_3-2" class="st5" x1="435.9" y1="78.7" x2="435.9" y2="106.6"/>
			<line id="_2-2" class="st5" x1="459.5" y1="78.6" x2="459.5" y2="106.5"/>
			<line id="_1-3" class="st5" x1="483.9" y1="78.6" x2="483.9" y2="106.5"/>
		</g>
		<g id="botoes">
			<path id="_5-2" class="st6" d="M466.6,80.7h9.6c2,0,3.6,1.6,3.6,3.6v13.8c0,4.4-3.6,8-8,8h-0.7c-4.4,0-8-3.6-8-8V84.3
				C463,82.3,464.7,80.7,466.6,80.7L466.6,80.7z"/>
			<path id="_4-2" class="st7" d="M443,80.7h9.6c2,0,3.6,1.6,3.6,3.6v13.8c0,4.4-3.6,8-8,8h-0.7c-4.4,0-8-3.6-8-8V84.3
				C439.3,82.3,441,80.7,443,80.7L443,80.7z"/>
			<path id="_3-3" class="st8" d="M419.2,80.7h9.6c2,0,3.6,1.6,3.6,3.6v13.8c0,4.4-3.6,8-8,8h-0.7c-4.4,0-8-3.6-8-8V84.3
				C415.6,82.3,417.3,80.7,419.2,80.7L419.2,80.7z"/>
			<path id="_2-3" class="st9" d="M395.6,80.7h9.6c2,0,3.6,1.6,3.6,3.6v13.8c0,4.4-3.6,8-8,8H400c-4.4,0-8-3.6-8-8V84.3
				C392,82.3,393.6,80.7,395.6,80.7L395.6,80.7z"/>
			<path id="_1-4" class="st10" d="M371.9,80.7h9.6c2,0,3.6,1.6,3.6,3.6v13.8c0,4.4-3.6,8-8,8h-0.7c-4.4,0-8-3.6-8-8V84.3
				C368.3,82.3,369.9,80.7,371.9,80.7L371.9,80.7z"/>
		</g>
	</g>
	<path id="black" class="st3" d="M56.7,99.1l17.9-47.5c0.7-1.7,1.7-3.3,3.1-4.5c2.5-2.2,6.8-4.1,12.8-2.3
		c10.5,3.3,39.1,8.9,39.1,8.9s18.7,2.1,33.2-0.6c11.2-2.1,26.1-7,32.4-9.1c2.9-1,6.1-1.1,9-0.1c2,0.7,4,1.9,4.8,4.1
		c1.2,3,1.4,6.2,1.4,8.5c0,1.8-0.3,3.6-0.9,5.3c-0.6,1.8-1.7,4.6-3.4,8.6c-2.2,5.2-8.9,20.8-13,30.4c-2.5,5.8-3.6,12.1-3.3,18.3
		c0.5,9.4,1.1,19.4,7.7,34.5c5.2,12.4-7.7,21.2-69.6-3c0,0-11-5.6-24.6,2.7s-20.4-4.4-20.4-4.4L57,111.2
		C57,111.2,53.9,106.3,56.7,99.1L56.7,99.1z"/>
	<g id="alavanca">
		<path id="base" class="st11" d="M40.8,139.5l18.4-6.3c1.9-0.7,4,0.4,4.7,2.3l1.9,5.5c0.7,1.9-0.4,4-2.3,4.7L45.1,152
			c-1.9,0.7-4-0.4-4.7-2.3l-1.9-5.5C37.8,142.2,38.9,140.1,40.8,139.5z"/>
		<path id="cabo" class="st12" d="M51.8,140.8l58-0.8l0.1,3.8l-58,0.8c-0.5,0-0.9-0.4-1-0.9v-2C50.9,141.3,51.3,140.8,51.8,140.8z"
			/>
		<path id="ponta" class="st0" d="M111.4,138.6l18.4-0.4c1.2,0,2.2,0.9,2.2,2.1v2.3c0,1.2-0.9,2.2-2.1,2.2l-18.4,0.4
			c-1.2,0-2.2-0.9-2.2-2.1v-2.3C109.3,139.6,110.2,138.6,111.4,138.6z"/>
	</g>
	<g id="_2_botoes">
		<path id="contorno" class="st13" d="M39.2,94.2c-4.2,0.4-7.8,3.2-9.4,7.2c-0.7,1.7-0.9,3.2-0.8,4.8c0.1,1-0.9,1.8-1.9,1.5
			c-1.5-0.4-3.2-0.6-5-0.3c-4.7,0.8-8.4,4.5-9.3,9.1c-1.3,7.6,4.9,14.1,12.3,13.3c4.2-0.4,7.8-3.3,9.4-7.2c0.7-1.7,0.9-3.2,0.8-4.8
			c-0.1-1,0.9-1.8,1.8-1.5c1.5,0.4,3.2,0.6,5,0.3c4.7-0.8,8.5-4.5,9.3-9.1C52.8,99.9,46.6,93.4,39.2,94.2L39.2,94.2z"/>
		<circle id="b" class="st11" cx="40.2" cy="105.4" r="7.2"/>
		<circle id="a" class="st11" cx="24" cy="118.4" r="7.2"/>
	</g>
	<g id="meio">
		<path id="_3-4" class="st14" d="M99.9,86.4h51.9c4.8,0,8.7,3.9,8.7,8.7l0,0c0,4.8-3.9,8.7-8.7,8.7H99.9c-4.8,0-8.7-3.9-8.7-8.7
			l0,0C91.2,90.3,95.1,86.4,99.9,86.4z"/>
		<ellipse id="b-2" class="st15" cx="140.7" cy="95.2" rx="10" ry="4.1"/>
		<ellipse id="a-2" class="st15" cx="111.1" cy="95.2" rx="10" ry="4.1"/>
		<rect id="_2-4" x="110.7" y="89.8" class="st0" width="30.8" height="10.7"/>
		<line id="_1-5" class="st16" x1="112.1" y1="95.2" x2="140.3" y2="95.2"/>
	</g>
</g>
</svg>
