<?xml version="1.0" encoding="utf-8"?>
<!-- Generator: Adobe Illustrator 27.4.1, SVG Export Plug-In . SVG Version: 6.00 Build 0)  -->
<svg version="1.1" id="PCSX2_-_Namco" xmlns="http://www.w3.org/2000/svg" xmlns:xlink="http://www.w3.org/1999/xlink" x="0px"
	 y="0px" viewBox="0 0 946.9 658.6" style="enable-background:new 0 0 946.9 658.6;" xml:space="preserve">
<style type="text/css">
	
		.st0{fill-rule:evenodd;clip-rule:evenodd;fill:#808080;stroke:#000000;stroke-width:5;stroke-linecap:round;stroke-linejoin:round;}
	.st1{fill:none;stroke:#000000;stroke-width:3.33;stroke-linecap:round;stroke-linejoin:round;}
	.st2{fill:none;stroke:#000000;stroke-width:1.67;stroke-linecap:round;stroke-linejoin:round;}
	
		.st3{fill-rule:evenodd;clip-rule:evenodd;fill:#404040;stroke:#1A1A1A;stroke-width:3.33;stroke-linecap:round;stroke-linejoin:round;}
	.st4{fill:#E0E0E0;}
	.st5{fill:#808080;stroke:#000000;stroke-width:5;stroke-linecap:round;stroke-linejoin:round;}
	.st6{fill:#4F4F4F;stroke:#000000;stroke-width:5;stroke-linecap:round;stroke-linejoin:round;}
	.st7{fill:#404040;stroke:#000000;stroke-width:3.33;stroke-linecap:round;stroke-linejoin:round;}
	.st8{fill:#0D0D0D;stroke:#000000;stroke-width:3.33;stroke-linecap:round;stroke-linejoin:round;}
	.st9{fill:#404040;stroke:#1A1A1A;stroke-width:3.33;stroke-linecap:round;stroke-linejoin:round;}
	.st10{fill:none;stroke:#6FB5E3;stroke-width:5;stroke-linecap:round;stroke-linejoin:round;}
	.st11{fill:none;stroke:#7ACCC2;stroke-width:5;stroke-linecap:round;stroke-linejoin:round;}
	.st12{fill:none;stroke:#FF5B61;stroke-width:5;stroke-linecap:round;stroke-linejoin:round;}
	.st13{fill:none;stroke:#F388AA;stroke-width:5;stroke-linecap:round;stroke-linejoin:round;}
	.st14{fill:#262626;stroke:#1A1A1A;stroke-width:3.33;stroke-linecap:round;stroke-linejoin:round;}
	.st15{fill:#666666;stroke:#1A1A1A;stroke-width:3.33;stroke-linecap:round;stroke-linejoin:round;}
	.st16{fill:#949494;stroke:#1A1A1A;stroke-width:3.33;stroke-linecap:round;stroke-linejoin:round;}
	.st17{fill:#DBDBDB;}
	.st18{fill:#FFFFFF;}
</style>
<g id="By_Maxihplay">
	<g>
		<path class="st0" d="M150.7,159.8c10.6-26.6,27-51,35.8-64.1c12.4-18.3,22.2-28.3,31.1-50.8c4.5-11.4,4.1-14.3,8.6-19.6
			c6.8-8,21.4-14.1,59.1-14.1c43.2,0,50.8,20.4,54,37.1c5.6,29.6,10.8,35.5,20.8,41.8c6.6,4.2,16.5,4.4,18.3,4.1
			c4.5-0.8,8-2.1,10.8-3.9c15.1-9.8,22.5-27.6,35.2-40c17.1-16.6,39.7-18,41.9-18.1c18.2-0.9,38.6,6.7,51.5,20.5
			c4.3,4.6,19,22.4,26.7,31.6c8,9.5,14.5,9.8,18.6,10.5c0.7,0.1,7.3,1.1,15.1-2.9c7.9-4,14.8-8.5,19.6-37.5
			c2.9-17.2,9.8-43.3,57-43.3c37.7,0,52.3,6,59.1,14.1c4.2,5,3.6,7.1,8.6,19.6c9.6,23.8,18.2,31.1,35.1,59
			c5.8,9.6,21.2,30.9,30.8,48.4"/>
		<g id="Base">
			<path id="path3" class="st1" d="M745.9,128c-1.7-5.5-3.5-10.1-4.4-12.6c-2-5.4-7.3-25.1-58.4-25.1c-48.1,0-56.3,15.3-61.8,26.7
				c-4.9,10.1-1.5,3.9-7.2,14.8c-3.5,6.8-7.7,11.7-15.5,15.5c-17.2,8.4-35.2,2-45.2-14.8c-16-26.9-30.4-37-43.4-42.9
				c-28-12.9-49.5-10.8-68.6-5.1c-14.5,4.4-36.5,17.9-47.1,34.7c-3.9,6.1-9.5,15.6-15,21.1c-10.9,11.1-19.4,12-31.7,9.8
				c-2.2-0.4-12.4-3.1-19.4-11.4c-4.5-5.4-5.1-8.7-9.2-21.6c-3.8-12.1-13.7-26.7-61.9-26.7c-51,0-56.3,19.7-58.4,25.1
				c-2.5,6.9-3,9.4-4.4,15.8"/>
			<path id="path9" class="st2" d="M745.4,127.4l-11.6-47.1c0,0-4.7-21.5-63.2-21.5c-9.8,0-39.1,1.9-54.6,21.9
				c-9.2,11.8-10.6,27.5-25.2,34c-5.9,2.7-11.2,2.8-13.6,2.8c-34.5,0.4-57-55-89.7-61.9c-9.4-2-19.1-1.7-19.1-1.7
				s-11.4,0.3-22.5,3.8c-32.5,10.3-48.2,61.2-79.5,61.2c-2.1,0-6.7,0-12.2-2.1c-16.8-6.2-18.9-22.8-30.4-36.2
				c-18.1-20.9-48.9-22.1-54.6-21.9c-32.1,1-63.1,21.5-63.1,21.5c-4.3,17.6-7.4,30.8-11.7,48.4"/>
			<path id="path23" class="st2" d="M198.6,112.9c0,0-19.7,10.4-33.7,34"/>
			<path id="path25" class="st2" d="M741.5,112.9c0,0,15.9,8.1,29.4,26.9"/>
			<path id="path27" class="st2" d="M206.4,79.9l4-19.2"/>
			<path id="path29" class="st2" d="M733.8,79.9l-4-19.2"/>
		</g>
		<g id="Controle">
			<g id="Botões1">
				<g id="g139">
					<path id="L1" class="st3" d="M272.7,52.9c-13.3-0.3-46.6-0.7-51.6,17.2c-7.8,27.9-2.9,13.3,41.8,13.3s47.5,22.1,54.2-5
						C322.5,56.5,290.3,53.3,272.7,52.9L272.7,52.9z"/>
					<g id="text137">
						<path class="st4" d="M274.1,62l-1.9,10.2l-2.2-0.4l1.6-8.4l-5.5-0.9l0.3-1.7L274.1,62L274.1,62z"/>
						<path class="st4" d="M260,59.7l2,0.3l-1.4,7.4c0.9-0.5,1.9-0.9,3-1l-0.3,1.8c-0.6,0.1-1.2,0.3-2,0.7c-0.7,0.4-1.3,0.8-1.6,1.4
							L258,70L260,59.7z"/>
					</g>
				</g>
				<g id="g149">
					<path id="L2" class="st3" d="M283.4,15.7c-13.3-0.3-46.6-0.7-51.6,16.3c-7.8,26.3-2.9,12.5,41.8,12.5s47.5,20.8,54.2-4.7
						C333.2,19.1,300.9,16.1,283.4,15.7z"/>
					<g id="text147">
						<path class="st4" d="M283.8,27.1l-1.3,10.2l-2.2-0.3l1.1-8.5l-5.5-0.6l0.2-1.7L283.8,27.1L283.8,27.1z"/>
						<path class="st4" d="M267.7,27.1l0.2-1.8l7.4,0.9c-0.2,0.7-0.5,1.3-1,1.9s-1.4,1.3-2.7,2.2c-1.1,0.7-1.7,1.2-2,1.5
							c-0.3,0.4-0.5,0.8-0.6,1.2c-0.1,0.4,0,0.8,0.2,1.1s0.5,0.4,1,0.5c0.4,0,0.8,0,1.1-0.2c0.3-0.2,0.5-0.6,0.6-1.2l2.1,0.4
							c-0.3,1.1-0.8,1.8-1.5,2.2s-1.6,0.5-2.6,0.4c-1.1-0.1-1.9-0.5-2.4-1.1s-0.8-1.3-0.7-2.2c0.1-0.5,0.2-0.9,0.4-1.3
							s0.6-0.8,1-1.2c0.3-0.3,0.8-0.7,1.5-1.2s1.2-0.8,1.4-1c0.2-0.2,0.4-0.3,0.5-0.5L267.7,27.1L267.7,27.1z"/>
					</g>
				</g>
				<g id="g144">
					<path id="R1" class="st3" d="M667.4,52.9c13.3-0.3,46.6-0.7,51.6,17.2c7.8,27.9,2.9,13.3-41.8,13.3s-47.5,22.1-54.2-5
						C617.6,56.5,649.9,53.3,667.4,52.9z"/>
					<g id="text142">
						<path class="st4" d="M680.4,59.9l1.9,10.2l-4.6,0.8c-1.2,0.2-2,0.2-2.6,0.2s-1-0.3-1.5-0.8c-0.4-0.4-0.7-0.9-0.8-1.5
							c-0.1-0.8,0-1.4,0.4-2s1-1,2-1.3c-0.5-0.2-1-0.4-1.3-0.7c-0.4-0.3-0.9-0.8-1.6-1.5l-1.7-1.8l2.6-0.4l2,2
							c0.7,0.7,1.2,1.1,1.4,1.3s0.5,0.3,0.7,0.3s0.6,0,1.1-0.1l0.4-0.1l-0.8-4.3L680.4,59.9L680.4,59.9z M679.3,66.2l-1.6,0.3
							c-1,0.2-1.7,0.3-2,0.4c-0.2,0.1-0.4,0.3-0.5,0.5s-0.1,0.5-0.1,0.8c0.1,0.3,0.2,0.6,0.5,0.8c0.2,0.2,0.5,0.3,0.9,0.3
							c0.2,0,0.7-0.1,1.6-0.2l1.7-0.3C679.8,68.8,679.3,66.2,679.3,66.2z"/>
						<path class="st4" d="M664.6,62.5l2.1-0.3l1.4,7.4c0.6-0.8,1.4-1.4,2.4-1.9l0.3,1.8c-0.5,0.3-1,0.7-1.6,1.2s-0.9,1.2-1,1.9
							l-1.7,0.3L664.6,62.5L664.6,62.5z"/>
					</g>
				</g>
				<g id="g154">
					<path id="R2" class="st3" d="M656.7,15.7C670,15.4,703.3,15,708.4,32c7.8,26.3,2.9,12.5-41.8,12.5s-47.5,20.8-54.2-4.7
						C606.9,19.1,639.2,16.1,656.7,15.7z"/>
					<g id="text152">
						<path class="st4" d="M671.4,24l1.3,10.3l-4.7,0.5c-1.2,0.1-2,0.1-2.6,0c-0.5-0.1-1-0.4-1.4-0.8s-0.6-1-0.7-1.6
							c-0.1-0.8,0.1-1.4,0.5-2s1.1-1,2-1.2c-0.5-0.2-1-0.5-1.3-0.7c-0.3-0.3-0.8-0.8-1.5-1.5l-1.6-1.9l2.7-0.3l1.9,2.1
							c0.7,0.7,1.1,1.2,1.4,1.4c0.2,0.2,0.5,0.3,0.7,0.4c0.2,0,0.6,0,1.1,0h0.5l-0.6-4.3L671.4,24L671.4,24z M670,30.2l-1.6,0.2
							c-1.1,0.1-1.7,0.2-2,0.4s-0.4,0.3-0.6,0.5c-0.1,0.2-0.2,0.5-0.1,0.8c0,0.3,0.2,0.6,0.4,0.8s0.5,0.3,0.9,0.3
							c0.2,0,0.7,0,1.6-0.2l1.7-0.2L670,30.2L670,30.2z"/>
						<path class="st4" d="M654,27.8l-0.2-1.8l7.4-0.9c0,0.7-0.1,1.4-0.5,2.1s-1,1.6-2,2.8c-0.8,0.9-1.3,1.6-1.5,1.9
							c-0.2,0.4-0.3,0.9-0.3,1.3c0.1,0.4,0.2,0.8,0.5,1s0.7,0.3,1.1,0.2c0.4,0,0.8-0.2,1-0.5s0.3-0.7,0.3-1.3h2.1
							c0,1.1-0.3,1.9-0.9,2.5s-1.4,0.9-2.4,1c-1.1,0.1-2,0-2.7-0.5s-1.1-1.1-1.2-1.9c-0.1-0.5,0-0.9,0.1-1.4
							c0.1-0.4,0.3-0.9,0.7-1.4c0.2-0.3,0.6-0.8,1.2-1.5c0.6-0.6,1-1.1,1.1-1.3c0.2-0.2,0.3-0.4,0.4-0.6
							C658.1,27.4,654,27.8,654,27.8z"/>
					</g>
				</g>
			</g>
		</g>
	</g>
	<path class="st5" d="M151.8,158.2C127.9,180.5,113,211.6,113,246c0,28.4,10.1,54.6,27.1,75.4c0.3,0.3,0.4,0.7,0.4,1.2
		c0.6,17.7-2,42-11.8,74.5c-27.2,90.6-11,131-11,131S133,604.5,178,634.3c43.9,29,71.7,1.4,73,0l0.1-0.1
		c39.9-46,22-214.1,37.3-250.1c10.9-25.7,34.1-21.1,44.1-16.4c3.9,1.8,6.5,5.8,6.5,10.1c0.1,25.5,3.7,126.9,88,157.9
		c98.1,36.1,149.8-42.6,149.8-42.6c2.1-2,29.1-35.5,31.6-115.2c0.1-4.4,2.8-8.4,6.8-10.2c10.1-4.7,32.2-9.2,43.1,16.4
		c15.3,36-2.5,204.2,37.3,250.1l0.1,0.1c1.3,1.3,29.1,29,73,0c45-29.7,60.3-106.2,60.3-106.2s16.1-40.4-11-131
		c-9.8-32.5-12.4-56.8-11.8-74.5c0-0.4,0.2-0.8,0.4-1.2c17-20.8,27.1-47,27.1-75.4c0-39.5-16.3-72.3-46.4-94.6"/>
	<g>
		<ellipse class="st1" cx="707.6" cy="246" rx="126.2" ry="122.7"/>
		<ellipse class="st2" cx="706.9" cy="245.3" rx="106.9" ry="104"/>
	</g>
	<g>
		<ellipse class="st2" cx="239.1" cy="245.6" rx="106.8" ry="103.6"/>
		<ellipse class="st1" cx="239.6" cy="246" rx="126.5" ry="122.7"/>
	</g>
	<g>
		<circle class="st6" cx="473.4" cy="384.9" r="126.6"/>
		<path class="st7" d="M475.9,315.4c-10.2,0-20.1,2-29,5.8c4.4,6,7,13.5,7,21.5c0,20.2-16.3,36.5-36.5,36.5
			c-5.6,0-10.8-1.2-15.6-3.4c-1,5-1.5,10.1-1.5,15.4c0,41.8,33.8,75.6,75.6,75.6c41.8,0,75.6-33.8,75.6-75.6
			S517.7,315.4,475.9,315.4L475.9,315.4z"/>
		<g>
			<line class="st1" x1="468.3" y1="263.7" x2="470.3" y2="292.4"/>
			<line class="st1" x1="434.1" y1="270" x2="442.7" y2="297.4"/>
			<line class="st1" x1="402.1" y1="285.3" x2="417.3" y2="305.7"/>
			<line class="st1" x1="374.7" y1="311.1" x2="392.3" y2="323.5"/>
			<line class="st1" x1="359.6" y1="337.9" x2="385.9" y2="347.1"/>
			<line class="st1" x1="351.2" y1="372" x2="379.6" y2="375.1"/>
			<line class="st1" x1="351.5" y1="401.9" x2="380.2" y2="400"/>
			<line class="st1" x1="359.6" y1="435.4" x2="386.4" y2="425.1"/>
			<line class="st1" x1="374.2" y1="462.9" x2="397.6" y2="446.3"/>
			<line class="st1" x1="398.1" y1="485.1" x2="415.5" y2="462.3"/>
			<line class="st1" x1="426.8" y1="501.2" x2="437.4" y2="474.6"/>
			<line class="st1" x1="457.2" y1="509.1" x2="461" y2="480.6"/>
			<line class="st1" x1="486.2" y1="509.1" x2="484.3" y2="480.5"/>
			<line class="st1" x1="517.2" y1="501.3" x2="506.5" y2="474.7"/>
			<line class="st1" x1="546" y1="487.4" x2="527.9" y2="465.1"/>
			<line class="st1" x1="569.1" y1="467" x2="547.5" y2="448"/>
			<line class="st1" x1="503.6" y1="267.5" x2="497.2" y2="295.6"/>
			<line class="st1" x1="534.9" y1="278.7" x2="520.3" y2="303.4"/>
			<line class="st1" x1="560.8" y1="299" x2="540.4" y2="319.3"/>
			<line class="st1" x1="579.2" y1="324" x2="555.7" y2="340.5"/>
			<line class="st1" x1="592" y1="352.8" x2="564.6" y2="361.6"/>
			<line class="st1" x1="597.4" y1="384.9" x2="568.7" y2="384.9"/>
			<line class="st1" x1="594.3" y1="417.1" x2="566.4" y2="410.3"/>
			<line class="st1" x1="583.6" y1="445.5" x2="558.3" y2="431.8"/>
		</g>
		<circle class="st7" cx="416.4" cy="341.6" r="30.5"/>
		<circle class="st2" cx="473.8" cy="390.3" r="115"/>
		<circle class="st8" cx="478.2" cy="391.2" r="9.8"/>
	</g>
	<g id="Botoes2">
		<circle id="circle166" class="st9" cx="642.9" cy="243.3" r="28.7"/>
		<path id="path168" class="st3" d="M737,177.9c0,15.9-12.8,28.7-28.7,28.7s-28.7-12.9-28.7-28.7s12.8-28.7,28.7-28.7
			S737,162,737,177.9L737,177.9z"/>
		<circle id="circle170" class="st9" cx="773.7" cy="243.3" r="28.7"/>
		<path id="path172" class="st3" d="M737,308.7c0,15.9-12.8,28.7-28.7,28.7s-28.7-12.9-28.7-28.7s12.8-28.7,28.7-28.7
			S737,292.8,737,308.7L737,308.7z"/>
		<g id="X">
			<path id="path174" class="st10" d="M722.2,294.7l-27.7,27.7"/>
			<path id="path176" class="st10" d="M694.4,294.7l27.7,27.7"/>
		</g>
		<path id="T" class="st11" d="M708.3,158.3l15.7,31.4h-31.4L708.3,158.3L708.3,158.3z"/>
		<circle id="O" class="st12" cx="773.7" cy="242.4" r="19"/>
		<rect id="_" x="627.8" y="228.1" class="st13" width="30.2" height="30.2"/>
	</g>
	<g>
		<path class="st9" d="M296.6,224.6h-38.9v-38.9c0-3.7-3-6.7-6.7-6.7h-26c-3.7,0-6.7,3-6.7,6.7v38.9h-38.9c-3.7,0-6.7,3-6.7,6.7v26
			c0,3.7,3,6.7,6.7,6.7h38.9v38.9c0,3.7,3,6.7,6.7,6.7h26c3.7,0,6.7-3,6.7-6.7V264h38.9c3.7,0,6.7-3,6.7-6.7v-26
			C303.3,227.6,300.3,224.6,296.6,224.6L296.6,224.6z"/>
		<circle class="st14" cx="238.5" cy="244.3" r="12.7"/>
	</g>
	<g>
		<path class="st2" d="M413.5,259.7c10.5-5.2,30.5-13.2,56.7-13.7c28.5-0.4,50.1,8.4,60.8,13.7"/>
		<path class="st2" d="M265.7,411.5c0,0-6.4,186.3-27,212.6"/>
		<path class="st2" d="M680.2,411.5c0,0,6.4,186.3,27,212.6"/>
		<path class="st2" d="M407,505.5c12.5,7.1,28.2,13.5,47.1,16.1c34.5,4.9,63.7-5,84.2-16.1"/>
	</g>
	<g>
		<rect x="396.1" y="194.3" class="st9" width="36.2" height="18.9"/>
		<path class="st9" d="M512.8,196.7v16.8c0,1.6,1.5,2.8,3.1,2.4l31.3-8.4c2.4-0.6,2.4-4.1,0-4.8l-31.3-8.4
			C514.3,193.9,512.8,195.1,512.8,196.7L512.8,196.7z"/>
		<g>
			<ellipse class="st2" cx="492.7" cy="170.9" rx="17.3" ry="16.1"/>
			<ellipse class="st15" cx="492.7" cy="170" rx="11.1" ry="10.3"/>
		</g>
		<rect x="441.3" y="163.3" class="st16" width="20.2" height="13.8"/>
	</g>
	<g>
		<path class="st17" d="M426.4,118.1h88.1c2.4,0,4.3,1.9,4.3,4.3v9.5c0,2.4-1.9,4.3-4.3,4.3h-88.1c-2.4,0-4.3-1.9-4.3-4.3v-9.5
			C422.1,120,424,118.1,426.4,118.1z"/>
		<g id="Select1">
			<path id="path182" class="st18" d="M394.8,226.5l1.4-0.1c0.1,0.5,0.3,0.8,0.5,1.1c0.3,0.2,0.6,0.3,1.1,0.3s0.8-0.1,1.1-0.3
				s0.4-0.4,0.4-0.7c0-0.2,0-0.3-0.1-0.4s-0.3-0.2-0.5-0.3s-0.6-0.2-1.2-0.3c-0.8-0.2-1.4-0.4-1.7-0.7c-0.5-0.4-0.7-0.9-0.7-1.5
				c0-0.4,0.1-0.7,0.3-1.1c0.2-0.3,0.5-0.6,0.9-0.7c0.4-0.2,0.9-0.3,1.5-0.3c0.9,0,1.6,0.2,2.1,0.6c0.5,0.4,0.7,0.9,0.7,1.6
				l-1.5,0.1c-0.1-0.4-0.2-0.6-0.4-0.8s-0.5-0.2-0.9-0.2s-0.8,0.1-1,0.3c-0.2,0.1-0.2,0.3-0.2,0.5s0.1,0.3,0.2,0.4
				c0.2,0.2,0.6,0.3,1.4,0.5c0.7,0.2,1.3,0.4,1.6,0.5c0.4,0.2,0.6,0.4,0.8,0.8c0.2,0.3,0.3,0.7,0.3,1.2c0,0.4-0.1,0.8-0.4,1.2
				s-0.6,0.6-1,0.8s-1,0.3-1.6,0.3c-0.9,0-1.6-0.2-2.1-0.6S394.9,227.4,394.8,226.5L394.8,226.5L394.8,226.5z"/>
			<path id="path184" class="st18" d="M402.1,228.9v-7.3h5.5v1.2h-4v1.6h3.7v1.2h-3.7v2h4.1v1.2L402.1,228.9L402.1,228.9z"/>
			<path id="path186" class="st18" d="M409,228.9v-7.3h1.5v6h3.7v1.2H409V228.9z"/>
			<path id="path188" class="st18" d="M415.2,228.9v-7.3h5.5v1.2h-4v1.6h3.7v1.2h-3.7v2h4.1v1.2L415.2,228.9L415.2,228.9z"/>
			<path id="path190" class="st18" d="M426.7,226.2l1.4,0.5c-0.2,0.8-0.6,1.4-1.1,1.8s-1.2,0.6-2,0.6c-1,0-1.8-0.3-2.4-1
				s-0.9-1.6-0.9-2.7c0-1.2,0.3-2.2,1-2.8s1.5-1,2.5-1c0.9,0,1.6,0.3,2.2,0.8c0.3,0.3,0.6,0.8,0.8,1.4l-1.5,0.4
				c-0.1-0.4-0.3-0.7-0.5-0.9c-0.3-0.2-0.6-0.3-1-0.3c-0.5,0-1,0.2-1.3,0.6s-0.5,1-0.5,1.9s0.2,1.6,0.5,2s0.8,0.6,1.3,0.6
				c0.4,0,0.7-0.1,1-0.4C426.4,227.2,426.6,226.8,426.7,226.2L426.7,226.2L426.7,226.2z"/>
			<path id="path192" class="st18" d="M431.1,228.9v-6.1h-2.2v-1.2h5.8v1.2h-2.2v6.1H431.1z"/>
		</g>
		<g id="Start1">
			<path id="path195" class="st18" d="M513.2,226.5l1.4-0.1c0.1,0.5,0.3,0.8,0.5,1.1c0.3,0.2,0.6,0.3,1.1,0.3s0.8-0.1,1.1-0.3
				s0.4-0.4,0.4-0.7c0-0.2,0-0.3-0.2-0.4c-0.1-0.1-0.3-0.2-0.5-0.3s-0.6-0.2-1.2-0.3c-0.8-0.2-1.3-0.4-1.7-0.7
				c-0.5-0.4-0.7-0.9-0.7-1.5c0-0.4,0.1-0.7,0.3-1.1s0.5-0.6,0.9-0.7c0.4-0.2,0.9-0.3,1.5-0.3c0.9,0,1.6,0.2,2.1,0.6
				c0.5,0.4,0.7,0.9,0.7,1.6l-1.5,0.1c-0.1-0.4-0.2-0.6-0.4-0.8s-0.5-0.2-0.9-0.2s-0.8,0.1-1,0.3c-0.2,0.1-0.2,0.3-0.2,0.5
				s0.1,0.3,0.2,0.4c0.2,0.2,0.6,0.3,1.4,0.5s1.3,0.4,1.6,0.5c0.3,0.2,0.6,0.4,0.8,0.8c0.2,0.3,0.3,0.7,0.3,1.2
				c0,0.4-0.1,0.8-0.3,1.2s-0.6,0.6-1,0.8s-1,0.3-1.6,0.3c-0.9,0-1.6-0.2-2.1-0.6S513.3,227.4,513.2,226.5L513.2,226.5L513.2,226.5z
				"/>
			<path id="path197" class="st18" d="M522.1,228.9v-6.1h-2.2v-1.2h5.8v1.2h-2.2v6.1H522.1L522.1,228.9z"/>
			<path id="path199" class="st18" d="M532.5,228.9h-1.6l-0.6-1.7h-2.9l-0.6,1.7h-1.6l2.9-7.3h1.6L532.5,228.9z M529.8,226l-1-2.7
				l-1,2.7H529.8L529.8,226z"/>
			<path id="path201" class="st18" d="M533.3,228.9v-7.3h3.1c0.8,0,1.4,0.1,1.7,0.2c0.4,0.1,0.6,0.4,0.8,0.7s0.3,0.7,0.3,1.2
				c0,0.6-0.2,1-0.5,1.4s-0.8,0.6-1.5,0.7c0.3,0.2,0.6,0.4,0.8,0.6c0.2,0.2,0.5,0.6,0.8,1.2l0.9,1.4h-1.8l-1.1-1.6
				c-0.4-0.6-0.6-0.9-0.8-1.1c-0.1-0.1-0.3-0.2-0.5-0.3s-0.4-0.1-0.8-0.1h-0.3v3.1L533.3,228.9L533.3,228.9z M534.8,224.7h1.1
				c0.7,0,1.2,0,1.3-0.1c0.2-0.1,0.3-0.2,0.4-0.3s0.2-0.3,0.2-0.6c0-0.2-0.1-0.4-0.2-0.6s-0.3-0.2-0.6-0.3c-0.1,0-0.5,0-1.1,0h-1.2
				L534.8,224.7L534.8,224.7z"/>
			<path id="path203" class="st18" d="M542.4,228.9v-6.1h-2.2v-1.2h5.8v1.2h-2.2v6.1H542.4L542.4,228.9z"/>
		</g>
		<g>
			<path class="st18" d="M444.9,191.2h-1.3v-5.9l-1.9,5.9h-0.6l-1.9-5.9v5.9h-1v-6.7h1.9l1.4,4.3l1.4-4.3h2V191.2L444.9,191.2z"/>
			<path class="st18" d="M449,191.3c-0.9,0-1.6-0.3-2.1-1s-0.8-1.5-0.8-2.5s0.3-1.8,0.8-2.5s1.2-1,2.1-1s1.6,0.3,2.1,1
				s0.8,1.5,0.8,2.5s-0.3,1.9-0.8,2.5S449.9,191.3,449,191.3L449,191.3z M449,190.3c0.5,0,0.8-0.2,1.1-0.5s0.5-1,0.5-2
				c0-0.8-0.1-1.4-0.4-1.8s-0.6-0.7-1.2-0.7c-1.1,0-1.6,0.8-1.6,2.5c0,0.8,0.1,1.4,0.4,1.9C448.1,190.1,448.5,190.3,449,190.3
				L449,190.3z"/>
			<path class="st18" d="M453,191.2v-6.7h2.5c0.9,0,1.7,0.3,2.2,1c0.6,0.6,0.9,1.4,0.9,2.4s-0.3,1.8-0.9,2.4s-1.4,1-2.5,1L453,191.2
				L453,191.2z M454.3,190.2h1c0.5,0,1-0.2,1.4-0.6s0.6-1,0.6-1.8c0-0.7-0.2-1.2-0.5-1.7s-0.8-0.7-1.3-0.7h-1.2V190.2L454.3,190.2z"
				/>
			<path class="st18" d="M464.3,191.2h-4.5v-6.7h4.4v1H461v1.8h2.5v1H461v1.9h3.2L464.3,191.2L464.3,191.2z"/>
		</g>
		<path class="st17" d="M448.7,226.4h49.4c1.2,0,2.1,0.9,2.1,2.1v7.6c0,1.2-0.9,2.1-2.1,2.1h-49.4c-1.2,0-2.1-0.9-2.1-2.1v-7.6
			C446.6,227.3,447.6,226.4,448.7,226.4z"/>
	</g>
</g>
</svg>
