<?xml version="1.0" encoding="utf-8"?>
<!-- Generator: Adobe Illustrator 26.5.0, SVG Export Plug-In . SVG Version: 6.00 Build 0)  -->
<svg version="1.1" id="NeGcon" xmlns="http://www.w3.org/2000/svg" xmlns:xlink="http://www.w3.org/1999/xlink"
	 x="0px" y="0px" viewBox="0 0 840 550" style="enable-background:new 0 0 840 550;" xml:space="preserve">
<style type="text/css">
	.st0{fill:none;}
	.st1{fill:#ADADAD;stroke:#000000;stroke-width:4;stroke-miterlimit:10;}
	
		.st2{fill-rule:evenodd;clip-rule:evenodd;fill:#585C6C;stroke:#000000;stroke-width:3;stroke-linecap:round;stroke-linejoin:round;}
	
		.st3{fill-rule:evenodd;clip-rule:evenodd;fill:#CCCCCC;stroke:#000000;stroke-width:4;stroke-linecap:round;stroke-linejoin:round;}
	.st4{fill:#999999;stroke:#333333;stroke-width:3;stroke-miterlimit:10;}
	
		.st5{fill-rule:evenodd;clip-rule:evenodd;fill:#C7C7C7;stroke:#000000;stroke-width:4;stroke-linecap:round;stroke-linejoin:round;}
	.st6{fill:#999999;stroke:#4D4D4D;stroke-width:3;stroke-miterlimit:10;}
	.st7{fill:#C7C7C7;}
	.st8{fill:#364D9E;stroke:#000000;stroke-width:3;stroke-linecap:round;stroke-linejoin:round;stroke-miterlimit:4.0003;}
	.st9{fill:#00008A;}
	.st10{font-family:'Arial-BoldMT';}
	.st11{font-size:42.3145px;}
	.st12{fill:#364D9E;stroke:#000000;stroke-width:3;stroke-linecap:round;stroke-linejoin:round;}
	.st13{fill:#DB1B42;stroke:#000000;stroke-width:3;stroke-linecap:round;stroke-linejoin:round;}
	.st14{fill:#63112E;}
	.st15{fill:#404040;}
	.st16{fill:#585C6C;stroke:#000000;stroke-width:3;stroke-linecap:round;stroke-linejoin:round;}
	.st17{fill:#4E5C70;stroke:#000000;stroke-width:3;stroke-linecap:round;stroke-linejoin:round;}
	
		.st18{fill-rule:evenodd;clip-rule:evenodd;fill:#585C6C;stroke:#333333;stroke-width:4;stroke-linecap:round;stroke-linejoin:round;}
	.st19{fill:none;stroke:#B3B3B3;stroke-width:3;stroke-linecap:round;stroke-linejoin:round;}
</style>
<g id="tela">
	<rect id="tela_00000120540975698290135470000010712094259153532582_" class="st0" width="840" height="550"/>
</g>
<g id="projeto">
	<rect id="meio" x="413" y="63.6" class="st1" width="13.6" height="350.1"/>
	<g id="gatilhos">
		<path id="direita" class="st2" d="M791.3,129.1c-42.1-52.5-97.7-51.6-115-51.6S590,77.3,590,77.3V52.4c0-4.9,3.9-8.9,8.7-8.9
			l81.9,2.1c69.2,5.1,92.3,27.9,102.6,36.5c2.4,2,4,5,4.3,8.2L791.3,129.1"/>
		<path id="esquerda" class="st2" d="M49.3,128.2l3.8-38.8c0.3-3.2,1.8-6.1,4.3-8.2C67.7,72.6,90.8,49.8,160,44.7l81.9-2.1
			c4.8,0,8.7,4,8.7,8.9v24.9c0,0-69,0.2-86.3,0.2S91.4,75.6,49.3,128.2"/>
	</g>
	<g id="direita-2_00000166669339141797907780000012666036179367679663_">
		<path id="A_base_00000066509665492196196220000017295552102179088568_" class="st3" d="M482.2,423c0,0,9.1-25.4,29.9-25.3
			c113.3,0.3,94.3-1.6,156.2,44.8c43.2,32.4,78,75,117.4,75c17.4,0,29.3-8.2,37.2-17.4c9-10.4,13.6-24,13.4-37.9l-9.4-231.3
			c-1.7-58.4-21.1-95-43.7-117.9c-27.8-28.1-65.1-36.5-72.3-37.6c-6.4-1-13.2-1.5-13.2-1.5c-6.5-0.5-11.9-0.6-16.1-0.5H506.5
			c-11.6,0.1-23.2-17.1-23.5-17.1"/>
		<path id="sombra_A_00000023248119600614777700000012891495093674520763_" class="st4" d="M485.5,63c0,0,41.4,76.7,41.4,169.3
			s-41.8,180.9-41.8,180.9"/>
		<path class="st5" d="M483.1,56.4c32.5,186.3-1,366.9-1,366.9l-55.2-0.1V55l56.2,1.1V56.4z"/>
	</g>
	<g id="direita-2">
		<path id="A_base" class="st3" d="M356.8,56.1c-0.3,0-11.8,17.2-23.5,17.1H158.2c-4.1-0.1-9.6,0-16.1,0.5c0,0-6.9,0.5-13.2,1.5
			c-7.2,1.1-44.5,9.6-72.3,37.6c-22.6,22.9-42,59.5-43.7,117.9L3.6,462.2C3.4,476.1,8,489.7,17,500.1c7.9,9.2,19.8,17.4,37.2,17.4
			c39.5,0,74.2-42.5,117.4-75c61.9-46.4,43-44.3,156.2-44.8c20.8-0.1,29.8,25.3,29.9,25.3"/>
		<path id="sombra_A" class="st4" d="M354.8,413.1c0,0-41.8-88.3-41.8-180.9S354.4,63,354.4,63"/>
		<path class="st5" d="M356.8,56.1L413,55v368.2l-55.2,0.1c0,0-33.5-180.6-1-366.9V56.1z"/>
	</g>
	<g id="botoes">
		<g id="sombra_botoes">
			<path id="path132" class="st6" d="M697.2,220.4c-23.5-25.4-82.5-80.8-124.8-44.7s-0.7,113.3,20.5,138.8
				c21.2,25.6,96.6,90.9,139.5,46.7C775.4,317,720.7,245.8,697.2,220.4L697.2,220.4z"/>
			<path id="path134" class="st7" d="M617.3,291.2c24.8,23.1,67.9,59,95.3,35.6c28.9-24.7,13.2-59.9-31.1-103.3
				c-46.9-46-77.8-58.1-101.1-31.8C551.2,224.9,593.8,269.2,617.3,291.2L617.3,291.2z"/>
		</g>
		<g id="a">
			
				<ellipse id="circle121" transform="matrix(0.1602 -0.9871 0.9871 0.1602 413.8567 931.9407)" class="st8" cx="754.6" cy="222.8" rx="29.5" ry="29.5"/>
			<text transform="matrix(1 0 0 1 740.4652 235.9483)" class="st9 st10 st11">A</text>
		</g>
		<g id="b">
			<circle id="circle117" class="st12" cx="683.9" cy="149.8" r="29.5"/>
			<text transform="matrix(1 0 0 1 670.1342 164.9768)" class="st9 st10 st11">B</text>
		</g>
		<g id="_2">
			<circle id="circle113" class="st13" cx="615.6" cy="222.8" r="29.5"/>
			<text transform="matrix(1 0 0 1 603.722 237.9543)" class="st14 st10 st11">II</text>
		</g>
		<g id="_1">
			<circle id="circle115" class="st13" cx="683.9" cy="291.7" r="29.5"/>
			<text transform="matrix(1 0 0 1 677.9652 306.7619)" class="st14 st10 st11">I</text>
		</g>
		<g id="state_e_botao">
			<g id="start">
				<path class="st15" d="M236.5,283.3l2.5-0.5c0.3,1.4,1.4,2.1,3.4,2.1c0.9,0,1.6-0.2,2.1-0.5c0.5-0.4,0.7-0.8,0.7-1.3
					c0-0.4-0.1-0.7-0.3-1.1c-0.2-0.3-0.7-0.6-1.4-0.8l-2.7-0.7c-0.9-0.2-1.6-0.5-2-0.8s-0.8-0.7-1.1-1.3c-0.3-0.6-0.4-1.2-0.4-1.8
					c0-1.3,0.5-2.3,1.4-3c0.9-0.8,2.1-1.1,3.6-1.1c1.2,0,2.3,0.3,3.2,0.8c1,0.5,1.6,1.3,1.8,2.2l-2.4,0.6c-0.4-1.1-1.2-1.6-2.6-1.6
					c-0.8,0-1.4,0.2-1.8,0.5s-0.6,0.7-0.6,1.3c0,0.8,0.7,1.4,2,1.7l2.4,0.6c1.4,0.4,2.4,0.9,2.9,1.6s0.7,1.5,0.7,2.4
					c0,1.4-0.5,2.5-1.6,3.3c-1,0.8-2.4,1.2-4,1.2c-1.4,0-2.6-0.3-3.7-0.9C237.6,285.4,236.9,284.5,236.5,283.3z"/>
				<path class="st15" d="M255,286.7h-2.7v-11.9h-3.7v-2.2h10.2v2.2h-3.7v11.9H255z"/>
				<path class="st15" d="M270.2,286.7h-2.7l-1.1-3.3H261l-1.1,3.3h-2.2l4.7-14.1h3.1L270.2,286.7z M265.7,281.3l-2.1-6.3l-2.1,6.3
					H265.7z"/>
				<path class="st15" d="M282.9,286.7h-2.7l-2.2-5.8h-3.6v5.8h-2.5v-14.1h6.1c1.7,0,2.9,0.4,3.7,1.1c0.8,0.8,1.2,1.8,1.2,3
					c0,1.8-0.8,3-2.5,3.7L282.9,286.7z M274.4,278.9h3.2c0.9,0,1.6-0.2,2-0.6s0.7-0.9,0.7-1.6c0-0.6-0.2-1.1-0.7-1.5
					c-0.4-0.4-1.1-0.6-1.8-0.6h-3.4L274.4,278.9L274.4,278.9z"/>
				<path class="st15" d="M290.4,286.7h-2.7v-11.9h-3.8v-2.2h10.2v2.2h-3.7V286.7z"/>
			</g>
			<circle id="botao" class="st16" cx="264.5" cy="325.8" r="26.4"/>
		</g>
		<g id="d-pad">
			<circle id="fundo" class="st17" cx="153.6" cy="216.7" r="84.9"/>
			<path id="cruz" class="st18" d="M217.6,194.8h-36.8c-3.1,0-5.5-2.5-5.5-5.5v-36.8c0-3.1-2.5-5.5-5.5-5.5h-31.4
				c-3.1,0-5.5,2.5-5.5,5.5v38c0,3.1-2.5,5.5-5.5,5.5H90.3c-3.1,0-5.5,2.5-5.5,5.5v31.4c0,3.1,2.5,5.5,5.5,5.5h36.8
				c3.1,0,5.5,2.5,5.5,5.5v36.8c0,3.1,2.5,5.5,5.5,5.5h31.4c3.1,0,5.5-2.5,5.5-5.5v-38c0-3.1,2.5-5.5,5.5-5.5h36.8
				c3.1,0,5.5-2.5,5.5-5.5v-31.4C223.2,197.3,220.7,194.8,217.6,194.8z"/>
		</g>
	</g>
	<g id="detalhes">
		<path class="st19" d="M743.2,473.4c0,0-82.4-95.4-144.2-98.9c0,0-19.1-1.6-73.7-1"/>
		<path class="st19" d="M93.7,473.4c0,0,82.4-95.4,144.2-98.9c0,0,19.1-1.6,73.7-1"/>
	</g>
</g>
</svg>
