<?xml version="1.0" encoding="UTF-8"?>
<svg id="Musica_pop" data-name="Musica pop" xmlns="http://www.w3.org/2000/svg" viewBox="0 0 840 550">
  <defs>
    <style>
      .cls-1, .cls-2, .cls-3, .cls-4 {
        fill: #fff;
      }

      .cls-5 {
        fill: #ffcf1f;
      }

      .cls-5, .cls-6, .cls-7, .cls-8, .cls-9, .cls-10, .cls-11, .cls-12, .cls-13, .cls-14, .cls-15, .cls-16, .cls-17 {
        stroke-miterlimit: 10;
      }

      .cls-5, .cls-8, .cls-9, .cls-10, .cls-12, .cls-13, .cls-14 {
        stroke: #4d4d4d;
      }

      .cls-5, .cls-8, .cls-9, .cls-10, .cls-12, .cls-13, .cls-14, .cls-17 {
        stroke-width: 3px;
      }

      .cls-18 {
        letter-spacing: -.02em;
      }

      .cls-6 {
        stroke: #ff553f;
      }

      .cls-6, .cls-7, .cls-11, .cls-15, .cls-16 {
        stroke-width: 17px;
      }

      .cls-6, .cls-7, .cls-11, .cls-15, .cls-16, .cls-17 {
        fill: none;
      }

      .cls-19 {
        letter-spacing: -.06em;
      }

      .cls-7 {
        stroke: #109400;
      }

      .cls-2 {
        opacity: .5;
      }

      .cls-8 {
        fill: #f40600;
      }

      .cls-3 {
        opacity: .24;
      }

      .cls-20 {
        letter-spacing: -.01em;
      }

      .cls-10 {
        fill: #0028b4;
      }

      .cls-21 {
        fill: #bdbdbd;
      }

      .cls-11 {
        stroke: #0052f4;
      }

      .cls-12 {
        fill: #f0f0f0;
      }

      .cls-22 {
        opacity: .75;
      }

      .cls-13 {
        fill: #00741a;
      }

      .cls-14 {
        fill: #f5f5f5;
      }

      .cls-23 {
        letter-spacing: 0em;
      }

      .cls-15 {
        stroke: #ffed9f;
      }

      .cls-16 {
        stroke: #f5f5f5;
      }

      .cls-24 {
        opacity: .36;
      }

      .cls-25 {
        fill: #d1d1d1;
        stroke: #000;
        stroke-linecap: round;
        stroke-linejoin: round;
        stroke-width: 4px;
      }

      .cls-4 {
        opacity: .31;
      }

      .cls-26 {
        fill: #7f001c;
      }

      .cls-27 {
        font-family: Roboto-Black, Roboto;
        font-size: 13.24px;
        font-weight: 800;
      }

      .cls-28 {
        letter-spacing: -.03em;
      }

      .cls-17 {
        opacity: .49;
        stroke: #8a8a8a;
      }
    </style>
  </defs>
  <g id="By_Maxihplay" data-name="By Maxihplay">
    <path id="fundo_controle" data-name="fundo controle" class="cls-25" d="m732.99,503.41H107.01c-56.55,0-99.5-59.99-84.64-118.79L96.46,120.83c9.61-38.01,50.78-74.24,92.46-74.24h462.16c41.67,0,82.85,36.23,92.46,74.24l74.09,263.79c14.87,58.8-28.09,118.79-84.64,118.79Z"/>
    <g id="sombra_inferior" data-name="sombra inferior">
      <path class="cls-21" d="m757.16,177.42l40.52,186.36c8.83,58.35-28.4,86.84-82.82,86.84H125.3c-54.41,0-91.21-34.06-82.82-86.84l40.19-186.36-58.02,205.29c-14.78,57.64,27.99,116.64,84.22,116.64h622.4c56.24,0,99.01-58.99,84.22-116.64l-58.35-205.29Z"/>
      <line class="cls-17" x1="531.04" y1="451.07" x2="308.96" y2="451.07"/>
    </g>
    <g id="botoes_cores" data-name="botoes cores">
      <g id="baixo">
        <ellipse class="cls-13" cx="276.31" cy="363.27" rx="58.13" ry="58.86"/>
        <ellipse class="cls-8" cx="420" cy="363.27" rx="58.13" ry="58.86"/>
        <ellipse class="cls-13" cx="563.69" cy="363.27" rx="58.13" ry="58.86"/>
        <ellipse class="cls-12" cx="707.38" cy="363.27" rx="58.13" ry="58.86"/>
        <path class="cls-12" d="m132.62,304.41c-19.2,0-36.22,9.42-46.81,23.95-7.12,9.77-11.33,21.84-11.33,34.91,0,32.51,26.03,58.86,58.13,58.86s58.13-26.35,58.13-58.86-26.03-58.86-58.13-58.86Z"/>
      </g>
      <g id="cima">
        <ellipse class="cls-10" cx="348.16" cy="223.49" rx="58.13" ry="58.86"/>
        <ellipse class="cls-10" cx="491.84" cy="223.49" rx="58.13" ry="58.86"/>
        <ellipse class="cls-5" cx="635.53" cy="223.49" rx="58.13" ry="58.86"/>
        <ellipse class="cls-5" cx="204.47" cy="223.49" rx="58.13" ry="58.86"/>
      </g>
    </g>
    <g id="brilho">
      <g id="brilho_menor" data-name="brilho menor" class="cls-24">
        <ellipse class="cls-16" cx="157.67" cy="372.04" rx="9.35" ry="9.47"/>
        <ellipse class="cls-7" cx="301.63" cy="372.04" rx="9.35" ry="9.47"/>
        <ellipse class="cls-6" cx="445.59" cy="372.04" rx="9.35" ry="9.47"/>
        <ellipse class="cls-7" cx="589.55" cy="372.04" rx="9.35" ry="9.47"/>
        <ellipse class="cls-16" cx="733.5" cy="372.74" rx="9.35" ry="9.47"/>
        <ellipse class="cls-15" cx="661.52" cy="241.42" rx="9.35" ry="9.47"/>
        <ellipse class="cls-11" cx="517.57" cy="241.42" rx="9.35" ry="9.47"/>
        <ellipse class="cls-11" cx="373.61" cy="241.42" rx="9.35" ry="9.47"/>
        <ellipse class="cls-15" cx="229.65" cy="241.42" rx="9.35" ry="9.47"/>
      </g>
      <g id="brilho_maior" data-name="brilho maior" class="cls-22">
        <ellipse class="cls-1" cx="160.94" cy="374.24" rx="9.35" ry="9.47"/>
        <ellipse class="cls-3" cx="304.9" cy="374.24" rx="9.35" ry="9.47"/>
        <ellipse class="cls-3" cx="448.86" cy="374.24" rx="9.35" ry="9.47"/>
        <ellipse class="cls-3" cx="592.81" cy="374.24" rx="9.35" ry="9.47"/>
        <ellipse class="cls-1" cx="736.77" cy="374.95" rx="9.35" ry="9.47"/>
        <ellipse class="cls-2" cx="664.79" cy="243.62" rx="9.35" ry="9.47"/>
        <ellipse class="cls-4" cx="520.84" cy="243.62" rx="9.35" ry="9.47"/>
        <ellipse class="cls-4" cx="376.88" cy="243.62" rx="9.35" ry="9.47"/>
        <ellipse class="cls-2" cx="232.92" cy="243.62" rx="9.35" ry="9.47"/>
      </g>
    </g>
    <g id="botoes_gota" data-name="botoes gota">
      <g id="botao">
        <path id="B" class="cls-9" d="m319.86,101.2c-4.93-3.86-15.2-.94-20.32,6.55-4.61,6.75-7.36,23.1-8.33,29.84-.19,1.33,1.02,2.27,2.16,1.66,5.72-3.04,19.42-10.78,24.03-17.53,4.21-6.15,7.4-16.67,2.47-20.53Z"/>
        <path id="B-2" data-name="B" class="cls-14" d="m317.84,99.05c-4.93-3.86-11.46-3.28-16.58,4.21-4.02,5.88-6.62,19.05-7.87,26.8-.43,2.67,2.02,4.55,4.28,3.3,6.53-3.62,17.43-10.25,21.44-16.12,4.21-6.15,3.66-14.32-1.27-18.18Z"/>
        <path id="A" class="cls-9" d="m246.17,118.73c-4.21,6.15-3.66,14.32,1.27,18.18,4.93,3.86,11.46,3.28,16.58-4.21,4.76-6.97,7.54-24.16,8.42-30.46.14-1-.91-1.74-1.81-1.27-5.43,2.86-19.73,10.84-24.46,17.76Z"/>
        <path id="A-2" data-name="A" class="cls-14" d="m246.89,114.24c-4.21,6.15-3.66,14.32,1.27,18.18,4.93,3.86,11.46,3.28,16.58-4.21,4.35-6.36,7.04-21.23,8.15-28.57.29-1.89-1.44-3.22-3.05-2.35-6.21,3.36-18.61,10.6-22.95,16.95Z"/>
      </g>
    </g>
    <text class="cls-27" transform="translate(202.5 90.95) scale(.99 1)"><tspan x="0" y="0">SELE</tspan><tspan class="cls-20" x="30.28" y="0">C</tspan><tspan class="cls-28" x="38.78" y="0">T</tspan></text>
    <text class="cls-27" transform="translate(325.6 142.14) scale(.99 1)"><tspan x="0" y="0">S</tspan><tspan class="cls-19" x="8.29" y="0">T</tspan><tspan class="cls-23" x="15.86" y="0">A</tspan><tspan class="cls-18" x="24.88" y="0">R</tspan><tspan class="cls-28" x="33.19" y="0">T</tspan></text>
    <path id="marca" class="cls-26" d="m634.86,89.41l-33.84,33.94c-5.57,5.59-14.02,8.85-22.96,8.85h-125.09l2-42.78h179.89Z"/>
  </g>
</svg>