<?xml version="1.0" encoding="UTF-8" standalone="no"?>
<svg
   viewBox="0 0 36 26"
   version="1.1"
   id="svg5"
   sodipodi:docname="NTSC-HK.svg"
   width="36"
   height="26"
   inkscape:version="1.4.1 (93de688d07, 2025-03-30)"
   xmlns:inkscape="http://www.inkscape.org/namespaces/inkscape"
   xmlns:sodipodi="http://sodipodi.sourceforge.net/DTD/sodipodi-0.dtd"
   xmlns="http://www.w3.org/2000/svg"
   xmlns:svg="http://www.w3.org/2000/svg">
  <defs
     id="defs5" />
  <sodipodi:namedview
     id="namedview5"
     pagecolor="#505050"
     bordercolor="#ffffff"
     borderopacity="1"
     inkscape:showpageshadow="0"
     inkscape:pageopacity="0"
     inkscape:pagecheckerboard="1"
     inkscape:deskcolor="#505050"
     inkscape:zoom="21.527778"
     inkscape:cx="18"
     inkscape:cy="13.006452"
     inkscape:window-width="1920"
     inkscape:window-height="1006"
     inkscape:window-x="0"
     inkscape:window-y="0"
     inkscape:window-maximized="1"
     inkscape:current-layer="svg5" />
  <path
     fill="#de2910"
     d="m 36,22 c 0,2.209 -1.791,4 -4,4 H 4 C 1.791,26 0,24.209 0,22 V 4 C 0,1.791 1.791,0 4,0 h 28 c 2.209,0 4,1.791 4,4 z"
     id="path1" />
  <g
     fill="#ffffff"
     id="g4"
     transform="translate(0,-5)">
    <path
       d="M 19.626,9.201 C 19.022,8.887 18.337,8.72 17.591,8.891 c -0.906,0.208 -2.011,1.148 -2.312,2.24 -0.142,0.515 -0.261,0.97 -0.254,1.391 0.005,0.29 0.004,0.774 0.039,1.252 0.024,0.339 0.193,1.071 0.461,1.717 l 0.017,-0.006 c 0.147,0.491 0.633,1.253 1.109,1.878 0.546,0.717 0.973,1.04 1.059,1.039 -0.052,-0.032 -0.105,-0.066 -0.162,-0.137 -0.312,-0.391 -0.624,-1.104 -0.688,-1.587 -0.124,-0.943 0.036,-1.625 0.297,-2.444 0.065,-0.205 0.2,-0.264 0.289,-0.211 0.007,0.004 0.011,0.013 0.018,0.019 0.055,0.051 0.089,0.144 0.04,0.314 -0.125,0.438 -0.431,1.54 -0.268,2.322 0.15,0.721 0.364,1.151 0.617,1.455 -0.101,-0.202 -0.215,-0.592 -0.223,-0.994 -0.004,-0.224 -0.023,-0.446 0.089,-0.647 0.188,-0.337 0.462,-0.518 0.779,-0.689 0.219,-0.118 0.425,-0.279 0.614,-0.4 0.86,-0.548 1.149,-1.632 1.125,-2.07 l -0.021,-0.327 c 0.018,-0.119 -0.036,-0.446 -0.179,-0.774 -0.107,-0.246 -0.276,-0.488 -0.412,-0.673 -0.069,-0.095 -0.108,-0.204 -0.146,-0.271 -0.147,-0.255 -0.147,-0.544 -0.145,-0.727 0.001,-0.216 0.029,-0.241 0.091,-0.344 0.049,-0.082 0.102,-0.193 0.268,-0.282 0.122,-0.064 0.397,-0.045 0.559,0.038 0.138,0.069 0.164,0.063 0.235,0.102 0.064,0.035 0.231,0.123 0.221,0.088 -0.039,-0.132 -0.523,-0.672 -1.082,-0.962 z m -3.738,9.867 c -0.941,-0.129 -1.558,-0.463 -2.28,-0.931 -0.179,-0.116 -0.202,-0.261 -0.13,-0.333 l 0.006,-0.003 c 0.059,-0.052 0.166,-0.066 0.332,0.034 0.391,0.236 1.373,0.821 2.17,0.871 0.649,0.04 1.087,-0.031 1.43,-0.161 -0.232,0.024 -0.564,0.016 -0.89,-0.068 -0.217,-0.057 -0.436,-0.099 -0.6,-0.26 -0.273,-0.271 -0.374,-0.584 -0.454,-0.936 -0.055,-0.243 -0.154,-0.484 -0.22,-0.699 -0.295,-0.976 -1.261,-1.547 -1.69,-1.642 l -0.32,-0.067 c -0.11,-0.05 -0.44,-0.084 -0.794,-0.037 -0.266,0.036 -0.544,0.135 -0.759,0.216 -0.111,0.042 -0.225,0.049 -0.3,0.068 -0.286,0.073 -0.564,-0.005 -0.739,-0.056 -0.208,-0.06 -0.225,-0.094 -0.307,-0.182 -0.066,-0.069 -0.159,-0.148 -0.2,-0.333 -0.029,-0.134 0.064,-0.394 0.187,-0.528 0.104,-0.112 0.105,-0.14 0.161,-0.199 0.051,-0.053 0.181,-0.189 0.144,-0.188 -0.136,0 -0.786,0.32 -1.215,0.78 -0.466,0.498 -0.812,1.112 -0.848,1.876 -0.043,0.929 0.564,2.247 1.534,2.832 0.456,0.274 0.863,0.513 1.271,0.619 0.281,0.073 0.746,0.205 1.216,0.301 0.333,0.067 1.083,0.104 1.777,0.02 v -0.019 c 0.513,-0.009 1.377,-0.272 2.106,-0.56 0.921,-0.366 1.371,-0.736 1.303,-0.77 l -0.012,0.01 c -0.009,0.01 -0.026,0.013 -0.044,0.016 -0.039,0.029 -0.065,0.06 -0.125,0.086 -0.457,0.196 -1.228,0.31 -1.71,0.243 z m 2.516,1.171 c -0.061,-0.864 -0.228,-1.358 -0.306,-1.439 0.006,0.026 0.018,0.038 0.022,0.068 0.061,0.496 -0.047,1.267 -0.247,1.712 -0.389,0.867 -0.883,1.364 -1.535,1.927 -0.108,0.092 -0.214,0.119 -0.288,0.099 -0.049,-0.013 -0.084,-0.046 -0.094,-0.094 -0.015,-0.072 0.024,-0.176 0.15,-0.291 0.336,-0.309 1.175,-1.085 1.447,-1.838 0.21,-0.583 0.269,-1.009 0.25,-1.365 -0.041,0.229 -0.151,0.568 -0.343,0.872 -0.119,0.189 -0.225,0.385 -0.429,0.492 -0.341,0.179 -0.67,0.18 -1.029,0.148 -0.247,-0.02 -0.508,0.002 -0.733,-0.002 -1.02,-0.014 -1.856,0.734 -2.076,1.114 l -0.161,0.285 c -0.081,0.089 -0.213,0.393 -0.274,0.745 -0.047,0.265 -0.037,0.56 -0.025,0.789 0.006,0.118 -0.022,0.229 -0.026,0.307 -0.018,0.294 -0.176,0.536 -0.278,0.688 -0.12,0.179 -0.157,0.185 -0.265,0.237 -0.085,0.041 -0.19,0.106 -0.379,0.09 -0.136,-0.013 -0.356,-0.18 -0.446,-0.338 -0.076,-0.133 -0.102,-0.142 -0.141,-0.214 -0.035,-0.064 -0.125,-0.23 -0.136,-0.194 -0.041,0.13 0.067,0.847 0.375,1.394 0.334,0.596 0.815,1.11 1.533,1.376 0.871,0.322 2.311,0.143 3.162,-0.606 0.401,-0.352 0.751,-0.669 0.976,-1.024 0.155,-0.245 0.421,-0.648 0.655,-1.067 0.165,-0.296 0.425,-1.002 0.556,-1.688 l -0.017,-0.005 c 0.145,-0.491 0.157,-1.394 0.102,-2.178 z"
       id="path2" />
    <path
       d="m 24.492,23.068 c -0.181,-0.503 -0.346,-0.943 -0.596,-1.283 -0.171,-0.234 -0.449,-0.629 -0.754,-1.001 -0.215,-0.262 -0.775,-0.762 -1.367,-1.136 l -0.009,0.014 c -0.405,-0.315 -1.241,-0.657 -1.99,-0.893 -0.783,-0.246 -1.311,-0.285 -1.453,-0.252 0.061,-0.005 0.128,-0.006 0.218,0.021 0.48,0.141 1.144,0.549 1.473,0.908 0.641,0.703 0.898,1.354 1.155,2.176 0.065,0.207 -0.014,0.334 -0.12,0.337 -0.003,0 -0.003,0.005 -0.006,0.005 -0.005,0 -0.006,-0.006 -0.009,-0.008 -0.075,-0.007 -0.159,-0.064 -0.218,-0.236 -0.149,-0.431 -0.528,-1.509 -1.109,-2.059 -0.535,-0.505 -0.957,-0.735 -1.339,-0.841 -0.071,-0.019 -0.108,-0.05 -0.146,-0.079 -0.005,0.004 -0.01,0.003 -0.015,0.009 l 0.143,0.085 c 0.199,0.107 0.518,0.359 0.756,0.683 0.131,0.182 0.275,0.352 0.3,0.581 0.041,0.382 -0.078,0.688 -0.237,1.013 -0.11,0.223 -0.186,0.473 -0.271,0.681 -0.387,0.943 0.002,1.995 0.275,2.339 l 0.206,0.255 c 0.054,0.108 0.288,0.343 0.593,0.528 0.229,0.141 0.508,0.239 0.727,0.314 0.111,0.037 0.204,0.103 0.275,0.136 0.267,0.123 0.434,0.36 0.538,0.511 0.123,0.177 0.115,0.214 0.124,0.334 0.007,0.094 0.028,0.215 -0.056,0.384 -0.062,0.122 -0.298,0.266 -0.477,0.293 -0.152,0.021 -0.17,0.042 -0.251,0.052 -0.072,0.009 -0.261,0.032 -0.23,0.056 0.105,0.086 0.812,0.248 1.434,0.162 0.677,-0.092 1.332,-0.352 1.842,-0.921 0.618,-0.697 0.977,-2.103 0.594,-3.168 z"
       id="path3" />
    <path
       d="m 27.01,15.069 c -0.496,-0.786 -1.747,-1.519 -2.878,-1.444 -0.53,0.036 -1.001,0.074 -1.395,0.219 -0.273,0.1 -0.73,0.258 -1.17,0.449 -0.312,0.135 -0.946,0.537 -1.468,1.002 l 0.011,0.013 c -0.416,0.302 -0.976,1.012 -1.408,1.667 -0.455,0.689 -0.63,1.171 -0.635,1.313 0.014,-0.057 0.027,-0.115 0.073,-0.189 0.266,-0.424 0.838,-0.952 1.274,-1.171 0.85,-0.425 1.546,-0.498 2.406,-0.522 0.217,-0.006 0.317,0.103 0.293,0.205 -0.004,0.016 -0.014,0.031 -0.025,0.046 -0.041,0.057 -0.116,0.107 -0.271,0.115 -0.454,0.026 -1.595,0.099 -2.281,0.509 -0.632,0.379 -0.968,0.723 -1.173,1.061 -0.038,0.064 -0.078,0.093 -0.117,0.121 0.002,0.005 0,0.009 0.004,0.015 l 0.122,-0.115 c 0.157,-0.161 0.488,-0.398 0.864,-0.538 0.21,-0.078 0.414,-0.169 0.642,-0.13 0.379,0.065 0.641,0.265 0.907,0.508 0.185,0.167 0.404,0.309 0.579,0.447 0.802,0.631 1.921,0.547 2.327,0.38 l 0.302,-0.129 c 0.117,-0.021 0.407,-0.182 0.671,-0.424 0.197,-0.182 0.369,-0.421 0.499,-0.611 0.067,-0.098 0.156,-0.168 0.208,-0.227 0.192,-0.223 0.465,-0.318 0.638,-0.377 0.204,-0.069 0.237,-0.051 0.355,-0.026 0.093,0.019 0.215,0.031 0.354,0.159 0.101,0.093 0.174,0.36 0.148,0.54 -0.021,0.152 -0.004,0.175 -0.018,0.255 -0.012,0.072 -0.039,0.259 -0.009,0.237 0.111,-0.078 0.462,-0.713 0.551,-1.335 0.096,-0.675 0.028,-1.376 -0.38,-2.023 z"
       id="path4" />
  </g>
  <path
     d="M 17.79,7.618 17.424,8.17 16.797,8.023 16.78,8.019 l 0.411,0.519 -0.334,0.55 -0.009,0.016 0.621,-0.231 0.433,0.502 -0.029,-0.663 0.594,-0.25 0.017,-0.007 -0.639,-0.177 z m -4.579,4.06 -0.002,-0.018 -0.342,0.567 -0.652,-0.125 0.433,0.502 -0.31,0.564 -0.009,0.016 0.611,-0.257 0.44,0.469 0.013,0.014 -0.056,-0.66 0.583,-0.274 0.017,-0.008 -0.645,-0.151 z m 10.348,-0.192 -0.643,-0.163 -0.07,-0.659 -0.353,0.56 -0.631,-0.133 -0.017,-0.004 0.423,0.51 -0.323,0.558 -0.008,0.016 0.615,-0.246 0.431,0.479 0.013,0.013 -0.042,-0.661 0.588,-0.262 z m -7.84,5.584 -0.002,-0.017 -0.34,0.568 -0.632,-0.117 -0.018,-0.004 0.435,0.499 -0.306,0.567 -0.009,0.016 0.609,-0.261 0.443,0.467 0.013,0.014 -0.06,-0.659 0.582,-0.279 0.016,-0.008 -0.646,-0.146 z m 5.777,-0.507 -10e-4,-0.018 -0.373,0.549 -0.625,-0.156 -0.018,-0.004 0.405,0.524 -0.341,0.547 -0.009,0.015 0.623,-0.224 0.413,0.493 0.012,0.015 -0.018,-0.662 0.596,-0.243 0.018,-0.006 -0.636,-0.186 z"
     fill="#de2910"
     id="path5" />
</svg>
