<?xml version="1.0" encoding="UTF-8" standalone="no"?>
<svg
   viewBox="0 0 36 26"
   version="1.1"
   id="svg6"
   sodipodi:docname="NTSC-B.svg"
   width="36"
   height="26"
   inkscape:version="1.4.1 (93de688d07, 2025-03-30)"
   xmlns:inkscape="http://www.inkscape.org/namespaces/inkscape"
   xmlns:sodipodi="http://sodipodi.sourceforge.net/DTD/sodipodi-0.dtd"
   xmlns="http://www.w3.org/2000/svg"
   xmlns:svg="http://www.w3.org/2000/svg">
  <defs
     id="defs6" />
  <sodipodi:namedview
     id="namedview6"
     pagecolor="#505050"
     bordercolor="#ffffff"
     borderopacity="1"
     inkscape:showpageshadow="0"
     inkscape:pageopacity="0"
     inkscape:pagecheckerboard="1"
     inkscape:deskcolor="#505050"
     inkscape:zoom="21.527778"
     inkscape:cx="18"
     inkscape:cy="13.006452"
     inkscape:window-width="1920"
     inkscape:window-height="1006"
     inkscape:window-x="0"
     inkscape:window-y="0"
     inkscape:window-maximized="1"
     inkscape:current-layer="svg6" />
  <path
     fill="#009b3a"
     d="m 36,22 c 0,2.209 -1.791,4 -4,4 H 4 C 1.791,26 0,24.209 0,22 V 4 C 0,1.791 1.791,0 4,0 h 28 c 2.209,0 4,1.791 4,4 z"
     id="path1" />
  <path
     fill="#fedf01"
     d="M 32.728,13 18,24.124 3.272,13 18,1.875 Z"
     id="path2" />
  <circle
     fill="#002776"
     cx="17.976"
     cy="12.924"
     r="6.4580002"
     id="circle2" />
  <path
     fill="#cbe9d4"
     d="m 12.277,9.887 c -0.332,0.621 -0.558,1.303 -0.672,2.023 3.995,-0.29 9.417,1.891 11.744,4.595 0.402,-0.604 0.7,-1.28 0.883,-2.004 C 21.36,11.693 16.315,9.871 12.277,9.887 Z"
     id="path3" />
  <path
     fill="#88c9f9"
     d="m 12,13.233 h 1 v 1 h -1 z m 1,2 h 1 v 1 h -1 z"
     id="path4" />
  <path
     fill="#55acee"
     d="m 15,13.233 h 1 v 1 h -1 z m 2,1 h 1 v 1 h -1 z m 4,2 h 1 v 1 h -1 z m -3,1 h 1 v 1 h -1 z m 3,-6 h 1 v 1 h -1 z"
     id="path5" />
  <path
     fill="#3b88c3"
     d="m 19,15.233 h 1 v 1 h -1 z"
     id="path6" />
</svg>
