<?xml version="1.0" encoding="UTF-8" standalone="no"?>
<svg
   viewBox="0 0 36 26"
   version="1.1"
   id="svg2"
   sodipodi:docname="NTSC-C.svg"
   width="36"
   height="26"
   inkscape:version="1.4.1 (93de688d07, 2025-03-30)"
   xmlns:inkscape="http://www.inkscape.org/namespaces/inkscape"
   xmlns:sodipodi="http://sodipodi.sourceforge.net/DTD/sodipodi-0.dtd"
   xmlns="http://www.w3.org/2000/svg"
   xmlns:svg="http://www.w3.org/2000/svg">
  <defs
     id="defs2" />
  <sodipodi:namedview
     id="namedview2"
     pagecolor="#505050"
     bordercolor="#ffffff"
     borderopacity="1"
     inkscape:showpageshadow="0"
     inkscape:pageopacity="0"
     inkscape:pagecheckerboard="1"
     inkscape:deskcolor="#505050"
     inkscape:zoom="21.527778"
     inkscape:cx="18"
     inkscape:cy="13.006452"
     inkscape:window-width="1920"
     inkscape:window-height="1006"
     inkscape:window-x="0"
     inkscape:window-y="0"
     inkscape:window-maximized="1"
     inkscape:current-layer="svg2" />
  <path
     fill="#de2910"
     d="m 36,22 c 0,2.209 -1.791,4 -4,4 H 4 C 1.791,26 0,24.209 0,22 V 4 C 0,1.791 1.791,0 4,0 h 28 c 2.209,0 4,1.791 4,4 z"
     id="path1" />
  <path
     fill="#ffde02"
     d="m 11.136,3.977 0.736,0.356 0.589,-0.566 -0.111,0.81 0.72,0.386 -0.804,0.144 -0.144,0.804 -0.386,-0.72 -0.81,0.111 0.566,-0.589 z m 4.665,2.941 -0.356,0.735 0.566,0.59 -0.809,-0.112 -0.386,0.721 -0.144,-0.805 -0.805,-0.144 0.721,-0.386 -0.112,-0.809 0.59,0.566 z m -0.957,3.779 0.268,0.772 0.817,0.017 -0.651,0.493 0.237,0.783 -0.671,-0.467 -0.671,0.467 0.236,-0.783 -0.651,-0.493 0.817,-0.017 z m -3.708,3.28 0.736,0.356 0.589,-0.566 -0.111,0.81 0.72,0.386 -0.804,0.144 -0.144,0.804 -0.386,-0.72 -0.81,0.111 0.566,-0.589 z M 7,5.951 7.929,8.622 10.755,8.68 8.502,10.388 9.321,13.094 7,11.479 4.679,13.094 5.498,10.388 3.245,8.68 6.071,8.622 Z"
     id="path2" />
</svg>
