<?xml version="1.0" encoding="utf-8"?><!-- Uploaded to: SVG Repo, www.svgrepo.com, Generator: SVG Repo Mixer Tools -->
<svg width="800px" height="800px" viewBox="0 0 36 36" xmlns="http://www.w3.org/2000/svg" xmlns:xlink="http://www.w3.org/1999/xlink" aria-hidden="true" role="img" class="iconify iconify--twemoji" preserveAspectRatio="xMidYMid meet"><path fill="#BE1931" d="M17 27a3 3 0 0 1-3-3v-4a3 3 0 0 1 3-3c.603-.006 6-1 6-5c0-2-2-4-5-4c-2.441 0-4 2-4 3a3 3 0 1 1-6 0c0-4.878 4.58-9 10-9c8 0 11 5.982 11 11c0 4.145-2.277 7.313-6.413 8.92c-.9.351-1.79.587-2.587.747V24a3 3 0 0 1-3 3z"></path><circle fill="#BE1931" cx="17" cy="32" r="3"></circle></svg>