<?xml version="1.0" encoding="UTF-8" standalone="no"?>
<svg
   viewBox="0 0 36 26"
   version="1.1"
   id="svg6"
   sodipodi:docname="PAL-AF.svg"
   width="36"
   height="26"
   inkscape:version="1.4.1 (93de688d07, 2025-03-30)"
   xmlns:inkscape="http://www.inkscape.org/namespaces/inkscape"
   xmlns:sodipodi="http://sodipodi.sourceforge.net/DTD/sodipodi-0.dtd"
   xmlns="http://www.w3.org/2000/svg"
   xmlns:svg="http://www.w3.org/2000/svg">
  <defs
     id="defs6" />
  <sodipodi:namedview
     id="namedview6"
     pagecolor="#505050"
     bordercolor="#ffffff"
     borderopacity="1"
     inkscape:showpageshadow="0"
     inkscape:pageopacity="0"
     inkscape:pagecheckerboard="1"
     inkscape:deskcolor="#505050"
     inkscape:zoom="21.527778"
     inkscape:cx="18"
     inkscape:cy="13.006452"
     inkscape:window-width="1920"
     inkscape:window-height="1006"
     inkscape:window-x="0"
     inkscape:window-y="0"
     inkscape:window-maximized="1"
     inkscape:current-layer="svg6" />
  <path
     fill="#de3830"
     d="M 32,0 H 6.5 L 19,8.5 H 36 V 4 C 36,1.791 34.209,0 32,0 Z"
     id="path1" />
  <path
     fill="#002395"
     d="M 6.5,26 H 32 c 2.209,0 4,-1.791 4,-4 V 17.5 H 19 Z"
     id="path2" />
  <path
     fill="#141414"
     d="M 0,6 V 20 L 10.5,13 Z"
     id="path3" />
  <path
     fill="#ffb611"
     d="M 0,4 V 6 L 10.5,13 0,20 v 2 l 13.5,-9 z"
     id="path4" />
  <path
     fill="#007a4d"
     d="M 3.541,0.028 C 1.548,0.257 0,1.947 0,4 L 13.5,13 0,22 c 0,2.053 1.548,3.743 3.541,3.972 L 18.5,15.5 H 36 v -5 H 18.5 Z"
     id="path5" />
  <path
     fill="#eeeeee"
     d="M 6.5,0 H 4 C 3.844,0 3.692,0.011 3.541,0.028 L 18.5,10.5 H 36 v -2 H 19 Z M 3.541,25.972 C 3.692,25.989 3.844,26 4,26 H 6.5 L 19,17.5 h 17 v -2 H 18.5 Z"
     id="path6" />
</svg>
