<?xml version="1.0" encoding="UTF-8" standalone="no"?>
<svg
   viewBox="0 0 36 26"
   version="1.1"
   id="svg5"
   sodipodi:docname="PAL-IN.svg"
   width="36"
   height="26"
   inkscape:version="1.4.1 (93de688d07, 2025-03-30)"
   xmlns:inkscape="http://www.inkscape.org/namespaces/inkscape"
   xmlns:sodipodi="http://sodipodi.sourceforge.net/DTD/sodipodi-0.dtd"
   xmlns="http://www.w3.org/2000/svg"
   xmlns:svg="http://www.w3.org/2000/svg">
  <defs
     id="defs5" />
  <sodipodi:namedview
     id="namedview5"
     pagecolor="#505050"
     bordercolor="#ffffff"
     borderopacity="1"
     inkscape:showpageshadow="0"
     inkscape:pageopacity="0"
     inkscape:pagecheckerboard="1"
     inkscape:deskcolor="#505050"
     inkscape:zoom="21.527778"
     inkscape:cx="18"
     inkscape:cy="13.006452"
     inkscape:window-width="1920"
     inkscape:window-height="1006"
     inkscape:window-x="0"
     inkscape:window-y="0"
     inkscape:window-maximized="1"
     inkscape:current-layer="svg5" />
  <path
     fill="#138808"
     d="m 0,22 c 0,2.209 1.791,4 4,4 h 28 c 2.209,0 4,-1.791 4,-4 V 18 H 0 Z"
     id="path1" />
  <path
     fill="#eeeeee"
     d="M 0,8 H 36 V 18 H 0 Z"
     id="path2" />
  <path
     fill="#ff9933"
     d="M 36,8 V 4 C 36,1.791 34.209,0 32,0 H 4 C 1.791,0 0,1.791 0,4 v 4 z"
     id="path3" />
  <circle
     fill="#000080"
     cx="18"
     cy="13"
     r="4"
     id="circle3" />
  <circle
     fill="#eeeeee"
     cx="18"
     cy="13"
     r="3"
     id="circle4" />
  <path
     fill="#6666b3"
     d="m 18,10 0.146,2.264 1.001,-2.035 -0.73,2.147 1.704,-1.498 -1.497,1.705 2.147,-0.731 -2.035,1.002 L 21,13 l -2.264,0.146 2.035,1.001 -2.147,-0.73 1.497,1.704 -1.704,-1.497 0.73,2.147 L 18.146,13.736 18,16 l -0.146,-2.264 -1.002,2.035 0.731,-2.147 -1.705,1.497 1.498,-1.704 -2.147,0.73 2.035,-1.001 L 15,13 l 2.264,-0.146 -2.035,-1.002 2.147,0.731 -1.498,-1.705 1.705,1.498 -0.731,-2.147 1.002,2.035 z"
     id="path4" />
  <circle
     fill="#000080"
     cx="18"
     cy="13"
     r="1"
     id="circle5" />
</svg>
