<?xml version="1.0" encoding="UTF-8" standalone="no"?>
<svg
   viewBox="0 0 36 26"
   version="1.1"
   id="svg6"
   sodipodi:docname="PAL-A.svg"
   width="36"
   height="26"
   inkscape:version="1.4.1 (93de688d07, 2025-03-30)"
   xmlns:inkscape="http://www.inkscape.org/namespaces/inkscape"
   xmlns:sodipodi="http://sodipodi.sourceforge.net/DTD/sodipodi-0.dtd"
   xmlns="http://www.w3.org/2000/svg"
   xmlns:svg="http://www.w3.org/2000/svg">
  <defs
     id="defs6" />
  <sodipodi:namedview
     id="namedview6"
     pagecolor="#505050"
     bordercolor="#ffffff"
     borderopacity="1"
     inkscape:showpageshadow="0"
     inkscape:pageopacity="0"
     inkscape:pagecheckerboard="1"
     inkscape:deskcolor="#505050"
     inkscape:zoom="21.527778"
     inkscape:cx="18"
     inkscape:cy="13.006452"
     inkscape:window-width="1920"
     inkscape:window-height="1006"
     inkscape:window-x="0"
     inkscape:window-y="0"
     inkscape:window-maximized="1"
     inkscape:current-layer="svg6" />
  <path
     fill="#00247d"
     d="M 32,0 H 4 C 3.795,0 3.593,0.015 3.396,0.045 L 3.392,1.799 0.662,1.795 C 0.244,2.427 0,3.185 0,4 v 18 c 0,2.209 1.791,4 4,4 h 28 c 2.209,0 4,-1.791 4,-4 V 4 C 36,1.791 34.209,0 32,0 Z"
     id="path1" />
  <path
     d="M 9,21.023 7.778,22.152 7.899,20.492 6.254,20.241 7.627,19.301 6.798,17.858 8.389,18.346 9,16.797 l 0.612,1.549 1.591,-0.488 -0.83,1.443 1.374,0.94 -1.645,0.251 0.121,1.66 z M 27.95,4.562 27.151,5.3 27.23,4.214 26.153,4.05 27.052,3.435 26.51,2.491 27.55,2.81 27.95,1.797 28.351,2.81 29.392,2.491 28.849,3.435 29.747,4.05 28.671,4.214 28.75,5.3 Z m -4,6 -0.799,0.739 0.079,-1.086 -1.077,-0.164 0.899,-0.616 -0.542,-0.944 1.04,0.319 0.4,-1.013 0.401,1.013 1.041,-0.319 -0.543,0.944 0.898,0.616 -1.076,0.164 0.079,1.086 z m 9,-2 -0.799,0.739 0.079,-1.086 -1.077,-0.164 0.899,-0.616 -0.542,-0.944 1.04,0.319 0.4,-1.013 0.401,1.013 1.041,-0.319 -0.543,0.944 0.898,0.616 -1.076,0.164 0.079,1.086 z m -5,14 -0.799,0.739 0.079,-1.086 -1.077,-0.164 0.899,-0.616 -0.542,-0.944 1.04,0.319 0.4,-1.013 0.401,1.013 1.041,-0.319 -0.543,0.944 0.898,0.616 -1.076,0.164 0.079,1.086 z M 31,11 l 0.294,0.596 0.657,0.095 -0.475,0.463 0.112,0.655 L 31,12.5 l -0.588,0.309 0.112,-0.655 -0.475,-0.463 0.657,-0.095 z"
     fill="#ffffff"
     id="path2" />
  <path
     fill="#00247d"
     d="M 19,13 V 0 H 4 C 3.68,0 3.396,0.045 3.396,0.045 L 3.392,1.799 0.662,1.795 C 0.662,1.795 0.62,1.854 0.535,2 0.195,2.589 0,3.272 0,4 v 9 z"
     id="path3" />
  <path
     fill="#eeeeee"
     d="M 19,0 H 16.669 L 12,3.269 V 0 H 7 V 2.569 L 3.396,0.045 C 2.782,0.139 2.206,0.37 1.724,0.71 L 6.426,4 H 4.69 L 0.967,1.391 C 0.857,1.52 0.756,1.653 0.662,1.795 L 3.813,4 H 0 V 9 H 3.885 L 0,11.766 V 13 H 3.332 L 7,10.432 V 13 h 5 V 9.731 L 16.668,13 H 19 V 10.971 L 16.185,9 H 19 V 4 H 16.186 L 19,2.029 Z"
     id="path4" />
  <path
     fill="#cf1b2b"
     d="M 11,0 H 8 V 5 H 0 v 3 h 8 v 5 h 3 V 8 h 8 V 5 h -8 z"
     id="path5" />
  <path
     fill="#cf1b2b"
     d="M 19,0 H 17.539 L 12,3.879 V 4 h 1.571 L 19,0.198 Z M 1.724,0.71 C 1.443,0.905 1.19,1.133 0.967,1.391 L 4.69,4 H 6.425 Z M 6.437,9 0.734,13 H 2.461 L 7,9.822 V 9 Z M 19,12.802 v -1.22 L 15.313,9 H 13.57 Z"
     id="path6" />
</svg>
