<?xml version="1.0" encoding="UTF-8" standalone="no"?>
<svg
   viewBox="0 0 36 26"
   version="1.1"
   id="svg4"
   sodipodi:docname="PAL-FI.svg"
   width="36"
   height="26"
   inkscape:version="1.4.1 (93de688d07, 2025-03-30)"
   xmlns:inkscape="http://www.inkscape.org/namespaces/inkscape"
   xmlns:sodipodi="http://sodipodi.sourceforge.net/DTD/sodipodi-0.dtd"
   xmlns="http://www.w3.org/2000/svg"
   xmlns:svg="http://www.w3.org/2000/svg">
  <defs
     id="defs4" />
  <sodipodi:namedview
     id="namedview4"
     pagecolor="#505050"
     bordercolor="#ffffff"
     borderopacity="1"
     inkscape:showpageshadow="0"
     inkscape:pageopacity="0"
     inkscape:pagecheckerboard="1"
     inkscape:deskcolor="#505050"
     inkscape:zoom="21.527778"
     inkscape:cx="18"
     inkscape:cy="13.006452"
     inkscape:window-width="1920"
     inkscape:window-height="1006"
     inkscape:window-x="0"
     inkscape:window-y="0"
     inkscape:window-maximized="1"
     inkscape:current-layer="svg4" />
  <path
     fill="#edecec"
     d="M 32,0 H 18 V 10 H 36 V 4 C 36,1.791 34.209,0 32,0 Z"
     id="path1" />
  <path
     fill="#eeeeee"
     d="M 11,0 H 4 C 1.791,0 0,1.791 0,4 v 6 h 11 z"
     id="path2" />
  <path
     fill="#edecec"
     d="M 32,26 H 18 V 16 h 18 v 6 c 0,2.209 -1.791,4 -4,4 z M 11,26 H 4 C 1.791,26 0,24.209 0,22 v -6 h 11 z"
     id="path3" />
  <path
     fill="#003580"
     d="M 18,0 H 11 V 10 H 0 v 6 h 11 v 10 h 7 V 16 H 36 V 10 H 18 Z"
     id="path4" />
</svg>
