<?xml version="1.0" encoding="UTF-8" standalone="no"?>
<svg
   viewBox="0 0 36 26"
   version="1.1"
   id="svg4"
   sodipodi:docname="PAL-UK.svg"
   width="36"
   height="26"
   inkscape:version="1.4.1 (93de688d07, 2025-03-30)"
   xmlns:inkscape="http://www.inkscape.org/namespaces/inkscape"
   xmlns:sodipodi="http://sodipodi.sourceforge.net/DTD/sodipodi-0.dtd"
   xmlns="http://www.w3.org/2000/svg"
   xmlns:svg="http://www.w3.org/2000/svg">
  <defs
     id="defs4" />
  <sodipodi:namedview
     id="namedview4"
     pagecolor="#505050"
     bordercolor="#ffffff"
     borderopacity="1"
     inkscape:showpageshadow="0"
     inkscape:pageopacity="0"
     inkscape:pagecheckerboard="1"
     inkscape:deskcolor="#505050"
     inkscape:zoom="21.527778"
     inkscape:cx="18"
     inkscape:cy="13.006452"
     inkscape:window-width="1920"
     inkscape:window-height="1006"
     inkscape:window-x="0"
     inkscape:window-y="0"
     inkscape:window-maximized="1"
     inkscape:current-layer="svg4" />
  <path
     fill="#00247d"
     d="M 0,4.059 V 8 H 5.628 Z M 4.664,26 H 13 V 20.163 Z M 23,20.164 V 26 h 8.335 z M 0,18 v 3.941 L 5.63,18 Z M 31.337,0 H 23 V 5.837 Z M 36,21.942 V 18 H 30.369 Z M 36,8 V 4.059 L 30.371,8 Z M 13,0 H 4.664 L 13,5.837 Z"
     id="path1" />
  <path
     fill="#cf1b2b"
     d="m 25.14,18 9.712,6.801 c 0.471,-0.479 0.808,-1.082 0.99,-1.749 L 28.627,18 Z M 13,18 h -2.141 l -9.711,6.8 c 0.521,0.53 1.189,0.909 1.938,1.085 L 13,18.943 Z M 23,8 h 2.141 L 34.852,1.2 C 34.331,0.67 33.664,0.291 32.915,0.115 L 23,7.057 Z M 10.859,8 1.148,1.2 C 0.677,1.68 0.34,2.282 0.157,2.949 L 7.372,8 Z"
     id="path2" />
  <path
     fill="#eeeeee"
     d="M 36,16 H 21 v 10 h 2 V 20.164 L 31.335,26 H 32 c 1.117,0 2.126,-0.461 2.852,-1.199 L 25.14,18 h 3.487 l 7.215,5.052 C 35.935,22.715 36,22.366 36,22 V 21.942 L 30.369,18 H 36 Z M 0,16 v 2 H 5.63 L 0,21.941 V 22 c 0,1.091 0.439,2.078 1.148,2.8 L 10.859,18 H 13 v 0.943 L 3.086,25.884 C 3.38,25.954 3.684,26 4,26 H 4.664 L 13,20.163 V 26 h 2 V 16 Z M 36,4 C 36,2.909 35.561,1.922 34.852,1.2 L 25.141,8 H 23 V 7.057 L 32.915,0.115 C 32.62,0.046 32.316,0 32,0 H 31.337 L 23,5.837 V 0 H 21 V 10 H 36 V 8 H 30.371 L 36,4.059 Z M 13,0 V 5.837 L 4.664,0 H 4 C 2.882,0 1.874,0.461 1.148,1.2 L 10.859,8 H 7.372 L 0.157,2.949 C 0.065,3.286 0,3.634 0,4 V 4.059 L 5.628,8 H 0 v 2 H 15 V 0 Z"
     id="path3" />
  <path
     fill="#cf1b2b"
     d="M 21,10 V 0 H 15 V 10 H 0 v 6 h 15 v 10 h 6 V 16 h 15 v -6 z"
     id="path4" />
</svg>
