<?xml version="1.0" encoding="UTF-8" standalone="no"?>
<svg
   viewBox="0 0 36 26"
   version="1.1"
   id="svg2"
   sodipodi:docname="PAL-E.svg"
   width="36"
   height="26"
   inkscape:version="1.4.1 (93de688d07, 2025-03-30)"
   xmlns:inkscape="http://www.inkscape.org/namespaces/inkscape"
   xmlns:sodipodi="http://sodipodi.sourceforge.net/DTD/sodipodi-0.dtd"
   xmlns="http://www.w3.org/2000/svg"
   xmlns:svg="http://www.w3.org/2000/svg">
  <defs
     id="defs2" />
  <sodipodi:namedview
     id="namedview2"
     pagecolor="#505050"
     bordercolor="#ffffff"
     borderopacity="1"
     inkscape:showpageshadow="0"
     inkscape:pageopacity="0"
     inkscape:pagecheckerboard="1"
     inkscape:deskcolor="#505050"
     inkscape:zoom="21.527778"
     inkscape:cx="18"
     inkscape:cy="13.006452"
     inkscape:window-width="1920"
     inkscape:window-height="1006"
     inkscape:window-x="0"
     inkscape:window-y="0"
     inkscape:window-maximized="1"
     inkscape:current-layer="svg2" />
  <path
     fill="#003399"
     d="M 32,0 H 4 C 1.791,0 0,1.791 0,4 v 18 c 0,2.209 1.791,4 4,4 h 28 c 2.209,0 4,-1.791 4,-4 V 4 C 36,1.791 34.209,0 32,0 Z"
     id="path1" />
  <path
     d="M 18.539,4.705 19.388,4.088 H 18.339 L 18.014,3.09 17.69,4.088 h -1.049 l 0.849,0.617 -0.325,0.998 0.849,-0.617 0.849,0.617 z m 0,17.333 0.849,-0.617 h -1.049 l -0.325,-0.998 -0.324,0.998 h -1.049 l 0.849,0.617 -0.325,0.998 0.849,-0.617 0.849,0.617 z M 9.873,13.371 10.722,12.754 H 9.672 L 9.348,11.756 9.023,12.754 H 7.974 l 0.849,0.617 -0.324,0.998 0.849,-0.617 0.849,0.617 z M 10.98,9.086 11.829,8.469 h -1.05 L 10.455,7.471 10.131,8.469 h -1.05 l 0.849,0.617 -0.324,0.998 0.849,-0.617 0.849,0.617 z m 0,8.619 0.849,-0.617 h -1.05 l -0.324,-0.998 -0.324,0.998 h -1.05 l 0.849,0.617 -0.324,0.998 0.849,-0.617 0.849,0.617 z M 14.206,5.866 15.055,5.249 h -1.05 L 13.681,4.251 13.357,5.249 h -1.05 l 0.849,0.617 -0.324,0.998 0.849,-0.617 0.849,0.617 z m 0,15.067 0.849,-0.617 h -1.05 l -0.324,-0.998 -0.324,0.998 h -1.05 l 0.849,0.617 -0.324,0.998 0.849,-0.616 0.849,0.616 z m 11.921,-7.562 -0.849,-0.617 h 1.05 l 0.324,-0.998 0.325,0.998 h 1.049 l -0.849,0.617 0.324,0.998 -0.849,-0.617 -0.849,0.617 z M 25.02,9.086 24.171,8.469 h 1.05 l 0.324,-0.998 0.324,0.998 h 1.05 l -0.849,0.617 0.324,0.998 -0.849,-0.617 -0.849,0.617 z m 0,8.619 -0.849,-0.617 h 1.05 l 0.324,-0.998 0.324,0.998 h 1.05 l -0.849,0.617 0.324,0.998 -0.849,-0.617 -0.849,0.617 z M 21.794,5.866 20.945,5.249 h 1.05 l 0.324,-0.998 0.324,0.998 h 1.05 L 22.844,5.866 23.168,6.864 22.319,6.247 21.47,6.864 Z m 0,15.067 -0.849,-0.617 h 1.05 l 0.324,-0.998 0.324,0.998 h 1.05 l -0.849,0.617 0.324,0.998 -0.849,-0.616 -0.849,0.616 z"
     fill="#ffcc00"
     id="path2" />
</svg>
