<?xml version="1.0" encoding="utf-8"?><!-- Uploaded to: SVG Repo, www.svgrepo.com, Generator: SVG Repo Mixer Tools -->
<svg width="800px" height="800px" viewBox="0 0 36 36" xmlns="http://www.w3.org/2000/svg" xmlns:xlink="http://www.w3.org/1999/xlink" aria-hidden="true" role="img" class="iconify iconify--twemoji" preserveAspectRatio="xMidYMid meet"><path fill="#0D5EB0" d="M4 31h28a3.98 3.98 0 0 0 1.935-.5H2.065A3.98 3.98 0 0 0 4 31z"></path><path fill="#EEE" d="M8.5 19.5H0V22h36v-2.5H14zM0 27c0 .17.014.336.035.5h35.931c.02-.164.034-.33.034-.5v-2H0v2zm14-13h22v2.5H14zm0-5.5V11h22V9c0-.17-.014-.336-.035-.5H14z"></path><path fill="#0D5EB0" d="M14 11h22v3H14zM0 22h36v3H0zm2.065 8.5h31.87a4.002 4.002 0 0 0 2.031-3H.035a3.998 3.998 0 0 0 2.03 3zM0 14h5.5v5.5H0zm14 2.5V14H8.5v5.5H36v-3zm19.935-11A3.98 3.98 0 0 0 32 5H4A4.002 4.002 0 0 0 .034 8.5C.014 8.664 0 8.83 0 9v2h5.5V5.5h3V11H14V8.5h21.965a3.998 3.998 0 0 0-2.03-3z"></path><path fill="#EEE" d="M8.5 11V5h-3v6H0v3h5.5v5.5h3V14H14v-3z"></path></svg>