<?xml version="1.0" encoding="UTF-8" standalone="no"?>
<!-- Uploaded to: SVG Repo, www.svgrepo.com, Generator: SVG Repo Mixer Tools -->

<svg
   width="800"
   height="577.77783"
   viewBox="0 0 36 26.000002"
   aria-hidden="true"
   role="img"
   class="iconify iconify--twemoji"
   preserveAspectRatio="xMidYMid"
   version="1.1"
   id="svg4"
   sodipodi:docname="PAL-GR.svg"
   inkscape:version="1.4.1 (93de688d07, 2025-03-30)"
   xmlns:inkscape="http://www.inkscape.org/namespaces/inkscape"
   xmlns:sodipodi="http://sodipodi.sourceforge.net/DTD/sodipodi-0.dtd"
   xmlns="http://www.w3.org/2000/svg"
   xmlns:svg="http://www.w3.org/2000/svg">
  <defs
     id="defs4" />
  <sodipodi:namedview
     id="namedview4"
     pagecolor="#505050"
     bordercolor="#ffffff"
     borderopacity="1"
     inkscape:showpageshadow="0"
     inkscape:pageopacity="0"
     inkscape:pagecheckerboard="1"
     inkscape:deskcolor="#505050"
     inkscape:zoom="0.96875"
     inkscape:cx="400"
     inkscape:cy="289.03226"
     inkscape:window-width="1920"
     inkscape:window-height="1006"
     inkscape:window-x="0"
     inkscape:window-y="0"
     inkscape:window-maximized="1"
     inkscape:current-layer="svg4" />
  <path
     fill="#0d5eb0"
     d="m 4,26.000002 h 28 a 3.98,3.98 0 0 0 1.935,-0.5 H 2.065 a 3.98,3.98 0 0 0 1.935,0.5 z"
     id="path1" />
  <path
     fill="#eeeeee"
     d="M 8.5,14.500002 H 0 v 2.5 h 36 v -2.5 H 14 Z m -8.5,7.5 c 0,0.17 0.014,0.336 0.035,0.5 h 35.931 c 0.02,-0.164 0.034,-0.33 0.034,-0.5 v -2 H 0 Z M 14,9.0000017 H 36 V 11.500002 H 14 Z m 0,-5.5 v 2.5 h 22 v -2 c 0,-0.17 -0.014,-0.336 -0.035,-0.5 z"
     id="path2" />
  <path
     fill="#0d5eb0"
     d="m 14,6.0000017 h 22 v 3 H 14 Z M 0,17.000002 h 36 v 3 H 0 Z m 2.065,8.5 h 31.87 a 4.002,4.002 0 0 0 2.031,-3 H 0.035 a 3.998,3.998 0 0 0 2.03,3 z M 0,9.0000017 H 5.5 V 14.500002 H 0 Z M 14,11.500002 V 9.0000017 H 8.5 V 14.500002 H 36 v -3 z M 33.935,0.5000017 A 3.98,3.98 0 0 0 32,1.6977483e-6 H 4 A 4.002,4.002 0 0 0 0.034,3.5000017 c -0.02,0.164 -0.034,0.33 -0.034,0.5 v 2 h 5.5 v -5.5 h 3 v 5.5 H 14 v -2.5 h 21.965 a 3.998,3.998 0 0 0 -2.03,-3 z"
     id="path3" />
  <path
     fill="#eeeeee"
     d="M 8.5,6.0000017 V 1.6977483e-6 h -3 V 6.0000017 H 0 v 3 h 5.5 v 5.5000003 h 3 V 9.0000017 H 14 v -3 z"
     id="path4" />
</svg>
