<?xml version="1.0" encoding="UTF-8" standalone="no"?>
<svg
   viewBox="0 0 36 26"
   version="1.1"
   id="svg3"
   sodipodi:docname="PAL-NO.svg"
   width="36"
   height="26"
   inkscape:version="1.4.1 (93de688d07, 2025-03-30)"
   xmlns:inkscape="http://www.inkscape.org/namespaces/inkscape"
   xmlns:sodipodi="http://sodipodi.sourceforge.net/DTD/sodipodi-0.dtd"
   xmlns="http://www.w3.org/2000/svg"
   xmlns:svg="http://www.w3.org/2000/svg">
  <defs
     id="defs3" />
  <sodipodi:namedview
     id="namedview3"
     pagecolor="#505050"
     bordercolor="#ffffff"
     borderopacity="1"
     inkscape:showpageshadow="0"
     inkscape:pageopacity="0"
     inkscape:pagecheckerboard="1"
     inkscape:deskcolor="#505050"
     inkscape:zoom="21.527778"
     inkscape:cx="18"
     inkscape:cy="13.006452"
     inkscape:window-width="1920"
     inkscape:window-height="1006"
     inkscape:window-x="0"
     inkscape:window-y="0"
     inkscape:window-maximized="1"
     inkscape:current-layer="svg3" />
  <path
     fill="#ef2b2d"
     d="M 10,0 H 4 C 1.791,0 0,1.791 0,4 v 6 H 10 Z M 32,0 H 16 V 10 H 36 V 4 C 36,1.791 34.209,0 32,0 Z M 16,26 h 16 c 2.209,0 4,-1.791 4,-4.5 V 16 H 16 Z M 0,16 v 5.5 C 0,24.209 1.791,26 4,26 h 6 V 16 Z"
     id="path1" />
  <path
     fill="#002868"
     d="M 14.5,0 H 11.556 L 11.531,11.5 H 0 v 3 H 11.525 L 11.5,26 h 3 V 14.5 H 36 v -3 H 14.5 Z"
     id="path2" />
  <path
     fill="#edecec"
     d="M 14.5,26 H 16 V 16 H 36 V 14.5 H 14.5 Z M 16,0 H 14.5 V 11.5 H 36 V 10 H 16 Z M 11.5,0 H 10 V 10 H 0 v 1.5 H 11.5 Z M 0,14.5 V 16 h 10 v 10 h 1.5 V 14.5 Z"
     id="path3" />
</svg>
