<?xml version="1.0" encoding="UTF-8" standalone="no"?>
<svg
   viewBox="0 0 36 26"
   version="1.1"
   id="svg2"
   sodipodi:docname="PAL-SW.svg"
   width="36"
   height="26"
   inkscape:version="1.4.1 (93de688d07, 2025-03-30)"
   xmlns:inkscape="http://www.inkscape.org/namespaces/inkscape"
   xmlns:sodipodi="http://sodipodi.sourceforge.net/DTD/sodipodi-0.dtd"
   xmlns="http://www.w3.org/2000/svg"
   xmlns:svg="http://www.w3.org/2000/svg">
  <defs
     id="defs2" />
  <sodipodi:namedview
     id="namedview2"
     pagecolor="#505050"
     bordercolor="#ffffff"
     borderopacity="1"
     inkscape:showpageshadow="0"
     inkscape:pageopacity="0"
     inkscape:pagecheckerboard="1"
     inkscape:deskcolor="#505050"
     inkscape:zoom="21.527778"
     inkscape:cx="18"
     inkscape:cy="13.006452"
     inkscape:window-width="1920"
     inkscape:window-height="1006"
     inkscape:window-x="0"
     inkscape:window-y="0"
     inkscape:window-maximized="1"
     inkscape:current-layer="svg2" />
  <path
     fill="#006aa7"
     d="M 15.5,26 H 32 c 2.209,0 4,-1.791 4,-4.5 v -6 H 15.5 Z M 32,0 H 15.5 V 10.5 H 36 V 4 C 36,1.791 34.209,0 32,0 Z M 10.5,0 H 4 C 1.792,0 0.002,1.789 0,3.997 V 10.5 H 10.5 Z M 0,15.5 v 6.004 C 0.002,24.211 1.792,26 4,26 h 6.5 V 15.5 Z"
     id="path1" />
  <path
     fill="#fecc00"
     d="m 15.5,0 h -5 V 10.5 H 0 v 5 H 10.5 V 26 h 5 V 15.5 H 36 v -5 H 15.5 Z"
     id="path2" />
</svg>
