<?xml version="1.0" encoding="UTF-8" standalone="no"?>
<svg
   version="1.1"
   viewBox="0 0 45 32.5"
   id="svg2"
   xml:space="preserve"
   sodipodi:docname="PAL-S.svg"
   width="45"
   height="32.5"
   inkscape:version="1.4.1 (93de688d07, 2025-03-30)"
   xmlns:inkscape="http://www.inkscape.org/namespaces/inkscape"
   xmlns:sodipodi="http://sodipodi.sourceforge.net/DTD/sodipodi-0.dtd"
   xmlns="http://www.w3.org/2000/svg"
   xmlns:svg="http://www.w3.org/2000/svg"><sodipodi:namedview
     id="namedview1"
     pagecolor="#505050"
     bordercolor="#ffffff"
     borderopacity="1"
     inkscape:showpageshadow="0"
     inkscape:pageopacity="0"
     inkscape:pagecheckerboard="1"
     inkscape:deskcolor="#505050"
     inkscape:zoom="16.315789"
     inkscape:cx="22.524194"
     inkscape:cy="16.303226"
     inkscape:window-width="1920"
     inkscape:window-height="1006"
     inkscape:window-x="0"
     inkscape:window-y="0"
     inkscape:window-maximized="1"
     inkscape:current-layer="svg2" /><defs
     id="defs6"><clipPath
       id="clipPath18"><path
         d="M 0,38 H 38 V 0 H 0 Z"
         id="path20" /></clipPath></defs><g
     transform="matrix(1.25,0,0,-1.25,-1.25,40)"
     id="g12"><g
       id="g14"><g
         clip-path="url(#clipPath18)"
         id="g16"><g
           transform="translate(37,10)"
           id="g22"><path
             d="m 0,0 c 0,-2.209 -1.791,-4 -4,-4 h -28 c -2.209,0 -4,1.791 -4,4 v 18 c 0,2.209 1.791,4 4,4 h 28 c 2.209,0 4,-1.791 4,-4 z"
             id="path24"
             style="fill:#dd2e44;fill-opacity:1;fill-rule:nonzero;stroke:none" /></g><path
           d="M 37,13 H 1 v 12 h 36 z"
           id="path26"
           style="fill:#ffcc4d;fill-opacity:1;fill-rule:nonzero;stroke:none" /><g
           transform="translate(10,20)"
           id="g28"><path
             d="m 0,0 v -3 c 0,-1.657 1.343,-3 3,-3 1.657,0 3,1.343 3,3 v 3 z"
             id="path30"
             style="fill:#ea596e;fill-opacity:1;fill-rule:nonzero;stroke:none" /></g><path
           d="m 13,18 h 3 v 3 h -3 z"
           id="path32"
           style="fill:#f4a2b2;fill-opacity:1;fill-rule:nonzero;stroke:none" /><path
           d="m 13,18 h -3 v 3 h 3 z"
           id="path34"
           style="fill:#dd2e44;fill-opacity:1;fill-rule:nonzero;stroke:none" /><g
           transform="translate(16,22.5)"
           id="g36"><path
             d="m 0,0 c 0,-0.829 -1.343,-1.5 -3,-1.5 -1.657,0 -3,0.671 -3,1.5 0,0.829 1.343,1.5 3,1.5 1.657,0 3,-0.671 3,-1.5"
             id="path38"
             style="fill:#ea596e;fill-opacity:1;fill-rule:nonzero;stroke:none" /></g><g
           transform="translate(16,23.25)"
           id="g40"><path
             d="m 0,0 c 0,0.414 -1.343,0.75 -3,0.75 -1.657,0 -3,-0.336 -3,-0.75 0,-0.414 1.343,-0.75 3,-0.75 1.657,0 3,0.336 3,0.75"
             id="path42"
             style="fill:#ffac33;fill-opacity:1;fill-rule:nonzero;stroke:none" /></g><path
           d="m 8,14 h 1 v 7 H 8 Z"
           id="path44"
           style="fill:#99aab5;fill-opacity:1;fill-rule:nonzero;stroke:none" /><path
           d="m 18,14 h -1 v 7 h 1 z"
           id="path46"
           style="fill:#99aab5;fill-opacity:1;fill-rule:nonzero;stroke:none" /><path
           d="M 10,14 H 7 v 1 h 3 z"
           id="path48"
           style="fill:#66757f;fill-opacity:1;fill-rule:nonzero;stroke:none" /><path
           d="m 19,14 h -3 v 1 h 3 z"
           id="path50"
           style="fill:#66757f;fill-opacity:1;fill-rule:nonzero;stroke:none" /><path
           d="M 9,21 H 8 v 1 h 1 z"
           id="path52"
           style="fill:#66757f;fill-opacity:1;fill-rule:nonzero;stroke:none" /><path
           d="m 18,21 h -1 v 1 h 1 z"
           id="path54"
           style="fill:#66757f;fill-opacity:1;fill-rule:nonzero;stroke:none" /></g></g></g></svg>
