<?xml version="1.0" encoding="UTF-8"?>
<svg version="1.1" xmlns="http://www.w3.org/2000/svg" width="800" height="463">
<path d="M0 0 C264 0 528 0 800 0 C800 152.79 800 305.58 800 463 C536 463 272 463 0 463 C0 310.21 0 157.42 0 0 Z " fill="#FFFFFF" transform="translate(0,0)"/>
<path d="M0 0 C163.68 0 327.36 0 496 0 C496 71.61 496 143.22 496 217 C332.32 217 168.64 217 0 217 C0 145.39 0 73.78 0 0 Z " fill="#356AB5" transform="translate(304,246)"/>
<path d="M0 0 C163.68 0 327.36 0 496 0 C496 71.61 496 143.22 496 217 C332.32 217 168.64 217 0 217 C0 145.39 0 73.78 0 0 Z " fill="#356AB5" transform="translate(304,0)"/>
<path d="M0 0 C91.08 0 182.16 0 276 0 C276 71.61 276 143.22 276 217 C184.92 217 93.84 217 0 217 C0 145.39 0 73.78 0 0 Z " fill="#356AB5" transform="translate(0,0)"/>
<path d="M0 0 C145.86 0 291.72 0 442 0 C442 36.63 442 73.26 442 111 C296.14 111 150.28 111 0 111 C0 74.37 0 37.74 0 0 Z " fill="#F71215" transform="translate(358,352)"/>
<path d="M0 0 C145.86 0 291.72 0 442 0 C442 33.99 442 67.98 442 103 C296.14 103 150.28 103 0 103 C0 69.01 0 35.02 0 0 Z " fill="#F71215" transform="translate(358,0)"/>
<path d="M0 0 C9.24 0 18.48 0 28 0 C28 71.61 28 143.22 28 217 C191.68 217 355.36 217 524 217 C524 226.57 524 236.14 524 246 C360.32 246 196.64 246 28 246 C28 317.61 28 389.22 28 463 C18.76 463 9.52 463 0 463 C0 391.39 0 319.78 0 246 C-91.08 246 -182.16 246 -276 246 C-276 236.43 -276 226.86 -276 217 C-184.92 217 -93.84 217 0 217 C0 145.39 0 73.78 0 0 Z " fill="#EED821" transform="translate(276,0)"/>
<path d="M0 0 C72.6 0 145.2 0 220 0 C220 36.63 220 73.26 220 111 C147.4 111 74.8 111 0 111 C0 74.37 0 37.74 0 0 Z " fill="#F71215" transform="translate(0,352)"/>
<path d="M0 0 C72.6 0 145.2 0 220 0 C220 33.99 220 67.98 220 103 C147.4 103 74.8 103 0 103 C0 69.01 0 35.02 0 0 Z " fill="#F71215" transform="translate(0,0)"/>
<path d="M0 0 C163.68 0 327.36 0 496 0 C496 8.91 496 17.82 496 27 C341.23 27 186.46 27 27 27 C27 89.7 27 152.4 27 217 C18.09 217 9.18 217 0 217 C0 145.39 0 73.78 0 0 Z " fill="#191E66" transform="translate(304,246)"/>
<path d="M0 0 C8.91 0 17.82 0 27 0 C27 62.7 27 125.4 27 190 C181.77 190 336.54 190 496 190 C496 198.91 496 207.82 496 217 C332.32 217 168.64 217 0 217 C0 145.39 0 73.78 0 0 Z " fill="#191E66" transform="translate(304,0)"/>
<path d="M0 0 C154.77 0 309.54 0 469 0 C469 9.24 469 18.48 469 28 C323.14 28 177.28 28 27 28 C27 81.46 27 134.92 27 190 C18.09 190 9.18 190 0 190 C0 127.3 0 64.6 0 0 Z " fill="#FFFFFF" transform="translate(331,273)"/>
<path d="M0 0 C8.91 0 17.82 0 27 0 C27 53.79 27 107.58 27 163 C172.86 163 318.72 163 469 163 C469 171.91 469 180.82 469 190 C314.23 190 159.46 190 0 190 C0 127.3 0 64.6 0 0 Z " fill="#FFFFFF" transform="translate(331,0)"/>
<path d="M0 0 C91.08 0 182.16 0 276 0 C276 71.61 276 143.22 276 217 C267.09 217 258.18 217 249 217 C249 154.3 249 91.6 249 27 C166.83 27 84.66 27 0 27 C0 18.09 0 9.18 0 0 Z " fill="#191E66" transform="translate(0,246)"/>
<path d="M0 0 C8.91 0 17.82 0 27 0 C27 71.61 27 143.22 27 217 C-64.08 217 -155.16 217 -249 217 C-249 208.09 -249 199.18 -249 190 C-166.83 190 -84.66 190 0 190 C0 127.3 0 64.6 0 0 Z " fill="#191E66" transform="translate(249,0)"/>
<path d="M0 0 C9.57 0 19.14 0 29 0 C29 62.7 29 125.4 29 190 C-53.17 190 -135.34 190 -220 190 C-220 181.09 -220 172.18 -220 163 C-147.4 163 -74.8 163 0 163 C0 109.21 0 55.42 0 0 Z " fill="#FFFFFF" transform="translate(220,0)"/>
<path d="M0 0 C72.6 0 145.2 0 220 0 C220 16.83 220 33.66 220 51 C147.4 51 74.8 51 0 51 C0 34.17 0 17.34 0 0 Z " fill="#356AB5" transform="translate(0,301)"/>
</svg>
