<?xml version="1.0" encoding="UTF-8" standalone="no"?>
<svg
   viewBox="0 0 36 26"
   version="1.1"
   id="svg8"
   sodipodi:docname="PAL-P.svg"
   width="36"
   height="26"
   inkscape:version="1.4.1 (93de688d07, 2025-03-30)"
   xmlns:inkscape="http://www.inkscape.org/namespaces/inkscape"
   xmlns:sodipodi="http://sodipodi.sourceforge.net/DTD/sodipodi-0.dtd"
   xmlns="http://www.w3.org/2000/svg"
   xmlns:svg="http://www.w3.org/2000/svg">
  <defs
     id="defs8" />
  <sodipodi:namedview
     id="namedview8"
     pagecolor="#505050"
     bordercolor="#ffffff"
     borderopacity="1"
     inkscape:showpageshadow="0"
     inkscape:pageopacity="0"
     inkscape:pagecheckerboard="1"
     inkscape:deskcolor="#505050"
     inkscape:zoom="21.527778"
     inkscape:cx="18"
     inkscape:cy="13.006452"
     inkscape:window-width="1920"
     inkscape:window-height="1006"
     inkscape:window-x="0"
     inkscape:window-y="0"
     inkscape:window-maximized="1"
     inkscape:current-layer="svg8" />
  <path
     fill="#006600"
     d="m 36,22 c 0,2.209 -1.791,4 -4,4 H 4 C 1.791,26 0,24.209 0,22 V 4 C 0,1.791 1.791,0 4,0 h 28 c 2.209,0 4,1.791 4,4 z"
     id="path1" />
  <path
     fill="#d52b1e"
     d="M 32,0 H 15 v 26 h 17 c 2.209,0 4,-1.791 4,-4 V 4 C 36,1.791 34.209,0 32,0 Z"
     id="path2" />
  <path
     fill="#ffcc4d"
     d="m 15,5 c -4.419,0 -8,3.581 -8,8 0,4.418 3.581,8 8,8 4.418,0 8,-3.582 8,-8 0,-4.419 -3.582,-8 -8,-8 z m -6.113,4.594 1.602,1.602 -2.46,1.23 C 8.112,11.404 8.412,10.445 8.887,9.594 Z m -0.858,3.979 4.4,2.207 -2.706,1.804 0.014,0.021 C 8.777,16.508 8.154,15.113 8.029,13.573 Z M 14,19.92 C 13.063,19.786 12.187,19.467 11.408,19 H 14 Z M 14,18 H 10.901 L 14,15.934 Z M 14,14.732 13.393,15.137 9.118,13 11.234,11.942 14,14.707 Z M 14,13.293 10.457,9.75 14,10.34 Z M 14,9.301 9.568,8.588 C 10.652,7.255 12.218,6.335 14,6.08 Z m 7.113,0.293 c 0.475,0.851 0.775,1.81 0.858,2.833 l -2.46,-1.23 z M 16,6.08 c 1.782,0.256 3.348,1.175 4.432,2.508 L 16,9.301 Z M 16,10.34 19.543,9.749 16,13.293 Z m 0,4.367 2.765,-2.765 L 20.882,13 16.608,15.137 16,14.732 Z m 0,5.213 V 19 h 2.592 C 17.813,19.467 16.937,19.786 16,19.92 Z M 16,18 V 15.934 L 19.099,18 Z m 4.264,-0.395 0.014,-0.021 -2.706,-1.804 4.4,-2.207 c -0.126,1.54 -0.749,2.935 -1.708,4.032 z"
     id="path3" />
  <path
     fill="#d52b1e"
     d="m 11,8 v 7 c 0,2.209 1.791,4 4,4 2.209,0 4,-1.791 4,-4 V 8 Z"
     id="path4" />
  <path
     fill="#ffffff"
     d="m 12,9 v 6 c 0,1.656 1.343,3 3,3 1.657,0 3,-1.344 3,-3 V 9 Z"
     id="path5" />
  <path
     fill="#829acd"
     d="m 13,12 h 4 v 2 h -4 z"
     id="path6" />
  <path
     fill="#829acd"
     d="m 14,11 h 2 v 4 h -2 z"
     id="path7" />
  <path
     fill="#003399"
     d="m 12,12 h 1 v 2 h -1 z m 2,0 h 2 v 2 h -2 z m 3,0 h 1 v 2 h -1 z m -3,3 h 2 v 2 h -2 z m 0,-6 h 2 v 2 h -2 z"
     id="path8" />
</svg>
