<?xml version="1.0" encoding="UTF-8"?><svg id="PCSX2" xmlns="http://www.w3.org/2000/svg" viewBox="0 0 280.11 34.51"><g id="vectorized_by_maxihplay"><path id="_2" d="M228.43.6h45.87c2.91,0,5.28,2.37,5.28,5.28v9.69c0,2.91-2.37,5.28-5.28,5.28h-32.41v4.87h37.69v8.23h-51.15v-15.21c0-2.91,2.37-5.28,5.28-5.28h32.41v-5.32h-32.98l-4.7-7.53Z" fill="#fff" stroke="#7a7a7a" stroke-miterlimit="1.05" stroke-width="1.05"/><g id="X"><polygon id="polygon1" points="221.55 25.7 221.55 33.94 206.12 33.94 195.58 23.46 185.11 33.93 169.61 33.93 169.61 25.63 177.94 25.63 186.32 17.36 177.26 8.08 169.61 8.08 169.61 .6 185.25 .6 195.55 10.68 205.41 .62 221.55 .62 221.55 8.08 213.57 8.08 204.68 17.17 213.31 25.7 221.55 25.7" fill="#3caeff" stroke-width="0"/><path id="path1" d="M169.97.91l1.83,1.83v3.15h5.97c.32,0,.63.13.86.36l9.82,9.78c.76.76.75,2-.01,2.75l-9.01,8.82c-.32.31-.76.5-1.23.5h-6.41l-1.94-2.25,8.06-.22,8.39-8.28-9.06-9.27h-7.64V.6l.36.31Z" fill="#279ff5" stroke-width="0"/><path id="path2" d="M170.04,1.02l1.76,1.73h12.75l9.78,9.78c.7.7,1.84.7,2.54,0l9.7-9.69h12.75l2.01-2.01-15.93-.21-9.85,10.06-10.29-10.08-15.23.42Z" fill="#50b6ff" stroke-width="0"/><path id="path3" d="M221.44,25.96l-2.12,2.16h-6.5c-.4,0-.77-.16-1.05-.43l-8.95-8.95c-.81-.8-.81-2.1,0-2.9l9.42-9.42c.34-.34.79-.52,1.26-.52h5.81v-3.04l2.13-2.08.13,7.33-7.97.15-8.9,8.95,8.63,8.51h8.25l-.14.25Z" fill="#34a2f2" stroke-width="0"/><path id="path4" d="M169.61,33.87l.18-8.15,2.01,2.38v3.56h12.1c.12,0,.22-.04.29-.13l9.97-9.97c.82-.82,2.14-.81,2.94.01l9.73,9.92c.07.07.18.13.29.13h12.24l-.05-3.51,2.3-2.57-.06,8.39h-15.43l-10.53-10.48-10.48,10.48-15.5-.06Z" fill="#43b9f2" stroke-width="0"/><polygon id="polygon4" points="221.55 25.7 221.55 33.94 206.12 33.94 195.58 23.46 185.11 33.93 169.61 33.93 169.61 25.63 177.94 25.63 186.32 17.36 177.26 8.08 169.61 8.08 169.61 .6 185.25 .6 195.55 10.68 205.41 .62 221.55 .62 221.55 8.08 213.57 8.08 204.68 17.17 213.31 25.7 221.55 25.7" fill="none" stroke="#5d73cb" stroke-miterlimit="1.05" stroke-width="1.15"/></g><path id="S" d="M162.8.6h-45.45c-2.91,0-5.28,2.37-5.28,5.28v10.04c0,2.92,2.37,5.28,5.28,5.28h31.71v4.53h-36.98v8.21h45.45c2.91,0,5.28-2.37,5.28-5.28v-10.22c0-2.92-2.37-5.28-5.28-5.28h-31.82v-5.04h32.07l5.03-7.53Z" fill="#fff" stroke="#7a7a7a" stroke-miterlimit="1.05" stroke-width="1.05"/><path id="C" d="M105.56.53h-41.41c-2.91,0-5.28,2.37-5.28,5.28v22.82c0,2.93,2.38,5.32,5.32,5.32h40.34v-8.29h-31.86V8.19h27.57l5.33-7.65Z" fill="#fff" stroke="#7a7a7a" stroke-miterlimit="1.05" stroke-width="1.05"/><path id="P" d="M.52,5.81C.52,2.89,2.89.52,5.81.52h40.87c2.9,0,5.26,2.36,5.26,5.26v14.6c0,2.92-2.37,5.28-5.29,5.28l-29.74-.06,6.72-7.53h14.64v-9.95H14.67v25.81H.52V5.81Z" fill="#fff" stroke="#7a7a7a" stroke-miterlimit="1.05" stroke-width="1.05"/></g></svg>