<?xml version="1.0" encoding="UTF-8" standalone="no"?>
<svg
   width="16"
   height="16"
   fill="currentColor"
   class="bi bi-at"
   viewBox="0 0 16 16"
   version="1.1"
   id="svg4"
   sodipodi:docname="at.svg"
   inkscape:version="1.2.2 (b0a8486541, 2022-12-01)"
   xmlns:inkscape="http://www.inkscape.org/namespaces/inkscape"
   xmlns:sodipodi="http://sodipodi.sourceforge.net/DTD/sodipodi-0.dtd"
   xmlns="http://www.w3.org/2000/svg"
   xmlns:svg="http://www.w3.org/2000/svg">
  <defs
     id="defs8" />
  <sodipodi:namedview
     id="namedview6"
     pagecolor="#505050"
     bordercolor="#ffffff"
     borderopacity="1"
     inkscape:showpageshadow="0"
     inkscape:pageopacity="0"
     inkscape:pagecheckerboard="1"
     inkscape:deskcolor="#505050"
     showgrid="false"
     inkscape:zoom="83.4386"
     inkscape:cx="6.2441124"
     inkscape:cy="15.178826"
     inkscape:window-width="1920"
     inkscape:window-height="956"
     inkscape:window-x="0"
     inkscape:window-y="42"
     inkscape:window-maximized="1"
     inkscape:current-layer="svg4" />
  <path
     d="M 15.802279,7.0562664 C 15.802279,2.8957055 12.648554,0 8.1149865,0 3.4173529,0 0.197721,3.250482 0.197721,7.9957932 0.197721,12.893953 3.3318138,16 8.2776509,16 9.4864151,16 10.6461,15.82752 11.508501,15.530237 v -1.208765 c -0.602979,0.279054 -1.8986853,0.459947 -3.2112181,0.459947 -4.1030676,0 -6.7491674,-2.636283 -6.7491674,-6.7281324 0,-3.9880806 2.6937773,-6.8445224 6.4420683,-6.8445224 3.8352322,0 6.4617002,2.3670465 6.4617002,5.8278703 0,2.3586328 -0.776862,3.8829095 -1.985627,3.8829095 -0.68992,0 -1.082559,-0.392638 -1.082559,-1.0657316 V 4.2292726 H 9.9365466 V 5.3987731 H 9.7822959 C 9.4092898,4.5644172 8.5468884,4.0469763 7.5386499,4.0469763 c -1.9631901,0 -3.3346187,1.6294478 -3.3346187,3.9586329 0,2.4357578 1.3419807,4.0750218 3.3360211,4.0750218 1.1218229,0 1.9842245,-0.546889 2.3964943,-1.524277 h 0.1542504 c 0.113585,0.939527 0.985802,1.609817 2.107625,1.609817 2.204383,0 3.603857,-1.984225 3.603857,-5.1085023 z M 5.7381241,8.0434706 c 0,-1.6785275 0.7572305,-2.6741454 2.0417178,-2.6741454 1.3041192,0 2.1370728,1.0348816 2.1370728,2.6741454 0,1.6392639 -0.8427695,2.6839624 -2.1567046,2.6839624 -1.2550395,0 -2.022086,-1.0166529 -2.022086,-2.6839624 z"
     id="path2"
     style="stroke-width:1.40228" />
</svg>
