<?xml version="1.0" encoding="UTF-8" standalone="no"?>
<!-- Generator: Adobe Illustrator 26.5.0, SVG Export Plug-In . SVG Version: 6.00 Build 0)  -->

<svg
   version="1.1"
   id="bandaid"
   x="0px"
   y="0px"
   viewBox="0 0 21.6 21.6"
   style="enable-background:new 0 0 21.6 21.6"
   xml:space="preserve"
   sodipodi:docname="band-aid-line-dark.svg"
   inkscape:version="1.2.2 (b0a8486541, 2022-12-01)"
   xmlns:inkscape="http://www.inkscape.org/namespaces/inkscape"
   xmlns:sodipodi="http://sodipodi.sourceforge.net/DTD/sodipodi-0.dtd"
   xmlns="http://www.w3.org/2000/svg"
   xmlns:svg="http://www.w3.org/2000/svg"><defs
   id="defs8" /><sodipodi:namedview
   id="namedview6"
   pagecolor="#505050"
   bordercolor="#ffffff"
   borderopacity="1"
   inkscape:showpageshadow="0"
   inkscape:pageopacity="0"
   inkscape:pagecheckerboard="1"
   inkscape:deskcolor="#505050"
   showgrid="false"
   inkscape:zoom="35.231481"
   inkscape:cx="10.785808"
   inkscape:cy="10.785808"
   inkscape:window-width="1920"
   inkscape:window-height="956"
   inkscape:window-x="0"
   inkscape:window-y="42"
   inkscape:window-maximized="1"
   inkscape:current-layer="bandaid" />
<style
   type="text/css"
   id="style2">
	.st0{fill:#FFFFFF;}
</style>
<path
   id="By_Maxihplay"
   class="st0"
   d="M16.4,10.8L19,8.3c1-1,1-2.7,0-3.8l-1.9-1.9c-0.5-0.5-1.2-0.8-1.9-0.8s-1.4,0.3-1.9,0.8  l-2.5,2.5L8.3,2.6c-1-1-2.7-1-3.8,0L2.6,4.5c-1,1-1,2.7,0,3.8l2.5,2.5l-2.5,2.5c-1,1-1,2.7,0,3.8L4.5,19c0.5,0.5,1.2,0.8,1.9,0.8  s1.4-0.3,1.9-0.8l2.5-2.5l2.5,2.5c1,1,2.7,1,3.8,0l1.9-1.9c1-1,1-2.7,0-3.8L16.4,10.8z M8.4,9.8c0.5,0,0.9,0.4,0.9,0.9  s-0.4,0.9-0.9,0.9s-0.9-0.4-0.9-0.9C7.6,10.2,8,9.8,8.4,9.8z M7.1,17.8c-0.2,0.2-0.5,0.3-0.7,0.3S5.8,18,5.6,17.8L3.8,16  c-0.4-0.4-0.4-1.1,0-1.5L6.3,12l3.3,3.3C9.7,15.3,7.1,17.8,7.1,17.8z M10.8,13.8c-0.5,0-0.9-0.4-0.9-0.9s0.4-0.9,0.9-0.9  s0.9,0.4,0.9,0.9C11.7,13.5,11.3,13.8,10.8,13.8z M10.8,9.1c-0.5,0-0.9-0.4-0.9-0.9s0.4-0.9,0.9-0.9s0.9,0.4,0.9,0.9  S11.3,9.1,10.8,9.1z M13.2,11.5c-0.5,0-0.9-0.4-0.9-0.9s0.4-0.9,0.9-0.9s0.9,0.4,0.9,0.9C14.1,11.1,13.7,11.5,13.2,11.5z M11.9,6.3  l2.5-2.5c0.2-0.2,0.5-0.3,0.7-0.3c0.3,0,0.5,0.1,0.7,0.3l1.9,1.9c0.4,0.4,0.4,1.1,0,1.5l-2.5,2.5L11.9,6.3z"
   style="fill:#000000" />
</svg>
