<?xml version="1.0" encoding="UTF-8"?><svg id="Buzz_-_Pcsx2" xmlns="http://www.w3.org/2000/svg" viewBox="0 0 150 150"><defs><style>.cls-1{opacity:.85;}.cls-1,.cls-2{fill:none;}.cls-2{stroke:#000;stroke-miterlimit:10;stroke-width:12px;}</style></defs><g id="tela"><path id="tela-2" class="cls-1" d="M0,0H150V150H0V0Z"/></g><g id="By_Maxihplay"><path d="M72.11,143.02h-.21c-18.77-.66-29.6-13.24-33.39-18.61h0c-1.41-2-2.16-4.37-2.16-6.83V35.41c0-9.6,7.8-17.4,17.38-17.4h42.52c9.58,0,17.38,7.81,17.38,17.4V117.84c0,2.32-.68,4.6-1.98,6.57-8.56,13.04-20.38,18.61-39.55,18.61Zm-23.75-25.48c2.77,3.92,10.58,12.97,23.86,13.48,17.29-.02,24.08-5.06,29.41-13.18V35.41c.01-2.98-2.4-5.4-5.37-5.4H53.74c-2.97,0-5.38,2.42-5.38,5.4V117.54Z"/><g><rect x="56.75" y="100.17" width="36.5" height="13.15" rx="3.81" ry="3.81"/><rect x="56.75" y="81.75" width="36.5" height="13.15" rx="3.81" ry="3.81"/><rect x="56.75" y="63.33" width="36.5" height="13.15" rx="3.81" ry="3.81"/><rect x="56.75" y="44.91" width="36.5" height="13.15" rx="3.81" ry="3.81"/></g><path class="cls-2" d="M95.12,23.03c0,5.55-9.01,7.04-20.12,7.04s-20.12-1.5-20.12-7.04,9.01-10.04,20.12-10.04,20.12,4.5,20.12,10.04Z"/></g></svg>