<?xml version="1.0" encoding="UTF-8"?><svg id="cheats" xmlns="http://www.w3.org/2000/svg" viewBox="0 0 24 24"><defs><style>.cls-1{fill:none;}.cls-2{fill-rule:evenodd;}</style></defs><g id="tela"><g><path class="cls-1" d="M0,0H24V24H0V0Z"/><path d="M2,4c0-.5,.5-1,1-1H21c.5,0,1,.4,1,1v14c0,.5-.5,1-1,1H3c-.5,0-1-.5-1-1h0V4Zm2,1v12H20V5H4Zm1,15h14v2H5v-2Z"/></g></g><g id="by_maxihplay"><path class="cls-2" d="M13.4,6.7c-1.1-1.2-2.6-.9-4,0-1.4-.9-2.9-1.1-4,0-.3,.4-.4,.9-.5,1.4-.2,1.1,.3,2.3,1.1,3.1l3.4,3.5,3.4-3.5c.8-.8,1.3-1.9,1.1-3.1,0-.5-.1-1-.5-1.4Z"/><path d="M17.1,12.2c.6,0,1,.2,1.5,.6,.4,.4,.6,.9,.6,1.5s-.2,1.1-.6,1.5c-.4,.4-.9,.6-1.5,.6s-1.3-.4-1.8-1c-.6,.7-1.2,1-1.8,1s-1.1-.2-1.4-.6c-.4-.4-.6-.9-.6-1.5s.2-1.1,.6-1.5c.4-.4,.9-.6,1.4-.6,.6,0,1.3,.4,1.8,1.1,.6-.8,1.2-1.1,1.8-1.1Zm-3.7,3c.4,0,.8-.3,1.2-.9-.4-.6-.8-.9-1.2-.9-.2,0-.3,0-.5,.1s-.3,.2-.3,.3-.1,.3-.1,.4c0,.2,.1,.5,.3,.6,.1,.3,.3,.4,.6,.4h0Zm3.9,0h.3c.1,0,.2-.1,.3-.1s.1-.1,.1-.2,.1-.2,.1-.3v-.3c0-.2-.1-.5-.3-.6-.2-.2-.4-.3-.7-.3-.4,0-.8,.3-1.2,.9,.6,.6,1,.9,1.4,.9h0Z"/></g></svg>