<?xml version="1.0" encoding="UTF-8"?><svg id="cheats" xmlns="http://www.w3.org/2000/svg" viewBox="0 0 24 24"><defs><style>.cls-1{fill:none;}</style></defs><path class="cls-1" d="M0,0H24V24H0V0Z"/><g id="by_maxihplay"><path d="M14.38,5.18c.73,0,1.32,.26,1.87,.82,2.15,3.05-.83,6.31-5.25,10.57-.43,.41-.85,.82-1.25,1.22l-1.88-1.93-2.39-2.46c-.39-.4-.78-.8-1.18-1.13l.04-.04c-1.85-1.78-1.93-3.85-1.39-5.18,.22-.55,.92-1.83,2.53-1.83,.9,0,1.94,.41,3,1.17l1.22,.88,1.26-.81c1.29-.83,2.48-1.27,3.43-1.27m0-2.2c-1.49,0-3.08,.63-4.62,1.62-1.55-1.12-3.01-1.59-4.29-1.59-4.76,0-7.07,6.54-2.67,10.8,0,0,6.96,7.16,6.96,7.16,3.41-4.03,12.75-10.19,8.18-16.37-1.05-1.14-2.27-1.62-3.57-1.62h0Z"/><path d="M20.93,16.35c.72,0,1.34,.27,1.85,.8,.51,.53,.77,1.17,.77,1.92s-.26,1.39-.77,1.92-1.13,.8-1.85,.8c-.84,0-1.61-.45-2.34-1.34-.72,.9-1.5,1.34-2.34,1.34-.72,0-1.34-.27-1.85-.8s-.77-1.17-.77-1.92,.26-1.39,.77-1.92c.51-.53,1.13-.8,1.85-.8,.84,0,1.61,.45,2.34,1.34,.72-.9,1.5-1.34,2.34-1.34Zm-4.67,3.81c.48,0,.97-.36,1.45-1.09-.48-.73-.97-1.09-1.45-1.09-.21,0-.39,.05-.56,.14s-.31,.23-.41,.4-.15,.35-.15,.54c0,.3,.11,.55,.33,.77,.22,.22,.49,.32,.8,.32Zm4.67,0c.12,0,.24-.02,.36-.05s.22-.09,.31-.15,.18-.15,.25-.24,.13-.19,.16-.31,.05-.23,.05-.34c0-.3-.11-.55-.33-.77-.22-.22-.49-.32-.8-.32-.48,0-.97,.36-1.45,1.09,.48,.73,.97,1.09,1.45,1.09Z"/></g></svg>