<?xml version="1.0" encoding="UTF-8"?><svg id="Bios_-_Pcsx2" xmlns="http://www.w3.org/2000/svg" viewBox="0 0 150 150"><defs><style>.cls-1{stroke-width:12px;}.cls-1,.cls-2{stroke:#000;stroke-linecap:round;stroke-linejoin:round;}.cls-1,.cls-3{fill:none;}.cls-2{stroke-width:7px;}</style></defs><g id="tela"><rect id="tela-2" class="cls-3" width="150" height="150"/></g><g id="By_Kam"><g id="B"><g id="B-2"><path d="M132.56,110.12h-24.25c-2.49,0-4.5-2.01-4.5-4.5s2.01-4.5,4.5-4.5h24.25c2.49,0,4.5,2.01,4.5,4.5s-2.01,4.5-4.5,4.5Z"/></g><g id="B-3"><path d="M132.51,79.33h-25.52c-2.49,0-4.5-2.01-4.5-4.5s2.01-4.5,4.5-4.5h25.52c2.49,0,4.5,2.01,4.5,4.5s-2.01,4.5-4.5,4.5Z"/></g><g id="B-4"><path d="M132.47,48.88h-26.34c-2.49,0-4.5-2.01-4.5-4.5s2.01-4.5,4.5-4.5h26.34c2.49,0,4.5,2.01,4.5,4.5s-2.01,4.5-4.5,4.5Z"/></g></g><g id="A"><g id="A-2"><path d="M43.78,110.12H17.44c-2.49,0-4.5-2.01-4.5-4.5s2.01-4.5,4.5-4.5h26.34c2.49,0,4.5,2.01,4.5,4.5s-2.01,4.5-4.5,4.5Z"/></g><g id="A-3"><path d="M43.78,79.33H17.44c-2.49,0-4.5-2.01-4.5-4.5s2.01-4.5,4.5-4.5h26.34c2.49,0,4.5,2.01,4.5,4.5s-2.01,4.5-4.5,4.5Z"/></g><g id="A-4"><path d="M43.84,48.88H17.5c-2.49,0-4.5-2.01-4.5-4.5s2.01-4.5,4.5-4.5h26.34c2.49,0,4.5,2.01,4.5,4.5s-2.01,4.5-4.5,4.5Z"/></g></g><rect id="chip" class="cls-1" x="46.94" y="18.87" width="56.13" height="112.26"/><ellipse id="ball" class="cls-2" cx="65.94" cy="37.27" rx="2.75" ry="2.47"/></g></svg>