<?xml version="1.0" encoding="UTF-8"?><svg xmlns="http://www.w3.org/2000/svg" viewBox="0 0 150 150"><defs><style>.cls-1{fill:none;}</style></defs><g id="tela"><path class="cls-1" d="M0,0H150V150H0V0Z"/></g><g id="close-line"><path id="By_Maxihplay" d="M75,63.55L112.47,26.08c1.44-1.44,3.79-1.44,5.23,0l6.22,6.22c1.44,1.44,1.44,3.79,0,5.23l-37.47,37.47,37.47,37.47c1.44,1.44,1.44,3.79,0,5.23l-6.22,6.22c-1.44,1.44-3.79,1.44-5.23,0l-37.47-37.47-37.47,37.47c-1.44,1.44-3.79,1.44-5.23,0l-6.22-6.22c-1.44-1.44-1.44-3.79,0-5.23l37.47-37.47L26.08,37.53c-1.44-1.44-1.44-3.79,0-5.23l6.22-6.22c1.44-1.44,3.79-1.44,5.23,0l37.47,37.47Z"/></g></svg>