<?xml version="1.0" encoding="UTF-8" standalone="no"?>
<svg
   width="512"
   height="512"
   viewBox="0 0 512 512"
   version="1.1"
   id="svg7"
   sodipodi:docname="controller-line-black.svg"
   inkscape:version="1.2.2 (b0a8486541, 2022-12-01)"
   xmlns:inkscape="http://www.inkscape.org/namespaces/inkscape"
   xmlns:sodipodi="http://sodipodi.sourceforge.net/DTD/sodipodi-0.dtd"
   xmlns="http://www.w3.org/2000/svg"
   xmlns:svg="http://www.w3.org/2000/svg">
  <sodipodi:namedview
     id="namedview9"
     pagecolor="#505050"
     bordercolor="#ffffff"
     borderopacity="1"
     inkscape:showpageshadow="0"
     inkscape:pageopacity="0"
     inkscape:pagecheckerboard="1"
     inkscape:deskcolor="#505050"
     showgrid="false"
     inkscape:zoom="0.78666667"
     inkscape:cx="364.83051"
     inkscape:cy="247.24576"
     inkscape:window-width="1920"
     inkscape:window-height="956"
     inkscape:window-x="0"
     inkscape:window-y="42"
     inkscape:window-maximized="1"
     inkscape:current-layer="svg7" />
  <defs
     id="defs4">
    <style
       id="style2">
      .cls-1 {
        fill: none;
        stroke: #fff;
        stroke-width: 18.53px;
        fill-rule: evenodd;
      }
    </style>
  </defs>
  <path
     id="Forma_1"
     data-name="Forma 1"
     class="cls-1"
     d="M 46.842133,249.89828 20.421542,372.31247 c 0,0 11.130543,70.26216 82.469558,41.70873 l 51.08752,-62.01804 c 0,0 54.08674,38.33981 83.22789,-23.46496 l 33.05702,-0.50809 c 0,0 25.68215,57.24145 83.89807,20.89514 l 57.68602,64.40586 c 0,0 68.44879,23.02228 79.69308,-50.4979 L 461.35779,241.59349 c 0,0 0.45786,-56.68596 -32.73092,-69.44411 l -10.52198,-27.57042 c 0,0 -32.79824,-31.45978 -78.81151,-2.98406 l -9.18446,26.79976 -154.1024,1.165 -7.7948,-29.46154 c 0,0 -37.9976,-23.61759 -79.889304,1.2323 l -13.270961,33.48265 c 0,0 -32.518596,19.46376 -28.209322,75.08521 z"
     style="stroke:#000000;stroke-width:40.1629;stroke-dasharray:none;stroke-opacity:1" />
</svg>
