<svg height="24" viewBox="0 0 24 24" width="24" xmlns="http://www.w3.org/2000/svg"><path d="m12 2c5.523 0 10 4.477 10 10s-4.477 10-10 10-10-4.477-10-10 4.477-10 10-10m0 2a8 8 0 1 0 0 16 8 8 0 0 0 0-16m3.833 3.337a.596.596 0 0 1 .763.067.59.59 0 0 1 .063.76q-3.27 4.569-3.598 4.897a1.5 1.5 0 0 1 -2.122-2.122q.56-.56 4.894-3.602m1.667 3.663a1 1 0 1 1 0 2 1 1 0 0 1 0-2m-11 0a1 1 0 1 1 0 2 1 1 0 0 1 0-2m2.318-3.596a1 1 0 1 1 -1.414 1.414 1 1 0 0 1 1.414-1.414m3.182-1.904a1 1 0 1 1 0 2 1 1 0 0 1 0-2"/></svg>