<?xml version="1.0" encoding="UTF-8"?>
<svg xmlns="http://www.w3.org/2000/svg" viewBox="0 0 150 150">
  <defs>
    <style>
      .cls-1 {
        stroke: #000;
        stroke-miterlimit: 10;
        stroke-width: 2px;
      }

      .cls-2 {
        fill: none;
      }
    </style>
  </defs>
  <g id="Camada_3" data-name="Camada 3">
    <g id="codigos">
      <g id="By_Maxihplay" data-name="By Maxihplay">
        <g id="baixo">
          <path class="cls-1" d="m20.57,127.29v-7.95h12.21v-30.79l-10.63,5.87-2.93-7.29,15.21-8.03h7.51v40.25h10.52v7.95h-31.89Z"/>
          <path class="cls-1" d="m95.6,103.13c0,3.94-.43,7.45-1.28,10.56-.86,3.1-2.11,5.73-3.76,7.86-1.65,2.14-3.66,3.77-6.03,4.89-2.37,1.12-5.08,1.69-8.14,1.69-2.64,0-5.07-.47-7.3-1.39-2.22-.93-4.14-2.39-5.76-4.38-1.61-1.99-2.87-4.54-3.78-7.64-.9-3.1-1.36-6.82-1.36-11.14,0-3.93.43-7.45,1.3-10.56.87-3.1,2.12-5.72,3.76-7.86,1.64-2.14,3.65-3.77,6.05-4.89,2.4-1.12,5.11-1.69,8.14-1.69,2.64,0,5.07.47,7.3,1.39,2.22.93,4.14,2.38,5.74,4.36,1.6,1.98,2.85,4.52,3.76,7.62.9,3.1,1.36,6.83,1.36,11.18Zm-28.37.15v1.37c0,.43.02.86.07,1.3l17.96-12.98c-.86-2.42-1.98-4.21-3.39-5.37s-3.06-1.74-4.97-1.74c-1.37,0-2.64.35-3.81,1.05s-2.19,1.77-3.06,3.21c-.87,1.44-1.55,3.25-2.05,5.43-.5,2.18-.75,4.75-.75,7.74Zm19.36.15c0-.42-.01-.84-.04-1.26-.02-.43-.04-.84-.04-1.23l-17.85,12.9c.78,2.37,1.88,4.13,3.3,5.28,1.42,1.15,3.07,1.72,4.95,1.72,1.37,0,2.64-.35,3.83-1.06s2.21-1.78,3.08-3.21c.87-1.43,1.55-3.24,2.03-5.43.49-2.19.73-4.76.73-7.72Z"/>
          <path class="cls-1" d="m103.12,127.29v-7.95h12.21v-30.79l-10.63,5.87-2.93-7.29,15.21-8.03h7.51v40.25h10.52v7.95h-31.89Z"/>
        </g>
        <g id="cima">
          <path class="cls-1" d="m52.38,46.43c0,3.94-.43,7.45-1.28,10.56-.86,3.1-2.11,5.73-3.76,7.86-1.65,2.14-3.66,3.77-6.03,4.89-2.37,1.12-5.08,1.69-8.14,1.69-2.64,0-5.07-.47-7.3-1.39-2.22-.93-4.14-2.39-5.76-4.38-1.61-1.99-2.87-4.54-3.78-7.64-.9-3.1-1.36-6.82-1.36-11.14,0-3.93.43-7.45,1.3-10.56.87-3.1,2.12-5.72,3.76-7.86,1.64-2.14,3.65-3.77,6.05-4.89,2.4-1.12,5.11-1.69,8.14-1.69,2.64,0,5.07.47,7.3,1.39,2.22.93,4.14,2.38,5.74,4.36,1.6,1.98,2.85,4.52,3.76,7.62.9,3.1,1.36,6.83,1.36,11.18Zm-28.37.15v1.37c0,.43.02.86.07,1.3l17.96-12.98c-.86-2.42-1.98-4.21-3.39-5.37s-3.06-1.74-4.97-1.74c-1.37,0-2.64.35-3.81,1.05s-2.19,1.77-3.06,3.21c-.87,1.44-1.55,3.25-2.05,5.43-.5,2.18-.75,4.75-.75,7.74Zm19.36.15c0-.42-.01-.84-.04-1.26-.02-.43-.04-.84-.04-1.23l-17.85,12.9c.78,2.37,1.88,4.13,3.3,5.28,1.42,1.15,3.07,1.72,4.95,1.72,1.37,0,2.64-.35,3.83-1.06s2.21-1.78,3.08-3.21c.87-1.43,1.55-3.24,2.03-5.43.49-2.19.73-4.76.73-7.72Z"/>
          <path class="cls-1" d="m59.89,70.58v-7.95h12.21v-30.79l-10.63,5.87-2.93-7.29,15.21-8.03h7.51v40.25h10.52v7.95h-31.89Z"/>
          <path class="cls-1" d="m134.93,46.43c0,3.94-.43,7.45-1.28,10.56-.86,3.1-2.11,5.73-3.76,7.86-1.65,2.14-3.66,3.77-6.03,4.89-2.37,1.12-5.08,1.69-8.14,1.69-2.64,0-5.07-.47-7.3-1.39-2.22-.93-4.14-2.39-5.76-4.38-1.61-1.99-2.87-4.54-3.78-7.64-.9-3.1-1.36-6.82-1.36-11.14,0-3.93.43-7.45,1.3-10.56.87-3.1,2.12-5.72,3.76-7.86,1.64-2.14,3.65-3.77,6.05-4.89,2.4-1.12,5.11-1.69,8.14-1.69,2.64,0,5.07.47,7.3,1.39,2.22.93,4.14,2.38,5.74,4.36,1.6,1.98,2.85,4.52,3.76,7.62.9,3.1,1.36,6.83,1.36,11.18Zm-28.37.15v1.37c0,.43.02.86.07,1.3l17.96-12.98c-.86-2.42-1.98-4.21-3.39-5.37-1.41-1.16-3.06-1.74-4.97-1.74-1.37,0-2.64.35-3.81,1.05s-2.19,1.77-3.06,3.21c-.87,1.44-1.55,3.25-2.05,5.43-.5,2.18-.75,4.75-.75,7.74Zm19.36.15c0-.42-.01-.84-.04-1.26-.02-.43-.04-.84-.04-1.23l-17.85,12.9c.78,2.37,1.88,4.13,3.3,5.28,1.42,1.15,3.07,1.72,4.95,1.72,1.37,0,2.64-.35,3.83-1.06s2.21-1.78,3.08-3.21c.87-1.43,1.55-3.24,2.03-5.43.49-2.19.73-4.76.73-7.72Z"/>
        </g>
      </g>
    </g>
  </g>
  <g id="Camada_2" data-name="Camada 2">
    <path class="cls-2" d="m-3.8-.03h154.06v152.06H-3.8V-.03Z"/>
  </g>
</svg>