<svg viewBox="0 0 192 192"><path transform="matrix(1.5101425,0,0,1.5101425,-4.8969338e-5,23.241334)" d="M 107.7,8.07 A 105.15,105.15 0 0 0 81.47,0 72.06,72.06 0 0 0 78.11,6.83 97.68,97.68 0 0 0 49,6.83 72.37,72.37 0 0 0 45.64,0 105.89,105.89 0 0 0 19.39,8.09 C 2.79,32.65 -1.71,56.6 0.54,80.21 v 0 A 105.73,105.73 0 0 0 32.71,96.36 77.7,77.7 0 0 0 39.6,85.25 68.42,68.42 0 0 1 28.75,80.07 c 0.91,-0.66 1.8,-1.34 2.66,-2 a 75.57,75.57 0 0 0 64.32,0 c 0.87,0.71 1.76,1.39 2.66,2 a 68.68,68.68 0 0 1 -10.87,5.19 77,77 0 0 0 6.89,11.1 105.25,105.25 0 0 0 32.19,-16.14 v 0 C 129.24,52.84 122.09,29.11 107.7,8.07 Z M 42.45,65.69 C 36.18,65.69 31,60 31,53 31,46 36,40.26 42.43,40.26 48.86,40.26 54,46 53.89,53 53.78,60 48.84,65.69 42.45,65.69 Z m 42.24,0 C 78.41,65.69 73.25,60 73.25,53 c 0,-7 5,-12.74 11.44,-12.74 6.44,0 11.54,5.74 11.43,12.74 -0.11,7 -5.04,12.69 -11.43,12.69 z"/></svg>
