<?xml version="1.0" encoding="UTF-8"?><svg id="Drum_-_Pcsx2" xmlns="http://www.w3.org/2000/svg" viewBox="0 0 150 150"><defs><style>.cls-1{stroke-linecap:round;stroke-width:9px;}.cls-1,.cls-2,.cls-3{fill:none;}.cls-1,.cls-3{stroke:#000;stroke-miterlimit:10;}.cls-2{opacity:.85;}.cls-3{stroke-width:12px;}</style></defs><path id="tela" class="cls-2" d="M0,0H150V150H0V0Z"/><g id="By_maxihplay"><g id="tambo"><path d="M69.09,140.76c-21.11,0-56.84-4.38-56.84-20.78v-1.52c0-.14,.01-7.3,0-7.33,1.17,2.81,6.58,19.67,56.84,19.67,43.78,0,55.67-14.99,56.84-17.79-.01,.03,0,5.47,0,5.61v1.37c0,16.4-35.73,20.78-56.84,20.78Z"/><g><path d="M100.77,84.63c-7.06,1.46-16.11,2.47-27.69,2.66v38.47c8.49-.29,18.6-1.48,27.69-3.79v-37.34Z"/><path d="M36.99,121.86c9.05,2.34,19.15,3.57,27.69,3.88v-38.46c-11.67-.21-20.69-1.26-27.69-2.77v37.34Z"/><path d="M109.16,82.42v36.96c9.7-3.62,16.76-8.9,16.76-16.19v-32.33c0-.09-.3,6.1-16.76,11.56Z"/><path d="M28.59,82.19c-16.19-5.73-15.75-12.39-16.34-12.92v33.92c0,7.19,6.86,12.42,16.34,16.04v-37.04Z"/></g><ellipse class="cls-3" cx="69.09" cy="61.19" rx="51.24" ry="15.18"/></g><path id="B" class="cls-1" d="M76.18,61.58l60.16-35.59c.29-.17,.66-.06,.8,.25l.55,1.16c.13,.27,.02,.6-.24,.74l-61.34,33.7"/><path id="A" class="cls-1" d="M58.58,59.24L107.61,9.41c.23-.24,.62-.22,.84,.03l.83,.98c.19,.23,.18,.57-.04,.78L58.58,59.49"/></g></svg>