<?xml version="1.0" encoding="UTF-8"?><svg id="EyeToy_-_Pcsx2" xmlns="http://www.w3.org/2000/svg" viewBox="0 0 150 150"><defs><style>.cls-1,.cls-2{fill:none;}.cls-2,.cls-3{stroke:#000;stroke-miterlimit:10;stroke-width:12px;}</style></defs><g id="tela"><rect class="cls-1" width="150" height="150"/></g><g id="By_Maxihplay"><g id="suporte"><path d="M128.79,125.89H21.21c-2.55,0-4.89-1.49-5.97-3.8-1.08-2.31-.72-5.06,.91-7.02l.34-.38,24.14-24.42c1.24-1.33,2.98-2.09,4.81-2.09h59.34c1.8,0,3.52,.74,4.76,2.03l24.16,24.65c1.75,1.93,2.19,4.72,1.13,7.1-1.06,2.38-3.42,3.92-6.03,3.92Zm-94.64-12H115.93l-13.43-13.7H47.69l-13.54,13.7Z"/><polygon class="cls-3" points="82.86 91.16 67.14 91.16 63.31 80.64 86.69 80.64 82.86 91.16"/></g><g id="webcam"><g id="B"><line class="cls-2" x1="140.42" y1="67.15" x2="124.16" y2="67.15"/><line class="cls-2" x1="140.42" y1="30.11" x2="124.16" y2="30.11"/><line class="cls-2" x1="140.42" y1="48.63" x2="124.16" y2="48.63"/></g><g id="A"><line class="cls-2" x1="25.84" y1="67.15" x2="9.58" y2="67.15"/><line class="cls-2" x1="25.84" y1="30.11" x2="9.58" y2="30.11"/><line class="cls-2" x1="25.84" y1="48.63" x2="9.58" y2="48.63"/></g><rect class="cls-2" x="24.09" y="30.11" width="101.81" height="46.2"/><circle id="lente" class="cls-2" cx="75" cy="54.11" r="22.02"/><g id="brilho"><path d="M79.87,57.12c-3.64,0-6.6-2.96-6.6-6.6s2.96-6.6,6.6-6.6,6.6,2.96,6.6,6.6-2.96,6.6-6.6,6.6Z"/></g></g></g></svg>