<?xml version="1.0" encoding="UTF-8"?><svg xmlns="http://www.w3.org/2000/svg" viewBox="0 0 150 150"><defs><style>.cls-1{stroke-linecap:round;stroke-linejoin:round;}.cls-1,.cls-2,.cls-3,.cls-4{fill:none;}.cls-1,.cls-2,.cls-3,.cls-5{stroke:#000;}.cls-1,.cls-3{stroke-width:12px;}.cls-2{stroke-width:18px;}.cls-5{stroke-width:6px;}</style></defs><g id="tela"><rect class="cls-4" x="0" width="150" height="150"/></g><g id="PCSX2_-_Save_-_Load"><g id="By_maxihplay"><g id="seta"><path class="cls-5" d="M55.07,104.57l18.6-20.15c.74-.74,1.94-.74,2.67,0l18.6,20.15c1.2,1.2,.35,2.44-1.32,2.44H56.38c-1.67,0-2.52-1.28-1.32-2.44h0Z"/><line class="cls-2" x1="75" y1="132.42" x2="75" y2="98.79"/></g><g id="corpo"><path class="cls-1" d="M42.93,127.31s-13.93,0-18.94,0c-2.67,0-4.84-2.16-4.84-4.84V27.34c0-2.57,2.09-4.65,4.66-4.64,18.31,.02,84.55,.11,86.95,.13,.06,0,20.08,20.82,20.08,20.88V122.72c0,2.54-2.07,4.59-4.61,4.59h-19.27"/><path id="Forma_2" class="cls-3" d="M47.45,60.79h48.84c1.77,0,3.21-1.44,3.21-3.21V23.18c0-.13-.11-.24-.24-.24H44.47c-.13,0-.24,.11-.24,.24V57.58c0,1.77,1.44,3.21,3.21,3.21Z"/></g></g></g></svg>