<?xml version="1.0" encoding="UTF-8"?><svg id="PCSX2_-_load" xmlns="http://www.w3.org/2000/svg" viewBox="0 0 384 384"><defs><style>.cls-1{stroke-width:28px;}.cls-1,.cls-2{fill:none;stroke:#000;}.cls-2{stroke-width:29px;}</style></defs><g id="By_maxihplay"><path id="Forma_5" class="cls-1" d="M217.39,192.85c-.45,.33-52.68,43.98-52.68,43.98l52.04,47.7"/><path id="Forma_6" class="cls-1" d="M173.41,238.01l161.32-.73"/><path id="Forma_2" class="cls-1" d="M114.53,59.5l1.11,89.07s-1.77,2.71,5.57,3.34c7.33,.63,122.47,1.11,122.47,1.11,2.21-.93,3.56-3.18,3.34-5.57-.09-4.41,0-89.07,0-89.07"/><path id="Forma_1" class="cls-2" d="M322.31,290.47s-.12,21.8-.1,22.87c.31,13.33-11.31,12.25-11.31,12.25,0,0-244.42-1.35-252.73-1.11s-8.91-10.02-8.91-10.02V68.41s1.5-7.5,8.91-8.91,215.99,0,215.99,0l48.05,46.76,.27,72.95"/></g></svg>