<?xml version="1.0" encoding="utf-8"?>
<!-- Generator: Adobe Illustrator 27.4.1, SVG Export Plug-In . SVG Version: 6.00 Build 0)  -->
<svg version="1.1" id="PCSX2_-_Gametrak" xmlns="http://www.w3.org/2000/svg" xmlns:xlink="http://www.w3.org/1999/xlink" x="0px"
	 y="0px" viewBox="0 0 150 150" style="enable-background:new 0 0 150 150;" xml:space="preserve">
<g id="By_Maxihplay">
	<g>
		<path d="M73.8,124.7c-7.8,0-14.8-1.8-21.8-5.7c-2.5,2.1-5.7,3.1-9.2,2.7L30,120.3c0,0-0.1,0-0.1,0c-6-0.8-11.4-4.1-14.8-9.1
			c-3.4-5-4.5-11.2-3.1-17.1l14-57.1c1.3-5.2,5.9-9,11.3-9.2l15.2-0.5c3.2-0.1,6.3,1.2,8.5,3.6c1.1,1.2,1.9,2.7,2.4,4.2
			c3-0.6,6.1-1,9.2-1.1c4.9-0.2,9.8,0.4,14.5,1.5c0.4-1.7,1.3-3.3,2.5-4.6c2.2-2.4,5.3-3.7,8.5-3.6l15.2,0.5c5.4,0.2,10,4,11.3,9.2
			l14,57.1c0,0.1,0.1,0.2,0.1,0.3c1.3,5.8,0.2,11.9-3.2,16.8c-3.4,5-8.8,8.3-14.8,9.1c0,0-0.1,0-0.1,0l-12.9,1.4
			c-3.9,0.5-7.6-0.9-10.1-3.6c-6.9,4.2-13.7,6.2-21.8,6.5C75,124.7,74.4,124.7,73.8,124.7z M50.2,104.9c1.2,0,2.4,0.4,3.4,1.1
			c7.4,5.1,13.6,7,21.6,6.7c7.8-0.3,13.9-2.7,21-8.3c1.7-1.3,4-1.7,6-0.9c2,0.8,3.4,2.6,3.7,4.8l0.2,1.5c0,0,0.1,0,0.1,0l12.9-1.4
			c2.6-0.4,4.9-1.8,6.4-4c1.5-2.2,2-4.9,1.4-7.5c0-0.1,0-0.2-0.1-0.3l-13.9-56.8c0,0,0-0.1-0.1-0.1l-14-0.5l0.5,3.9
			c0.3,2.2-0.6,4.3-2.4,5.6c-1.8,1.3-4.1,1.5-6.1,0.6c-5.5-2.5-11.7-3.7-18-3.5c-4.7,0.2-9.2,1.1-13.5,2.8c-2,0.8-4.2,0.5-5.9-0.8
			c-1.7-1.3-2.5-3.4-2.3-5.5l0.4-3.1l-14,0.5c0,0-0.1,0-0.1,0.1l-14,57.1c-0.6,2.6-0.2,5.3,1.4,7.5c1.5,2.2,3.8,3.6,6.4,4l12.9,1.4
			c0,0,0.1,0,0.1,0c0.4-2,1.7-3.7,3.6-4.5C48.7,105.1,49.5,104.9,50.2,104.9z"/>
	</g>
	<g>
		<path d="M75.2,83.5c-7.1,0-12.8-4.7-12.8-10.5s5.8-10.5,12.8-10.5S88.1,67.2,88.1,73S82.3,83.5,75.2,83.5z"/>
	</g>
	<path d="M113.2,78c-6.7,0-12.1-4.4-12.1-9.9c0-5.4,5.4-9.9,12.1-9.9c6.6,0,12.1,4.4,12.1,9.9C125.3,73.6,119.9,78,113.2,78z"/>
	<path d="M36.6,78c-6.6,0-12.1-4.4-12.1-9.9c0-5.4,5.4-9.9,12.1-9.9s12.1,4.4,12.1,9.9C48.7,73.6,43.3,78,36.6,78z"/>
</g>
<path d="M41.8,65.7l-4.9,3.6L8.1,37.7c-1.7-1.9-1.4-4.8,0.6-6.3l7.5-5.5c1.8-1.3,4.4-0.7,5.4,1.3L41.8,65.7z"/>
<path d="M108.8,65.7l4.9,3.6l28.9-31.5c1.7-1.9,1.4-4.8-0.6-6.3l-7.5-5.5c-1.8-1.3-4.4-0.7-5.4,1.3L108.8,65.7z"/>
</svg>
