<?xml version="1.0" encoding="UTF-8" standalone="no"?>
<svg
   width="96"
   height="96"
   version="1.1"
   id="svg4"
   sodipodi:docname="github-black.svg"
   inkscape:version="1.2.2 (b0a8486541, 2022-12-01)"
   xmlns:inkscape="http://www.inkscape.org/namespaces/inkscape"
   xmlns:sodipodi="http://sodipodi.sourceforge.net/DTD/sodipodi-0.dtd"
   xmlns="http://www.w3.org/2000/svg"
   xmlns:svg="http://www.w3.org/2000/svg">
  <defs
     id="defs8" />
  <sodipodi:namedview
     id="namedview6"
     pagecolor="#505050"
     bordercolor="#ffffff"
     borderopacity="1"
     inkscape:showpageshadow="0"
     inkscape:pageopacity="0"
     inkscape:pagecheckerboard="1"
     inkscape:deskcolor="#505050"
     showgrid="false"
     inkscape:zoom="6.9532167"
     inkscape:cx="68.026069"
     inkscape:cy="44.367954"
     inkscape:window-width="1920"
     inkscape:window-height="956"
     inkscape:window-x="0"
     inkscape:window-y="42"
     inkscape:window-maximized="1"
     inkscape:current-layer="svg4" />
  <path
     fill-rule="evenodd"
     clip-rule="evenodd"
     d="M 48.039718,0.79985077 C 21.474995,0.79985077 0,22.433162 0,49.196518 c 0,21.393378 13.759769,39.502427 32.848216,45.911787 2.386548,0.481833 3.26073,-1.041349 3.26073,-2.322631 0,-1.121982 -0.07867,-4.967795 -0.07867,-8.974874 -13.363486,2.885097 -16.146317,-5.769211 -16.146317,-5.769211 -2.147598,-5.608928 -5.329661,-7.050493 -5.329661,-7.050493 -4.373862,-2.964747 0.318599,-2.964747 0.318599,-2.964747 4.851762,0.320566 7.39761,4.967795 7.39761,4.967795 4.294212,7.371059 11.213921,5.288361 13.997735,4.006096 0.397267,-3.12503 1.670682,-5.288361 3.022764,-6.489993 -10.658339,-1.121983 -21.872261,-5.288362 -21.872261,-23.878259 0,-5.288362 1.907665,-9.615024 4.930428,-12.979987 -0.476916,-1.201632 -2.147598,-6.170411 0.4779,-12.820687 0,0 4.056246,-1.282265 13.20222,4.967795 a 46.18712,46.18712 0 0 1 12.010421,-1.602832 c 4.056245,0 8.191158,0.561483 12.009437,1.602832 9.146958,-6.25006 13.203204,-4.967795 13.203204,-4.967795 2.625497,6.650276 0.953832,11.619055 0.476916,12.820687 3.102413,3.364963 4.931411,7.691625 4.931411,12.979987 0,18.589897 -11.213922,22.675643 -21.951911,23.878259 1.750332,1.522198 3.26073,4.406312 3.26073,8.97389 0,6.489994 -0.07867,11.698705 -0.07867,13.300553 0,1.282266 0.875166,2.805448 3.26073,2.324598 C 82.240016,88.697961 95.999785,70.589896 95.999785,49.196518 96.078452,22.433162 74.524791,0.79985077 48.039718,0.79985077 Z"
     fill="#24292f"
     id="path2"
     style="stroke-width:0.983332" />
</svg>
