<svg viewBox="0 0 150 150" xmlns="http://www.w3.org/2000/svg"><path d="m0 0h150v150h-150z" fill="none"/><g stroke="#000" stroke-miterlimit="10"><rect fill="none" height="100.63" rx=".85" stroke-width="12" width="112.53" x="18.74" y="24.69"/><path d="m87.91 103.45h41.3v21.12h-41.3z"/><path d="m108.08 29.11h17.72v17.72h-17.72z"/><path d="m89.61 47.79h17.72v17.72h-17.72z"/><path d="m70.8 66.48h17.72v17.72h-17.72z"/><path d="m52.4 84.94h17.72v17.72h-17.72z"/><path d="m89.61 84.94h17.72v17.72h-17.72z"/><path d="m108.08 66.48h17.72v17.72h-17.72z"/><path d="m33.99 103.45h17.72v17.72h-17.72z"/><path d="m70.8 103.45h17.72v17.72h-17.72z"/><path d="m108.08 80.82h21.12v22.62h-21.12z"/></g></svg>