<?xml version="1.0" encoding="utf-8"?>
<!-- Generator: Adobe Illustrator 26.5.0, SVG Export Plug-In . SVG Version: 6.00 Build 0)  -->
<svg version="1.1" id="guitar_PCSX2_b" xmlns="http://www.w3.org/2000/svg" xmlns:xlink="http://www.w3.org/1999/xlink" x="0px"
	 y="0px" viewBox="0 0 494.7 469.9" style="enable-background:new 0 0 494.7 469.9;" xml:space="preserve">
<style type="text/css">
	.st0{fill:none;}
	.st1{stroke:#000000;stroke-width:16;stroke-miterlimit:10;}
	.st2{stroke:#000000;stroke-width:20;stroke-miterlimit:10;}
	.st3{stroke:#000000;stroke-miterlimit:10;}
</style>
<g id="By_Maxihplay">
	<rect class="st0" width="494.7" height="469.9"/>
	<path id="cordas" class="st1" d="M134.6,352.6l-2.7-2.5c-3.2-2.9-3.3-7.9-0.4-11l51.8-55.2c3-3.1,7.9-3.3,11.1-0.5l2.7,2.5
		c3.2,2.9,3.3,7.9,0.4,11l-51.8,55.2C142.8,355.3,137.8,355.4,134.6,352.6L134.6,352.6z"/>
	<polygon id="braco" class="st2" points="252.2,244.7 232.4,225.7 383.6,69.1 405,86.5 	"/>
	<path id="cabeca" class="st3" d="M488.2,39.1l-72.5,75.3l-50.7-13.3l-11-38.9l80.6-52.8c2.3-1.4,5-1.8,7.7-1.4l41.6,13.3
		c0.5,0.2,5.2,2,6.8,7C492,32.1,491,36.2,488.2,39.1L488.2,39.1z"/>
	<g id="corpo">
		<path d="M202.9,140.8L202.9,140.8 M190.2,169.1l24,70.8c2.6,7.6,7.4,14.1,13.8,18.9l55.7,41c-1.4,0.6-2.8,1.2-4.2,1.8
			c-11.7,5-25,10.6-38.2,18.9c-0.6,0.4-1.1,0.8-1.7,1.1c-3.7,2.6-15.1,10.7-25,36.4c-6.4,16.5-9.5,26.1-15.1,54.2
			c-1,5-1.9,8.4-2.7,10.7c-14.2,1.9-30.3,3.7-46.5,3.7c-30.9,0-52.4-6.5-65.9-20l-0.3-0.3c-4.5-4.5-18.2-18.2-28.7-36.1
			c-10.8-18.4-14.2-34.2-10.3-47.2c1.5-5.1,3.4-10.8,5.5-15.2c4.7-9.8,12.9-17.5,23-21.5c7.1-2.8,15.1-5.4,23.7-8.1
			c13-4.2,27.7-8.9,42.2-15.6c9.3-4.3,16.5-12.1,20.1-21.8C165.3,226.3,179.7,193.2,190.2,169.1 M193.2,105.1
			c-10.1,0-20.9,7.4-27.6,22.9c-9.4,21.8-34.2,77.5-42.4,99.3c-21.1,9.8-43.9,14.9-63.8,22.9c-19.2,7.7-34.8,22.2-43.7,40.9
			c-3.2,6.6-5.5,13.8-7.6,20.6c-17.4,56.8,39,112.6,49,122.5c24.9,24.9,60.3,31.4,93.5,31.4c20.2,0,39.6-2.4,55.3-4.5
			c13.5-1.8,25.2-6.1,32.1-41.4c5.2-26.5,7.8-33.8,13.2-47.6c3.2-8.2,7.4-15.9,11.1-18.6c21-13.3,44.1-18.7,65.1-32
			c0.9-0.7,10-8.5,9.1-20.9c-0.8-10.6-8.4-16.7-9.6-17.6l-75.6-55.7l-34.7-102.1C212.2,112,203,105.1,193.2,105.1L193.2,105.1
			L193.2,105.1z"/>
	</g>
</g>
</svg>
