<?xml version="1.0" encoding="UTF-8"?><svg id="guitar_PCSX2" xmlns="http://www.w3.org/2000/svg" viewBox="0 0 493.66 474.14"><defs><style>.cls-1,.cls-2{stroke:#000;stroke-miterlimit:10;}.cls-2{stroke-width:20px;}</style></defs><g id="By_maxihplay"><path id="corpo" class="cls-1" d="M188.41,192.55c-.75,14.56,6.75,47.85,20.03,67.76,19.32,28.97,42.12,37.78,54.54,43.83-17.76,8.99-43.47,27.14-53.18,55-1.18,3.26-1.97,6.71-2.27,10.24-3.93,46.09-40.35,63.32-70.26,64.13-14.57,.4-29.14-2.93-42.13-9.52-14.19-7.25-26.02-17.98-35.01-32.02-.41-.58-.81-1.15-1.22-1.73-10.27-14.2-16.49-30.76-17.93-47.84-1.42-16.1,1.39-31.83,7.86-45.71,2.65-5.68,10.86-21.28,28.05-31.02,12.09-6.86,22.94-7.51,28.71-8.28,17.19-2.32,61.18-15.77,82.82-64.84Zm19.53-71.29c-38.91,1.06-45.85,41.06-64.11,71.01-14.61,23.88-38.65,24.92-40.31,24.97h-.1C10.15,223.2-29.95,335.62,26.37,413.63c26.97,41.92,70.63,61.09,111.99,59.96,53.67-1.46,103.78-36.96,109.18-100.8h0c19.93-58.65,105.53-15.58,93.41-112.5-23.14,8.75-40.07,12.44-52.19,12.77-26.98,.73-31.85-18.13-27.99-30.95l-25.37-31.05c-20.51-52.62-2.68-69.18,10.16-86.16-6.4-1.49-32.54-3.87-37.62-3.63h0Z"/><path id="cordas" class="cls-2" d="M103.87,365.16l-2.97-3.25c-3.52-3.71-3.25-9.64,.56-13.17l65.75-61.02c3.8-3.52,9.64-3.25,13.17,.46l2.97,3.25c3.52,3.71,3.25,9.64-.56,13.17l-65.75,61.02c-3.71,3.52-9.64,3.25-13.17-.46h0Z"/><polygon id="braco" class="cls-2" points="239.3 255.5 223.65 236.65 365.87 104.18 382.89 121.88 239.3 255.5"/><path class="cls-1" d="M485.96,27.45l-16.94-18.24c-10.07-10.97-27.21-11.69-38.25-1.56l-68.38,63.39c-10.94,10.08-11.64,27.19-1.51,38.22l16.94,18.24c5.31,5.78,12.58,8.71,19.88,8.71,6.56,0,13.14-2.37,18.37-7.16l68.35-63.35c5.33-4.89,8.42-11.56,8.72-18.79,.29-7.2-2.23-14.09-7.17-19.47Z"/></g></svg>