<?xml version="1.0" encoding="UTF-8"?><svg id="Headset_-_Pcsx2" xmlns="http://www.w3.org/2000/svg" viewBox="0 0 150 150"><defs><style>.cls-1{opacity:.85;}.cls-1,.cls-2{fill:none;}.cls-2{stroke-linecap:round;}.cls-2,.cls-3{stroke:#000;stroke-miterlimit:10;stroke-width:12px;}</style></defs><path id="tela" class="cls-1" d="M0,0H150V150H0V0Z"/><g id="By_Maxihplay"><path id="B" class="cls-3" d="M124.15,66.01h3.66c1.78,0,3.22,1.44,3.22,3.22v35.96c0,1.78-1.44,3.22-3.22,3.22h-3.66c-5.99,0-10.86-4.87-10.86-10.86v-20.68c0-5.99,4.87-10.86,10.86-10.86Z" transform="translate(244.33 174.4) rotate(-180)"/><path id="A" class="cls-3" d="M29.82,66.01h3.66c1.78,0,3.22,1.44,3.22,3.22v35.96c0,1.78-1.44,3.22-3.22,3.22h-3.66c-5.99,0-10.86-4.87-10.86-10.86v-20.68c0-5.99,4.87-10.86,10.86-10.86Z"/><path id="Mic" class="cls-2" d="M31.77,75.68v41.6c0,4.62,3.74,8.36,8.36,8.36h21.62"/><g id="alca"><line class="cls-2" x1="57.72" y1="24.99" x2="94.79" y2="24.99"/><path class="cls-2" d="M28.08,94.89V57.62c0-20.49,20.47-37.26,40.96-37.26h13.83c20.49,0,40.96,16.77,40.96,37.26v37.27"/></g></g></svg>