<?xml version="1.0" encoding="utf-8"?>
<!-- Generator: Adobe Illustrator 27.4.1, SVG Export Plug-In . SVG Version: 6.00 Build 0)  -->
<svg version="1.1" id="PCSX2_-_Namco" xmlns="http://www.w3.org/2000/svg" xmlns:xlink="http://www.w3.org/1999/xlink" x="0px"
	 y="0px" viewBox="0 0 150 150" style="enable-background:new 0 0 150 150;" xml:space="preserve">
<path id="By_Maxihplay" d="M130.4,64.3c3.3-4.2,5.2-9.4,5.2-15.1c0-13.5-11-24.4-24.4-24.4c-4.7,0-9.1,1.4-12.9,3.7
	c-5.4-8-14.7-12.8-24.4-12.2c-8.5,0.6-16.1,5.3-20.7,12.3c-3.8-2.4-8.3-3.9-13.2-3.9c-13.5,0-24.4,11-24.4,24.4c0,5.2,1.6,10,4.4,14
	c-2.6,6.9-8.8,25.5-7.3,37.9c2,15.9,10.9,22.2,11.9,22.8c0.6,0.4,1.3,0.7,2.1,0.8c4.8,0.9,9.5,0.4,13.4-1.5c3.6-1.8,6.4-4.8,8.5-9.1
	c3.1-6.5,2.8-15.8,1.6-24.7c0.2,0.1,0.8-0.1,1.4-0.2c4.2,8.6,13.1,14.6,23.4,14.6c10.2,0,19.1-5.9,23.3-14.5c0.5,0.1,0.9,0.2,1,0.1
	c-0.9,7-1.2,17.8,2.1,24.7c2.1,4.3,4.8,7.3,8.5,9.1c2.6,1.3,5.7,2,8.9,2c1.5,0,3-0.1,4.5-0.4c0.8-0.2,1.5-0.4,2.1-0.9
	c1-0.7,9.9-6.9,11.9-22.8C138.8,89.4,133.1,71.9,130.4,64.3z M111.2,36.8c6.8,0,12.4,5.6,12.4,12.4c0,6.8-5.6,12.4-12.4,12.4
	s-12.4-5.6-12.4-12.4C98.8,42.4,104.3,36.8,111.2,36.8z M74.7,28.3c6.3-0.4,12.3,3.3,15,9.3c-1.9,3.5-2.9,7.4-2.9,11.6
	c0,2,0.2,3.9,0.7,5.7c-3.7-2-7.9-3.2-12.5-3.2c-4,0-7.8,0.9-11.1,2.5c0.3-1.6,0.5-3.3,0.5-5.1c0-4-1-7.8-2.7-11.1
	C63.9,32.6,68.9,28.7,74.7,28.3z M40,36.8c6.8,0,12.4,5.6,12.4,12.4c0,6.8-5.6,12.4-12.4,12.4s-12.4-5.6-12.4-12.4
	C27.6,42.4,33.1,36.8,40,36.8z M45.8,78l-1.8,0.5c-3.9,1.1-6.3,4.5-5.7,8.1l0,0.1c0.7,4.8,2.7,17.4-0.2,23.4c-1.5,3.2-3,4-3.5,4.2
	c0,0,0,0,0,0c-2.2,1.1-4.8,0.2-6.2-1.7c-1.7-2.5-3.8-6.5-4.5-12.6c-1-7.9,2.3-20.4,5.2-28.9c3.3,1.6,7,2.6,10.9,2.6
	c3.5,0,6.7-0.7,9.7-2c-0.5,1.8-0.7,3.7-0.7,5.7C47.8,77.5,46.6,77.8,45.8,78z M75,91.9c-7.7,0-14-6.3-14-14s6.3-14,14-14
	c7.7,0,14,6.3,14,14S82.7,91.9,75,91.9z M126.1,100c-0.8,6.1-2.8,10.1-4.5,12.6c-1.4,2-4,2.8-6.2,1.8c0,0,0,0,0,0
	c-0.5-0.3-2-1-3.5-4.2c-2.9-6-1.8-19.2-1.2-23.5l0-0.2c0.5-3.2-1.3-6.2-4.4-7.7l-1.1-0.5c-1-0.5-2.6-0.8-4.1-0.9
	c-0.1-2.1-0.4-4.2-0.9-6.2c3.3,1.7,7.1,2.7,11.1,2.7c3.5,0,6.9-0.8,9.9-2.1C123.9,80.1,127,92.3,126.1,100z"/>
</svg>
