<?xml version="1.0" encoding="UTF-8"?><svg xmlns="http://www.w3.org/2000/svg" viewBox="0 0 150 150"><defs><style>.cls-1{fill:#fff;}.cls-2{stroke:#fff;}.cls-2,.cls-3{stroke-width:9px;}.cls-2,.cls-3,.cls-4{fill:none;}.cls-3{stroke:#000;}.cls-5{fill-rule:evenodd;}</style></defs><g id="Memory_Card_-_Pcsx2_W"><g id="tela"><rect id="tela-2" class="cls-4" x="0" width="150" height="150"/></g><g id="By_Maxihplay"><g id="Formato"><path class="cls-1" d="M145.26,129.29H23.78c-10.53,0-19.09-8.56-19.09-19.09V39.8c0-10.53,8.56-19.09,19.09-19.09h121.53l-.05,108.59ZM23.78,32.71c-3.91,0-7.09,3.18-7.09,7.09V110.2c0,3.91,3.18,7.09,7.09,7.09h109.48l.04-84.59H23.78Z"/></g><g id="seta"><polygon class="cls-5" points="111.66 67.01 119.89 75.72 111.66 83.64 111.66 67.01"/><polygon points="107.66 56.95 107.66 93.05 125.51 75.85 107.66 56.95 107.66 56.95"/></g><path id="etiqueta" class="cls-2" d="M63.7,49.76v50.49c0,2.65-2.15,4.81-4.81,4.81h-21.6c-2.65,0-4.81-2.15-4.81-4.81h0V49.76c0-2.65,2.15-4.81,4.81-4.81h21.6c2.65,0,4.81,2.15,4.81,4.81Z"/></g></g><g id="Memory_Card_-_Pcsx2_B"><g id="By_Maxihplay-2"><g id="Formato-2"><path d="M145.26,129.29H23.78c-10.53,0-19.09-8.56-19.09-19.09V39.8c0-10.53,8.56-19.09,19.09-19.09h121.53l-.05,108.59ZM23.78,32.71c-3.91,0-7.09,3.18-7.09,7.09V110.2c0,3.91,3.18,7.09,7.09,7.09h109.48l.04-84.59H23.78Z"/></g><path id="etiqueta-2" class="cls-3" d="M63.7,49.76v50.49c0,2.65-2.15,4.81-4.81,4.81h-21.6c-2.65,0-4.81-2.15-4.81-4.81h0V49.76c0-2.65,2.15-4.81,4.81-4.81h21.6c2.65,0,4.81,2.15,4.81,4.81Z"/></g></g></svg>