<?xml version="1.0" encoding="UTF-8"?>
<svg id="memory_card_-_PCSX2" data-name="memory card - PCSX2" xmlns="http://www.w3.org/2000/svg" viewBox="0 0 150 150">
  <defs>
    <style>
      .cls-1 {
        stroke: #000;
        stroke-width: 9px;
      }
    </style>
  </defs>
  <g id="by_Maxihplay" data-name="by Maxihplay">
    <g id="seta">
      <polygon points="57.97 43.34 92.03 43.34 75.8 25.49 57.97 43.34 57.97 43.34"/>
    </g>
    <g id="Formato-2">
      <path d="m129.28,4.74v121.48c0,10.53-8.56,19.09-19.09,19.09H39.8c-10.53,0-19.09-8.56-19.09-19.09V4.69l108.59.05h-.02,0ZM32.71,126.22c0,3.91,4.18,7.09,8.09,7.09h68.4c3.91,0,8.09-3.18,8.09-7.09V16.74l-84.59-.04v109.52h.01Z"/>
    </g>
    <path id="etiqueta-2" class="cls-1" d="m53.8,90.72h42.4c2.23,0,4.04,1.76,4.04,3.94v17.68c0,2.17-1.81,3.94-4.04,3.94h-42.4c-2.23,0-4.04-1.76-4.04-3.94v-17.68c0-2.17,1.81-3.94,4.04-3.94Z"/>
  </g>
</svg>