<?xml version="1.0" encoding="UTF-8" standalone="no"?>
<svg
   id="Agrupar_1"
   data-name="Agrupar 1"
   width="900"
   height="900"
   viewBox="0 0 900 900"
   version="1.1"
   sodipodi:docname="memcard-line-black.svg"
   inkscape:version="1.2.2 (b0a8486541, 2022-12-01)"
   xmlns:inkscape="http://www.inkscape.org/namespaces/inkscape"
   xmlns:sodipodi="http://sodipodi.sourceforge.net/DTD/sodipodi-0.dtd"
   xmlns="http://www.w3.org/2000/svg"
   xmlns:svg="http://www.w3.org/2000/svg">
  <sodipodi:namedview
     id="namedview10"
     pagecolor="#505050"
     bordercolor="#ffffff"
     borderopacity="1"
     inkscape:showpageshadow="0"
     inkscape:pageopacity="0"
     inkscape:pagecheckerboard="1"
     inkscape:deskcolor="#505050"
     showgrid="false"
     inkscape:zoom="0.84555556"
     inkscape:cx="353.02234"
     inkscape:cy="449.40867"
     inkscape:window-width="1920"
     inkscape:window-height="956"
     inkscape:window-x="0"
     inkscape:window-y="42"
     inkscape:window-maximized="1"
     inkscape:current-layer="Agrupar_1" />
  <defs
     id="defs4">
    <style
       id="style2">
      .cls-1, .cls-2, .cls-3 {
        fill: none;
        stroke: #000;
        fill-rule: evenodd;
      }

      .cls-1 {
        stroke-linejoin: round;
      }

      .cls-1, .cls-3 {
        stroke-width: 30px;
      }

      .cls-2 {
        stroke-width: 50px;
      }
    </style>
  </defs>
  <path
     id="Forma_2"
     data-name="Forma 2"
     class="cls-1"
     d="m 692.86363,348.56899 66.82392,106.20442 -66.82392,96.65714 z"
     style="stroke:#000000;stroke-width:35.7398;stroke-dasharray:none;fill:#000000;fill-opacity:1" />
  <path
     id="Forma_1"
     data-name="Forma 1"
     class="cls-2"
     d="M868.74,145.621l-0.313,617.672s-214.8.366-415.4,0.718c-175.375.307-339.9,0.6-340.544,0.634-48.166,2.275-79.67-30.412-81.191-67.379-0.058-1.412-.008-491.758,0-492,1.408-43.122,35.658-71.221,73.025-69.4,1.5,0.073,168.973,2.213,346.758,4.47C653.239,142.9,868.74,145.621,868.74,145.621Z"
     style="stroke:#000000;stroke-width:70;stroke-dasharray:none" />
  <path
     id="Retângulo_1"
     data-name="Retângulo 1"
     class="cls-3"
     d="m 428.2337,271.16384 v 358.19549 a 34.099535,34.099535 0 0 1 -34.09954,34.09954 H 240.87862 A 34.099535,34.099535 0 0 1 206.77908,629.35933 V 271.16384 a 34.099535,34.099535 0 0 1 34.09954,-34.09954 h 153.25554 a 34.099535,34.099535 0 0 1 34.09954,34.09954 z"
     style="stroke:#000000;stroke-width:50;stroke-dasharray:none" />
</svg>
