<?xml version="1.0" encoding="UTF-8" standalone="no"?>
<svg
   id="Agrupar_1"
   data-name="Agrupar 1"
   width="900"
   height="900"
   viewBox="0 0 900 900"
   version="1.1"
   sodipodi:docname="memcard-line-black.svg"
   inkscape:version="1.2.2 (b0a8486541, 2022-12-01)"
   xmlns:inkscape="http://www.inkscape.org/namespaces/inkscape"
   xmlns:sodipodi="http://sodipodi.sourceforge.net/DTD/sodipodi-0.dtd"
   xmlns="http://www.w3.org/2000/svg"
   xmlns:svg="http://www.w3.org/2000/svg">
  <sodipodi:namedview
     id="namedview10"
     pagecolor="#505050"
     bordercolor="#ffffff"
     borderopacity="1"
     inkscape:showpageshadow="0"
     inkscape:pageopacity="0"
     inkscape:pagecheckerboard="1"
     inkscape:deskcolor="#505050"
     showgrid="false"
     inkscape:zoom="0.59789807"
     inkscape:cx="71.918613"
     inkscape:cy="403.07874"
     inkscape:window-width="1920"
     inkscape:window-height="956"
     inkscape:window-x="0"
     inkscape:window-y="42"
     inkscape:window-maximized="1"
     inkscape:current-layer="Agrupar_1" />
  <defs
     id="defs4">
    <style
       id="style2">
      .cls-1, .cls-2, .cls-3 {
        fill: none;
        stroke: #000;
        fill-rule: evenodd;
      }

      .cls-1 {
        stroke-linejoin: round;
      }

      .cls-1, .cls-3 {
        stroke-width: 30px;
      }

      .cls-2 {
        stroke-width: 50px;
      }
    </style>
  </defs>
  <path
     id="Forma_2"
     data-name="Forma 2"
     class="cls-1"
     d="m 686.37762,366.71676 60.76307,96.57181 -60.76307,87.89045 z"
     style="fill:#000000;fill-opacity:1;stroke:#000000;stroke-width:40;stroke-dasharray:none" />
  <path
     id="Forma_1"
     data-name="Forma 1"
     class="cls-2"
     d="m 850.55989,158.5978 -0.29941,590.83555 c 0,0 -205.46743,0.3501 -397.35181,0.68681 -167.75535,0.29366 -325.13211,0.57393 -325.74813,0.60645 -46.073307,2.17616 -76.208524,-29.09067 -77.663443,-64.45154 -0.05544,-1.35064 -0.0074,-470.39223 0,-470.62371 1.34683,-41.24844 34.108738,-68.12661 69.852233,-66.38473 1.43483,0.0699 161.63151,2.11685 331.69215,4.27579 193.38043,2.4526 399.51841,5.05538 399.51841,5.05538 z"
     style="stroke:#000000;stroke-width:70;stroke-dasharray:none" />
  <path
     id="Retângulo_1"
     data-name="Retângulo 1"
     class="cls-3"
     d="m 374.79018,287.1462 v 325.70759 a 31.006749,31.006749 0 0 1 -31.00675,31.00676 H 204.42798 A 31.006749,31.006749 0 0 1 173.42123,612.85379 V 287.1462 a 31.006749,31.006749 0 0 1 31.00675,-31.00675 h 139.35545 a 31.006749,31.006749 0 0 1 31.00675,31.00675 z"
     style="stroke:#000000;stroke-width:50;stroke-dasharray:none" />
</svg>
