<?xml version="1.0" encoding="UTF-8"?><svg id="Mic_-_Pcsx2" xmlns="http://www.w3.org/2000/svg" viewBox="0 0 150 150"><defs><style>.cls-1{stroke-linecap:round;}.cls-1,.cls-2,.cls-3{fill:none;}.cls-1,.cls-3{stroke:#000;stroke-miterlimit:10;stroke-width:12px;}</style></defs><g id="tela"><rect class="cls-2" width="150" height="150"/></g><g id="By_maxihplay"><g id="suporte"><line class="cls-1" x1="44.93" y1="137.79" x2="105.07" y2="137.79"/><line class="cls-1" x1="75" y1="114.81" x2="75" y2="137.79"/><path class="cls-1" d="M107.69,69.01v18.51c0,13.3-10.78,24.09-24.09,24.09h-17.21c-13.3,0-24.09-10.78-24.09-24.09v-18.51"/></g><g id="Mic"><path d="M75,77.07c-3.5,0-6.35-2.84-6.35-6.33s2.85-6.33,6.35-6.33,6.35,2.84,6.35,6.33-2.85,6.33-6.35,6.33Z"/><line class="cls-1" x1="69.41" y1="96.39" x2="80.59" y2="96.39"/><line class="cls-3" x1="55.79" y1="43.92" x2="94.21" y2="43.73"/><rect class="cls-3" x="55.79" y="12.21" width="38.42" height="80.03" rx="17.3" ry="17.3"/></g></g></svg>