<?xml version="1.0" encoding="UTF-8"?><svg xmlns="http://www.w3.org/2000/svg" viewBox="0 0 150 150"><defs><style>.cls-1{opacity:.85;}.cls-1,.cls-2{fill:none;}.cls-2{stroke:#000;stroke-miterlimit:10;stroke-width:12px;}</style></defs><g id="tela"><path id="tela-2" class="cls-1" d="M0,0H150V150H0V0Z"/></g><g id="HD_-_Pcsx2"><g id="By_Maxihplay"><path d="M41.98,100.41c-3.49,0-6.32-2.84-6.32-6.32s2.84-6.32,6.32-6.32,6.32,2.84,6.32,6.32-2.84,6.32-6.32,6.32Z"/><rect class="cls-2" x="18.28" y="75.88" width="113.44" height="36.4" rx="3.22" ry="3.22"/><path class="cls-2" d="M21.11,80.77c-2.25,0-3.59-2.5-2.36-4.37l21.6-37.41c.52-.79,1.41-1.27,2.36-1.27H109.19c1.05,0,2.01,.58,2.5,1.51l19.7,37.41c.99,1.88-.37,4.14-2.5,4.14"/></g></g></svg>