<?xml version="1.0" encoding="utf-8"?>
<!-- Generator: Adobe Illustrator 26.5.0, SVG Export Plug-In . SVG Version: 6.00 Build 0)  -->
<svg version="1.1" id="Duckstation_-_Negcon_00000104687465272175918400000016919813319004934028_"
	 xmlns="http://www.w3.org/2000/svg" xmlns:xlink="http://www.w3.org/1999/xlink" x="0px" y="0px" viewBox="0 0 150 150"
	 style="enable-background:new 0 0 150 150;" xml:space="preserve">
<style type="text/css">
	.st0{fill:none;}
	.st1{fill:none;stroke:#000000;stroke-width:12;stroke-miterlimit:10;}
	.st2{fill:none;stroke:#000000;stroke-width:12;stroke-linecap:round;stroke-miterlimit:10;}
</style>
<g id="tela">
	<rect id="tela_00000129895939108887223950000017508827257489233583_" class="st0" width="150" height="150"/>
</g>
<g id="By_Maxihplay_00000152974811067316581070000007946929605663458202_">
	<g id="control">
		<g id="B">
			<path class="st1" d="M91.9,87.8h14l20.2,21.1c3.6,2.5,8.5-0.2,8.4-4.6l-3.9-35.4c0-10.3-8.3-18.6-18.6-18.6H91.9V87.8L91.9,87.8z
				"/>
			<line class="st1" x1="83.7" y1="40.1" x2="83.5" y2="99.1"/>
			<polyline class="st2" points="101.6,46.2 116.7,46.2 126.1,52 			"/>
		</g>
		<g id="A">
			<path class="st1" d="M58.1,87.8h-14l-20.2,21.1c-3.6,2.5-8.5-0.2-8.4-4.6l3.9-35.4c0-10.3,8.3-18.6,18.6-18.6h20.1V87.8
				L58.1,87.8z"/>
			<line class="st1" x1="66.3" y1="40.1" x2="66.5" y2="99.1"/>
			<polyline class="st2" points="48.1,46.2 33,46.2 23.6,52 			"/>
		</g>
	</g>
</g>
</svg>
