<svg xmlns="http://www.w3.org/2000/svg" xmlns:xlink="http://www.w3.org/1999/xlink" version="1.1" width="256" height="256" viewBox="0 0 256 256" xml:space="preserve">

<defs>
</defs>
<g style="stroke: none; stroke-width: 0; stroke-dasharray: none; stroke-linecap: butt; stroke-linejoin: miter; stroke-miterlimit: 10; fill: none; fill-rule: nonzero; opacity: 1;" transform="translate(18.12918287937744 18.12918287937741) scale(2.43 2.43)" >
	<path d="M 89.011 87.739 c -0.599 -1.371 -1.294 -2.652 -1.968 -3.891 l -0.186 -0.343 l -15.853 -15.91 c -0.371 -0.375 -0.746 -0.748 -1.12 -1.12 c -0.671 -0.667 -1.342 -1.335 -1.997 -2.018 l -1.459 -1.437 l 23.316 -23.317 l -1.704 -1.704 c -9.111 -9.112 -22.925 -12.518 -35.353 -8.759 l -6.36 -6.359 c 0.769 -7.805 -2.017 -15.69 -7.503 -21.175 L 37.123 0 L 0 37.122 l 1.706 1.704 c 5.487 5.487 13.368 8.271 21.176 7.503 l 6.36 6.36 C 25.484 65.115 28.889 78.93 38 88.041 l 1.703 1.704 l 23.316 -23.316 l 1.438 1.458 c 0.679 0.653 1.344 1.321 2.009 1.989 c 0.373 0.374 0.745 0.748 1.117 1.116 l 15.699 15.7 l 0.566 0.352 c 1.239 0.673 2.52 1.369 3.891 1.968 L 90 90 L 89.011 87.739 z" style="stroke: none; stroke-width: 1; stroke-dasharray: none; stroke-linecap: butt; stroke-linejoin: miter; stroke-miterlimit: 10; fill: rgb(0,0,0); fill-rule: nonzero; opacity: 1;" transform=" matrix(1 0 0 1 0 0) " stroke-linecap="round" />
</g>
</svg>