<?xml version="1.0" encoding="UTF-8"?>
<svg id="pop_icon" data-name="pop icon" xmlns="http://www.w3.org/2000/svg" viewBox="0 0 150 150">
  <defs>
    <style>
      .cls-1 {
        fill: #1d1d1b;
      }
    </style>
  </defs>
  <g id="by_maxihplay" data-name="by maxihplay">
    <path class="cls-1" d="m146.85,100.35l-.1-.3-15.3-57.1c-1.2-6.7-6.9-9.5-13.8-9.5H32.25c-6.8,0-12.6,2.8-13.8,9.5L3.25,99.75l-.1.7c-.6,4,.6,8.1,3.2,11.2s6.5,4.9,10.6,4.9h116c4.1,0,7.9-1.8,10.6-4.9,2.7-3.1,3.9-7.2,3.3-11.3h0Zm-123.2,4.9c-5.5,0-10-4.5-10-10s4.5-10,10-10,10,4.5,10,10-4.5,10-10,10Zm2.8-34.9c0-5.5,4.5-10,10-10s10,4.5,10,10-4.5,10-10,10-10-4.4-10-10Zm22.8,34.9c-5.5,0-10-4.5-10-10s4.5-10,10-10,10,4.5,10,10-4.4,10-10,10Zm2.9-34.9c0-5.5,4.5-10,10-10s10,4.5,10,10-4.5,10-10,10-10-4.4-10-10Zm22.8,34.9c-5.5,0-10-4.5-10-10s4.5-10,10-10,10,4.5,10,10-4.5,10-10,10Zm2.8-34.9c0-5.5,4.5-10,10-10s10,4.5,10,10-4.5,10-10,10-10-4.4-10-10Zm22.9,34.9c-5.5,0-10-4.5-10-10s4.5-10,10-10,10,4.5,10,10-4.5,10-10,10Zm2.8-34.9c0-5.5,4.5-10,10-10s10,4.5,10,10-4.5,10-10,10-10-4.4-10-10Zm22.8,34.9c-5.5,0-10-4.5-10-10s4.5-10,10-10,10,4.5,10,10-4.4,10-10,10Z"/>
  </g>
</svg>