<?xml version="1.0" encoding="utf-8"?>
<!-- Generator: Adobe Illustrator 27.4.1, SVG Export Plug-In . SVG Version: 6.00 Build 0)  -->
<svg version="1.1" id="pop_icon" xmlns="http://www.w3.org/2000/svg" xmlns:xlink="http://www.w3.org/1999/xlink" x="0px" y="0px"
	 viewBox="0 0 150 150" style="enable-background:new 0 0 150 150;" xml:space="preserve">
<style type="text/css">
	.st0{fill:#1D1D1B;}
</style>
<g id="by_maxihplay">
	<path class="st0" d="M146.9,100.4l-0.1-0.3L131.5,43c-1.2-6.7-6.9-9.5-13.8-9.5H32.3c-6.8,0-12.6,2.8-13.8,9.5L3.3,99.8l-0.1,0.7
		c-0.6,4,0.6,8.1,3.2,11.2s6.5,4.9,10.6,4.9H133c4.1,0,7.9-1.8,10.6-4.9C146.3,108.6,147.5,104.5,146.9,100.4L146.9,100.4z M54.5,44
		c0.7-2.5,2.8-3.4,4.8-2.9s3.2,2.7,2.7,4.8c-0.8,2.9-6.2,7.8-6.2,7.8S53.7,47,54.5,44z M41.4,49c0.8-2.9,6.2-7.8,6.2-7.8
		s2.1,6.8,1.2,9.8c-0.7,2.5-2.8,3.4-4.8,2.9S40.8,51.1,41.4,49z M23.7,105.3c-5.5,0-10-4.5-10-10s4.5-10,10-10s10,4.5,10,10
		S29.2,105.3,23.7,105.3z M26.5,70.4c0-5.5,4.5-10,10-10s10,4.5,10,10s-4.5,10-10,10S26.5,76,26.5,70.4z M49.3,105.3
		c-5.5,0-10-4.5-10-10s4.5-10,10-10s10,4.5,10,10S54.9,105.3,49.3,105.3z M52.2,70.4c0-5.5,4.5-10,10-10s10,4.5,10,10s-4.5,10-10,10
		S52.2,76,52.2,70.4z M75,105.3c-5.5,0-10-4.5-10-10s4.5-10,10-10s10,4.5,10,10S80.5,105.3,75,105.3z M77.8,70.4c0-5.5,4.5-10,10-10
		s10,4.5,10,10s-4.5,10-10,10S77.8,76,77.8,70.4z M100.7,105.3c-5.5,0-10-4.5-10-10s4.5-10,10-10s10,4.5,10,10
		S106.2,105.3,100.7,105.3z M103.5,70.4c0-5.5,4.5-10,10-10s10,4.5,10,10s-4.5,10-10,10S103.5,76,103.5,70.4z M126.3,105.3
		c-5.5,0-10-4.5-10-10s4.5-10,10-10s10,4.5,10,10S131.9,105.3,126.3,105.3z"/>
</g>
</svg>
