<?xml version="1.0" encoding="UTF-8"?><svg id="Seamic_-_Pcsx2" xmlns="http://www.w3.org/2000/svg" viewBox="0 0 150 150"><defs><style>.cls-1{fill:none;}</style></defs><g id="tela"><rect class="cls-1" width="150" height="150"/></g><g id="By_Maxihplay"><g id="contorno"><path d="M48.63,116.93c-.57,0-1.15-.05-1.72-.16l-25.88-4.76c-3.18-.59-5.82-2.72-7.06-5.7l-9.23-22.19c-1-2.4-.97-5.14,.09-7.51l14.23-32.02c1.2-2.7,3.53-4.65,6.38-5.36,16.43-4.08,33.33-6.15,50.26-6.15h.23c16.82,.02,33.62,2.08,49.95,6.13,2.94,.73,5.38,2.85,6.52,5.67l12.89,31.95c.94,2.33,.91,4.99-.08,7.3l-8.56,19.96c-1.13,2.64-3.37,4.61-6.13,5.4l-24.14,6.9c-3.85,1.1-8-.35-10.34-3.6l-3.78-5.26H60.06l-3.56,5.24c-1.79,2.63-4.75,4.17-7.87,4.17Zm-23.92-16.69l22.66,4.17,3.37-4.96c1.77-2.61,4.71-4.17,7.87-4.17h35.07c3.06,0,5.95,1.48,7.73,3.97l3.47,4.83,21.04-6.01,7.59-17.72-11.94-29.6c-14.94-3.59-30.29-5.42-45.65-5.44h-.22c-15.48,0-30.94,1.84-45.99,5.47l-13.21,29.72,8.21,19.74Z"/></g><g id="centro"><path d="M66.71,51.51h16.58c3.76,0,6.82,3.06,6.82,6.82v.77c0,3.76-3.06,6.82-6.82,6.82h-16.58c-3.76,0-6.82-3.06-6.82-6.82v-.77c0-3.76,3.06-6.82,6.82-6.82Z"/></g></g></svg>