<svg xmlns="http://www.w3.org/2000/svg" viewBox="0 0 24 24"><path d="M5.32894 3.27158C6.56203 2.8332 7.99181 3.10749 8.97878 4.09446C10.0997 5.21537 10.3014 6.90741 9.58382 8.23385L20.2925 18.9437L18.8783 20.3579L8.16933 9.64875C6.84277 10.3669 5.1502 10.1654 4.02903 9.04421C3.04178 8.05696 2.76761 6.62665 3.20652 5.39332L5.44325 7.63C6.02903 8.21578 6.97878 8.21578 7.56457 7.63C8.15035 7.04421 8.15035 6.09446 7.56457 5.50868L5.32894 3.27158ZM15.6963 5.15512L18.8783 3.38736L20.2925 4.80157L18.5247 7.98355L16.757 8.3371L14.6356 10.4584L13.2214 9.04421L15.3427 6.92289L15.6963 5.15512ZM8.97878 13.2868L10.393 14.7011L5.08969 20.0044C4.69917 20.3949 4.066 20.3949 3.67548 20.0044C3.31285 19.6417 3.28695 19.0699 3.59777 18.6774L3.67548 18.5902L8.97878 13.2868Z" fill="#000000"></path></svg>