<?xml version="1.0" encoding="UTF-8"?><svg id="Wheel_-_Pcsx2" xmlns="http://www.w3.org/2000/svg" viewBox="0 0 150 150"><defs><style>.cls-1{fill:none;opacity:.85;}</style></defs><path id="tela" class="cls-1" d="M0,0H150V150H0V0Z"/><path id="By_Maxihplay" d="M75,13.26C38.81,13.26,9.48,42.07,9.48,77.61c0,26.02,16.01,46.82,38.34,58.57,.67,.35,17.02,.56,31.56,.56,11.53,0,21.93-.13,22.49-.43,21.93-11.66,38.65-32.57,38.65-58.71,0-35.54-29.33-64.35-65.52-64.35ZM31,52.1c1.19-3.71,8.45-2.02,14.88-8.2,4.7-4.52,2.91-7.43,7.14-11.45,4.99-4.75,11.8-4.79,21.98-4.85,10.11-.06,17.41-.11,21.98,4.85,3.69,4,1.51,6.81,5.36,11.28,6.15,7.14,15.29,4.13,16.93,8.83,1.58,4.51-5.31,14.29-10.36,12.52-4.42-1.55-8.94-2.8-13.54-3.73-20.72-4.21-39.53-1.29-54.33,3.48-6.68,2.15-11.14-9.26-10.04-12.72Zm36.83,61.53c0,4.82-3.95,8.71-8.77,8.63-1.81-.03-3.42-.06-4.78-.09-1.57-.04-3.09-.51-4.42-1.34-10.76-6.71-18.5-15.57-22.62-25.7-1.73-4.25,.14-9.11,4.27-11.1,2.18-1.05,4.57-2.1,7.14-3.12,3.76-1.49,8.06-.58,10.92,2.28l15.28,15.28c1.91,1.91,2.98,4.5,2.98,7.2v7.95Zm7.34-25.27c-5.05,0-9.14-4.09-9.14-9.14s4.09-9.14,9.14-9.14,9.14,4.09,9.14,9.14-4.09,9.14-9.14,9.14Zm42.47,15.84c-4.47,6.42-10.56,12.13-17.8,16.72-1.35,.85-2.9,1.34-4.5,1.37-1.22,.02-2.69,.05-4.46,.06-4.8,.05-8.72-3.83-8.72-8.63v-9c0-2.7,1.07-5.29,2.98-7.2l14.21-14.21c3-3,7.52-3.79,11.39-2.09,2.67,1.17,5.29,2.48,7.86,3.92,3.88,2.18,5.43,6.91,3.62,10.98-1.24,2.77-2.76,5.47-4.58,8.08Z"/></svg>