<?xml version="1.0" encoding="UTF-8"?><svg id="PCSX2" xmlns="http://www.w3.org/2000/svg" viewBox="0 0 2675 329.6"><g id="vectorized_by_maxihplay"><path id="_2" d="M2181.5,5.7h438.1c27.8,0,50.4,22.6,50.4,50.4v92.5c0,27.8-22.6,50.4-50.4,50.4h-309.5v46.5h359.9v78.6h-488.5v-145.3c0-27.8,22.6-50.4,50.4-50.4h309.5v-50.8h-315l-44.9-71.9h0Z" fill="#fff" stroke="#7a7a7a" stroke-miterlimit="10" stroke-width="10"/><g id="X"><polygon points="1619.8 5.7 1769.1 5.7 1867.5 102 1961.6 5.9 2115.8 5.9 2115.8 77.2 2039.6 77.2 1954.7 164 2037.1 245.4 2115.8 245.4 2115.8 324.1 1968.4 324.1 1867.8 224 1767.8 324 1619.8 324 1619.8 244.8 1699.3 244.8 1779.3 165.8 1692.8 77.2 1619.8 77.2 1619.8 5.7" fill="#3caeff" stroke-width="0"/><path d="M1623.2,8.7l17.5,17.5v30.1h57c3.1,0,6,1.2,8.2,3.4l93.8,93.4c7.3,7.3,7.2,19.1-.1,26.3l-86,84.2c-3.1,3-7.3,4.8-11.7,4.8h-61.2l-18.5-21.5,77-2.1,80.1-79.1-86.5-88.5h-73V5.7l3.4,3h0Z" fill="#279ff5" stroke-width="0"/><path d="M1623.9,9.7l16.8,16.5h121.8l93.4,93.4c6.7,6.7,17.6,6.7,24.3,0l92.6-92.5h121.8l19.2-19.2-152.1-2-94.1,96.1-98.3-96.3-145.4,4h0Z" fill="#50b6ff" stroke-width="0"/><path d="M2114.7,247.9l-20.2,20.6h-62.1c-3.8,0-7.4-1.5-10-4.1l-85.5-85.5c-7.7-7.6-7.7-20.1,0-27.7l90-90c3.2-3.2,7.5-5,12-5h55.5v-29l20.3-19.9,1.2,70-76.1,1.4-85,85.5,82.4,81.3h78.8l-1.3,2.4Z" fill="#34a2f2" stroke-width="0"/><path d="M1619.8,323.5l1.7-77.8,19.2,22.7v34h115.6c1.1,0,2.1-.4,2.8-1.2l95.2-95.2c7.8-7.8,20.4-7.7,28.1.1l92.9,94.7c.7.7,1.7,1.2,2.8,1.2h116.9l-.5-33.5,22-24.5-.6,80.1h-147.4l-100.6-100.1-100.1,100.1-148-.6h0Z" fill="#43b9f2" stroke-width="0"/><polygon points="1619.8 5.7 1769.1 5.7 1867.5 102 1961.6 5.9 2115.8 5.9 2115.8 77.2 2039.6 77.2 1954.7 164 2037.1 245.4 2115.8 245.4 2115.8 324.1 1968.4 324.1 1867.8 224 1767.8 324 1619.8 324 1619.8 244.8 1699.3 244.8 1779.3 165.8 1692.8 77.2 1619.8 77.2 1619.8 5.7" fill="none" stroke="#5d73cb" stroke-miterlimit="10" stroke-width="11"/></g><path id="S" d="M1554.7,5.7h-434c-27.8,0-50.4,22.6-50.4,50.4v95.9c0,27.9,22.6,50.4,50.4,50.4h302.8v43.3h-353.2v78.4h434c27.8,0,50.4-22.6,50.4-50.4v-97.6c0-27.9-22.6-50.4-50.4-50.4h-303.9v-48.1h306.3l48-71.9Z" fill="#fff" stroke="#7a7a7a" stroke-miterlimit="10" stroke-width="10"/><path id="C" d="M1008.1,5.1h-395.5c-27.8,0-50.4,22.6-50.4,50.4v217.9c0,28,22.7,50.8,50.8,50.8h385.2v-79.2h-304.3V78.2h263.3l50.9-73.1Z" fill="#fff" stroke="#7a7a7a" stroke-miterlimit="10" stroke-width="10"/><path id="P" d="M5,55.5C5,27.6,27.6,5,55.5,5h390.3c27.7,0,50.2,22.5,50.2,50.2v139.4c0,27.9-22.6,50.4-50.5,50.4l-284-.6,64.2-71.9h139.8v-95h-225.4v246.5H5V55.5Z" fill="#fff" stroke="#7a7a7a" stroke-miterlimit="10" stroke-width="10"/></g></svg>