<svg viewBox="0 0 4100 4100" xmlns="http://www.w3.org/2000/svg" xmlns:xlink="http://www.w3.org/1999/xlink"><linearGradient id="a" gradientTransform="matrix(.96851609 -.14958805 .13334464 .94066918 772.27 24370.41)" gradientUnits="userSpaceOnUse" x1="6231.12" x2="5920.94" y1="-22178.31" y2="-23605.17"><stop offset="0" stop-color="#93acfe"/><stop offset=".63" stop-color="#6b84d5"/></linearGradient><linearGradient id="b" gradientTransform="matrix(.98767179 -.21119763 .14580062 .90962126 919.78 23900.47)" gradientUnits="userSpaceOnUse" x1="4193.46" x2="4101.31" y1="-21295.15" y2="-22141.1"><stop offset="0" stop-color="#93acfe"/><stop offset=".57" stop-color="#6b84d5"/><stop offset=".99" stop-color="#536bbc"/></linearGradient><radialGradient id="c" cx="5123.4" cy="-21837.56" fx="4753.64" gradientTransform="matrix(.9805462 -.19628843 .16620877 .90498045 1291.48 23889.26)" gradientUnits="userSpaceOnUse" r="1328.71"><stop offset="0" stop-color="#d2e7ff"/><stop offset=".12" stop-color="#cce1ff"/><stop offset=".99" stop-color="#a6baff"/></radialGradient><linearGradient id="d" gradientTransform="matrix(.96843763 -.15009515 .13924641 .93976087 823.42 24361.27)" gradientUnits="userSpaceOnUse" x1="4782.52" x2="5142.53" y1="-23691.42" y2="-24960.59"><stop offset="0" stop-color="#88c9ff"/><stop offset=".7" stop-color="#4488ed"/></linearGradient><linearGradient id="e" gradientTransform="matrix(.99100364 -.1949661 .14471791 .90916408 881.81 23886.64)" gradientUnits="userSpaceOnUse" x1="3250.36" x2="3491.09" y1="-22150.87" y2="-24497.93"><stop offset=".26" stop-color="#88c9ff"/><stop offset=".99" stop-color="#4488ed"/></linearGradient><g fill="#1e3058"><path d="m2886.69 1557.8 422.94-204.69c37.63-34.38 106.56-33.68 154.51 1.52l586.82 272.57s1.28 176.46 2.03 206.08c.5 19.63-6.13 38.54-20.54 53.76l-368.56 387.05c-8.74 9.22-23.61 25.3-37.45 40.32-18.88 20.5-49.56 23.17-71.48 6.23-21.28-16.44-46.06-35.65-59.54-46.3l-551.77-436.2c-8.85-7-23.35-17.83-37.1-28.91-14.02-11.29-20.86-28.05-20.89-44.78-.03-15.15 1.03-206.64 1.03-206.64z"/><path d="m2144.14 3865.15c-36.72 38.33-97.42 39.3-135.2 2.11l-640.28-627.5c-16.42-16.16-24.38-37.15-24.16-58.37.24-23.14 3-203.83 3-203.83l179.86 2.48c12.17-10.73 24.68-21.94 35.41-31.63 16.91-15.27 42.13-15.19 58.95.19 10.27 9.39 21.89 20.18 32.58 30.49l682.02 455.6s2.05 197.16 2.23 209.16-4.12 24.08-12.93 33.31z"/><path d="m1378.21 2347.91c-11.85-10.83-17.56-25.89-17.22-40.8s1.99-203.87 1.99-203.87l797.96-488.96c43.88-36.78 116.45-36.22 162.73 1.18l562.8 296.39s.87 169.69 1.8 200.21c.8 26.02-7.54 51.85-28.49 71.82l-509.95 484.33c-22.54 21.5-21.78 58.61 1.62 79.09l185.86 162.65c20 17.5 49.55 16.43 68.32-2.47l554.46-558.46c18.19-18.32 46.62-19.97 66.66-3.86l182.34-37.36s3.6 192.84 4.16 207.79c.53 13.96-4.26 28.16-14.58 39.03l-746.33 781.66c-49.05 51.65-134.15 52.78-189.14 2.39l-571.84-524.01c-25.61-23.47-38.13-54.26-37.69-84.87.43-29.65-2.44-203.97-2.44-203.97l575.54-367.11c23.71-21.68 22.81-60.28-1.89-80.74l-144.4-119.61c-19-15.73-46.08-15.35-64.65.93l-610.09 534.6c-19.28 16.89-47.59 16.59-66.53-.71l-161.01-145.28z"/><path d="m2172.85 405.82 127.45-84.69s-.57 188.34-.03 203.9c.59 16.73-6.42 33.71-21.04 44.66l-507.96 380.19c-27.58 20.64-28.2 62.97-1.23 84.47l119.04 94.91c18.13 14.46 43.35 14.59 61.62.32l514.89-402.15c38.78-30.29 104.77-29.18 147.79 2.43l502.02 204.57s.56 177.4 1.89 200.83c1.15 20.34-6.78 40.32-24.37 55.79l-428.45 374.96c-18.24 16.04-44.82 16.73-63.82 1.66l-147.83-116.46c-14.07-11.16-20.73-28.09-19.87-44.7.73-14.13.93-203.14.93-203.14l241.27-23.45c25.79-21.86 24.67-63.08-2.28-83.39l-115.86-87.33c-18.37-13.85-43.38-13.39-61.26 1.12l-519.93 421.71c-44.28 35.92-116.81 35.33-161.31-1.37l-450.42-371.48c-19.98-16.48-29.95-36.63-30.17-56.83-.24-23.06 1.02-203.46 1.02-203.46l779.47-393.46c17.61-12.63 40.97-12.47 58.42.4z"/><path d="m64.87 1959.42c-11.73-11.44-15.95-26.99-15.73-42.14.26-17.47-.15-200.79-.15-200.79l920.5-486.45c47.64-34.36 119.43-33.49 160.98 1.89l482.46 239.5.12 207.37c1.03 26.74-11.19 54-36.54 74.47l-611.91 494.05c-24.69 19.93-26.09 58.1-2.94 79.93l376 172.44s-.34 183.96-.11 201.6c.21 15.92-4.95 32.14-17.77 43.37l-206.02 180.57c-19.64 17.22-48.64 16.37-67.31-1.97l-578.49-567.11c-10.81-10.62-15.99-24.83-15.74-38.89.27-15.41.99-204.46.99-204.46l708.3-373.1c25.84-20.15 26.97-59.93 2.32-81.63l-127.51-112.22c-17.72-15.6-43.44-16.63-62.27-2.5l-721.2 541.06c-19.61 14.71-46.55 12.92-64.19-4.27l-123.79-120.71z"/></g><path d="m3584.8 2124.75-275.17-771.64c37.63-34.38 106.56-33.68 154.51 1.52l586.82 272.57s1.28 176.46 2.03 206.08c.5 19.63-6.13 38.54-20.54 53.76l-368.56 387.05c-8.74 9.22-23.78 25.15-37.45 40.32-22.28 24.72-50.96 15.96-50.96 15.96 10.98-32.09 9.32-205.63 9.32-205.63z" fill="#0d1938"/><path d="m2144.14 3865.15c-55.26 54.2-114.35 17.67-114.35 17.67 8.7-67.02 1.82-204.18 1.82-204.18l-504.25-698.6c12.17-10.73 24.68-21.94 35.41-31.63 16.91-15.27 42.13-15.19 58.95.19 10.27 9.39 21.89 20.18 32.58 30.49l682.02 455.6s2.05 197.16 2.23 209.16-4.12 24.08-12.93 33.31z" fill="#0d1938"/><path d="m1568.76 2296.94 592.17-682.67c43.88-36.78 116.45-36.22 162.73 1.18l562.8 296.39s.87 169.69 1.8 200.21c.8 26.02-7.54 51.85-28.49 71.82l-509.95 484.33c-22.54 21.5-21.78 58.61 1.62 79.09l83.9 33.48 101.96 129.16c20 17.5 49.55 16.43 68.32-2.47l554.46-558.46c18.19-18.32 46.62-19.97 66.66-3.86l182.34-37.36s3.6 192.84 4.16 207.79c.53 13.96-4.26 28.16-14.58 39.03l-746.33 781.66c-45.41 51.43-115.99 37.74-115.99 37.74 1.82-12.94 8.51-96.61 8.73-204.05.06-26.96-1.42-59.06-19.79-81.2-168.98-203.64-561.39-570.56-561.39-570.56l462.87-359.5c23.71-21.68 107.37-232.76 82.67-253.22l-265.91-213.69c-10.65-8.82 13.1 254 .29 255.27-10.03 1-19.83 5.08-27.99 12.23l-610.09 534.6c-14.22 12.46-33.36 15.57-50.03 9.39-5.92-2.2 13.04-206.35 13.04-206.35z" fill="#0d1938"/><path d="m2172.85 405.82 126.54-86.27s.33 189.92.88 205.48c.59 16.73-6.42 33.71-21.04 44.66l-507.96 380.19c-27.58 20.64-28.2 62.97-1.23 84.47l119.04 94.91c18.13 14.46 43.35 14.59 61.62.32l514.89-402.15c38.78-30.29 104.77-29.18 147.79 2.43l502.02 203.96s.57 178.01 1.89 201.44c1.15 20.34-6.78 40.32-24.37 55.79l-428.45 374.96c-12.14 11.74-32.11 12.51-32.11 12.51 4.06-39.78 4.15-225.18 4.15-225.18l38.65-173.41c25.79-21.86 108.35-227.39 81.41-247.7l-225.12-167.72c-8.92-6.72 6.18 234.62-4.29 234.61-11.1-.01-22.19 3.73-31.4 11.2l-519.93 421.71c-25.15 18.32-61.43 37.03-118.75 20.9l5.52-203.64c-19.98-16.48-297.96-248.57-298.17-268.77-.24-23.06-229.48-181.64-229.48-181.64l779.47-393.46c17.61-12.63 40.97-12.47 58.42.4z" fill="#0d1938"/><path d="m48.99 1716.5 920.5-486.45c47.64-34.36 119.43-33.49 160.98 1.89l482.54 240.97.04 205.9c1.03 26.74-11.19 54-36.54 74.47l-611.91 494.05c-24.69 19.93-26.09 58.1-2.94 79.93l375.99 173.42s-.33 182.98-.1 200.63c.21 15.92-4.95 32.14-17.77 43.37l-206.02 180.57c-13 12.37-34.02 12.35-34.02 12.35l-6.08-205.72-453.45-660.65 541.3-331.52c25.84-20.15 123.74-227.11 99.09-248.8l-258.98-226.27c-9.91-8.72 12.38 268.33.07 268.82-9.7.39-19.34 3.67-27.64 9.9l-721.2 541.06c-16.05 12.57-35.11 9.62-35.11 9.62 8.31-25.95 15.7-264.07 7.47-272.09l-176.22-105.44z" fill="#0d1938"/><path d="m2929.78 1495.05 379.84-347.09c37.63-34.38 106.56-33.68 154.51 1.52l538.18 395.05c51.46 37.77 64.29 99.19 28.13 137.37l-366.56 387.05c-8.74 9.22-23.61 25.3-37.45 40.32-18.88 20.5-49.56 23.17-71.48 6.23-21.28-16.44-46.06-35.65-59.54-46.3l-551.77-436.2c-8.85-7-22.35-17.83-36.1-28.91-26.75-21.56-28.02-62.99-2.63-86.26 9.75-8.94 18.84-17.26 24.87-22.77z" fill="url(#a)" fill-rule="evenodd"/><path d="m2144.14 3660c-36.72 38.33-97.42 39.3-135.2 2.11l-637.28-627.5c-34.32-33.79-31.71-88.68 5.47-122.6l150.23-137.11c4.32-3.81 8.69-7.68 13-11.53 29.92-26.66 75.3-26.02 104.42 1.5 3.21 3.03 6.4 6.07 9.51 9.07l634.76 599.02c12.17 11.85 23.67 23.13 33.58 32.88 18.17 17.88 18.61 47.72.99 66.18l-179.48 187.99z" fill="url(#b)" fill-rule="evenodd"/><path d="m1380.21 2142.76c-23.63-21.59-22.85-60.02 1.65-80.55l779.07-653.09c43.88-36.78 116.45-36.22 162.73 1.18l520.99 421.02c49.99 40.39 56.14 106.38 13.12 147.4l-507.95 484.33c-22.54 21.5-21.78 58.61 1.62 79.09l185.86 162.65c20 17.5 49.55 16.43 68.32-2.47l547.56-551.51c3.62-3.47 17.41-15.87 39.2-17.33 21.1-1.42 36.07 8.32 40.27 11.28 52.31 42.02 104.61 84.04 156.92 126.05 24.09 19.35 26.47 56.15 5.09 78.66l-742.33 781.66c-49.05 51.65-134.15 52.78-189.14 2.39l-571.84-524.01c-50.41-46.19-50.11-120.77-.05-166.52l535.46-489.43c23.71-21.68 22.81-60.28-1.89-80.74l-144.4-119.6c-18.99-15.73-46.08-15.35-64.65.93l-602.73 528.15c-4.17 3.27-19.19 14.23-41.16 13.82-23.12-.43-38.22-13.17-42.01-16.56-49.91-45.6-99.82-91.2-149.73-136.8z" fill="url(#c)" fill-rule="evenodd"/><path d="m2193.3 215.75 85.63 63.14c28.79 21.23 28.94 64.22.31 85.65l-507.96 380.19c-27.58 20.64-28.2 62.97-1.23 84.47l119.04 94.91c18 14.35 43.49 14.48 61.63.31l514.88-402.14c38.78-30.29 104.77-29.18 147.79 2.43l462.67 340.03c45.84 33.69 52.73 87.88 14.87 121.16l-426.45 374.96c-18.24 16.04-44.82 16.73-63.82 1.66l-146.83-116.46c-26.05-20.66-26.68-61.1-1.28-82.62l222.62-188.66c25.79-21.86 24.67-63.08-2.28-83.39l-115.86-87.33c-18.37-13.85-43.38-13.39-61.26 1.12l-519.93 421.71c-44.28 35.92-116.81 35.33-161.31-1.37l-450.42-371.48c-41.56-34.28-38.24-88.45 6.87-120.79l722.79-518.15c29.82-21.38 70.01-21.11 99.54.67z" fill="url(#d)" fill-rule="evenodd"/><path d="m64.87 1754.27c-23.34-22.76-20.56-62.01 5.75-80.99l898.87-648.39c47.64-34.36 119.43-33.49 160.98 1.89l450.25 383.45c44.65 38.03 43.04 99.74-4.21 137.89l-611.91 494.05c-24.69 19.93-26.09 58.1-2.94 79.93l359.49 338.81c22.55 21.25 21.91 58.21-1.37 78.6l-206.02 180.57c-19.64 17.22-48.64 16.37-67.31-1.97l-577.49-567.11c-22.66-22.25-20.58-60.27 4.37-79.73l688.18-536.73c25.84-20.15 26.97-59.93 2.32-81.63l-127.51-112.22c-17.72-15.6-43.44-16.63-62.27-2.5l-721.2 541.06c-19.61 14.71-46.55 12.92-64.19-4.27z" fill="url(#e)" fill-rule="evenodd"/></svg>