<svg xmlns="http://www.w3.org/2000/svg" viewBox="0 0 570 275">
  <defs>
    <linearGradient id="a" x1="217.45" y1="974.97" x2="217.45" y2="950.13" gradientTransform="matrix(8.48 0 0 -8.33 -1680.66 8153.87)" gradientUnits="userSpaceOnUse">
      <stop offset="0" stop-color="#89b4ee"/>
      <stop offset=".32" stop-color="#1066dd"/>
    </linearGradient>
    <linearGradient id="b" x1="245.24" y1="976.59" x2="245.24" y2="948.51" gradientTransform="matrix(8.48 0 0 -8.33 -1686.3 8153.87)" gradientUnits="userSpaceOnUse">
      <stop offset="0" stop-color="#e5cd83"/>
      <stop offset=".32" stop-color="#cc9a00"/>
    </linearGradient>
  </defs>
  <path d="M57.83 57.67h99.46c10.68 0 19.5 3.16 26.45 9.49 7.12 6.33 10.68 15.91 10.68 28.73 0 5.5-.93 10.66-2.8 15.49-1.87 4.66-4.49 8.74-7.89 12.24-3.22 3.5-7.12 6.25-11.7 8.24-4.58 2-9.5 3-14.75 3h-8.39l72.5 125.17h-36.38l-50.37-85.7v85.7h-33.83V100.4h55.2c1.36 0 2.37-.5 3.05-1.5.85-1 1.27-2.08 1.27-3.25s-.42-2.17-1.27-3c-.68-1-1.7-1.5-3.05-1.5H91.65v168.9H57.82V57.67Zm107.34 85.45c4.92-.33 9.67-1.75 14.24-4.25 4.75-2.5 8.9-5.83 12.46-9.99s6.44-8.99 8.65-14.49c2.2-5.66 3.31-11.83 3.31-18.49 0-6.83-1.1-13.16-3.31-18.99-2.2-5.83-5.34-10.83-9.41-14.99s-8.99-7.41-14.75-9.74c-5.6-2.33-11.96-3.5-19.08-3.5H57.83V14.95h99.46c11.19 0 21.71 2.08 31.54 6.25s18.4 9.91 25.69 17.24 12.97 15.91 17.04 25.73c4.24 9.83 6.36 20.4 6.36 31.73q0 21.48-7.38 37.23c-4.92 10.33-11.62 18.66-20.1 24.98l58 101.94h-34.59z" style="fill:url(#a)"/>
  <path d="M364.13 230.82H469.7L405.09 54.68c-.51-1.67-2.03-3.16-4.58-4.5s-5-2-7.38-2c-2.71 0-5.26.67-7.63 2-2.2 1.33-3.56 2.83-4.07 4.5l-73.51 205.37h-33.83l78.6-217.87c1.19-3.5 2.88-6.83 5.09-9.99 2.2-3.33 4.92-6.25 8.14-8.74 3.39-2.67 7.29-4.75 11.7-6.25 4.58-1.5 9.75-2.25 15.52-2.25s10.85.75 15.26 2.25 8.22 3.58 11.45 6.25c3.39 2.5 6.19 5.41 8.39 8.74 2.2 3.16 3.99 6.5 5.34 9.99l78.6 217.87H364.13zm0-9v-9.49l-16.28 47.72h-30.78l69.95-199.13c.34-1 1.1-1.83 2.29-2.5 1.36-.83 2.63-1.25 3.82-1.25s2.46.42 3.82 1.25c1.36.67 2.2 1.5 2.54 2.5l58 160.9zm29-92.69-20.35 62.96h41.46z" style="fill:url(#b)"/>
</svg>
