<svg viewBox="0 0 640 480" xmlns="http://www.w3.org/2000/svg">
	<path d="m0 0h640v53.3h-640z" fill="#0d5eaf" fill-rule="evenodd"/>
	<path d="m0 53.3h640v53.4h-640z" fill="#fff" fill-rule="evenodd"/>
	<path d="m0 106.7h640v53.3h-640z" fill="#0d5eaf" fill-rule="evenodd"/>
	<path d="m0 160h640v53.3h-640z" fill="#fff" fill-rule="evenodd"/>
	<path d="m0 0h266.7v266.7h-266.7z" fill="#0d5eaf"/>
	<g fill-rule="evenodd">
		<path d="m0 213.3h640v53.4h-640z" fill="#0d5eaf"/>
		<path d="m0 266.7h640v53.3h-640z" fill="#fff"/>
		<path d="m0 320h640v53.3h-640z" fill="#0d5eaf"/>
		<path d="m0 373.3h640v53.4h-640z" fill="#fff"/>
		<g fill="#fff" stroke-width="1.3">
			<path d="m106.7 0h53.3v266.7h-53.3z"/>
			<path d="m0 106.7h266.7v53.3h-266.7z"/>
		</g>
	</g>
	<path d="m0 426.7h640v53.3h-640z" fill="#0d5eaf"/>
</svg>
