<svg height="463" width="800" xmlns="http://www.w3.org/2000/svg">
	<path d="m0 0h800v463h-800z" fill="#f71215"/>
	<path d="m0 107.5h800v248h-800z" fill="#356ab5"/>
	<path d="m220 0v163h-220v138h220v162h138v-162h442v-138h-442v-163z" fill="#fff"/>
	<path d="m249 0v95 95h-124.5-124.5v83h124.5 124.5v95 95h82v-95-95h234.5 234.5v-83h-234.5-234.5v-95-95z" fill="#191e66"/>
	<path d="m276 354.5v-108.5h-138-138v-14.5-14.5h138 138v-108.5-108.5h14 14v108.5 108.5h248 248v14.5 14.5h-248-248v108.5 108.5h-14-14z" fill="#eed821"/>
</svg>
