<!DOCTYPE svg PUBLIC "-//W3C//DTD SVG 1.1//EN" "http://www.w3.org/Graphics/SVG/1.1/DTD/svg11.dtd">
<!-- Uploaded to: SVG Repo, www.svgrepo.com, Transformed by: SVG Repo Mixer Tools -->
<svg fill="#ffffff" width="800px" height="800px" viewBox="0 0 16 16" id="window-16px" xmlns="http://www.w3.org/2000/svg">
<g id="SVGRepo_bgCarrier" stroke-width="0"/>
<g id="SVGRepo_tracerCarrier" stroke-linecap="round" stroke-linejoin="round"/>
<g id="SVGRepo_iconCarrier"> <path id="Path_10" data-name="Path 10" d="M-11.5,0h-11A2.5,2.5,0,0,0-25,2.5v11A2.5,2.5,0,0,0-22.5,16h11A2.5,2.5,0,0,0-9,13.5V2.5A2.5,2.5,0,0,0-11.5,0Zm-11,1h11A1.5,1.5,0,0,1-10,2.5V4H-24V2.5A1.5,1.5,0,0,1-22.5,1Zm11,14h-11A1.5,1.5,0,0,1-24,13.5V5h14v8.5A1.5,1.5,0,0,1-11.5,15ZM-23,2.5a.5.5,0,0,1,.5-.5.5.5,0,0,1,.5.5.5.5,0,0,1-.5.5A.5.5,0,0,1-23,2.5Zm2,0a.5.5,0,0,1,.5-.5.5.5,0,0,1,.5.5.5.5,0,0,1-.5.5A.5.5,0,0,1-21,2.5Zm2,0a.5.5,0,0,1,.5-.5.5.5,0,0,1,.5.5.5.5,0,0,1-.5.5A.5.5,0,0,1-19,2.5Zm4.707,7.5,1.147-1.146A.5.5,0,0,0-13.01,8.4a.5.5,0,0,0-.3-.363l-5-2a.5.5,0,0,0-.54.11.5.5,0,0,0-.11.54l2,5a.5.5,0,0,0,.363.3.5.5,0,0,0,.1.01.5.5,0,0,0,.354-.146L-15,10.707l2.146,2.147A.5.5,0,0,0-12.5,13a.5.5,0,0,0,.354-.146.5.5,0,0,0,0-.708Zm-2.024.61L-17.6,7.4l3.213,1.286Z" transform="translate(25)"/> </g>
</svg>