<!DOCTYPE svg PUBLIC "-//W3C//DTD SVG 1.1//EN" "http://www.w3.org/Graphics/SVG/1.1/DTD/svg11.dtd">
<!-- Uploaded to: SVG Repo, www.svgrepo.com, Transformed by: SVG Repo Mixer Tools -->
<svg width="800px" height="800px" viewBox="0 0 24 24" id="SVGRoot" version="1.1" xmlns="http://www.w3.org/2000/svg" xmlns:cc="http://creativecommons.org/ns#" xmlns:dc="http://purl.org/dc/elements/1.1/" xmlns:inkscape="http://www.inkscape.org/namespaces/inkscape" xmlns:rdf="http://www.w3.org/1999/02/22-rdf-syntax-ns#" xmlns:sodipodi="http://sodipodi.sourceforge.net/DTD/sodipodi-0.dtd" xmlns:svg="http://www.w3.org/2000/svg" fill="#ffffff">
<g id="SVGRepo_bgCarrier" stroke-width="0"/>
<g id="SVGRepo_tracerCarrier" stroke-linecap="round" stroke-linejoin="round"/>
<g id="SVGRepo_iconCarrier"> <defs id="defs2"/> <g id="layer1"> <path d="M 9 2 A 1.0001 1.0001 0 0 0 8 3 L 8 8 A 1 1 0 0 0 9 9 A 1 1 0 0 0 10 8 L 10 4 L 18 4 L 18 20 L 10 20 L 10 16 A 1 1 0 0 0 9 15 A 1 1 0 0 0 8 16 L 8 21 A 1.0001 1.0001 0 0 0 9 22 L 19 22 A 1.0001 1.0001 0 0 0 20 21 L 20 3 A 1.0001 1.0001 0 0 0 19 2 L 9 2 z M 7.0292969 9 A 1 1 0 0 0 6.2929688 9.2929688 L 4.3125 11.273438 L 4.2929688 11.292969 A 1.0001 1.0001 0 0 0 4.2832031 11.302734 A 1 1 0 0 0 4.2363281 11.355469 A 1 1 0 0 0 4.1855469 11.421875 A 1 1 0 0 0 4.1464844 11.482422 A 1.0001 1.0001 0 0 0 4.1289062 11.509766 A 1 1 0 0 0 4.0996094 11.566406 A 1 1 0 0 0 4.0683594 11.638672 A 1.0001 1.0001 0 0 0 4.0644531 11.650391 A 1 1 0 0 0 4.0410156 11.714844 A 1.0001 1.0001 0 0 0 4.0332031 11.75 A 1 1 0 0 0 4.0234375 11.791016 A 1.0001 1.0001 0 0 0 4.015625 11.828125 A 1 1 0 0 0 4.0078125 11.871094 A 1.0001 1.0001 0 0 0 4.0019531 11.943359 A 1.0001 1.0001 0 0 0 4 11.988281 A 1 1 0 0 0 4 12 A 1 1 0 0 0 4.0019531 12.029297 A 1.0001 1.0001 0 0 0 4.0039062 12.066406 A 1 1 0 0 0 4.0078125 12.117188 A 1.0001 1.0001 0 0 0 4.0117188 12.146484 A 1 1 0 0 0 4.0253906 12.222656 A 1 1 0 0 0 4.0410156 12.28125 A 1.0001 1.0001 0 0 0 4.0546875 12.324219 A 1 1 0 0 0 4.0585938 12.337891 A 1.0001 1.0001 0 0 0 4.0878906 12.408203 A 1.0001 1.0001 0 0 0 4.1210938 12.474609 A 1 1 0 0 0 4.1347656 12.501953 A 1.0001 1.0001 0 0 0 4.1640625 12.546875 A 1 1 0 0 0 4.1777344 12.568359 A 1.0001 1.0001 0 0 0 4.2011719 12.601562 A 1 1 0 0 0 4.21875 12.623047 A 1.0001 1.0001 0 0 0 4.265625 12.677734 A 1 1 0 0 0 4.2851562 12.699219 A 1.0001 1.0001 0 0 0 4.2929688 12.707031 A 1 1 0 0 0 4.3339844 12.746094 L 6.2929688 14.707031 A 1 1 0 0 0 7.7070312 14.707031 A 1 1 0 0 0 7.7070312 13.292969 L 7.4140625 13 L 14 13 A 1 1 0 0 0 15 12 A 1 1 0 0 0 14 11 L 7.4140625 11 L 7.7070312 10.707031 A 1 1 0 0 0 7.7070312 9.2929688 A 1 1 0 0 0 7.0292969 9 z " id="path6945" style="color:#ffffff;font-style:normal;font-variant:normal;font-weight:normal;font-stretch:normal;font-size:medium;line-height:normal;font-family:sans-serif;font-variant-ligatures:normal;font-variant-position:normal;font-variant-caps:normal;font-variant-numeric:normal;font-variant-alternates:normal;font-variant-east-asian:normal;font-feature-settings:normal;font-variation-settings:normal;text-indent:0;text-align:start;text-decoration:none;text-decoration-line:none;text-decoration-style:solid;text-decoration-color:#ffffff;letter-spacing:normal;word-spacing:normal;text-transform:none;writing-mode:lr-tb;direction:ltr;text-orientation:mixed;dominant-baseline:auto;baseline-shift:baseline;text-anchor:start;white-space:normal;shape-padding:0;shape-margin:0;inline-size:0;clip-rule:nonzero;display:inline;overflow:visible;visibility:visible;isolation:auto;mix-blend-mode:normal;color-interpolation:sRGB;color-interpolation-filters:linearRGB;solid-color:#ffffff;solid-opacity:1;vector-effect:none;fill:#ffffff;fill-opacity:1;fill-rule:nonzero;stroke:none;stroke-width:2;stroke-linecap:round;stroke-linejoin:miter;stroke-miterlimit:4;stroke-dasharray:none;stroke-dashoffset:0;stroke-opacity:1;color-rendering:auto;image-rendering:auto;shape-rendering:auto;text-rendering:auto;enable-background:accumulate;stop-color:#ffffff;stop-opacity:1;opacity:1"/> </g> </g>
</svg>