<!DOCTYPE svg PUBLIC "-//W3C//DTD SVG 1.1//EN" "http://www.w3.org/Graphics/SVG/1.1/DTD/svg11.dtd">
<!-- Uploaded to: SVG Repo, www.svgrepo.com, Transformed by: SVG Repo Mixer Tools -->
<svg fill="#ffffff" version="1.1" id="Layer_1" xmlns="http://www.w3.org/2000/svg" xmlns:xlink="http://www.w3.org/1999/xlink" width="800px" height="800px" viewBox="0 0 72 72" enable-background="new 0 0 72 72" xml:space="preserve">
<g id="SVGRepo_bgCarrier" stroke-width="0"/>
<g id="SVGRepo_tracerCarrier" stroke-linecap="round" stroke-linejoin="round"/>
<g id="SVGRepo_iconCarrier"> <g> <path d="M36,3.731C18.206,3.731,3.73,18.207,3.73,36S18.206,68.27,36,68.27c17.793,0,32.27-14.477,32.27-32.27 S53.793,3.731,36,3.731z M36,64.27C20.412,64.27,7.73,51.588,7.73,36C7.73,20.413,20.412,7.731,36,7.731S64.27,20.413,64.27,36 C64.27,51.588,51.588,64.27,36,64.27z"/> <path d="M36,28.479c-4.147,0-7.52,3.373-7.52,7.52c0,4.147,3.374,7.521,7.52,7.521c4.146,0,7.52-3.373,7.52-7.521 C43.52,31.852,40.146,28.479,36,28.479z M36,39.52c-1.942,0-3.52-1.578-3.52-3.52c0-1.941,1.579-3.52,3.52-3.52 c1.939,0,3.52,1.579,3.52,3.52C39.52,37.941,37.939,39.52,36,39.52z"/> <path d="M12.693,38.292c0.552,0,0.977-0.582,0.952-1.136c-0.016-0.35-0.024-0.79-0.024-1.144c0-0.552-0.448-0.988-1-0.988 c-0.553,0-1,0.47-1,1.023c0,0.385,0.008,0.816,0.026,1.197c0.025,0.535,0.467,1.047,0.998,1.047 C12.66,38.291,12.676,38.291,12.693,38.292z"/> <path d="M24.978,55.484c-5.872-3.332-9.894-9.039-11.035-15.662c-0.093-0.543-0.605-0.909-1.155-0.814 c-0.544,0.094-0.909,0.61-0.815,1.155c1.244,7.214,5.624,13.433,12.02,17.062c0.156,0.088,0.325,0.129,0.492,0.129 c0.349,0,0.687-0.182,0.87-0.506C25.627,56.367,25.458,55.755,24.978,55.484z"/> <path d="M23.05,49.173c0.253,0,0.507-0.095,0.7-0.286c0.394-0.388,0.4-1.02,0.013-1.414c-2.597-2.644-4.028-6.14-4.028-9.845 c0-0.553-0.448-1-1-1c-0.553,0-1,0.447-1,1c0,4.233,1.634,8.226,4.602,11.246C22.532,49.072,22.791,49.173,23.05,49.173z"/> <path d="M26.866,49.857c-0.282-0.162-0.558-0.33-0.828-0.51c-0.461-0.31-1.08-0.183-1.387,0.278 c-0.306,0.46-0.181,1.081,0.278,1.386c0.309,0.207,0.626,0.4,0.949,0.584c0.155,0.088,0.325,0.131,0.492,0.131 c0.349,0,0.687-0.182,0.872-0.506C27.514,50.74,27.346,50.129,26.866,49.857z"/> <path d="M28.213,44.021c-1.897-1.074-3.075-3.096-3.075-5.273c0-0.553-0.448-1-1-1c-0.553,0-1,0.447-1,1 c0,2.896,1.567,5.584,4.089,7.016c0.155,0.088,0.325,0.129,0.492,0.129c0.347,0,0.686-0.182,0.87-0.508 C28.861,44.904,28.693,44.294,28.213,44.021z"/> <path d="M50.025,15.263c-0.444-0.327-1.071-0.23-1.397,0.214c-0.326,0.445-0.229,1.071,0.215,1.397 c6.482,4.76,9.925,12.687,8.982,20.688c-0.063,0.547,0.327,1.045,0.877,1.109c0.039,0.006,0.079,0.008,0.118,0.008 c0.5,0,0.932-0.375,0.99-0.883C60.838,29.082,57.088,20.448,50.025,15.263z"/> <path d="M47.719,21.157c-0.445-0.327-1.072-0.229-1.398,0.214c-0.325,0.445-0.229,1.071,0.216,1.397 c4.069,2.987,6.229,7.963,5.637,12.984c-0.063,0.548,0.327,1.046,0.876,1.109c0.04,0.006,0.079,0.008,0.118,0.008 c0.5,0,0.933-0.374,0.991-0.882C54.834,30.252,52.367,24.569,47.719,21.157z"/> <path d="M45.425,26.173c-0.444-0.326-1.071-0.23-1.397,0.214c-0.326,0.445-0.23,1.071,0.215,1.397 c1.755,1.289,2.688,3.435,2.432,5.601c-0.064,0.548,0.327,1.046,0.876,1.11c0.04,0.005,0.079,0.007,0.118,0.007 c0.5,0,0.932-0.374,0.991-0.883C48.998,30.739,47.759,27.887,45.425,26.173z"/> </g> </g>
</svg>