<svg viewBox="0 0 16 16"><path d="m 15.644405,7.0753622 c 0,-4.0763748 -3.089911,-6.91348765 -7.5317449,-6.91348765 -4.6025802,0 -7.7570651,3.18471075 -7.7570651,7.83400375 0,4.7990487 3.0706766,7.8422467 7.9164381,7.8422467 1.1843056,0 2.3205249,-0.16899 3.1654759,-0.460257 v -1.184307 c -0.590779,0.273408 -1.8602667,0.450641 -3.1462413,0.450641 -4.0200447,0 -6.6126026,-2.58294 -6.6126026,-6.5919936 0,-3.9073845 2.6392706,-6.7060281 6.3117175,-6.7060281 3.7576294,0 6.3309524,2.3191509 6.3309524,5.7099472 0,2.3109075 -0.761143,3.8043415 -1.945449,3.8043415 -0.675961,0 -1.060654,-0.384693 -1.060654,-1.0441672 V 4.3055707 H 9.8973621 V 5.4514071 H 9.7462326 C 9.380774,4.6339338 8.5358226,4.126963 7.5479853,4.126963 c -1.9234663,0 -3.267145,1.5964771 -3.267145,3.8785326 0,2.3864724 1.3148266,3.9925664 3.268519,3.9925664 1.0991235,0 1.9440749,-0.535823 2.3480028,-1.493434 h 0.1511299 c 0.111286,0.920516 0.965854,1.577242 2.064978,1.577242 2.159778,0 3.530935,-1.944075 3.530935,-5.0051339 z M 5.7838918,8.042591 c 0,-1.6445637 0.7419085,-2.6200359 2.0004051,-2.6200359 1.2777312,0 2.0938305,1.0139415 2.0938305,2.6200359 0,1.6060945 -0.8257166,2.629653 -2.1130651,2.629653 -1.2296446,0 -1.9811705,-0.9960804 -1.9811705,-2.629653 z" fill="#fff" style="stroke-width:1.3739" /></svg>
