<?xml version="1.0" encoding="UTF-8"?>
<svg id="Camada_3" data-name="Camada 3" xmlns="http://www.w3.org/2000/svg" viewBox="0 0 150 150">
  <defs>
    <style>
      .cls-1 {
        fill: #fff;
      }
    </style>
  </defs>
  <g id="Cheats">
    <g id="By_Maxihplay" data-name="By Maxihplay">
      <path class="cls-1" d="m105.8,87.35c-3.75-3.8-8.31-5.73-13.6-5.73-6.17,0-11.91,3.15-17.2,9.6-5.37-6.37-11.02-9.6-17.2-9.6-5.29,0-9.85,1.93-13.6,5.73-3.75,3.8-5.66,8.38-5.66,13.75s1.91,9.96,5.66,13.75c3.75,3.8,8.31,5.73,13.6,5.73,6.17,0,11.91-3.15,17.2-9.6,5.37,6.37,11.02,9.6,17.2,9.6,5.29,0,9.85-1.93,13.6-5.73,3.75-3.8,5.66-8.38,5.66-13.75s-1.91-9.96-5.66-13.75Zm-47.92,21.56l.07-.07c-2.28,0-4.26-.72-5.88-2.29-1.62-1.58-2.43-3.37-2.43-5.52,0-1.36.37-2.65,1.1-3.87.73-1.22,1.76-2.22,3.01-2.87,1.25-.64,2.57-1,4.12-1,3.53,0,7.13,2.58,10.66,7.81-3.53,5.23-7.13,7.81-10.66,7.81Zm42.26-5.37c-.22.86-.66,1.58-1.18,2.22-.51.64-1.18,1.29-1.84,1.72-.66.43-1.4.86-2.28,1.07-.88.21-1.76.36-2.65.36-3.53,0-7.13-2.58-10.66-7.81,3.53-5.23,7.13-7.81,10.66-7.81,2.28,0,4.26.72,5.88,2.29,1.62,1.58,2.43,3.37,2.43,5.52,0,.79-.15,1.58-.37,2.44Z"/>
      <path class="cls-1" d="m51.73,69.93h-15V25.8c0-10.83,9.16-19.64,20.41-19.64h35.72c11.25,0,20.41,8.81,20.41,19.64v22.5h-15v-22.5c0-2.39-2.48-4.4-5.41-4.4h-35.72c-2.93,0-5.41,2.02-5.41,4.4v44.13Z"/>
      <path class="cls-1" d="m115.49,143.67H34.51c-9.8,0-17.78-7.98-17.78-17.78v-49.56c0-9.8,7.98-17.78,17.78-17.78h80.98c9.8,0,17.78,7.98,17.78,17.78v49.56c0,9.8-7.98,17.78-17.78,17.78ZM34.51,70.55c-3.19,0-5.78,2.59-5.78,5.78v49.56c0,3.19,2.59,5.78,5.78,5.78h80.98c3.19,0,5.78-2.59,5.78-5.78v-49.56c0-3.19-2.59-5.78-5.78-5.78H34.51Z"/>
    </g>
  </g>
</svg>