<?xml version="1.0" encoding="UTF-8"?><svg id="DJ_Hero_-_Pcsx2" xmlns="http://www.w3.org/2000/svg" viewBox="0 0 150 150"><defs><style>.cls-1{fill:#fff;}.cls-2,.cls-3,.cls-4{fill:none;}.cls-3{stroke-width:12px;}.cls-3,.cls-4{stroke:#fff;stroke-miterlimit:10;}.cls-4{stroke-width:9px;}</style></defs><g id="tela"><rect class="cls-2" width="150" height="150"/></g><g id="By_Maxihplay"><rect id="mesa" class="cls-3" x="12.77" y="38.27" width="124.46" height="73.47" rx="5.5" ry="5.5"/><g id="Disco"><path class="cls-1" d="M99.8,81.63c-3.66,0-6.63-2.97-6.63-6.63s2.97-6.63,6.63-6.63,6.63,2.97,6.63,6.63-2.97,6.63-6.63,6.63Z"/><circle class="cls-4" cx="99.8" cy="75" r="23.7"/></g><g id="botoes"><path class="cls-1" d="M58.86,87.54h-26.82c-2.49,0-4.5-2.01-4.5-4.5s2.01-4.5,4.5-4.5h26.82c2.49,0,4.5,2.01,4.5,4.5s-2.01,4.5-4.5,4.5Z"/><path class="cls-1" d="M50.85,92.31c-2.49,0-4.5-2.01-4.5-4.5v-9.53c0-2.49,2.01-4.5,4.5-4.5s4.5,2.01,4.5,4.5v9.53c0,2.49-2.01,4.5-4.5,4.5Z"/><path class="cls-1" d="M58.14,68.07c-2.86,0-5.19-2.33-5.19-5.19s2.33-5.19,5.19-5.19,5.19,2.33,5.19,5.19-2.33,5.19-5.19,5.19Z"/><path class="cls-1" d="M32.59,68.07c-2.86,0-5.19-2.33-5.19-5.19s2.33-5.19,5.19-5.19,5.19,2.33,5.19,5.19-2.33,5.19-5.19,5.19Z"/></g></g></svg>