<?xml version="1.0" encoding="UTF-8"?><svg id="emulation_Pcsx2_w" xmlns="http://www.w3.org/2000/svg" viewBox="0 0 513 512"><defs><style>.cls-1{fill:#fff;}.cls-2{fill:none;}</style></defs><rect class="cls-2" width="513" height="512"/><path id="Ps2_-_By_Kam" class="cls-1" d="M451.22,440.88l-76.33-77.28V116.18h-88.14V53.64H138.51V362.17l-77.72,78.69c-2.92,2.96-3.78,7.35-2.18,11.19,1.6,3.84,5.33,6.32,9.49,6.32h81.81c.07,0,.13-.02,.2-.02h211.39c.19,.01,.39,.03,.59,.03h81.81c4.16,0,7.89-2.48,9.49-6.32,1.6-3.84,.75-8.23-2.17-11.19Zm-199.48-17.52h-78.24V88.64h78.24V423.36Zm88.15,0h-53.14V151.18h53.14V423.36Z"/></svg>