<?xml version="1.0" encoding="utf-8"?>
<!-- Generator: Adobe Illustrator 26.5.0, SVG Export Plug-In . SVG Version: 6.00 Build 0)  -->
<svg version="1.1" id="PCSX2_-_Load_w" xmlns="http://www.w3.org/2000/svg" xmlns:xlink="http://www.w3.org/1999/xlink" x="0px"
	 y="0px" viewBox="0 0 384 384" style="enable-background:new 0 0 384 384;" xml:space="preserve">
<style type="text/css">
	.st0{fill:#FFFFFF;stroke:#FFFFFF;stroke-width:15;}
	.st1{fill:none;stroke:#FFFFFF;stroke-width:45;}
	.st2{fill:none;stroke:#FFFFFF;stroke-width:30;stroke-linecap:round;stroke-linejoin:round;}
	.st3{fill:none;stroke:#FFFFFF;stroke-width:28;}
</style>
<g id="By_maxihplay">
	<g id="seta">
		<path class="st0" d="M242.4,279.2l-48,48c-1.9,1.9-5,1.9-6.9,0l-48-48c-3.1-3.1-0.9-8.3,3.4-8.3H239
			C243.3,270.9,245.5,276.2,242.4,279.2L242.4,279.2z"/>
		<line class="st1" x1="190.9" y1="205.3" x2="190.9" y2="294.1"/>
	</g>
	<g id="load">
		<path class="st2" d="M112.5,321.7c-22.9-0.1-46.2-0.1-48.2-0.1c-8.3,0.2-8.9-10-8.9-10V65.5c0,0,1.5-7.5,8.9-8.9
			c7.4-1.4,216,0,216,0l48,46.8l0.3,72.9c-0.1,72.4-0.3,124.1-0.3,133.1c0,1.6,0.1,6.3-3,9.4c-2.7,2.6-8.3,2.9-8.3,2.9l-47.6-0.4"/>
		<path id="Forma_2" class="st3" d="M120.7,56.6l1.1,89.1c0,0-1.8,2.7,5.6,3.3c7.3,0.6,122.5,1.1,122.5,1.1c2.2-0.9,3.6-3.2,3.3-5.6
			c-0.1-4.4,0-89.1,0-89.1"/>
	</g>
</g>
</svg>
