<svg width="96" height="96"><path fill-rule="evenodd" clip-rule="evenodd" fill="#fff" style="stroke-width:0.983335" d="M 48.039825,0.79974519 C 21.475043,0.79974519 0,22.433105 0,49.19652 c 0,21.393426 13.7598,39.502515 32.84829,45.91189 2.386553,0.481834 3.260737,-1.041352 3.260737,-2.322637 0,-1.121984 -0.07867,-4.967806 -0.07867,-8.974894 -13.363516,2.885104 -16.146353,-5.769223 -16.146353,-5.769223 -2.147602,-5.608941 -5.329673,-7.050509 -5.329673,-7.050509 -4.373872,-2.964754 0.318601,-2.964754 0.318601,-2.964754 4.851772,0.320567 7.397625,4.967806 7.397625,4.967806 4.294222,7.371076 11.213947,5.288373 13.997767,4.006105 0.397268,-3.125037 1.670686,-5.288373 3.022771,-6.490008 -10.658363,-1.121984 -21.87231,-5.288373 -21.87231,-23.878312 0,-5.288373 1.907669,-9.615045 4.930439,-12.980016 -0.476917,-1.201635 -2.147602,-6.170424 0.477901,-12.820715 0,0 4.056255,-1.282269 13.202249,4.967806 a 46.187223,46.187223 0 0 1 12.010448,-1.602836 c 4.056255,0 8.191177,0.561484 12.009465,1.602836 9.146977,-6.250075 13.203232,-4.967806 13.203232,-4.967806 2.625504,6.650291 0.953835,11.61908 0.476918,12.820715 3.10242,3.364971 4.931422,7.691643 4.931422,12.980016 0,18.589939 -11.213947,22.675694 -21.95196,23.878312 1.750336,1.522202 3.260738,4.406322 3.260738,8.973911 0,6.490008 -0.07867,11.698731 -0.07867,13.300583 0,1.282268 0.875168,2.805454 3.260737,2.324603 C 82.2402,88.698052 96,70.589946 96,49.19652 96.078667,22.433105 74.524957,0.79974519 48.039825,0.79974519 Z"/></svg>
