<?xml version="1.0" encoding="UTF-8" standalone="no"?>
<svg
   width="96"
   height="96"
   version="1.1"
   id="svg4"
   sodipodi:docname="github.svg"
   inkscape:version="1.2.2 (b0a8486541, 2022-12-01)"
   xmlns:inkscape="http://www.inkscape.org/namespaces/inkscape"
   xmlns:sodipodi="http://sodipodi.sourceforge.net/DTD/sodipodi-0.dtd"
   xmlns="http://www.w3.org/2000/svg"
   xmlns:svg="http://www.w3.org/2000/svg">
  <defs
     id="defs8" />
  <sodipodi:namedview
     id="namedview6"
     pagecolor="#505050"
     bordercolor="#ffffff"
     borderopacity="1"
     inkscape:showpageshadow="0"
     inkscape:pageopacity="0"
     inkscape:pagecheckerboard="1"
     inkscape:deskcolor="#505050"
     showgrid="false"
     inkscape:zoom="4.9166667"
     inkscape:cx="68.033898"
     inkscape:cy="58.677966"
     inkscape:window-width="1920"
     inkscape:window-height="956"
     inkscape:window-x="0"
     inkscape:window-y="42"
     inkscape:window-maximized="1"
     inkscape:current-layer="svg4" />
  <path
     fill-rule="evenodd"
     clip-rule="evenodd"
     d="M 48.039825,0.79974519 C 21.475043,0.79974519 0,22.433105 0,49.19652 c 0,21.393426 13.7598,39.502515 32.84829,45.91189 2.386553,0.481834 3.260737,-1.041352 3.260737,-2.322637 0,-1.121984 -0.07867,-4.967806 -0.07867,-8.974894 -13.363516,2.885104 -16.146353,-5.769223 -16.146353,-5.769223 -2.147602,-5.608941 -5.329673,-7.050509 -5.329673,-7.050509 -4.373872,-2.964754 0.318601,-2.964754 0.318601,-2.964754 4.851772,0.320567 7.397625,4.967806 7.397625,4.967806 4.294222,7.371076 11.213947,5.288373 13.997767,4.006105 0.397268,-3.125037 1.670686,-5.288373 3.022771,-6.490008 -10.658363,-1.121984 -21.87231,-5.288373 -21.87231,-23.878312 0,-5.288373 1.907669,-9.615045 4.930439,-12.980016 -0.476917,-1.201635 -2.147602,-6.170424 0.477901,-12.820715 0,0 4.056255,-1.282269 13.202249,4.967806 a 46.187223,46.187223 0 0 1 12.010448,-1.602836 c 4.056255,0 8.191177,0.561484 12.009465,1.602836 9.146977,-6.250075 13.203232,-4.967806 13.203232,-4.967806 2.625504,6.650291 0.953835,11.61908 0.476918,12.820715 3.10242,3.364971 4.931422,7.691643 4.931422,12.980016 0,18.589939 -11.213947,22.675694 -21.95196,23.878312 1.750336,1.522202 3.260738,4.406322 3.260738,8.973911 0,6.490008 -0.07867,11.698731 -0.07867,13.300583 0,1.282268 0.875168,2.805454 3.260737,2.324603 C 82.2402,88.698052 96,70.589946 96,49.19652 96.078667,22.433105 74.524957,0.79974519 48.039825,0.79974519 Z"
     fill="#ffffff"
     id="path2"
     style="stroke-width:0.983335" />
</svg>
