<svg enable-background="new 0 0 150 150" viewBox="0 0 150 150" xmlns="http://www.w3.org/2000/svg"><path d="m0 0h150v150h-150z" fill="none"/><g stroke="#fff" stroke-miterlimit="10"><path d="m19.6 24.7h110.8c.5 0 .9.4.9.9v98.9c0 .5-.4.8-.9.8h-110.8c-.5 0-.9-.4-.9-.8v-99c-0-.4.4-.8.9-.8z" fill="none" stroke-width="12"/><path d="m87.9 103.4h41.3v21.1h-41.3z" fill="#fff"/><path d="m108.1 29.1h17.7v17.7h-17.7z" fill="#fff"/><path d="m89.6 47.8h17.7v17.7h-17.7z" fill="#fff"/><path d="m70.8 66.5h17.7v17.7h-17.7z" fill="#fff"/><path d="m52.4 84.9h17.7v17.7h-17.7z" fill="#fff"/><path d="m89.6 84.9h17.7v17.7h-17.7z" fill="#fff"/><path d="m108.1 66.5h17.7v17.7h-17.7z" fill="#fff"/><path d="m34 103.4h17.7v17.7h-17.7z" fill="#fff"/><path d="m70.8 103.4h17.7v17.7h-17.7z" fill="#fff"/><path d="m108.1 80.8h21.1v22.6h-21.1z" fill="#fff"/></g></svg>