<?xml version="1.0" encoding="UTF-8"?><svg id="Guitar_-_Pcsx2" xmlns="http://www.w3.org/2000/svg" viewBox="0 0 150 150"><defs><style>.cls-1,.cls-2,.cls-3,.cls-4{stroke:#fff;stroke-miterlimit:10;}.cls-1,.cls-2,.cls-4{stroke-linecap:round;}.cls-1,.cls-5,.cls-3,.cls-4{fill:none;}.cls-1,.cls-3{stroke-width:12px;}.cls-2{fill:#fff;stroke-width:9px;}.cls-4{stroke-width:14px;}</style></defs><g id="Tela"><rect class="cls-5" width="150" height="150"/></g><g id="By_Maxihplay"><g id="corpo"><path class="cls-3" d="M60.13,44.79c5.86,17.42,10.94,31.98,11.6,33.87,.05,.14,.13,.25,.25,.33,1.31,.88,9.63,6.44,21.87,14,1.02,.63,.97,2.12-.09,2.68-4.92,2.6-11.14,6.91-15.8,9.95-7.88,4.48-9.07,19.79-11.45,32.44-.05,.29-.29,.51-.58,.55-23.18,3.32-36.09,3.15-51.91-19.23-7.96-11.27-6.42-28.62,5.6-32.33,28.49-8.8,21.2-8.38,36.22-42.37,.25-.56,.8-.93,1.41-.94l1.36-.03c.69-.01,1.3,.42,1.52,1.07Z"/><line class="cls-1" x1="58.04" y1="92.64" x2="43.61" y2="108.11"/></g><g id="cabeca"><line class="cls-4" x1="73.68" y1="76.62" x2="114.49" y2="31.62"/><polygon class="cls-2" points="116.64 35.87 110.2 29.84 109.3 26.73 126.2 9.83 140.63 12.69 140.91 13.19 119.41 36.19 116.64 35.87"/></g></g></svg>