<?xml version="1.0" encoding="UTF-8"?><svg id="interface" xmlns="http://www.w3.org/2000/svg" viewBox="0 0 24 24"><defs><style>.cls-1{fill:#fff;}.cls-2{stroke-width:1.31px;}.cls-2,.cls-3,.cls-4{fill:none;}.cls-2,.cls-4{stroke:#fff;stroke-linecap:round;stroke-linejoin:round;}.cls-4{stroke-width:1.26px;}</style></defs><g id="tela"><g><path class="cls-3" d="M0,0H24V24H0V0Z"/><path class="cls-1" d="M2,4c0-.6,.5-1,1-1H21c.5,0,1,.4,1,1v14c0,.6-.5,1-1,1H3c-.5,0-1-.4-1-1h0V4Zm2,1v12H20V5M5,20h14v2H5v-2Z"/></g></g><g id="guias"><path id="path858" class="cls-2" d="M6.7,8.5h6.5"/><circle id="path1155" class="cls-4" cx="15.3" cy="8.4" r="2"/><circle id="path1155-3" class="cls-4" cx="9" cy="13.7" r="2"/><path id="path1211" class="cls-4" d="M17.3,13.7h-6.3"/></g></svg>