<?xml version="1.0" encoding="UTF-8"?>
<svg id="Jogcon_-_PCSX2" data-name="Jogcon - PCSX2" xmlns="http://www.w3.org/2000/svg" viewBox="0 0 150 150">
  <defs>
    <style>
      .cls-1 {
        fill: #fff;
      }

      .cls-2 {
        fill: none;
        stroke: #fff;
        stroke-linecap: round;
        stroke-linejoin: round;
        stroke-width: 12px;
      }
    </style>
  </defs>
  <g id="By_maxihplay" data-name="By @maxihplay">
    <g>
      <path class="cls-2" d="m126.03,63.22c3.43-3.42,5.55-8.15,5.55-13.38,0-10.44-8.47-18.91-18.91-18.91-6.44,0-12.12,3.22-15.54,8.13"/>
      <path class="cls-2" d="m24.65,63.22c-3.43-3.42-4.52-8.15-4.52-13.38,0-10.44,8.47-18.91,18.91-18.91,6.44,0,12.12,3.22,15.54,8.13"/>
      <g>
        <path class="cls-1" d="m130.41,61.42c-1.1-2.72-4.43-4.12-7.43-3.12-3.01.99-4.55,4-3.46,6.72,2.66,6.58,9.26,26.04,7.91,36.9-.78,6.27-2.83,10.41-4.61,12.93-1.43,2.03-4.12,2.88-6.35,1.79-.01,0-.03-.01-.04-.02-.56-.28-2.05-1.02-3.65-4.34-2.98-6.2-1.89-19.72-1.2-24.16l.04-.26c.51-3.24-1.32-6.4-4.54-7.86l-1.15-.53c-1.81-.83-5.55-1.26-7.4-.87.23,1.26,0,3.43,0,4.75,0,3.3-.69,4.83-2.04,7.68,1.01-.44,3.25.21,3.51.11-.92,7.22-1.22,18.32,2.14,25.31,2.13,4.44,4.98,7.5,8.69,9.35,2.71,1.35,5.83,2.04,9.1,2.04,1.52,0,3.06-.15,4.61-.45.78-.15,1.52-.45,2.17-.88,1.04-.68,10.2-7.1,12.23-23.43,1.93-15.54-8.12-40.61-8.55-41.67Z"/>
        <path class="cls-1" d="m52.83,90.71c-1.19-2.71-2.94-5.14-2.94-8.24,0-1.21.68-2.7.87-3.87-1.34-.25-4.31.36-5.68.74l-1.82.51c-3.97,1.1-6.44,4.6-5.87,8.32l.02.15c.75,4.88,2.74,17.84-.2,23.97-1.6,3.32-3.09,4.06-3.65,4.34-.01,0-.03.01-.04.02-2.23,1.09-4.91.24-6.33-1.79-1.77-2.52-3.85-6.69-4.62-12.93-1.35-10.86,5.26-30.32,7.91-36.9,1.1-2.72-.45-5.73-3.45-6.72-3.01-1-6.33.4-7.43,3.12-.43,1.06-10.47,26.13-8.55,41.67,2.02,16.33,11.19,22.75,12.23,23.43.65.42,1.39.72,2.17.88,4.88.95,9.74.39,13.7-1.59,3.71-1.85,6.56-4.91,8.69-9.35,3.23-6.71,2.84-16.24,1.66-25.32.38.12,2.88-.55,3.33-.43Z"/>
      </g>
      <circle class="cls-2" cx="75" cy="79.2" r="20.58"/>
      <path class="cls-2" d="m55.23,37.19c2.88-8.45,10.44-14.38,19.06-14.98,9.65-.68,18.83,5.45,22.14,14.98"/>
    </g>
  </g>
</svg>