<?xml version="1.0" encoding="UTF-8"?><svg id="Keyboard_-_Pcsx2" xmlns="http://www.w3.org/2000/svg" viewBox="0 0 150 150"><defs><style>.cls-1,.cls-2{fill:#fff;}.cls-2{stroke-width:9px;}.cls-2,.cls-3{stroke:#fff;stroke-miterlimit:10;}.cls-4{opacity:.85;}.cls-4,.cls-3{fill:none;}.cls-3{stroke-width:12px;}</style></defs><g id="tela"><path id="tela-2" class="cls-4" d="M0,0H150V150H0V0Z"/></g><g id="By_Maxihplay"><g id="teclas"><path id="espaco" class="cls-1" d="M102.85,102.7H47.15c-1.64,0-2.96-1.51-2.96-3.37v-5.75c0-1.86,1.33-3.37,2.96-3.37h55.7c1.64,0,2.96,1.51,2.96,3.37v5.75c0,1.86-1.33,3.37-2.96,3.37Z"/><g id="baixo"><rect class="cls-2" x="30.55" y="73.44" width="6.5" height="6.5" rx=".19" ry=".19"/><rect class="cls-2" x="51.11" y="73.54" width="6.5" height="6.5" rx=".19" ry=".19"/><rect class="cls-2" x="71.68" y="73.34" width="6.5" height="6.5" rx=".19" ry=".19"/><rect class="cls-2" x="92.25" y="73.63" width="6.5" height="6.5" rx=".19" ry=".19"/><rect class="cls-2" x="112.95" y="73.78" width="6.5" height="6.5" rx=".19" ry=".19"/></g><g id="cima"><rect class="cls-2" x="30.55" y="52.39" width="6.5" height="6.5" rx=".19" ry=".19"/><rect class="cls-2" x="51.11" y="52.49" width="6.5" height="6.5" rx=".19" ry=".19"/><rect class="cls-2" x="71.68" y="52.3" width="6.5" height="6.5" rx=".19" ry=".19"/><rect class="cls-2" x="92.25" y="52.59" width="6.5" height="6.5" rx=".19" ry=".19"/><rect class="cls-2" x="112.95" y="52.74" width="6.5" height="6.5" rx=".19" ry=".19"/></g></g><rect id="externo" class="cls-3" x="12.58" y="35.55" width="124.83" height="78.9" rx="12" ry="12"/></g></svg>