<?xml version="1.0" encoding="utf-8"?>
<!-- Generator: Adobe Illustrator 27.4.1, SVG Export Plug-In . SVG Version: 6.00 Build 0)  -->
<svg version="1.1" id="memory_card_-_PCSX2" xmlns="http://www.w3.org/2000/svg" xmlns:xlink="http://www.w3.org/1999/xlink"
	 x="0px" y="0px" viewBox="0 0 150 150" style="enable-background:new 0 0 150 150;" xml:space="preserve">
<style type="text/css">
	.st0{fill:#FFFFFF;}
	.st1{fill:#FFFFFF;stroke:#FFFFFF;stroke-width:9;}
</style>
<g id="by_Maxihplay">
	<g id="seta">
		<polygon class="st0" points="58,43.3 92,43.3 75.8,25.5 58,43.3 		"/>
	</g>
	<g id="Formato-2">
		<path class="st0" d="M129.3,4.7v121.5c0,10.5-8.6,19.1-19.1,19.1H39.8c-10.5,0-19.1-8.6-19.1-19.1V4.7L129.3,4.7L129.3,4.7
			L129.3,4.7L129.3,4.7z M32.7,126.2c0,3.9,4.2,7.1,8.1,7.1h68.4c3.9,0,8.1-3.2,8.1-7.1V16.7l-84.6,0L32.7,126.2
			C32.7,126.2,32.7,126.2,32.7,126.2z"/>
	</g>
	<path id="etiqueta-2" class="st1" d="M53.8,90.7h42.4c2.2,0,4,1.8,4,3.9v17.7c0,2.2-1.8,3.9-4,3.9H53.8c-2.2,0-4-1.8-4-3.9V94.7
		C49.8,92.5,51.6,90.7,53.8,90.7z"/>
</g>
</svg>
