<?xml version="1.0" encoding="UTF-8"?>
<svg id="memory_card_-_PCSX2" data-name="memory card - PCSX2" xmlns="http://www.w3.org/2000/svg" viewBox="0 0 150 150">
  <defs>
    <style>
      .cls-1, .cls-2, .cls-3 {
        fill: #fff;
      }

      .cls-2 {
        fill-rule: evenodd;
      }

      .cls-3 {
        stroke: #fff;
        stroke-width: 9px;
      }
    </style>
  </defs>
  <g id="by_Maxihplay" data-name="by Maxihplay">
    <g id="seta">
      <polygon class="cls-2" points="111.66 67.01 119.89 75.72 111.66 83.64 111.66 67.01"/>
      <polygon class="cls-1" points="106.66 57.97 106.66 92.03 124.51 75.8 106.66 57.97 106.66 57.97"/>
    </g>
    <g id="Formato-2">
      <path class="cls-1" d="m145.26,129.28H23.78c-10.53,0-19.09-8.56-19.09-19.09V39.8c0-10.53,8.56-19.09,19.09-19.09h121.53l-.05,108.59h0v-.02h0ZM23.78,33.71c-3.91,0-7.09,3.18-7.09,7.09v68.4c0,3.91,3.18,7.09,7.09,7.09h109.48l.04-82.59H23.78Z"/>
    </g>
    <path id="etiqueta-2" class="cls-3" d="m59.28,53.8v42.4c0,2.23-1.76,4.04-3.94,4.04h-17.68c-2.17,0-3.94-1.81-3.94-4.04h0v-42.4c0-2.23,1.76-4.04,3.94-4.04h17.68c2.17,0,3.94,1.81,3.94,4.04Z"/>
  </g>
</svg>