<?xml version="1.0" encoding="UTF-8"?><svg id="Duckstation_-_Negcon" xmlns="http://www.w3.org/2000/svg" viewBox="0 0 150 150"><defs><style>.cls-1{stroke-linecap:round;}.cls-1,.cls-2,.cls-3{fill:none;}.cls-1,.cls-3{stroke:#fff;stroke-miterlimit:10;stroke-width:12px;}</style></defs><g id="tela"><rect id="tela-2" class="cls-2" width="150" height="150"/></g><g id="By_Maxihplay"><g id="control"><g id="B"><path class="cls-3" d="M91.9,87.8h14l20.2,21.1c3.6,2.5,8.5-.2,8.4-4.6l-3.9-35.4c0-10.3-8.3-18.6-18.6-18.6h-20.1v37.5h0Z"/><line class="cls-3" x1="83.7" y1="40.1" x2="83.5" y2="99.1"/><polyline class="cls-1" points="101.6 46.2 116.7 46.2 126.1 52"/></g><g id="A"><path class="cls-3" d="M58.1,87.8h-14l-20.2,21.1c-3.6,2.5-8.5-.2-8.4-4.6l3.9-35.4c0-10.3,8.3-18.6,18.6-18.6h20.1v37.5h0Z"/><line class="cls-3" x1="66.3" y1="40.1" x2="66.5" y2="99.1"/><polyline class="cls-1" points="48.1 46.2 33 46.2 23.6 52"/></g></g></g></svg>