<?xml version="1.0" encoding="UTF-8"?>
<svg width="800px" height="800px" fill="none" version="1.1" viewBox="0 0 24 24" xmlns="http://www.w3.org/2000/svg">
 <path d="m4.5 11.393c-4e-5 1.7387-1e-4 5.3708 2e-5 7.8056 1.3e-4 2.6923 4.1637 3.3012 7.5 3.3012 3.3363 0 7.4999-0.6089 7.4999-3.3012v-7.8056c0-0.5523-0.4477-0.9975-1-0.9975h-13c-0.55227 0-0.99998 0.4452-0.99999 0.9975zm6 4.6096c0 0.476 0.2069 0.9037 0.5357 1.198v1.5521c0 0.5522 0.4477 1 1 1h0.1429c0.5523 0 1-0.4478 1-1v-1.5521c0.3288-0.2943 0.5357-0.722 0.5357-1.198 0-0.8876-0.7195-1.6071-1.6071-1.6071-0.8877 0-1.6072 0.7195-1.6072 1.6071z" clip-rule="evenodd" fill="#fff" fill-rule="evenodd"/>
 <path d="m8.1816 10.703s4e-5 -2.5676 0-4.1081c-4e-5 -1.8489 1.527-3.5946 3.8182-3.5946 2.2912 0 3.8181 1.7457 3.8181 3.5946" stroke="#fff" stroke-linecap="round" stroke-linejoin="round" stroke-width="2"/>
</svg>
