<?xml version="1.0" encoding="UTF-8"?>
<svg id="pop_icon" data-name="pop icon" xmlns="http://www.w3.org/2000/svg" viewBox="0 0 150 150">
  <defs>
    <style>
      .cls-1 {
        fill: #fff;
      }
    </style>
  </defs>
  <g id="by_maxihplay" data-name="by maxihplay">
    <path class="cls-1" d="m146.87,100.43l-.05-.33-15.35-57.11c-1.2-6.7-6.93-9.52-13.77-9.52H32.3c-6.84,0-12.57,2.82-13.77,9.52L3.26,99.78l-.14.66c-.61,4.04.56,8.13,3.22,11.22,2.66,3.09,6.53,4.87,10.61,4.87h116.08c4.08,0,7.95-1.78,10.61-4.87,2.66-3.1,3.84-7.19,3.22-11.22h0ZM54.53,44.05c.72-2.55,2.75-3.39,4.82-2.86s3.25,2.68,2.66,4.78c-.83,2.93-6.23,7.85-6.23,7.85,0,0-2.08-6.83-1.25-9.77Zm-13.1,4.99c.83-2.93,6.23-7.85,6.23-7.85,0,0,2.08,6.83,1.25,9.77-.72,2.55-2.75,3.39-4.82,2.86s-3.25-2.68-2.66-4.78Zm-17.76,56.24c-5.52,0-10.01-4.49-10.01-10.01s4.49-10.01,10.01-10.01,10.01,4.49,10.01,10.01-4.49,10.01-10.01,10.01Zm2.83-34.83c0-5.52,4.49-10.01,10.01-10.01s10.01,4.49,10.01,10.01-4.49,10.01-10.01,10.01-10.01-4.49-10.01-10.01Zm22.84,34.83c-5.52,0-10.01-4.49-10.01-10.01s4.49-10.01,10.01-10.01,10.01,4.49,10.01,10.01-4.49,10.01-10.01,10.01Zm2.83-34.83c0-5.52,4.49-10.01,10.01-10.01s10.01,4.49,10.01,10.01-4.49,10.01-10.01,10.01-10.01-4.49-10.01-10.01Zm22.84,34.83c-5.52,0-10.01-4.49-10.01-10.01s4.49-10.01,10.01-10.01,10.01,4.49,10.01,10.01-4.49,10.01-10.01,10.01Zm2.83-34.83c0-5.52,4.49-10.01,10.01-10.01s10.01,4.49,10.01,10.01-4.49,10.01-10.01,10.01-10.01-4.49-10.01-10.01Zm22.84,34.83c-5.52,0-10.01-4.49-10.01-10.01s4.49-10.01,10.01-10.01,10.01,4.49,10.01,10.01-4.49,10.01-10.01,10.01Zm2.83-34.83c0-5.52,4.49-10.01,10.01-10.01s10.01,4.49,10.01,10.01-4.49,10.01-10.01,10.01-10.01-4.49-10.01-10.01Zm22.84,34.83c-5.52,0-10.01-4.49-10.01-10.01s4.49-10.01,10.01-10.01,10.01,4.49,10.01,10.01-4.49,10.01-10.01,10.01Z"/>
  </g>
</svg>