<!DOCTYPE svg PUBLIC "-//W3C//DTD SVG 1.1//EN" "http://www.w3.org/Graphics/SVG/1.1/DTD/svg11.dtd">
<!-- Uploaded to: SVG Repo, www.svgrepo.com, Transformed by: SVG Repo Mixer Tools -->
<svg width="256px" height="256px" viewBox="0 0 24 24" fill="none" xmlns="http://www.w3.org/2000/svg">
<g id="SVGRepo_bgCarrier" stroke-width="0"/>
<g id="SVGRepo_tracerCarrier" stroke-linecap="round" stroke-linejoin="round"/>
<g id="SVGRepo_iconCarrier"> <path d="M9.5 22H14.5M8 2H16M12 5V2M4 12H20M17 19L18.5 22M7 19L5.5 22M8.5 15.5H8.51M15.5 15.5H15.51M8.8 19H15.2C16.8802 19 17.7202 19 18.362 18.673C18.9265 18.3854 19.3854 17.9265 19.673 17.362C20 16.7202 20 15.8802 20 14.2V9.8C20 8.11984 20 7.27976 19.673 6.63803C19.3854 6.07354 18.9265 5.6146 18.362 5.32698C17.7202 5 16.8802 5 15.2 5H8.8C7.11984 5 6.27976 5 5.63803 5.32698C5.07354 5.6146 4.6146 6.07354 4.32698 6.63803C4 7.27976 4 8.11984 4 9.8V14.2C4 15.8802 4 16.7202 4.32698 17.362C4.6146 17.9265 5.07354 18.3854 5.63803 18.673C6.27976 19 7.11984 19 8.8 19ZM9 15.5C9 15.7761 8.77614 16 8.5 16C8.22386 16 8 15.7761 8 15.5C8 15.2239 8.22386 15 8.5 15C8.77614 15 9 15.2239 9 15.5ZM16 15.5C16 15.7761 15.7761 16 15.5 16C15.2239 16 15 15.7761 15 15.5C15 15.2239 15.2239 15 15.5 15C15.7761 15 16 15.2239 16 15.5Z" stroke="#ffffff" stroke-width="2" stroke-linecap="round" stroke-linejoin="round"/> </g>
</svg>