<?xml version="1.0" encoding="UTF-8"?>
<svg id="Alerta_-_PCSX2" data-name="Alerta - PCSX2" xmlns="http://www.w3.org/2000/svg" viewBox="0 0 150 150">
  <defs>
    <style>
      .cls-1 {
        fill: #fff;
      }

      .cls-2 {
        fill: none;
        stroke: #fff;
        stroke-linecap: round;
        stroke-miterlimit: 10;
        stroke-width: 12px;
      }
    </style>
  </defs>
  <g id="Alerta">
    <path id="tri" class="cls-2" d="m72.16,20.41L14.16,120.87c-1.26,2.19.32,4.92,2.84,4.92h115.99c2.52,0,4.1-2.73,2.84-4.92L77.84,20.41c-1.26-2.19-4.42-2.19-5.68,0Z"/>
    <path id="bol" class="cls-1" d="m75,114.39c-3.89,0-8.07-3.56-8.07-7.93s4.18-7.93,8.07-7.93,8.07,3.56,8.07,7.93-4.18,7.93-8.07,7.93Z"/>
    <path id="up" class="cls-1" d="m75,93.73c-3.64,0-7.61-2.95-7.61-6.6v-29.25c0-3.64,3.97-6.6,7.61-6.6s7.61,2.95,7.61,6.6v29.25c0,3.64-3.97,6.6-7.61,6.6Z"/>
  </g>
</svg>