<!DOCTYPE svg PUBLIC "-//W3C//DTD SVG 1.1//EN" "http://www.w3.org/Graphics/SVG/1.1/DTD/svg11.dtd">
<!-- Uploaded to: SVG Repo, www.svgrepo.com, Transformed by: SVG Repo Mixer Tools -->
<svg fill="#ffffff" height="800px" width="800px" version="1.1" id="Layer_1" xmlns="http://www.w3.org/2000/svg" xmlns:xlink="http://www.w3.org/1999/xlink" viewBox="0 0 512 512" xml:space="preserve">
<g id="SVGRepo_bgCarrier" stroke-width="0"/>
<g id="SVGRepo_tracerCarrier" stroke-linecap="round" stroke-linejoin="round"/>
<g id="SVGRepo_iconCarrier"> <g> <g> <path d="M320,43.755V21.333C320,9.557,310.464,0,298.667,0H21.333C9.536,0,0,9.557,0,21.333v469.333 C0,502.443,9.536,512,21.333,512h277.333c11.797,0,21.333-9.557,21.333-21.333v-22.421C427.648,457.515,512,366.443,512,256 S427.648,54.485,320,43.755z M277.333,64v128v128v128v21.333H42.667V42.667h234.667V64z M320,338.304v-45.376 c12.757-7.381,21.333-21.163,21.333-36.928s-8.576-29.547-21.333-36.928v-45.376c36.715,9.536,64,42.667,64,82.304 S356.715,328.768,320,338.304z"/> </g> </g> </g>
</svg>